<svg width="48" height="48" viewBox="0 0 48 48" fill="none" xmlns="http://www.w3.org/2000/svg">
<g clip-path="url(#clip0_5663_214)">
<mask id="mask0_5663_214" style="mask-type:alpha" maskUnits="userSpaceOnUse" x="0" y="0" width="48" height="48">
<path d="M24 48C37.2548 48 48 37.2548 48 24C48 10.7452 37.2548 0 24 0C10.7452 0 0 10.7452 0 24C0 37.2548 10.7452 48 24 48Z" fill="black"/>
</mask>
<g mask="url(#mask0_5663_214)">
<path d="M24 48C37.2548 48 48 37.2548 48 24C48 10.7452 37.2548 0 24 0C10.7452 0 0 10.7452 0 24C0 37.2548 10.7452 48 24 48Z" fill="#24262E"/>
<g clip-path="url(#clip1_5663_214)">
<path d="M19.84 37.4808C18.3594 36.1369 17.9272 33.3133 18.5441 31.2676C19.6136 32.5574 21.0955 32.9659 22.6305 33.1965C25.0002 33.5524 27.3275 33.4193 29.5288 32.3438C29.7806 32.2207 30.0134 32.057 30.2885 31.8911C30.4951 32.4862 30.5488 33.0869 30.4767 33.6983C30.3013 35.1874 29.555 36.3377 28.368 37.2096C27.8934 37.5584 27.3911 37.8702 26.9009 38.199C25.3949 39.2098 24.9875 40.3949 25.5534 42.1187C25.5668 42.161 25.5789 42.203 25.6093 42.3055C24.8404 41.9636 24.2787 41.4661 23.8508 40.8119C23.3987 40.1216 23.1837 39.3578 23.1724 38.5314C23.1667 38.1293 23.1667 37.7235 23.1123 37.3271C22.9793 36.3605 22.5223 35.9277 21.6614 35.9028C20.7779 35.8772 20.0791 36.4195 19.8937 37.2737C19.8796 37.3392 19.8591 37.4039 19.8385 37.4801L19.84 37.4808Z" fill="white"/>
<path d="M19.84 37.4808C18.3594 36.1369 17.9272 33.3133 18.5441 31.2676C19.6136 32.5574 21.0955 32.9659 22.6305 33.1965C25.0002 33.5524 27.3275 33.4193 29.5288 32.3438C29.7806 32.2207 30.0134 32.057 30.2885 31.8911C30.4951 32.4862 30.5488 33.0869 30.4767 33.6983C30.3013 35.1874 29.555 36.3377 28.368 37.2096C27.8934 37.5584 27.3911 37.8702 26.9009 38.199C25.3949 39.2098 24.9875 40.3949 25.5534 42.1187C25.5668 42.161 25.5789 42.203 25.6093 42.3055C24.8404 41.9636 24.2787 41.4661 23.8508 40.8119C23.3987 40.1216 23.1837 39.3578 23.1724 38.5314C23.1667 38.1293 23.1667 37.7235 23.1123 37.3271C22.9793 36.3605 22.5223 35.9277 21.6614 35.9028C20.7779 35.8772 20.0791 36.4195 19.8937 37.2737C19.8796 37.3392 19.8591 37.4039 19.8385 37.4801L19.84 37.4808Z" fill="url(#paint0_linear_5663_214)"/>
<path d="M11.3898 30.9273C11.3898 30.9273 15.7739 28.8066 20.1702 28.8066L23.4849 18.6202C23.609 18.1276 23.9713 17.7928 24.3804 17.7928C24.7895 17.7928 25.1518 18.1276 25.2759 18.6202L28.5906 28.8066C33.7974 28.8066 37.371 30.9273 37.371 30.9273C37.371 30.9273 29.9243 10.7832 29.9097 10.7428C29.696 10.1472 29.3352 9.76367 28.8487 9.76367H19.9128C19.4264 9.76367 19.0802 10.1472 18.8519 10.7428C18.8358 10.7825 11.3898 30.9273 11.3898 30.9273Z" fill="white"/>
</g>
</g>
</g>
<defs>
<linearGradient id="paint0_linear_5663_214" x1="18.2721" y1="42.3055" x2="32.5308" y2="35.5208" gradientUnits="userSpaceOnUse">
<stop stop-color="#D83333"/>
<stop offset="1" stop-color="#F041FF"/>
</linearGradient>
<clipPath id="clip0_5663_214">
<rect width="48" height="48" fill="white"/>
</clipPath>
<clipPath id="clip1_5663_214">
<rect width="26.0339" height="32.5424" fill="white" transform="translate(11.3898 9.76367)"/>
</clipPath>
</defs>
</svg>
