<svg width="48" height="48" viewBox="0 0 48 48" fill="none" xmlns="http://www.w3.org/2000/svg">
<g clip-path="url(#clip0_5663_53)">
<mask id="mask0_5663_53" style="mask-type:alpha" maskUnits="userSpaceOnUse" x="0" y="0" width="48" height="48">
<path d="M24 48C37.2548 48 48 37.2548 48 24C48 10.7452 37.2548 0 24 0C10.7452 0 0 10.7452 0 24C0 37.2548 10.7452 48 24 48Z" fill="black"/>
</mask>
<g mask="url(#mask0_5663_53)">
<path d="M24 48C37.2548 48 48 37.2548 48 24C48 10.7452 37.2548 0 24 0C10.7452 0 0 10.7452 0 24C0 37.2548 10.7452 48 24 48Z" fill="black"/>
<path d="M39.8688 42.0057L18.4379 14.4004H14.4V33.5924H17.6303V18.5027L37.3331 43.9591C38.2221 43.3641 39.0691 42.7111 39.8688 42.0057Z" fill="url(#paint0_linear_5663_53)"/>
<path d="M33.8667 14.4004H30.6667V33.6004H33.8667V14.4004Z" fill="url(#paint1_linear_5663_53)"/>
</g>
</g>
<defs>
<linearGradient id="paint0_linear_5663_53" x1="29.0667" y1="31.0671" x2="38.5333" y2="42.8004" gradientUnits="userSpaceOnUse">
<stop stop-color="white"/>
<stop offset="1" stop-color="white" stop-opacity="0"/>
</linearGradient>
<linearGradient id="paint1_linear_5663_53" x1="32.2667" y1="14.4004" x2="32.2131" y2="28.5004" gradientUnits="userSpaceOnUse">
<stop stop-color="white"/>
<stop offset="1" stop-color="white" stop-opacity="0"/>
</linearGradient>
<clipPath id="clip0_5663_53">
<rect width="48" height="48" fill="white"/>
</clipPath>
</defs>
</svg>
