<svg width="48" height="48" viewBox="0 0 48 48" fill="none" xmlns="http://www.w3.org/2000/svg">
<g clip-path="url(#clip0_5663_190)">
<mask id="mask0_5663_190" style="mask-type:alpha" maskUnits="userSpaceOnUse" x="0" y="0" width="48" height="48">
<path d="M24 48C37.2548 48 48 37.2548 48 24C48 10.7452 37.2548 0 24 0C10.7452 0 0 10.7452 0 24C0 37.2548 10.7452 48 24 48Z" fill="black"/>
</mask>
<g mask="url(#mask0_5663_190)">
<path d="M24 48C37.2548 48 48 37.2548 48 24C48 10.7452 37.2548 0 24 0C10.7452 0 0 10.7452 0 24C0 37.2548 10.7452 48 24 48Z" fill="#333333"/>
<path d="M15.9953 38.4917C19.7228 35.4504 21.3744 17.4771 22.988 11.0166C24.6016 4.55596 31.2749 4.88364 31.2749 4.88364C31.2749 4.88364 29.5424 7.85789 30.2491 10.0774C30.9557 12.2969 35.7966 14.2809 35.7966 14.2809L34.7525 16.9962C34.7525 16.9962 32.5723 16.7211 31.2749 19.2812C29.9775 21.8413 32.9001 46.9298 32.9001 46.9298C32.9001 46.9298 24.3112 62.362 24.3112 68.7677C24.3112 75.1734 27.3848 80.5419 27.3848 80.5419H23.0718C23.0718 80.5419 16.7446 73.1142 15.447 69.4021C14.1494 65.69 14.6682 61.9779 14.6682 61.9779C14.6682 61.9779 7.79082 61.5939 1.69234 61.9779C-4.40614 62.362 -8.47319 67.5334 -9.20721 70.4262C-9.94123 73.319 -10.2453 80.5419 -10.2453 80.5419H-13.6556C-15.7313 74.223 -17.3798 71.9583 -16.4855 68.7677C-14.0083 59.9299 -14.4949 54.9174 -15.0684 52.6848C-15.642 50.4522 -19.5254 48.5036 -19.5254 48.5036C-17.6231 44.6805 -15.6813 42.8433 -7.32873 42.6517C1.02386 42.4601 12.2677 41.5329 15.9953 38.4917Z" fill="white"/>
</g>
</g>
<defs>
<clipPath id="clip0_5663_190">
<rect width="48" height="48" fill="white"/>
</clipPath>
</defs>
</svg>
