<svg version="1.1" xmlns="http://www.w3.org/2000/svg" viewBox="0 0 1493.434873143795 711.0781952930679" width="4480.304619431385" height="2133.2345858792037">
  <!-- svg-source:excalidraw -->
  
  <defs>
    <style class="style-fonts">
      @font-face {
        font-family: "Virgil";
        src: url("https://excalidraw.com/Virgil.woff2");
      }
      @font-face {
        font-family: "Cascadia";
        src: url("https://excalidraw.com/Cascadia.woff2");
      }
    </style>
    
  </defs>
  <rect x="0" y="0" width="1493.434873143795" height="711.0781952930679" fill="#ffffff"></rect><g stroke-linecap="round" transform="translate(10 50.75217840594513) rotate(0 736.7174365718975 325.16300844356135)"><path d="M32 0 M32 0 C328.77 0, 625.54 0, 1441.43 0 M32 0 C374.25 0, 716.49 0, 1441.43 0 M1441.43 0 C1462.77 0, 1473.43 10.67, 1473.43 32 M1441.43 0 C1462.77 0, 1473.43 10.67, 1473.43 32 M1473.43 32 C1473.43 250.11, 1473.43 468.22, 1473.43 618.33 M1473.43 32 C1473.43 175.11, 1473.43 318.22, 1473.43 618.33 M1473.43 618.33 C1473.43 639.66, 1462.77 650.33, 1441.43 650.33 M1473.43 618.33 C1473.43 639.66, 1462.77 650.33, 1441.43 650.33 M1441.43 650.33 C1131.57 650.33, 821.71 650.33, 32 650.33 M1441.43 650.33 C964.33 650.33, 487.23 650.33, 32 650.33 M32 650.33 C10.67 650.33, 0 639.66, 0 618.33 M32 650.33 C10.67 650.33, 0 639.66, 0 618.33 M0 618.33 C0 442.67, 0 267.02, 0 32 M0 618.33 C0 439.14, 0 259.96, 0 32 M0 32 C0 10.67, 10.67 0, 32 0 M0 32 C0 10.67, 10.67 0, 32 0" stroke="#1e1e1e" stroke-width="1" fill="none"></path></g><g transform="translate(679.6052138438171 10) rotate(0 100.65966033935547 15.619568397200055)"><text x="0" y="0" font-family="Virgil, Segoe UI Emoji" font-size="24.99130943552007px" fill="#1e1e1e" text-anchor="start" style="white-space: pre;" direction="ltr" dominant-baseline="text-before-edge">"The Datalayer"</text></g><g stroke-linecap="round" transform="translate(33.165861573848474 75.22685313651112) rotate(0 344.0609553591049 153.46996318586855)"><path d="M7.86 8.16 C7.86 8.16, 7.86 8.16, 7.86 8.16 M7.86 8.16 C7.86 8.16, 7.86 8.16, 7.86 8.16 M3.66 19.09 C9.02 12.92, 14.38 6.76, 18.1 2.48 M3.66 19.09 C6.65 15.65, 9.63 12.22, 18.1 2.48 M2.75 26.24 C11.06 16.67, 19.37 7.11, 25.05 0.58 M2.75 26.24 C7.39 20.9, 12.02 15.56, 25.05 0.58 M1.83 33.39 C9.72 24.31, 17.62 15.23, 30.7 0.18 M1.83 33.39 C12.26 21.39, 22.7 9.38, 30.7 0.18 M1.57 39.79 C13.08 26.54, 24.59 13.3, 34.37 2.05 M1.57 39.79 C12.49 27.22, 23.41 14.66, 34.37 2.05 M1.96 45.43 C10.15 36.01, 18.34 26.59, 39.36 2.41 M1.96 45.43 C11.08 34.94, 20.21 24.44, 39.36 2.41 M1.7 51.83 C17.65 33.48, 33.6 15.13, 45 2.02 M1.7 51.83 C13.88 37.82, 26.05 23.82, 45 2.02 M1.44 58.23 C11.51 46.64, 21.59 35.05, 49.99 2.38 M1.44 58.23 C11.43 46.73, 21.42 35.24, 49.99 2.38 M1.83 63.87 C12.77 51.29, 23.7 38.71, 55.63 1.98 M1.83 63.87 C21.36 41.41, 40.89 18.94, 55.63 1.98 M1.57 70.27 C20.54 48.44, 39.51 26.62, 60.62 2.34 M1.57 70.27 C24.66 43.71, 47.74 17.16, 60.62 2.34 M1.97 75.91 C25.56 48.77, 49.15 21.64, 66.26 1.95 M1.97 75.91 C16.8 58.85, 31.63 41.78, 66.26 1.95 M1.71 82.31 C17.39 64.27, 33.07 46.23, 71.25 2.31 M1.71 82.31 C18.07 63.49, 34.43 44.66, 71.25 2.31 M1.44 88.71 C16.79 71.05, 32.13 53.4, 76.89 1.91 M1.44 88.71 C30.04 55.81, 58.64 22.91, 76.89 1.91 M1.84 94.35 C23.3 69.66, 44.76 44.97, 81.88 2.27 M1.84 94.35 C31.22 60.55, 60.6 26.75, 81.88 2.27 M1.58 100.75 C35.06 62.23, 68.54 23.72, 87.52 1.88 M1.58 100.75 C22.61 76.56, 43.64 52.36, 87.52 1.88 M1.97 106.39 C36.38 66.81, 70.78 27.24, 92.51 2.24 M1.97 106.39 C29.74 74.45, 57.5 42.51, 92.51 2.24 M1.71 112.79 C24.39 86.7, 47.07 60.61, 98.15 1.85 M1.71 112.79 C31.29 78.77, 60.86 44.74, 98.15 1.85 M1.45 119.19 C39.55 75.36, 77.64 31.53, 103.14 2.21 M1.45 119.19 C38.73 76.3, 76.02 33.41, 103.14 2.21 M1.84 124.83 C42.76 77.76, 83.68 30.68, 108.78 1.81 M1.84 124.83 C43.14 77.33, 84.43 29.82, 108.78 1.81 M1.58 131.23 C29.46 99.16, 57.34 67.08, 113.77 2.17 M1.58 131.23 C41.05 85.83, 80.51 40.43, 113.77 2.17 M1.98 136.87 C38.07 95.35, 74.17 53.82, 119.41 1.78 M1.98 136.87 C42.67 90.06, 83.36 43.25, 119.41 1.78 M1.72 143.27 C36.16 103.64, 70.61 64.01, 124.4 2.14 M1.72 143.27 C33.49 106.71, 65.27 70.16, 124.4 2.14 M1.45 149.67 C29.41 117.5, 57.37 85.34, 130.04 1.74 M1.45 149.67 C52.02 91.5, 102.58 33.33, 130.04 1.74 M1.85 155.31 C46.27 104.2, 90.7 53.1, 135.03 2.1 M1.85 155.31 C52.12 97.48, 102.39 39.64, 135.03 2.1 M1.59 161.71 C50.8 105.1, 100 48.49, 140.67 1.71 M1.59 161.71 C53.61 101.86, 105.64 42.01, 140.67 1.71 M1.98 167.35 C52.51 109.23, 103.03 51.1, 145.66 2.07 M1.98 167.35 C57.8 103.14, 113.62 38.93, 145.66 2.07 M1.72 173.75 C44.94 124.03, 88.16 74.31, 150.65 2.43 M1.72 173.75 C43.26 125.96, 84.81 78.17, 150.65 2.43 M1.46 180.14 C42.14 133.35, 82.82 86.55, 156.29 2.03 M1.46 180.14 C42.58 132.84, 83.7 85.53, 156.29 2.03 M1.85 185.79 C39.04 143.01, 76.22 100.23, 161.28 2.39 M1.85 185.79 C56.05 123.44, 110.26 61.08, 161.28 2.39 M1.59 192.19 C47.43 139.45, 93.27 86.72, 166.92 2 M1.59 192.19 C63.5 120.97, 125.41 49.75, 166.92 2 M1.99 197.83 C56.75 134.83, 111.51 71.83, 171.91 2.36 M1.99 197.83 C58.31 133.04, 114.63 68.25, 171.91 2.36 M1.72 204.23 C70.04 125.64, 138.35 47.05, 177.55 1.96 M1.72 204.23 C67.3 128.79, 132.88 53.35, 177.55 1.96 M1.46 210.62 C61.13 141.99, 120.79 73.35, 182.54 2.32 M1.46 210.62 C50.32 154.42, 99.19 98.21, 182.54 2.32 M1.86 216.27 C52.66 157.83, 103.46 99.39, 188.18 1.93 M1.86 216.27 C59.84 149.56, 117.83 82.86, 188.18 1.93 M1.6 222.66 C70.55 143.35, 139.5 64.03, 193.17 2.29 M1.6 222.66 C61.71 153.51, 121.83 84.35, 193.17 2.29 M1.99 228.31 C78.46 140.34, 154.92 52.38, 198.81 1.9 M1.99 228.31 C67.22 153.27, 132.45 78.23, 198.81 1.9 M1.73 234.71 C72.73 153.03, 143.73 71.36, 203.8 2.26 M1.73 234.71 C55.12 173.29, 108.51 111.87, 203.8 2.26 M1.47 241.1 C59.25 174.63, 117.04 108.15, 209.44 1.86 M1.47 241.1 C78.02 153.04, 154.57 64.98, 209.44 1.86 M1.86 246.75 C81.45 155.19, 161.05 63.63, 214.43 2.22 M1.86 246.75 C58 182.17, 114.14 117.59, 214.43 2.22 M1.6 253.14 C59.54 186.49, 117.48 119.84, 220.07 1.83 M1.6 253.14 C55.74 190.86, 109.88 128.58, 220.07 1.83 M2 258.79 C76.18 173.44, 150.37 88.1, 225.06 2.19 M2 258.79 C68.62 182.14, 135.25 105.49, 225.06 2.19 M1.73 265.19 C83.69 170.91, 165.64 76.63, 230.7 1.79 M1.73 265.19 C90.9 162.61, 180.07 60.03, 230.7 1.79 M1.47 271.58 C62.86 200.97, 124.25 130.35, 235.69 2.15 M1.47 271.58 C70.66 191.99, 139.86 112.39, 235.69 2.15 M2.52 276.47 C85.19 181.38, 167.86 86.28, 241.33 1.76 M2.52 276.47 C75.12 192.96, 147.71 109.46, 241.33 1.76 M1.61 283.62 C58.38 218.31, 115.15 153, 246.32 2.12 M1.61 283.62 C56.39 220.6, 111.17 157.58, 246.32 2.12 M2 289.27 C77.71 202.17, 153.42 115.07, 251.96 1.72 M2 289.27 C75.64 204.55, 149.28 119.84, 251.96 1.72 M3.71 293.4 C65.55 222.26, 127.39 151.12, 256.95 2.08 M3.71 293.4 C103.95 178.08, 204.19 62.77, 256.95 2.08 M6.73 296.02 C79.37 212.46, 152.01 128.89, 262.59 1.69 M6.73 296.02 C98 191.03, 189.28 86.03, 262.59 1.69 M9.09 299.4 C95.26 200.28, 181.43 101.15, 267.58 2.05 M9.09 299.4 C103.52 190.77, 197.95 82.14, 267.58 2.05 M12.11 302.03 C71.44 233.77, 130.77 165.52, 272.56 2.41 M12.11 302.03 C84.49 218.76, 156.88 135.49, 272.56 2.41 M15.13 304.65 C85.38 223.84, 155.62 143.03, 278.21 2.01 M15.13 304.65 C75.23 235.51, 135.33 166.37, 278.21 2.01 M19.46 305.77 C86.97 228.1, 154.49 150.43, 283.19 2.37 M19.46 305.77 C108.58 203.24, 197.7 100.72, 283.19 2.37 M23.79 306.88 C88.85 232.03, 153.92 157.19, 288.84 1.98 M23.79 306.88 C109.57 208.21, 195.34 109.53, 288.84 1.98 M27.46 308.75 C126.73 194.55, 226 80.36, 293.82 2.34 M27.46 308.75 C83.05 244.8, 138.64 180.86, 293.82 2.34 M33.11 308.36 C86.88 246.5, 140.65 184.64, 299.47 1.94 M33.11 308.36 C121.37 206.82, 209.63 105.29, 299.47 1.94 M38.75 307.96 C135.72 196.41, 232.68 84.87, 304.45 2.3 M38.75 307.96 C106.34 230.21, 173.93 152.46, 304.45 2.3 M43.74 308.32 C124.21 215.74, 204.69 123.17, 310.1 1.91 M43.74 308.32 C143.46 193.61, 243.18 78.89, 310.1 1.91 M49.38 307.93 C129.78 215.44, 210.18 122.94, 315.08 2.27 M49.38 307.93 C110.83 237.23, 172.29 166.54, 315.08 2.27 M54.37 308.29 C119.63 233.21, 184.9 158.13, 320.73 1.88 M54.37 308.29 C138.97 210.96, 223.57 113.64, 320.73 1.88 M60.01 307.89 C123.33 235.05, 186.65 162.21, 325.71 2.24 M60.01 307.89 C163.09 189.32, 266.17 70.74, 325.71 2.24 M65 308.25 C161.45 197.3, 257.91 86.34, 331.36 1.84 M65 308.25 C136.43 226.08, 207.86 143.91, 331.36 1.84 M70.64 307.86 C152.36 213.85, 234.08 119.84, 336.34 2.2 M70.64 307.86 C167.63 196.28, 264.62 84.71, 336.34 2.2 M75.63 308.22 C160.27 210.85, 244.92 113.47, 341.99 1.81 M75.63 308.22 C148.97 223.85, 222.31 139.48, 341.99 1.81 M81.27 307.82 C142.02 237.94, 202.77 168.06, 346.97 2.17 M81.27 307.82 C159.77 217.52, 238.28 127.21, 346.97 2.17 M86.26 308.18 C141.98 244.08, 197.71 179.97, 352.62 1.77 M86.26 308.18 C147.68 237.53, 209.1 166.87, 352.62 1.77 M91.9 307.79 C145.74 245.86, 199.57 183.93, 357.6 2.13 M91.9 307.79 C172.74 214.79, 253.59 121.79, 357.6 2.13 M96.89 308.15 C167.85 226.51, 238.82 144.88, 363.25 1.74 M96.89 308.15 C194.8 195.51, 292.71 82.88, 363.25 1.74 M102.53 307.76 C159.24 242.52, 215.95 177.28, 368.23 2.1 M102.53 307.76 C157.99 243.95, 213.46 180.15, 368.23 2.1 M107.52 308.12 C201.34 200.19, 295.15 92.26, 373.88 1.7 M107.52 308.12 C204 197.13, 300.48 86.14, 373.88 1.7 M113.16 307.72 C200.26 207.52, 287.36 107.33, 378.86 2.06 M113.16 307.72 C171.17 240.99, 229.18 174.26, 378.86 2.06 M118.15 308.08 C187.83 227.92, 257.51 147.77, 383.85 2.42 M118.15 308.08 C179.92 237.02, 241.69 165.96, 383.85 2.42 M123.13 308.44 C228.42 187.33, 333.7 66.21, 389.49 2.03 M123.13 308.44 C185.63 236.54, 248.13 164.65, 389.49 2.03 M128.78 308.05 C188.54 239.3, 248.31 170.55, 394.48 2.39 M128.78 308.05 C192.18 235.11, 255.58 162.17, 394.48 2.39 M133.76 308.41 C226.5 201.72, 319.24 95.04, 400.12 1.99 M133.76 308.41 C227.4 200.69, 321.03 92.98, 400.12 1.99 M139.41 308.01 C192.95 246.41, 246.5 184.82, 405.11 2.35 M139.41 308.01 C241.19 190.92, 342.97 73.84, 405.11 2.35 M144.39 308.37 C224.75 215.93, 305.1 123.5, 410.75 1.96 M144.39 308.37 C238.95 199.6, 333.51 90.82, 410.75 1.96 M150.04 307.98 C252.63 189.96, 355.22 71.94, 415.74 2.32 M150.04 307.98 C232.52 213.1, 314.99 118.22, 415.74 2.32 M155.02 308.34 C222.61 230.59, 290.2 152.83, 421.38 1.93 M155.02 308.34 C214.48 239.94, 273.94 171.54, 421.38 1.93 M160.67 307.94 C241.86 214.55, 323.05 121.15, 426.37 2.29 M160.67 307.94 C215.79 244.53, 270.91 181.12, 426.37 2.29 M165.65 308.3 C268.25 190.28, 370.85 72.25, 432.01 1.89 M165.65 308.3 C226.02 238.86, 286.38 169.42, 432.01 1.89 M171.3 307.91 C256.21 210.23, 341.12 112.55, 437 2.25 M171.3 307.91 C251.85 215.24, 332.4 122.58, 437 2.25 M176.28 308.27 C272.06 198.09, 367.84 87.91, 442.64 1.86 M176.28 308.27 C236.95 238.48, 297.62 168.69, 442.64 1.86 M181.93 307.87 C267.12 209.87, 352.32 111.86, 447.63 2.22 M181.93 307.87 C279.9 195.17, 377.87 82.47, 447.63 2.22 M186.91 308.23 C246.4 239.8, 305.89 171.36, 453.27 1.82 M186.91 308.23 C288.5 191.37, 390.09 74.51, 453.27 1.82 M192.56 307.84 C254.76 236.29, 316.96 164.74, 458.26 2.18 M192.56 307.84 C250.34 241.37, 308.12 174.89, 458.26 2.18 M197.54 308.2 C278.97 214.53, 360.4 120.86, 463.9 1.79 M197.54 308.2 C260 236.36, 322.45 164.52, 463.9 1.79 M203.19 307.8 C287.7 210.59, 372.2 113.38, 468.89 2.15 M203.19 307.8 C257.65 245.16, 312.11 182.51, 468.89 2.15 M208.18 308.17 C293.06 210.52, 377.95 112.87, 474.53 1.75 M208.18 308.17 C268.4 238.88, 328.63 169.6, 474.53 1.75 M213.82 307.77 C283.82 227.24, 353.82 146.71, 479.52 2.11 M213.82 307.77 C301.21 207.24, 388.6 106.7, 479.52 2.11 M218.81 308.13 C287.3 229.34, 355.79 150.54, 485.17 1.72 M218.81 308.13 C322.06 189.35, 425.32 70.57, 485.17 1.72 M224.45 307.74 C302.59 217.85, 380.73 127.96, 490.15 2.08 M224.45 307.74 C311.93 207.1, 399.41 106.46, 490.15 2.08 M229.44 308.1 C309.01 216.55, 388.59 125.01, 495.8 1.68 M229.44 308.1 C294.06 233.75, 358.68 159.41, 495.8 1.68 M234.42 308.46 C305.4 226.81, 376.38 145.15, 500.78 2.04 M234.42 308.46 C337.79 189.55, 441.16 70.63, 500.78 2.04 M240.07 308.06 C320.83 215.15, 401.6 122.24, 505.77 2.4 M240.07 308.06 C321.55 214.32, 403.04 120.58, 505.77 2.4 M245.05 308.42 C343.61 195.04, 442.17 81.66, 511.41 2.01 M245.05 308.42 C306.23 238.05, 367.41 167.67, 511.41 2.01 M250.7 308.03 C334.68 211.41, 418.67 114.8, 516.4 2.37 M250.7 308.03 C353.72 189.51, 456.75 70.98, 516.4 2.37 M255.68 308.39 C316.12 238.86, 376.57 169.33, 522.04 1.98 M255.68 308.39 C314.43 240.81, 373.17 173.23, 522.04 1.98 M261.33 307.99 C330.73 228.16, 400.13 148.32, 527.03 2.34 M261.33 307.99 C337.29 220.61, 413.25 133.22, 527.03 2.34 M266.31 308.35 C370.77 188.19, 475.23 68.03, 532.67 1.94 M266.31 308.35 C338.05 225.83, 409.79 143.3, 532.67 1.94 M271.96 307.96 C337.91 232.09, 403.86 156.22, 537.66 2.3 M271.96 307.96 C349.9 218.29, 427.85 128.62, 537.66 2.3 M276.94 308.32 C344.49 230.62, 412.03 152.92, 543.3 1.91 M276.94 308.32 C364.02 208.15, 451.09 107.98, 543.3 1.91 M282.59 307.92 C354.03 225.74, 425.47 143.56, 548.29 2.27 M282.59 307.92 C360.87 217.87, 439.15 127.82, 548.29 2.27 M287.57 308.28 C375.95 206.62, 464.32 104.95, 553.93 1.87 M287.57 308.28 C363.83 220.56, 440.09 132.83, 553.93 1.87 M293.22 307.89 C372.31 216.9, 451.41 125.9, 558.92 2.23 M293.22 307.89 C363.97 226.5, 434.72 145.11, 558.92 2.23 M298.2 308.25 C399.48 191.74, 500.77 75.23, 564.56 1.84 M298.2 308.25 C373.52 221.61, 448.83 134.97, 564.56 1.84 M303.85 307.85 C408.01 188.03, 512.18 68.2, 569.55 2.2 M303.85 307.85 C404.06 192.57, 504.28 77.28, 569.55 2.2 M308.83 308.21 C384.8 220.83, 460.76 133.44, 575.19 1.8 M308.83 308.21 C413.69 187.59, 518.55 66.97, 575.19 1.8 M314.48 307.82 C418.65 187.99, 522.81 68.15, 580.18 2.16 M314.48 307.82 C391.09 219.69, 467.7 131.56, 580.18 2.16 M319.46 308.18 C416.87 196.12, 514.28 84.06, 585.82 1.77 M319.46 308.18 C409.67 204.41, 499.87 100.64, 585.82 1.77 M325.11 307.79 C383.75 240.32, 442.4 172.86, 590.81 2.13 M325.11 307.79 C392.31 230.48, 459.51 153.17, 590.81 2.13 M330.09 308.15 C402.99 224.29, 475.88 140.44, 596.45 1.73 M330.09 308.15 C431.18 191.86, 532.27 75.57, 596.45 1.73 M335.74 307.75 C437.72 190.43, 539.7 73.11, 601.44 2.09 M335.74 307.75 C393.22 241.62, 450.71 175.49, 601.44 2.09 M340.72 308.11 C418.97 218.1, 497.22 128.09, 607.08 1.7 M340.72 308.11 C399.38 240.63, 458.04 173.16, 607.08 1.7 M345.71 308.47 C417.62 225.75, 489.53 143.03, 612.07 2.06 M345.71 308.47 C429.93 211.59, 514.15 114.71, 612.07 2.06 M351.35 308.08 C416.05 233.65, 480.75 159.22, 617.06 2.42 M351.35 308.08 C432.91 214.26, 514.46 120.44, 617.06 2.42 M356.34 308.44 C423.08 231.66, 489.82 154.89, 622.7 2.02 M356.34 308.44 C458.14 191.33, 559.94 74.23, 622.7 2.02 M361.98 308.04 C461.14 193.98, 560.3 79.91, 627.69 2.38 M361.98 308.04 C449.14 207.78, 536.29 107.52, 627.69 2.38 M366.97 308.4 C468.14 192.02, 569.31 75.64, 633.33 1.99 M366.97 308.4 C429.91 236, 492.85 163.6, 633.33 1.99 M372.61 308.01 C443.28 226.71, 513.95 145.42, 638.32 2.35 M372.61 308.01 C456.05 212.03, 539.48 116.05, 638.32 2.35 M377.6 308.37 C456.12 218.04, 534.64 127.71, 643.96 1.96 M377.6 308.37 C482.19 188.05, 586.78 67.74, 643.96 1.96 M383.24 307.97 C472.99 204.73, 562.74 101.49, 648.95 2.32 M383.24 307.97 C472.95 204.77, 562.67 101.57, 648.95 2.32 M388.23 308.33 C472.63 211.24, 557.03 114.15, 655.9 0.41 M388.23 308.33 C483.95 198.22, 579.67 88.11, 655.9 0.41 M393.87 307.94 C483.96 204.31, 574.04 100.68, 660.89 0.77 M393.87 307.94 C450.97 242.26, 508.06 176.58, 660.89 0.77 M398.86 308.3 C490.5 202.87, 582.15 97.45, 665.22 1.89 M398.86 308.3 C486.66 207.3, 574.45 106.3, 665.22 1.89 M404.5 307.9 C469.95 232.62, 535.4 157.33, 670.21 2.25 M404.5 307.9 C510.7 185.74, 616.89 63.58, 670.21 2.25 M409.49 308.26 C506.39 196.8, 603.29 85.33, 673.88 4.12 M409.49 308.26 C488.66 217.2, 567.82 126.13, 673.88 4.12 M415.13 307.87 C514.59 193.46, 614.05 79.04, 677.56 5.99 M415.13 307.87 C492.41 218.98, 569.68 130.08, 677.56 5.99 M420.12 308.23 C511.52 203.09, 602.91 97.95, 680.58 8.61 M420.12 308.23 C511.25 203.39, 602.38 98.56, 680.58 8.61 M425.76 307.84 C498.44 224.23, 571.12 140.62, 682.94 11.99 M425.76 307.84 C513.12 207.34, 600.48 106.84, 682.94 11.99 M430.75 308.2 C519.66 205.91, 608.58 103.63, 685.96 14.61 M430.75 308.2 C521.63 203.65, 612.51 99.1, 685.96 14.61 M436.39 307.8 C495.98 239.26, 555.56 170.71, 687.66 18.75 M436.39 307.8 C516.55 215.59, 596.71 123.37, 687.66 18.75 M441.38 308.16 C538.29 196.68, 635.2 85.19, 688.06 24.39 M441.38 308.16 C511.76 227.19, 582.15 146.23, 688.06 24.39 M447.02 307.77 C532.83 209.06, 618.64 110.34, 688.45 30.03 M447.02 307.77 C509.39 236.03, 571.75 164.29, 688.45 30.03 M452.01 308.13 C499.89 253.05, 547.77 197.97, 690.16 34.17 M452.01 308.13 C522.74 226.76, 593.47 145.4, 690.16 34.17 M457.65 307.73 C523.58 231.89, 589.51 156.05, 690.56 39.81 M457.65 307.73 C533.48 220.5, 609.31 133.27, 690.56 39.81 M462.64 308.09 C524.67 236.73, 586.7 165.38, 690.29 46.21 M462.64 308.09 C517.9 244.52, 573.16 180.95, 690.29 46.21 M467.63 308.45 C534.03 232.07, 600.43 155.68, 690.03 52.61 M467.63 308.45 C541.26 223.75, 614.89 139.04, 690.03 52.61 M473.27 308.06 C557.85 210.76, 642.44 113.45, 690.43 58.25 M473.27 308.06 C552.84 216.53, 632.4 124.99, 690.43 58.25 M478.26 308.42 C523.42 256.47, 568.57 204.52, 690.17 64.65 M478.26 308.42 C526.41 253.03, 574.55 197.64, 690.17 64.65 M483.9 308.02 C549.47 232.59, 615.04 157.16, 690.56 70.29 M483.9 308.02 C526.06 259.53, 568.21 211.03, 690.56 70.29 M488.89 308.38 C543.43 245.64, 597.97 182.9, 690.3 76.69 M488.89 308.38 C530.9 260.05, 572.92 211.72, 690.3 76.69 M494.53 307.99 C553.93 239.66, 613.32 171.34, 690.04 83.08 M494.53 307.99 C549.99 244.19, 605.46 180.38, 690.04 83.08 M499.52 308.35 C546.96 253.77, 594.41 199.19, 690.43 88.73 M499.52 308.35 C540 261.78, 580.48 215.22, 690.43 88.73 M505.16 307.95 C575.43 227.12, 645.7 146.28, 690.17 95.13 M505.16 307.95 C546.95 259.88, 588.75 211.8, 690.17 95.13 M510.15 308.31 C574.37 234.44, 638.58 160.57, 690.56 100.77 M510.15 308.31 C549.2 263.39, 588.26 218.46, 690.56 100.77 M515.79 307.92 C560.98 255.93, 606.18 203.94, 690.3 107.17 M515.79 307.92 C558.23 259.1, 600.67 210.28, 690.3 107.17 M520.78 308.28 C577.58 242.94, 634.38 177.59, 690.04 113.56 M520.78 308.28 C578.85 241.47, 636.92 174.67, 690.04 113.56 M526.42 307.88 C565.4 263.05, 604.37 218.21, 690.44 119.21 M526.42 307.88 C565.83 262.55, 605.25 217.21, 690.44 119.21 M531.41 308.25 C589 241.99, 646.6 175.73, 690.17 125.61 M531.41 308.25 C587.81 243.36, 644.21 178.48, 690.17 125.61 M537.05 307.85 C582.35 255.74, 627.64 203.64, 690.57 131.25 M537.05 307.85 C585.29 252.36, 633.52 196.87, 690.57 131.25 M542.04 308.21 C593.28 249.26, 644.53 190.31, 690.31 137.65 M542.04 308.21 C595.19 247.06, 648.35 185.91, 690.31 137.65 M547.68 307.82 C603.67 243.41, 659.65 179.01, 690.05 144.04 M547.68 307.82 C583.85 266.21, 620.01 224.61, 690.05 144.04 M552.67 308.18 C583.68 272.5, 614.69 236.83, 690.44 149.69 M552.67 308.18 C594.08 260.54, 635.49 212.91, 690.44 149.69 M558.31 307.78 C608.04 250.58, 657.77 193.37, 690.18 156.08 M558.31 307.78 C590.11 271.21, 621.9 234.63, 690.18 156.08 M563.3 308.14 C598.29 267.89, 633.27 227.64, 690.57 161.73 M563.3 308.14 C597.83 268.41, 632.37 228.68, 690.57 161.73 M568.94 307.75 C602.23 269.46, 635.51 231.17, 690.31 168.13 M568.94 307.75 C611.29 259.03, 653.64 210.31, 690.31 168.13 M573.93 308.11 C597.35 281.17, 620.76 254.23, 690.05 174.52 M573.93 308.11 C597.5 281, 621.07 253.88, 690.05 174.52 M578.92 308.47 C622.99 257.77, 667.05 207.08, 690.45 180.17 M578.92 308.47 C606.04 277.26, 633.17 246.06, 690.45 180.17 M584.56 308.07 C610.41 278.34, 636.25 248.6, 690.18 186.56 M584.56 308.07 C623.61 263.15, 662.66 218.23, 690.18 186.56 M589.55 308.43 C613.1 281.34, 636.65 254.25, 690.58 192.21 M589.55 308.43 C618.02 275.67, 646.5 242.92, 690.58 192.21 M595.19 308.04 C621.47 277.8, 647.75 247.57, 690.32 198.61 M595.19 308.04 C622.59 276.52, 649.99 245, 690.32 198.61 M600.18 308.4 C632.91 270.74, 665.64 233.08, 690.06 205 M600.18 308.4 C619.49 286.18, 638.8 263.96, 690.06 205 M605.82 308 C631.32 278.67, 656.83 249.33, 690.45 210.65 M605.82 308 C624.16 286.91, 642.49 265.82, 690.45 210.65 M610.81 308.36 C638.38 276.64, 665.96 244.92, 690.19 217.04 M610.81 308.36 C633.4 282.37, 655.99 256.38, 690.19 217.04 M616.45 307.97 C642.97 277.46, 669.49 246.95, 690.58 222.69 M616.45 307.97 C635.46 286.1, 654.46 264.24, 690.58 222.69 M621.44 308.33 C636.89 290.55, 652.34 272.77, 690.32 229.08 M621.44 308.33 C643.85 282.54, 666.27 256.75, 690.32 229.08 M627.08 307.93 C640.69 292.28, 654.3 276.62, 690.06 235.48 M627.08 307.93 C642.84 289.8, 658.61 271.67, 690.06 235.48 M632.07 308.29 C644.89 293.54, 657.71 278.79, 690.46 241.13 M632.07 308.29 C647.48 290.56, 662.9 272.83, 690.46 241.13 M637.71 307.9 C652.4 291, 667.09 274.11, 690.19 247.52 M637.71 307.9 C652.59 290.78, 667.48 273.65, 690.19 247.52 M642.7 308.26 C654.22 295.01, 665.74 281.75, 690.59 253.17 M642.7 308.26 C653.19 296.18, 663.69 284.11, 690.59 253.17 M648.34 307.87 C660.32 294.09, 672.29 280.31, 690.33 259.56 M648.34 307.87 C664.45 289.33, 680.56 270.8, 690.33 259.56 M653.33 308.23 C667.19 292.28, 681.06 276.33, 690.07 265.96 M653.33 308.23 C660.75 299.69, 668.17 291.15, 690.07 265.96 M658.31 308.59 C664.79 301.14, 671.26 293.69, 690.46 271.61 M658.31 308.59 C665.39 300.44, 672.47 292.3, 690.46 271.61 M664.61 307.44 C669.94 301.31, 675.27 295.18, 690.86 277.25 M664.61 307.44 C670.27 300.93, 675.92 294.42, 690.86 277.25 M670.91 306.29 C677.19 299.06, 683.47 291.84, 689.94 284.4 M670.91 306.29 C674.81 301.8, 678.71 297.31, 689.94 284.4" stroke="#b2f2bb" stroke-width="0.5" fill="none"></path><path d="M32 0 M32 0 C202.51 0, 373.01 0, 656.12 0 M32 0 C253.73 0, 475.45 0, 656.12 0 M656.12 0 C677.46 0, 688.12 10.67, 688.12 32 M656.12 0 C677.46 0, 688.12 10.67, 688.12 32 M688.12 32 C688.12 97.86, 688.12 163.72, 688.12 274.94 M688.12 32 C688.12 93.68, 688.12 155.36, 688.12 274.94 M688.12 274.94 C688.12 296.27, 677.46 306.94, 656.12 306.94 M688.12 274.94 C688.12 296.27, 677.46 306.94, 656.12 306.94 M656.12 306.94 C414.28 306.94, 172.45 306.94, 32 306.94 M656.12 306.94 C520.44 306.94, 384.76 306.94, 32 306.94 M32 306.94 C10.67 306.94, 0 296.27, 0 274.94 M32 306.94 C10.67 306.94, 0 296.27, 0 274.94 M0 274.94 C0 182.68, 0 90.42, 0 32 M0 274.94 C0 184.38, 0 93.82, 0 32 M0 32 C0 10.67, 10.67 0, 32 0 M0 32 C0 10.67, 10.67 0, 32 0" stroke="#1e1e1e" stroke-width="1" fill="none"></path></g><g stroke-linecap="round" transform="translate(51.31215104180137 239.1633193429679) rotate(0.021366072727739494 135.5 61.5)"><path d="M30.75 0 M30.75 0 C107.57 0, 184.4 0, 240.25 0 M30.75 0 C112.77 0, 194.8 0, 240.25 0 M240.25 0 C260.75 0, 271 10.25, 271 30.75 M240.25 0 C260.75 0, 271 10.25, 271 30.75 M271 30.75 C271 52.68, 271 74.62, 271 92.25 M271 30.75 C271 45.34, 271 59.92, 271 92.25 M271 92.25 C271 112.75, 260.75 123, 240.25 123 M271 92.25 C271 112.75, 260.75 123, 240.25 123 M240.25 123 C173.61 123, 106.97 123, 30.75 123 M240.25 123 C187.27 123, 134.29 123, 30.75 123 M30.75 123 C10.25 123, 0 112.75, 0 92.25 M30.75 123 C10.25 123, 0 112.75, 0 92.25 M0 92.25 C0 78.33, 0 64.4, 0 30.75 M0 92.25 C0 76.25, 0 60.24, 0 30.75 M0 30.75 C0 10.25, 10.25 0, 30.75 0 M0 30.75 C0 10.25, 10.25 0, 30.75 0" stroke="#1e1e1e" stroke-width="1" fill="none"></path></g><g transform="translate(56.31215104180137 260.6633193429679) rotate(0.021366072727739494 130.11993408203125 40)"><text x="0" y="0" font-family="Virgil, Segoe UI Emoji" font-size="16px" fill="#1e1e1e" text-anchor="start" style="white-space: pre;" direction="ltr" dominant-baseline="text-before-edge">- Handles saves and deletes to </text><text x="0" y="20" font-family="Virgil, Segoe UI Emoji" font-size="16px" fill="#1e1e1e" text-anchor="start" style="white-space: pre;" direction="ltr" dominant-baseline="text-before-edge">git server</text><text x="0" y="40" font-family="Virgil, Segoe UI Emoji" font-size="16px" fill="#1e1e1e" text-anchor="start" style="white-space: pre;" direction="ltr" dominant-baseline="text-before-edge">- Handles Authentication to Git </text><text x="0" y="60" font-family="Virgil, Segoe UI Emoji" font-size="16px" fill="#1e1e1e" text-anchor="start" style="white-space: pre;" direction="ltr" dominant-baseline="text-before-edge">server</text></g><g transform="translate(302.6424792621949 54.30640114785365) rotate(0 49.439964294433594 12.5)"><text x="0" y="0" font-family="Virgil, Segoe UI Emoji" font-size="20px" fill="#1e1e1e" text-anchor="start" style="white-space: pre;" direction="ltr" dominant-baseline="text-before-edge">Database</text></g><g transform="translate(111.14363414076831 209.61774692026478) rotate(0 60.05994415283203 12.5)"><text x="0" y="0" font-family="Virgil, Segoe UI Emoji" font-size="20px" fill="#1e1e1e" text-anchor="start" style="white-space: pre;" direction="ltr" dominant-baseline="text-before-edge">Git Provider</text></g><g transform="translate(473.5073023458293 205.43948850197694) rotate(0 93.70993041992188 12.5)"><text x="0" y="0" font-family="Virgil, Segoe UI Emoji" font-size="20px" fill="#1e1e1e" text-anchor="start" style="white-space: pre;" direction="ltr" dominant-baseline="text-before-edge">Database Adapter</text></g><g stroke-linecap="round" transform="translate(59.61665491484132 95.83822397776953) rotate(0 319.9200219530619 45)"><path d="M22.5 0 M22.5 0 C154.82 0, 287.14 0, 617.34 0 M22.5 0 C199.01 0, 375.53 0, 617.34 0 M617.34 0 C632.34 0, 639.84 7.5, 639.84 22.5 M617.34 0 C632.34 0, 639.84 7.5, 639.84 22.5 M639.84 22.5 C639.84 31.52, 639.84 40.53, 639.84 67.5 M639.84 22.5 C639.84 38.85, 639.84 55.21, 639.84 67.5 M639.84 67.5 C639.84 82.5, 632.34 90, 617.34 90 M639.84 67.5 C639.84 82.5, 632.34 90, 617.34 90 M617.34 90 C418.65 90, 219.95 90, 22.5 90 M617.34 90 C394.18 90, 171.01 90, 22.5 90 M22.5 90 C7.5 90, 0 82.5, 0 67.5 M22.5 90 C7.5 90, 0 82.5, 0 67.5 M0 67.5 C0 54.83, 0 42.17, 0 22.5 M0 67.5 C0 55.24, 0 42.99, 0 22.5 M0 22.5 C0 7.5, 7.5 0, 22.5 0 M0 22.5 C0 7.5, 7.5 0, 22.5 0" stroke="#1e1e1e" stroke-width="1" fill="none"></path></g><g transform="translate(64.61665491484132 100.83822397776953) rotate(0 308.75982666015625 40)"><text x="0" y="0" font-family="Virgil, Segoe UI Emoji" font-size="16px" fill="#1e1e1e" text-anchor="start" style="white-space: pre;" direction="ltr" dominant-baseline="text-before-edge">- Indexes data when the site is built and saves the index to the database </text><text x="0" y="20" font-family="Virgil, Segoe UI Emoji" font-size="16px" fill="#1e1e1e" text-anchor="start" style="white-space: pre;" direction="ltr" dominant-baseline="text-before-edge">adapter</text><text x="0" y="40" font-family="Virgil, Segoe UI Emoji" font-size="16px" fill="#1e1e1e" text-anchor="start" style="white-space: pre;" direction="ltr" dominant-baseline="text-before-edge">-  updates the index on a mutation</text><text x="0" y="60" font-family="Virgil, Segoe UI Emoji" font-size="16px" fill="#1e1e1e" text-anchor="start" style="white-space: pre;" direction="ltr" dominant-baseline="text-before-edge">- Resolves GraphQL queries and mutations</text></g><g stroke-linecap="round" transform="translate(425.31791513660835 237.51090361663523) rotate(0.021366072727739494 135.5 61.49999999999997)"><path d="M30.75 0 M30.75 0 C80.03 0, 129.32 0, 240.25 0 M30.75 0 C99.92 0, 169.1 0, 240.25 0 M240.25 0 C260.75 0, 271 10.25, 271 30.75 M240.25 0 C260.75 0, 271 10.25, 271 30.75 M271 30.75 C271 46.11, 271 61.48, 271 92.25 M271 30.75 C271 44.02, 271 57.29, 271 92.25 M271 92.25 C271 112.75, 260.75 123, 240.25 123 M271 92.25 C271 112.75, 260.75 123, 240.25 123 M240.25 123 C162.12 123, 83.99 123, 30.75 123 M240.25 123 C168.61 123, 96.96 123, 30.75 123 M30.75 123 C10.25 123, 0 112.75, 0 92.25 M30.75 123 C10.25 123, 0 112.75, 0 92.25 M0 92.25 C0 68.59, 0 44.92, 0 30.75 M0 92.25 C0 74.97, 0 57.7, 0 30.75 M0 30.75 C0 10.25, 10.25 0, 30.75 0 M0 30.75 C0 10.25, 10.25 0, 30.75 0" stroke="#1e1e1e" stroke-width="1" fill="none"></path></g><g transform="translate(435.9059888670771 269.0109036166353) rotate(0.021366072727739494 124.91192626953125 30)"><text x="124.91192626953125" y="0" font-family="Virgil, Segoe UI Emoji" font-size="16px" fill="#1e1e1e" text-anchor="middle" style="white-space: pre;" direction="ltr" dominant-baseline="text-before-edge">- Handles Storing and updating </text><text x="124.91192626953125" y="20" font-family="Virgil, Segoe UI Emoji" font-size="16px" fill="#1e1e1e" text-anchor="middle" style="white-space: pre;" direction="ltr" dominant-baseline="text-before-edge">and deleting of indexed content</text><text x="124.91192626953125" y="40" font-family="Virgil, Segoe UI Emoji" font-size="16px" fill="#1e1e1e" text-anchor="middle" style="white-space: pre;" direction="ltr" dominant-baseline="text-before-edge"></text></g><g stroke-linecap="round" transform="translate(1075.599309907614 483.3609221129322) rotate(0 125.03679788947397 52.4117257368402)"><path d="M6.32 6.82 C6.32 6.82, 6.32 6.82, 6.32 6.82 M6.32 6.82 C6.32 6.82, 6.32 6.82, 6.32 6.82 M3.43 16.24 C8.08 10.89, 12.72 5.55, 15.24 2.65 M3.43 16.24 C7.5 11.55, 11.57 6.87, 15.24 2.65 M3.17 22.63 C8.11 16.95, 13.05 11.27, 21.54 1.5 M3.17 22.63 C6.99 18.24, 10.81 13.84, 21.54 1.5 M3.57 28.28 C10.22 20.62, 16.87 12.97, 27.18 1.11 M3.57 28.28 C10.56 20.23, 17.55 12.19, 27.18 1.11 M3.31 34.67 C12.93 23.6, 22.56 12.53, 32.83 0.71 M3.31 34.67 C14.6 21.68, 25.89 8.69, 32.83 0.71 M3.04 41.07 C16.36 25.76, 29.67 10.44, 37.82 1.07 M3.04 41.07 C15.1 27.2, 27.15 13.34, 37.82 1.07 M3.44 46.71 C13.85 34.73, 24.27 22.75, 43.46 0.68 M3.44 46.71 C18.76 29.08, 34.09 11.45, 43.46 0.68 M3.18 53.11 C13.76 40.94, 24.34 28.76, 48.45 1.04 M3.18 53.11 C17.23 36.95, 31.28 20.78, 48.45 1.04 M3.57 58.76 C23.15 36.24, 42.72 13.71, 54.09 0.64 M3.57 58.76 C22.87 36.56, 42.16 14.36, 54.09 0.64 M3.31 65.15 C17.49 48.84, 31.68 32.52, 59.08 1 M3.31 65.15 C25.27 39.9, 47.22 14.64, 59.08 1 M3.05 71.55 C25.05 46.25, 47.04 20.94, 64.72 0.61 M3.05 71.55 C21.21 50.66, 39.37 29.77, 64.72 0.61 M3.44 77.19 C19.82 58.35, 36.2 39.51, 69.71 0.97 M3.44 77.19 C22.99 54.71, 42.54 32.22, 69.71 0.97 M1.21 85.86 C19.53 64.79, 37.84 43.72, 74.69 1.33 M1.21 85.86 C21.61 62.4, 42 38.94, 74.69 1.33 M2.26 90.74 C25.51 64, 48.76 37.26, 80.34 0.93 M2.26 90.74 C26.08 63.35, 49.89 35.96, 80.34 0.93 M3.97 94.88 C26.72 68.71, 49.46 42.54, 85.32 1.29 M3.97 94.88 C22.72 73.3, 41.48 51.73, 85.32 1.29 M6.33 98.26 C29.55 71.54, 52.78 44.83, 90.97 0.9 M6.33 98.26 C23.82 78.14, 41.31 58.02, 90.97 0.9 M9.35 100.88 C34.9 71.5, 60.44 42.11, 95.95 1.26 M9.35 100.88 C34.89 71.51, 60.42 42.13, 95.95 1.26 M12.37 103.51 C41.65 69.83, 70.93 36.14, 101.6 0.86 M12.37 103.51 C45.83 65.02, 79.28 26.54, 101.6 0.86 M16.7 104.62 C41.45 76.16, 66.19 47.69, 106.58 1.22 M16.7 104.62 C48.54 67.99, 80.38 31.37, 106.58 1.22 M21.03 105.74 C56.87 64.51, 92.7 23.29, 112.23 0.83 M21.03 105.74 C46.31 76.66, 71.59 47.58, 112.23 0.83 M26.68 105.34 C47.81 81.03, 68.95 56.71, 117.21 1.19 M26.68 105.34 C56.96 70.5, 87.25 35.66, 117.21 1.19 M32.32 104.95 C58.17 75.21, 84.02 45.47, 122.86 0.8 M32.32 104.95 C66.07 66.12, 99.82 27.29, 122.86 0.8 M37.31 105.31 C65.83 72.5, 94.35 39.69, 127.84 1.16 M37.31 105.31 C64.8 73.67, 92.3 42.04, 127.84 1.16 M42.95 104.91 C61.55 83.52, 80.15 62.12, 133.49 0.76 M42.95 104.91 C62.28 82.68, 81.6 60.45, 133.49 0.76 M47.94 105.27 C74.96 74.18, 101.99 43.09, 138.47 1.12 M47.94 105.27 C81.62 66.52, 115.31 27.77, 138.47 1.12 M52.92 105.63 C74.35 80.98, 95.78 56.33, 144.12 0.73 M52.92 105.63 C84.2 69.65, 115.47 33.68, 144.12 0.73 M58.57 105.24 C85.28 74.5, 112 43.77, 149.1 1.09 M58.57 105.24 C94.06 64.41, 129.55 23.58, 149.1 1.09 M63.55 105.6 C85.38 80.49, 107.21 55.38, 154.75 0.69 M63.55 105.6 C99.79 63.92, 136.02 22.24, 154.75 0.69 M69.2 105.2 C91.73 79.28, 114.27 53.35, 159.73 1.05 M69.2 105.2 C92.57 78.32, 115.94 51.43, 159.73 1.05 M74.18 105.56 C107.61 67.11, 141.03 28.67, 165.38 0.66 M74.18 105.56 C92.85 84.09, 111.52 62.61, 165.38 0.66 M79.83 105.17 C101.27 80.5, 122.71 55.84, 170.36 1.02 M79.83 105.17 C98.59 83.58, 117.36 62, 170.36 1.02 M84.81 105.53 C116.48 69.1, 148.15 32.67, 176.01 0.62 M84.81 105.53 C110.86 75.57, 136.9 45.61, 176.01 0.62 M90.46 105.13 C123.82 66.76, 157.18 28.38, 180.99 0.98 M90.46 105.13 C119.28 71.98, 148.1 38.83, 180.99 0.98 M95.44 105.49 C131.48 64.04, 167.52 22.59, 186.64 0.59 M95.44 105.49 C127.58 68.52, 159.72 31.55, 186.64 0.59 M101.09 105.1 C127.02 75.27, 152.95 45.43, 191.62 0.95 M101.09 105.1 C120.33 82.97, 139.56 60.84, 191.62 0.95 M106.07 105.46 C133.84 73.52, 161.6 41.58, 196.61 1.31 M106.07 105.46 C125.09 83.58, 144.11 61.7, 196.61 1.31 M111.72 105.06 C135.8 77.36, 159.88 49.66, 202.25 0.91 M111.72 105.06 C143.69 68.28, 175.66 31.5, 202.25 0.91 M116.7 105.42 C149.39 67.83, 182.07 30.23, 207.24 1.27 M116.7 105.42 C139.83 78.82, 162.96 52.21, 207.24 1.27 M122.35 105.03 C150.89 72.19, 179.43 39.36, 212.88 0.88 M122.35 105.03 C153.66 69.01, 184.97 32.99, 212.88 0.88 M127.33 105.39 C147.27 82.46, 167.2 59.53, 217.87 1.24 M127.33 105.39 C161.53 66.06, 195.72 26.72, 217.87 1.24 M132.98 105 C158.08 76.12, 183.17 47.25, 224.17 0.09 M132.98 105 C154.7 80, 176.43 55.01, 224.17 0.09 M137.96 105.36 C158.7 81.5, 179.43 57.65, 228.5 1.21 M137.96 105.36 C161.33 78.48, 184.7 51.6, 228.5 1.21 M143.61 104.96 C172.33 71.92, 201.06 38.87, 233.49 1.57 M143.61 104.96 C163.41 82.18, 183.22 59.4, 233.49 1.57 M148.59 105.32 C176.51 73.2, 204.43 41.09, 237.16 3.44 M148.59 105.32 C172.52 77.79, 196.45 50.26, 237.16 3.44 M154.24 104.93 C176.48 79.33, 198.73 53.74, 241.49 4.55 M154.24 104.93 C182.53 72.38, 210.81 39.84, 241.49 4.55 M159.22 105.29 C183.9 76.9, 208.57 48.52, 244.51 7.17 M159.22 105.29 C191.61 68.03, 223.99 30.78, 244.51 7.17 M164.21 105.65 C182.46 84.66, 200.7 63.67, 246.88 10.55 M164.21 105.65 C191 74.83, 217.8 44, 246.88 10.55 M169.85 105.25 C196.97 74.06, 224.09 42.86, 248.58 14.69 M169.85 105.25 C189.1 83.11, 208.35 60.97, 248.58 14.69 M174.84 105.61 C203.94 72.14, 233.03 38.67, 249.63 19.58 M174.84 105.61 C192.54 85.26, 210.23 64.9, 249.63 19.58 M180.48 105.22 C206.24 75.59, 231.99 45.97, 252.65 22.2 M180.48 105.22 C203.19 79.1, 225.89 52.99, 252.65 22.2 M185.47 105.58 C203.2 85.19, 220.92 64.79, 252.39 28.6 M185.47 105.58 C200.21 88.62, 214.95 71.67, 252.39 28.6 M191.11 105.18 C214.88 77.85, 238.64 50.51, 252.78 34.24 M191.11 105.18 C211.61 81.61, 232.1 58.03, 252.78 34.24 M196.1 105.54 C217.89 80.48, 239.68 55.42, 252.52 40.64 M196.1 105.54 C211.67 87.63, 227.24 69.72, 252.52 40.64 M201.75 105.15 C220.77 83.27, 239.79 61.39, 252.92 46.28 M201.75 105.15 C213.62 91.48, 225.5 77.82, 252.92 46.28 M206.73 105.51 C216.99 93.7, 227.26 81.9, 252.66 52.68 M206.73 105.51 C222.66 87.19, 238.59 68.87, 252.66 52.68 M212.38 105.11 C222 94.04, 231.62 82.97, 252.39 59.08 M212.38 105.11 C222 94.04, 231.63 82.96, 252.39 59.08 M217.36 105.47 C227.29 94.06, 237.21 82.64, 252.79 64.72 M217.36 105.47 C225.08 96.59, 232.81 87.71, 252.79 64.72 M223.01 105.08 C234.78 91.53, 246.56 77.98, 252.53 71.12 M223.01 105.08 C234.12 92.29, 245.24 79.5, 252.53 71.12 M226.68 106.95 C236.21 95.98, 245.74 85.02, 250.95 79.02 M226.68 106.95 C231.94 100.89, 237.21 94.84, 250.95 79.02 M232.32 106.55 C236.53 101.72, 240.73 96.88, 250.04 86.18 M232.32 106.55 C238.54 99.4, 244.76 92.24, 250.04 86.18" stroke="#ffc9c9" stroke-width="0.5" fill="none"></path><path d="M26.21 0 M26.21 0 C71.65 0, 117.09 0, 223.87 0 M26.21 0 C88.11 0, 150 0, 223.87 0 M223.87 0 C241.34 0, 250.07 8.74, 250.07 26.21 M223.87 0 C241.34 0, 250.07 8.74, 250.07 26.21 M250.07 26.21 C250.07 43.44, 250.07 60.67, 250.07 78.62 M250.07 26.21 C250.07 43.47, 250.07 60.74, 250.07 78.62 M250.07 78.62 C250.07 96.09, 241.34 104.82, 223.87 104.82 M250.07 78.62 C250.07 96.09, 241.34 104.82, 223.87 104.82 M223.87 104.82 C169.4 104.82, 114.93 104.82, 26.21 104.82 M223.87 104.82 C166.73 104.82, 109.58 104.82, 26.21 104.82 M26.21 104.82 C8.74 104.82, 0 96.09, 0 78.62 M26.21 104.82 C8.74 104.82, 0 96.09, 0 78.62 M0 78.62 C0 58.97, 0 39.32, 0 26.21 M0 78.62 C0 58.24, 0 37.86, 0 26.21 M0 26.21 C0 8.74, 8.74 0, 26.21 0 M0 26.21 C0 8.74, 8.74 0, 26.21 0" stroke="#1e1e1e" stroke-width="1" fill="none"></path></g><g transform="translate(1084.5196805285946 450.2808912241482) rotate(0 56.439971923828125 10)"><text x="0" y="0" font-family="Virgil, Segoe UI Emoji" font-size="16px" fill="#1e1e1e" text-anchor="start" style="white-space: pre;" direction="ltr" dominant-baseline="text-before-edge">Authentication</text></g><g transform="translate(1092.229620264743 505.72308737892155) rotate(0 97.70394897460938 10)"><text x="0" y="0" font-family="Virgil, Segoe UI Emoji" font-size="16px" fill="#1e1e1e" text-anchor="start" style="white-space: pre;" direction="ltr" dominant-baseline="text-before-edge">- Authentication backend</text></g><g transform="translate(1095.355577354544 536.9905798253446) rotate(0 100.37594604492188 10)"><text x="0" y="0" font-family="Virgil, Segoe UI Emoji" font-size="16px" fill="#1e1e1e" text-anchor="start" style="white-space: pre;" direction="ltr" dominant-baseline="text-before-edge">- Authentication frontent</text></g><g stroke-linecap="round" transform="translate(1038.1220550409398 141.34525365972337) rotate(0 178.7669944668354 69.1920872155651)"><path d="M7.86 8.16 C7.86 8.16, 7.86 8.16, 7.86 8.16 M7.86 8.16 C7.86 8.16, 7.86 8.16, 7.86 8.16 M3.66 19.09 C7.51 14.66, 11.36 10.23, 18.1 2.48 M3.66 19.09 C7.88 14.24, 12.09 9.39, 18.1 2.48 M2.75 26.24 C9.16 18.86, 15.57 11.49, 25.05 0.58 M2.75 26.24 C8.02 20.18, 13.28 14.12, 25.05 0.58 M2.48 32.64 C8.37 25.87, 14.25 19.1, 30.7 0.18 M2.48 32.64 C11.87 21.84, 21.25 11.04, 30.7 0.18 M2.88 38.28 C10.96 28.98, 19.04 19.69, 34.37 2.05 M2.88 38.28 C14.96 24.38, 27.04 10.49, 34.37 2.05 M2.62 44.68 C11.72 34.2, 20.82 23.73, 39.36 2.41 M2.62 44.68 C15.26 30.14, 27.89 15.6, 39.36 2.41 M2.36 51.07 C12.1 39.87, 21.84 28.66, 45 2.02 M2.36 51.07 C12.21 39.74, 22.05 28.41, 45 2.02 M2.75 56.72 C12.95 44.99, 23.15 33.25, 49.99 2.38 M2.75 56.72 C18.48 38.63, 34.2 20.53, 49.99 2.38 M2.49 63.11 C15.17 48.53, 27.85 33.94, 55.63 1.98 M2.49 63.11 C19.45 43.61, 36.41 24.1, 55.63 1.98 M2.23 69.51 C18.42 50.89, 34.61 32.26, 60.62 2.34 M2.23 69.51 C16.76 52.8, 31.28 36.09, 60.62 2.34 M2.62 75.16 C22.05 52.81, 41.48 30.46, 66.26 1.95 M2.62 75.16 C20.5 54.59, 38.37 34.03, 66.26 1.95 M2.36 81.55 C18.15 63.39, 33.93 45.23, 71.25 2.31 M2.36 81.55 C21.86 59.12, 41.36 36.69, 71.25 2.31 M2.1 87.95 C26.75 59.6, 51.39 31.25, 76.89 1.91 M2.1 87.95 C27.63 58.58, 53.17 29.21, 76.89 1.91 M2.49 93.59 C18.49 75.2, 34.48 56.8, 81.88 2.27 M2.49 93.59 C31.82 59.86, 61.15 26.12, 81.88 2.27 M2.23 99.99 C35.95 61.21, 69.66 22.42, 87.52 1.88 M2.23 99.99 C20.81 78.62, 39.4 57.24, 87.52 1.88 M1.32 107.14 C33.88 69.69, 66.44 32.23, 92.51 2.24 M1.32 107.14 C27.19 77.38, 53.06 47.62, 92.51 2.24 M0.4 114.3 C26.72 84.01, 53.05 53.73, 98.15 1.85 M0.4 114.3 C21.88 89.59, 43.36 64.87, 98.15 1.85 M1.45 119.19 C41.27 73.38, 81.09 27.57, 103.14 2.21 M1.45 119.19 C36.42 78.95, 71.4 38.72, 103.14 2.21 M3.81 122.56 C35.42 86.2, 67.03 49.84, 108.78 1.81 M3.81 122.56 C40.41 80.46, 77.02 38.35, 108.78 1.81 M5.52 126.7 C30.79 97.63, 56.06 68.56, 113.77 2.17 M5.52 126.7 C39.12 88.05, 72.71 49.4, 113.77 2.17 M7.88 130.08 C43.91 88.63, 79.94 47.19, 119.41 1.78 M7.88 130.08 C52.33 78.95, 96.78 27.82, 119.41 1.78 M10.9 132.7 C49.93 87.8, 88.96 42.9, 124.4 2.14 M10.9 132.7 C43.29 95.44, 75.68 58.17, 124.4 2.14 M13.92 135.33 C54.59 88.54, 95.26 41.75, 130.04 1.74 M13.92 135.33 C43.56 101.23, 73.2 67.14, 130.04 1.74 M18.25 136.44 C43.6 107.28, 68.94 78.13, 135.03 2.1 M18.25 136.44 C43.2 107.74, 68.15 79.04, 135.03 2.1 M22.58 137.56 C55.73 99.42, 88.88 61.29, 140.67 1.71 M22.58 137.56 C69.47 83.62, 116.35 29.68, 140.67 1.71 M26.26 139.42 C59.66 101, 93.06 62.58, 145.66 2.07 M26.26 139.42 C71.86 86.97, 117.46 34.51, 145.66 2.07 M32.55 138.28 C79.23 84.58, 125.9 30.89, 150.65 2.43 M32.55 138.28 C79.12 84.71, 125.68 31.15, 150.65 2.43 M37.54 138.64 C84.05 85.13, 130.56 31.63, 156.29 2.03 M37.54 138.64 C75.44 95.04, 113.34 51.44, 156.29 2.03 M43.18 138.24 C73.58 103.27, 103.98 68.31, 161.28 2.39 M43.18 138.24 C67.94 109.76, 92.69 81.29, 161.28 2.39 M48.17 138.6 C89.18 91.43, 130.19 44.25, 166.92 2 M48.17 138.6 C83.39 98.09, 118.6 57.58, 166.92 2 M53.16 138.96 C78.52 109.78, 103.89 80.6, 171.91 2.36 M53.16 138.96 C88.51 98.29, 123.87 57.62, 171.91 2.36 M58.8 138.57 C102.27 88.56, 145.75 38.55, 177.55 1.96 M58.8 138.57 C85.81 107.5, 112.82 76.43, 177.55 1.96 M63.79 138.93 C98.59 98.89, 133.4 58.85, 182.54 2.32 M63.79 138.93 C100.08 97.18, 136.37 55.43, 182.54 2.32 M69.43 138.53 C94.61 109.57, 119.79 80.6, 188.18 1.93 M69.43 138.53 C113.06 88.34, 156.69 38.16, 188.18 1.93 M74.42 138.89 C110.98 96.83, 147.55 54.76, 193.17 2.29 M74.42 138.89 C118.64 88.02, 162.86 37.15, 193.17 2.29 M80.06 138.5 C112.61 101.05, 145.17 63.6, 198.81 1.9 M80.06 138.5 C105.49 109.25, 130.92 80, 198.81 1.9 M85.05 138.86 C126.96 90.65, 168.86 42.44, 203.8 2.26 M85.05 138.86 C112.29 107.52, 139.52 76.19, 203.8 2.26 M90.69 138.46 C123.48 100.75, 156.27 63.03, 209.44 1.86 M90.69 138.46 C115.34 110.11, 139.99 81.76, 209.44 1.86 M95.68 138.82 C131.98 97.06, 168.29 55.3, 214.43 2.22 M95.68 138.82 C131.31 97.83, 166.95 56.84, 214.43 2.22 M101.32 138.43 C145.8 87.26, 190.28 36.1, 220.07 1.83 M101.32 138.43 C128.61 107.04, 155.89 75.65, 220.07 1.83 M106.31 138.79 C145.12 94.14, 183.93 49.5, 225.06 2.19 M106.31 138.79 C130.08 111.44, 153.86 84.09, 225.06 2.19 M111.95 138.39 C142.69 103.04, 173.42 67.68, 230.7 1.79 M111.95 138.39 C148.18 96.72, 184.41 55.04, 230.7 1.79 M116.94 138.75 C159.63 89.64, 202.32 40.53, 235.69 2.15 M116.94 138.75 C145.16 106.29, 173.38 73.82, 235.69 2.15 M122.58 138.36 C152.41 104.05, 182.23 69.74, 241.33 1.76 M122.58 138.36 C158.21 97.38, 193.83 56.4, 241.33 1.76 M127.57 138.72 C154.87 107.31, 182.17 75.91, 246.32 2.12 M127.57 138.72 C164.68 96.03, 201.78 53.35, 246.32 2.12 M133.21 138.33 C157.74 110.11, 182.26 81.9, 251.96 1.72 M133.21 138.33 C159.71 107.84, 186.2 77.36, 251.96 1.72 M138.2 138.69 C179.39 91.3, 220.58 43.91, 256.95 2.08 M138.2 138.69 C163.96 109.05, 189.72 79.41, 256.95 2.08 M143.84 138.29 C169.1 109.23, 194.36 80.17, 262.59 1.69 M143.84 138.29 C182.48 93.85, 221.11 49.4, 262.59 1.69 M148.83 138.65 C172.84 111.03, 196.85 83.41, 267.58 2.05 M148.83 138.65 C188.67 92.82, 228.51 46.99, 267.58 2.05 M154.47 138.26 C188.77 98.8, 223.07 59.35, 272.56 2.41 M154.47 138.26 C201.68 83.96, 248.88 29.65, 272.56 2.41 M159.46 138.62 C191.56 101.69, 223.66 64.76, 278.21 2.01 M159.46 138.62 C200.4 91.52, 241.35 44.42, 278.21 2.01 M164.45 138.98 C199.25 98.94, 234.05 58.91, 283.19 2.37 M164.45 138.98 C197.87 100.53, 231.29 62.08, 283.19 2.37 M170.09 138.58 C206.75 96.41, 243.4 54.25, 288.84 1.98 M170.09 138.58 C207.33 95.74, 244.57 52.9, 288.84 1.98 M175.08 138.94 C199.64 110.68, 224.21 82.42, 293.82 2.34 M175.08 138.94 C216.39 91.41, 257.71 43.88, 293.82 2.34 M180.72 138.55 C211.29 103.38, 241.85 68.22, 299.47 1.94 M180.72 138.55 C204.83 110.81, 228.94 83.08, 299.47 1.94 M185.71 138.91 C215.5 104.63, 245.3 70.35, 304.45 2.3 M185.71 138.91 C211.69 109.01, 237.68 79.12, 304.45 2.3 M191.35 138.51 C231.66 92.14, 271.97 45.77, 310.1 1.91 M191.35 138.51 C234.83 88.49, 278.31 38.47, 310.1 1.91 M196.34 138.87 C241.12 87.36, 285.9 35.84, 315.08 2.27 M196.34 138.87 C226.73 103.91, 257.12 68.95, 315.08 2.27 M201.98 138.48 C244.81 89.21, 287.64 39.94, 320.73 1.88 M201.98 138.48 C231.49 104.54, 260.99 70.59, 320.73 1.88 M206.97 138.84 C251.41 87.72, 295.85 36.59, 327.03 0.73 M206.97 138.84 C238.56 102.49, 270.15 66.15, 327.03 0.73 M212.61 138.44 C237.63 109.66, 262.66 80.87, 332.01 1.09 M212.61 138.44 C246.94 98.95, 281.27 59.47, 332.01 1.09 M217.6 138.8 C258.63 91.6, 299.67 44.39, 335.69 2.96 M217.6 138.8 C263.26 86.27, 308.93 33.74, 335.69 2.96 M223.24 138.41 C265.24 90.1, 307.23 41.78, 340.67 3.32 M223.24 138.41 C248.25 109.64, 273.26 80.86, 340.67 3.32 M228.23 138.77 C258.36 104.11, 288.49 69.44, 344.35 5.19 M228.23 138.77 C253.19 110.06, 278.15 81.34, 344.35 5.19 M233.87 138.37 C274.85 91.23, 315.84 44.08, 348.02 7.06 M233.87 138.37 C273.47 92.82, 313.07 47.26, 348.02 7.06 M238.86 138.73 C282.53 88.5, 326.19 38.26, 351.04 9.68 M238.86 138.73 C270.09 102.81, 301.32 66.88, 351.04 9.68 M244.5 138.34 C282.71 94.39, 320.92 50.44, 353.41 13.06 M244.5 138.34 C277.54 100.33, 310.58 62.32, 353.41 13.06 M249.49 138.7 C276.18 107.99, 302.88 77.28, 355.11 17.19 M249.49 138.7 C286.44 96.2, 323.38 53.69, 355.11 17.19 M255.13 138.31 C291.48 96.49, 327.82 54.68, 358.13 19.82 M255.13 138.31 C284.87 104.09, 314.62 69.87, 358.13 19.82 M260.12 138.67 C289.51 104.85, 318.91 71.04, 358.53 25.46 M260.12 138.67 C293.98 99.71, 327.84 60.76, 358.53 25.46 M265.76 138.27 C299.79 99.13, 333.81 59.99, 358.26 31.86 M265.76 138.27 C284.4 116.82, 303.05 95.38, 358.26 31.86 M270.75 138.63 C289.09 117.53, 307.44 96.42, 358.66 37.5 M270.75 138.63 C289.94 116.55, 309.14 94.47, 358.66 37.5 M276.39 138.24 C299.45 111.71, 322.5 85.19, 358.4 43.9 M276.39 138.24 C303.65 106.88, 330.91 75.52, 358.4 43.9 M281.38 138.6 C312.12 103.23, 342.86 67.87, 358.79 49.54 M281.38 138.6 C302.42 114.39, 323.47 90.18, 358.79 49.54 M286.36 138.96 C312.43 108.98, 338.49 78.99, 358.53 55.94 M286.36 138.96 C305.43 117.02, 324.5 95.08, 358.53 55.94 M292.01 138.56 C312.62 114.85, 333.24 91.13, 358.27 62.34 M292.01 138.56 C308.31 119.8, 324.62 101.04, 358.27 62.34 M296.99 138.92 C319.13 113.46, 341.26 88, 358.66 67.98 M296.99 138.92 C319.94 112.52, 342.89 86.12, 358.66 67.98 M302.64 138.53 C321.08 117.31, 339.53 96.09, 358.4 74.38 M302.64 138.53 C315.17 124.11, 327.71 109.69, 358.4 74.38 M307.62 138.89 C318.29 126.62, 328.95 114.36, 358.8 80.02 M307.62 138.89 C324.17 119.85, 340.72 100.82, 358.8 80.02 M313.27 138.49 C325.44 124.49, 337.61 110.49, 358.54 86.42 M313.27 138.49 C328.37 121.12, 343.48 103.74, 358.54 86.42 M318.25 138.85 C331.52 123.59, 344.79 108.33, 358.93 92.06 M318.25 138.85 C333.6 121.2, 348.95 103.54, 358.93 92.06 M323.9 138.46 C333.32 127.62, 342.74 116.78, 358.67 98.46 M323.9 138.46 C332.28 128.82, 340.65 119.18, 358.67 98.46 M327.57 140.33 C337.4 129.03, 347.22 117.73, 359.06 104.1 M327.57 140.33 C336.57 129.98, 345.57 119.63, 359.06 104.1 M333.87 139.18 C342.16 129.65, 350.44 120.12, 360.11 108.99 M333.87 139.18 C340.61 131.43, 347.35 123.68, 360.11 108.99 M340.83 137.28 C345.38 132.04, 349.94 126.8, 359.2 116.14 M340.83 137.28 C348.03 128.98, 355.24 120.69, 359.2 116.14" stroke="#a5d8ff" stroke-width="0.5" fill="none"></path><path d="M32 0 M32 0 C124.19 0, 216.38 0, 325.53 0 M32 0 C100.53 0, 169.05 0, 325.53 0 M325.53 0 C346.87 0, 357.53 10.67, 357.53 32 M325.53 0 C346.87 0, 357.53 10.67, 357.53 32 M357.53 32 C357.53 50.01, 357.53 68.02, 357.53 106.38 M357.53 32 C357.53 53.81, 357.53 75.61, 357.53 106.38 M357.53 106.38 C357.53 127.72, 346.87 138.38, 325.53 138.38 M357.53 106.38 C357.53 127.72, 346.87 138.38, 325.53 138.38 M325.53 138.38 C265.84 138.38, 206.15 138.38, 32 138.38 M325.53 138.38 C238.26 138.38, 150.99 138.38, 32 138.38 M32 138.38 C10.67 138.38, 0 127.72, 0 106.38 M32 138.38 C10.67 138.38, 0 127.72, 0 106.38 M0 106.38 C0 77.5, 0 48.63, 0 32 M0 106.38 C0 88.9, 0 71.42, 0 32 M0 32 C0 10.67, 10.67 0, 32 0 M0 32 C0 10.67, 10.67 0, 32 0" stroke="#1e1e1e" stroke-width="1" fill="none"></path></g><g transform="translate(1043.1220550409398 160.5373408752884) rotate(0 173.22390747070312 50)"><text x="0" y="0" font-family="Virgil, Segoe UI Emoji" font-size="16px" fill="#1e1e1e" text-anchor="start" style="white-space: pre;" direction="ltr" dominant-baseline="text-before-edge">- Can be hosted in a serverless function</text><text x="0" y="20" font-family="Virgil, Segoe UI Emoji" font-size="16px" fill="#1e1e1e" text-anchor="start" style="white-space: pre;" direction="ltr" dominant-baseline="text-before-edge">- Communicates with authentication backend</text><text x="0" y="40" font-family="Virgil, Segoe UI Emoji" font-size="16px" fill="#1e1e1e" text-anchor="start" style="white-space: pre;" direction="ltr" dominant-baseline="text-before-edge">- Uses the databse to resolve GraphQL </text><text x="0" y="60" font-family="Virgil, Segoe UI Emoji" font-size="16px" fill="#1e1e1e" text-anchor="start" style="white-space: pre;" direction="ltr" dominant-baseline="text-before-edge">queries and mutations</text><text x="0" y="80" font-family="Virgil, Segoe UI Emoji" font-size="16px" fill="#1e1e1e" text-anchor="start" style="white-space: pre;" direction="ltr" dominant-baseline="text-before-edge"></text></g><g transform="translate(1047.6670433099484 116.96894464926845) rotate(0 100.1119384765625 10)"><text x="0" y="0" font-family="Virgil, Segoe UI Emoji" font-size="16px" fill="#1e1e1e" text-anchor="start" style="white-space: pre;" direction="ltr" dominant-baseline="text-before-edge">Hosted GraphQL Endpoint</text></g><g mask="url(#mask-gw2umrejFYXunniZQnBgu)" stroke-linecap="round"><g transform="translate(1027.1068650524667 224.88298449865107) rotate(0 -143.1532459634028 -1.624945194173307)"><path d="M0 0 C-47.72 -0.54, -238.59 -2.71, -286.31 -3.25 M0 0 C-47.72 -0.54, -238.59 -2.71, -286.31 -3.25" stroke="#1e1e1e" stroke-width="1" fill="none"></path></g><g transform="translate(1027.1068650524667 224.88298449865107) rotate(0 -143.1532459634028 -1.624945194173307)"><path d="M-258 -13.19 C-264.7 -10.84, -271.4 -8.48, -286.31 -3.25 M-258 -13.19 C-268.6 -9.47, -279.2 -5.74, -286.31 -3.25" stroke="#1e1e1e" stroke-width="1" fill="none"></path></g><g transform="translate(1027.1068650524667 224.88298449865107) rotate(0 -143.1532459634028 -1.624945194173307)"><path d="M-258.23 7.33 C-264.88 4.83, -271.53 2.32, -286.31 -3.25 M-258.23 7.33 C-268.75 3.37, -279.26 -0.6, -286.31 -3.25" stroke="#1e1e1e" stroke-width="1" fill="none"></path></g></g><mask id="mask-gw2umrejFYXunniZQnBgu"><rect x="0" y="0" fill="#fff" width="1413.4133569792723" height="328.1328748869977"></rect><rect x="782.9696713351577" y="203.25803930447785" fill="#000" width="201.9678955078125" height="40" opacity="1"></rect></mask><g transform="translate(782.9696713351577 203.25803930447773) rotate(0 100.98394775390614 19.99999999999997)"><text x="100.98394775390625" y="0" font-family="Virgil, Segoe UI Emoji" font-size="16px" fill="#1e1e1e" text-anchor="middle" style="white-space: pre;" direction="ltr" dominant-baseline="text-before-edge">Uses the database to </text><text x="100.98394775390625" y="20" font-family="Virgil, Segoe UI Emoji" font-size="16px" fill="#1e1e1e" text-anchor="middle" style="white-space: pre;" direction="ltr" dominant-baseline="text-before-edge">resolve and mutate data</text></g><g mask="url(#mask--nFipBuSWAQ-OqO-OzZyT)" stroke-linecap="round"><g transform="translate(1253.636839649499 291.7790426128227) rotate(0 -2.6762214469022183 90.57597315191839)"><path d="M0 0 C-0.89 30.19, -4.46 150.96, -5.35 181.15 M0 0 C-0.89 30.19, -4.46 150.96, -5.35 181.15" stroke="#1e1e1e" stroke-width="1" fill="none"></path></g><g transform="translate(1253.636839649499 291.7790426128227) rotate(0 -2.6762214469022183 90.57597315191839)"><path d="M-14.78 152.67 C-12.41 159.82, -10.05 166.96, -5.35 181.15 M-14.78 152.67 C-12.02 161.01, -9.25 169.36, -5.35 181.15" stroke="#1e1e1e" stroke-width="1" fill="none"></path></g><g transform="translate(1253.636839649499 291.7790426128227) rotate(0 -2.6762214469022183 90.57597315191839)"><path d="M5.74 153.28 C2.95 160.27, 0.17 167.27, -5.35 181.15 M5.74 153.28 C2.49 161.44, -0.76 169.61, -5.35 181.15" stroke="#1e1e1e" stroke-width="1" fill="none"></path></g></g><mask id="mask--nFipBuSWAQ-OqO-OzZyT"><rect x="0" y="0" fill="#fff" width="1358.9892825433035" height="572.9309889166595"></rect><rect x="1176.0566570209564" y="362.3550157647411" fill="#000" width="149.80792236328125" height="40" opacity="1"></rect></mask><g transform="translate(1176.0566570209562 362.3550157647412) rotate(0 74.90396118164062 19.999999999999943)"><text x="74.90396118164062" y="0" font-family="Virgil, Segoe UI Emoji" font-size="16px" fill="#1e1e1e" text-anchor="middle" style="white-space: pre;" direction="ltr" dominant-baseline="text-before-edge">See if the user is </text><text x="74.90396118164062" y="20" font-family="Virgil, Segoe UI Emoji" font-size="16px" fill="#1e1e1e" text-anchor="middle" style="white-space: pre;" direction="ltr" dominant-baseline="text-before-edge">authenticated</text></g><g stroke-linecap="round" transform="translate(20.2475794655561 516.3300198698105) rotate(0 122 55)"><path d="M6.66 7.12 C6.66 7.12, 6.66 7.12, 6.66 7.12 M6.66 7.12 C6.66 7.12, 6.66 7.12, 6.66 7.12 M3.12 17.29 C6.07 13.9, 9.01 10.51, 16.24 2.19 M3.12 17.29 C6.9 12.94, 10.68 8.59, 16.24 2.19 M2.86 23.69 C7.2 18.7, 11.53 13.71, 21.89 1.8 M2.86 23.69 C9.91 15.57, 16.96 7.46, 21.89 1.8 M3.26 29.33 C9.22 22.46, 15.19 15.6, 28.19 0.65 M3.26 29.33 C11.26 20.12, 19.27 10.91, 28.19 0.65 M2.99 35.73 C10.1 27.56, 17.2 19.39, 33.83 0.26 M2.99 35.73 C13.43 23.72, 23.87 11.72, 33.83 0.26 M3.39 41.37 C11.53 32.01, 19.67 22.65, 38.82 0.62 M3.39 41.37 C10.65 33.02, 17.92 24.66, 38.82 0.62 M3.13 47.77 C18.01 30.65, 32.89 13.53, 43.8 0.98 M3.13 47.77 C19.26 29.21, 35.4 10.64, 43.8 0.98 M2.87 54.17 C12.49 43.1, 22.11 32.03, 49.45 0.58 M2.87 54.17 C16.47 38.52, 30.07 22.87, 49.45 0.58 M3.26 59.81 C23.72 36.28, 44.17 12.75, 54.43 0.94 M3.26 59.81 C17.66 43.25, 32.06 26.68, 54.43 0.94 M3 66.21 C15.22 52.15, 27.44 38.09, 60.08 0.55 M3 66.21 C24.5 41.47, 46 16.74, 60.08 0.55 M3.39 71.85 C26.82 44.91, 50.24 17.96, 65.06 0.91 M3.39 71.85 C23.17 49.1, 42.94 26.36, 65.06 0.91 M3.13 78.25 C18.61 60.44, 34.09 42.63, 70.71 0.51 M3.13 78.25 C29.89 47.47, 56.64 16.69, 70.71 0.51 M2.87 84.65 C27.4 56.42, 51.94 28.2, 75.69 0.87 M2.87 84.65 C27.26 56.59, 51.65 28.53, 75.69 0.87 M2.61 91.04 C23.18 67.38, 43.76 43.71, 81.34 0.48 M2.61 91.04 C28.49 61.27, 54.36 31.51, 81.34 0.48 M3.66 95.93 C35.45 59.36, 67.24 22.79, 86.32 0.84 M3.66 95.93 C31.5 63.91, 59.33 31.89, 86.32 0.84 M5.37 100.07 C27.3 74.83, 49.24 49.6, 91.97 0.44 M5.37 100.07 C31.01 70.56, 56.66 41.06, 91.97 0.44 M7.73 103.44 C27.3 80.94, 46.86 58.43, 96.95 0.8 M7.73 103.44 C28.34 79.74, 48.94 56.04, 96.95 0.8 M10.75 106.07 C45.68 65.89, 80.6 25.71, 102.6 0.41 M10.75 106.07 C34.78 78.43, 58.81 50.78, 102.6 0.41 M13.77 108.69 C34.43 84.92, 55.1 61.15, 107.58 0.77 M13.77 108.69 C43.27 74.76, 72.76 40.83, 107.58 0.77 M17.44 110.56 C51.01 71.95, 84.57 33.34, 113.23 0.38 M17.44 110.56 C49.12 74.12, 80.79 37.68, 113.23 0.38 M22.43 110.92 C55.91 72.41, 89.39 33.89, 118.21 0.74 M22.43 110.92 C58.47 69.46, 94.52 27.99, 118.21 0.74 M28.07 110.53 C57.26 76.96, 86.44 43.38, 123.86 0.34 M28.07 110.53 C52.12 82.86, 76.17 55.2, 123.86 0.34 M33.71 110.13 C57.68 82.56, 81.65 55, 128.84 0.7 M33.71 110.13 C71.57 66.58, 109.43 23.03, 128.84 0.7 M38.7 110.49 C69.05 75.58, 99.39 40.68, 134.49 0.31 M38.7 110.49 C68.65 76.04, 98.6 41.59, 134.49 0.31 M43.69 110.85 C77.7 71.72, 111.72 32.6, 139.47 0.67 M43.69 110.85 C67.91 82.99, 92.13 55.13, 139.47 0.67 M49.33 110.46 C77.43 78.13, 105.53 45.81, 145.12 0.27 M49.33 110.46 C73.05 83.18, 96.77 55.89, 145.12 0.27 M54.32 110.82 C89.72 70.1, 125.12 29.38, 150.1 0.63 M54.32 110.82 C74.12 88.04, 93.92 65.26, 150.1 0.63 M59.96 110.42 C86 80.47, 112.04 50.51, 155.09 0.99 M59.96 110.42 C91.37 74.29, 122.78 38.16, 155.09 0.99 M64.95 110.78 C102.17 67.97, 139.39 25.15, 160.73 0.6 M64.95 110.78 C85.77 86.83, 106.6 62.87, 160.73 0.6 M70.59 110.39 C101.99 74.27, 133.4 38.14, 165.72 0.96 M70.59 110.39 C96.93 80.1, 123.26 49.8, 165.72 0.96 M75.58 110.75 C112.77 67.97, 149.95 25.19, 171.36 0.56 M75.58 110.75 C98.09 84.85, 120.6 58.95, 171.36 0.56 M81.22 110.36 C106.67 81.08, 132.11 51.81, 176.35 0.92 M81.22 110.36 C114.16 72.46, 147.1 34.57, 176.35 0.92 M86.21 110.72 C117.58 74.63, 148.94 38.55, 181.99 0.53 M86.21 110.72 C115.12 77.46, 144.03 44.2, 181.99 0.53 M91.85 110.32 C122.64 74.9, 153.44 39.48, 186.98 0.89 M91.85 110.32 C114.62 84.13, 137.39 57.94, 186.98 0.89 M96.84 110.68 C120.59 83.36, 144.35 56.03, 192.62 0.49 M96.84 110.68 C121 82.89, 145.16 55.1, 192.62 0.49 M102.48 110.29 C128.1 80.81, 153.73 51.34, 197.61 0.85 M102.48 110.29 C140.44 66.62, 178.41 22.95, 197.61 0.85 M107.47 110.65 C143.33 69.4, 179.18 28.15, 203.25 0.46 M107.47 110.65 C127.86 87.19, 148.25 63.73, 203.25 0.46 M113.11 110.25 C142.4 76.56, 171.69 42.86, 208.24 0.82 M113.11 110.25 C142.67 76.25, 172.22 42.26, 208.24 0.82 M118.1 110.61 C138.58 87.05, 159.07 63.48, 213.88 0.42 M118.1 110.61 C147.09 77.27, 176.07 43.92, 213.88 0.42 M123.74 110.22 C159.23 69.4, 194.71 28.58, 218.22 1.54 M123.74 110.22 C142.79 88.31, 161.84 66.4, 218.22 1.54 M128.73 110.58 C152.98 82.68, 177.23 54.78, 223.2 1.9 M128.73 110.58 C160.14 74.45, 191.55 38.31, 223.2 1.9 M134.37 110.18 C157.19 83.93, 180.01 57.69, 228.85 1.51 M134.37 110.18 C166.63 73.07, 198.89 35.96, 228.85 1.51 M139.36 110.54 C165.06 80.98, 190.76 51.41, 232.52 3.37 M139.36 110.54 C167.83 77.79, 196.3 45.04, 232.52 3.37 M145 110.15 C163.79 88.53, 182.59 66.91, 235.54 6 M145 110.15 C175.97 74.53, 206.93 38.91, 235.54 6 M149.99 110.51 C170.11 87.37, 190.22 64.23, 238.56 8.62 M149.99 110.51 C178.1 78.17, 206.21 45.83, 238.56 8.62 M154.98 110.87 C172.89 90.27, 190.79 69.67, 240.92 12 M154.98 110.87 C177.09 85.43, 199.2 60, 240.92 12 M160.62 110.47 C189.25 77.54, 217.87 44.61, 242.63 16.14 M160.62 110.47 C181.57 86.38, 202.52 62.28, 242.63 16.14 M165.61 110.83 C189.93 82.86, 214.24 54.88, 243.68 21.02 M165.61 110.83 C187.73 85.38, 209.85 59.93, 243.68 21.02 M171.25 110.44 C190.24 88.6, 209.23 66.75, 243.42 27.42 M171.25 110.44 C192.86 85.57, 214.48 60.71, 243.42 27.42 M176.24 110.8 C190.92 93.91, 205.59 77.03, 243.81 33.06 M176.24 110.8 C193.72 90.69, 211.2 70.58, 243.81 33.06 M181.88 110.41 C198.75 91, 215.61 71.6, 243.55 39.46 M181.88 110.41 C195.54 94.69, 209.2 78.97, 243.55 39.46 M186.87 110.77 C207.34 87.21, 227.81 63.66, 243.94 45.11 M186.87 110.77 C207.63 86.88, 228.39 63, 243.94 45.11 M192.51 110.37 C206.19 94.64, 219.86 78.91, 243.68 51.5 M192.51 110.37 C207.13 93.56, 221.75 76.74, 243.68 51.5 M197.5 110.73 C206.9 99.91, 216.3 89.1, 244.08 57.15 M197.5 110.73 C207.81 98.87, 218.12 87.01, 244.08 57.15 M203.14 110.34 C211.85 100.31, 220.56 90.29, 243.82 63.54 M203.14 110.34 C217.3 94.04, 231.47 77.75, 243.82 63.54 M208.13 110.7 C220.59 96.36, 233.06 82.02, 244.21 69.19 M208.13 110.7 C222.43 94.25, 236.72 77.8, 244.21 69.19 M213.77 110.3 C221.83 101.03, 229.89 91.76, 243.95 75.59 M213.77 110.3 C224.56 97.89, 235.36 85.47, 243.95 75.59 M218.1 111.42 C223.9 104.74, 229.7 98.07, 244.34 81.23 M218.1 111.42 C225.86 102.49, 233.62 93.56, 244.34 81.23 M224.4 110.27 C230.23 103.57, 236.05 96.86, 246.71 84.61 M224.4 110.27 C230.08 103.73, 235.76 97.19, 246.71 84.61 M233.32 106.1 C237.19 101.65, 241.06 97.2, 243.16 94.78 M233.32 106.1 C235.97 103.05, 238.62 100.01, 243.16 94.78" stroke="#ffec99" stroke-width="0.5" fill="none"></path><path d="M27.5 0 M27.5 0 C68.14 0, 108.77 0, 216.5 0 M27.5 0 C78.97 0, 130.44 0, 216.5 0 M216.5 0 C234.83 0, 244 9.17, 244 27.5 M216.5 0 C234.83 0, 244 9.17, 244 27.5 M244 27.5 C244 48.18, 244 68.87, 244 82.5 M244 27.5 C244 49.04, 244 70.59, 244 82.5 M244 82.5 C244 100.83, 234.83 110, 216.5 110 M244 82.5 C244 100.83, 234.83 110, 216.5 110 M216.5 110 C154.4 110, 92.3 110, 27.5 110 M216.5 110 C155.22 110, 93.95 110, 27.5 110 M27.5 110 C9.17 110, 0 100.83, 0 82.5 M27.5 110 C9.17 110, 0 100.83, 0 82.5 M0 82.5 C0 70.46, 0 58.42, 0 27.5 M0 82.5 C0 61.45, 0 40.41, 0 27.5 M0 27.5 C0 9.17, 9.17 0, 27.5 0 M0 27.5 C0 9.17, 9.17 0, 27.5 0" stroke="#1e1e1e" stroke-width="1" fill="none"></path></g><g transform="translate(25.2475794655561 521.3300198698105) rotate(0 107.2879409790039 50)"><text x="0" y="0" font-family="Virgil, Segoe UI Emoji" font-size="16px" fill="#1e1e1e" text-anchor="start" style="white-space: pre;" direction="ltr" dominant-baseline="text-before-edge">- Starts a local server in </text><text x="0" y="20" font-family="Virgil, Segoe UI Emoji" font-size="16px" fill="#1e1e1e" text-anchor="start" style="white-space: pre;" direction="ltr" dominant-baseline="text-before-edge">dev</text><text x="0" y="40" font-family="Virgil, Segoe UI Emoji" font-size="16px" fill="#1e1e1e" text-anchor="start" style="white-space: pre;" direction="ltr" dominant-baseline="text-before-edge">- Uses Vite to build the </text><text x="0" y="60" font-family="Virgil, Segoe UI Emoji" font-size="16px" fill="#1e1e1e" text-anchor="start" style="white-space: pre;" direction="ltr" dominant-baseline="text-before-edge">frontend and run a dev </text><text x="0" y="80" font-family="Virgil, Segoe UI Emoji" font-size="16px" fill="#1e1e1e" text-anchor="start" style="white-space: pre;" direction="ltr" dominant-baseline="text-before-edge">server</text></g><g stroke-linecap="round"><g transform="translate(227.06821896579356 511.4274150991616) rotate(0 -12.94527802513602 -61.83217691134121)"><path d="M0 0 C-4.32 -20.61, -21.58 -103.05, -25.89 -123.66 M0 0 C-4.32 -20.61, -21.58 -103.05, -25.89 -123.66" stroke="#1e1e1e" stroke-width="1" fill="none"></path></g><g transform="translate(227.06821896579356 511.4274150991616) rotate(0 -12.94527802513602 -61.83217691134121)"><path d="M-10.07 -98.17 C-14.63 -105.52, -19.18 -112.86, -25.89 -123.66 M-10.07 -98.17 C-15.72 -107.28, -21.38 -116.39, -25.89 -123.66" stroke="#1e1e1e" stroke-width="1" fill="none"></path></g><g transform="translate(227.06821896579356 511.4274150991616) rotate(0 -12.94527802513602 -61.83217691134121)"><path d="M-30.16 -93.97 C-28.93 -102.52, -27.7 -111.07, -25.89 -123.66 M-30.16 -93.97 C-28.63 -104.58, -27.11 -115.19, -25.89 -123.66" stroke="#1e1e1e" stroke-width="1" fill="none"></path></g></g><mask></mask><g stroke-linecap="round" transform="translate(465.18494098237466 498.24378234438785) rotate(0 135.50000000000006 59)"><path d="M7.2 7.58 C7.2 7.58, 7.2 7.58, 7.2 7.58 M7.2 7.58 C7.2 7.58, 7.2 7.58, 7.2 7.58 M3.65 17.75 C8.87 11.75, 14.09 5.75, 16.78 2.66 M3.65 17.75 C7.74 13.05, 11.83 8.35, 16.78 2.66 M2.74 24.9 C7.25 19.71, 11.77 14.51, 23.07 1.51 M2.74 24.9 C9.72 16.87, 16.71 8.83, 23.07 1.51 M3.13 30.55 C8.75 24.09, 14.36 17.63, 29.37 0.36 M3.13 30.55 C12.73 19.5, 22.33 8.46, 29.37 0.36 M2.87 36.95 C9.66 29.13, 16.46 21.31, 35.02 -0.04 M2.87 36.95 C14.5 23.56, 26.14 10.18, 35.02 -0.04 M2.61 43.34 C16.92 26.88, 31.22 10.43, 40 0.32 M2.61 43.34 C12.96 31.44, 23.31 19.53, 40 0.32 M3 48.99 C18.64 31, 34.27 13.01, 45.65 -0.07 M3 48.99 C12.69 37.85, 22.37 26.71, 45.65 -0.07 M2.74 55.38 C17.78 38.08, 32.82 20.78, 50.63 0.29 M2.74 55.38 C12.8 43.81, 22.86 32.24, 50.63 0.29 M3.14 61.03 C15.22 47.13, 27.3 33.23, 56.28 -0.1 M3.14 61.03 C19.79 41.87, 36.43 22.72, 56.28 -0.1 M2.87 67.42 C14.65 53.88, 26.42 40.34, 61.26 0.26 M2.87 67.42 C15.94 52.4, 29 37.38, 61.26 0.26 M2.61 73.82 C26.12 46.79, 49.62 19.75, 66.91 -0.14 M2.61 73.82 C17.86 56.29, 33.1 38.75, 66.91 -0.14 M3.01 79.47 C25.15 53.99, 47.3 28.52, 71.89 0.22 M3.01 79.47 C28.33 50.33, 53.66 21.2, 71.89 0.22 M2.75 85.86 C24.16 61.23, 45.58 36.59, 77.54 -0.17 M2.75 85.86 C29.45 55.14, 56.16 24.42, 77.54 -0.17 M3.14 91.51 C29.53 61.15, 55.91 30.8, 82.52 0.19 M3.14 91.51 C33.64 56.42, 64.14 21.34, 82.52 0.19 M2.88 97.9 C30.81 65.77, 58.75 33.63, 88.17 -0.21 M2.88 97.9 C26.26 71.01, 49.64 44.11, 88.17 -0.21 M3.93 102.79 C37.49 64.18, 71.06 25.57, 93.15 0.15 M3.93 102.79 C22.47 81.46, 41.02 60.13, 93.15 0.15 M4.98 107.68 C38.73 68.86, 72.48 30.03, 98.8 -0.24 M4.98 107.68 C36.06 71.93, 67.14 36.17, 98.8 -0.24 M7.34 111.06 C43.74 69.2, 80.13 27.33, 103.78 0.12 M7.34 111.06 C32.91 81.64, 58.49 52.23, 103.78 0.12 M11.02 112.93 C39.2 80.51, 67.39 48.08, 109.43 -0.28 M11.02 112.93 C41.9 77.41, 72.78 41.88, 109.43 -0.28 M14.04 115.55 C48.49 75.92, 82.95 36.28, 114.41 0.08 M14.04 115.55 C51.68 72.25, 89.32 28.96, 114.41 0.08 M17.71 117.42 C52.67 77.21, 87.63 36.99, 119.4 0.44 M17.71 117.42 C53.21 76.59, 88.7 35.76, 119.4 0.44 M22.7 117.78 C49.73 86.69, 76.75 55.6, 125.04 0.05 M22.7 117.78 C48.12 88.54, 73.53 59.3, 125.04 0.05 M27.69 118.14 C48.25 94.48, 68.82 70.83, 130.03 0.41 M27.69 118.14 C48.84 93.81, 69.98 69.48, 130.03 0.41 M31.36 120.01 C53.55 94.48, 75.74 68.96, 135.67 0.01 M31.36 120.01 C71.88 73.4, 112.4 26.79, 135.67 0.01 M37 119.62 C63.93 88.64, 90.86 57.67, 140.66 0.37 M37 119.62 C78.3 72.11, 119.6 24.61, 140.66 0.37 M41.99 119.98 C67.56 90.57, 93.12 61.16, 146.3 -0.02 M41.99 119.98 C82.74 73.1, 123.49 26.22, 146.3 -0.02 M47.63 119.58 C84.43 77.26, 121.22 34.93, 151.29 0.34 M47.63 119.58 C76.48 86.4, 105.32 53.22, 151.29 0.34 M52.62 119.94 C83.88 83.99, 115.14 48.03, 156.94 -0.05 M52.62 119.94 C77.92 90.84, 103.22 61.73, 156.94 -0.05 M58.26 119.55 C84.59 89.26, 110.92 58.98, 161.92 0.31 M58.26 119.55 C93.76 78.72, 129.26 37.88, 161.92 0.31 M63.25 119.91 C94.33 84.16, 125.4 48.41, 167.57 -0.09 M63.25 119.91 C86.61 93.04, 109.96 66.18, 167.57 -0.09 M68.89 119.51 C105.92 76.92, 142.95 34.33, 172.55 0.27 M68.89 119.51 C103.02 80.25, 137.15 40.99, 172.55 0.27 M73.88 119.88 C99.34 90.59, 124.8 61.3, 178.2 -0.12 M73.88 119.88 C95.44 95.08, 116.99 70.28, 178.2 -0.12 M79.52 119.48 C120.75 72.05, 161.98 24.63, 183.18 0.24 M79.52 119.48 C112.62 81.41, 145.71 43.34, 183.18 0.24 M84.51 119.84 C118.43 80.83, 152.34 41.81, 188.83 -0.16 M84.51 119.84 C121.53 77.25, 158.55 34.66, 188.83 -0.16 M90.15 119.45 C125.55 78.72, 160.95 38, 193.81 0.2 M90.15 119.45 C114.53 91.4, 138.91 63.36, 193.81 0.2 M95.14 119.81 C117.15 94.49, 139.16 69.17, 199.46 -0.19 M95.14 119.81 C118.62 92.8, 142.09 65.8, 199.46 -0.19 M100.79 119.41 C130.56 85.16, 160.34 50.9, 204.44 0.17 M100.79 119.41 C136.23 78.64, 171.68 37.86, 204.44 0.17 M105.77 119.77 C142.73 77.26, 179.68 34.75, 210.09 -0.23 M105.77 119.77 C133.47 87.91, 161.17 56.05, 210.09 -0.23 M110.76 120.13 C149 76.14, 187.24 32.14, 215.07 0.13 M110.76 120.13 C146.92 78.53, 183.08 36.93, 215.07 0.13 M116.4 119.74 C146.7 84.88, 177 50.03, 220.72 -0.26 M116.4 119.74 C149.48 81.69, 182.55 43.64, 220.72 -0.26 M121.39 120.1 C146.83 90.83, 172.28 61.56, 225.7 0.1 M121.39 120.1 C152.54 84.27, 183.68 48.43, 225.7 0.1 M127.03 119.7 C162.05 79.42, 197.07 39.13, 230.69 0.46 M127.03 119.7 C159.43 82.43, 191.83 45.16, 230.69 0.46 M132.02 120.06 C154.59 94.1, 177.16 68.14, 236.33 0.06 M132.02 120.06 C162.19 85.35, 192.36 50.64, 236.33 0.06 M137.66 119.67 C168.5 84.19, 199.34 48.71, 241.32 0.42 M137.66 119.67 C176.75 74.7, 215.84 29.73, 241.32 0.42 M142.65 120.03 C175.19 82.59, 207.73 45.16, 246.31 0.78 M142.65 120.03 C179.17 78.02, 215.68 36.01, 246.31 0.78 M148.29 119.63 C184.46 78.03, 220.63 36.42, 250.64 1.9 M148.29 119.63 C181.85 81.03, 215.41 42.42, 250.64 1.9 M153.28 119.99 C194.17 72.96, 235.05 25.93, 255.62 2.26 M153.28 119.99 C190.49 77.19, 227.69 34.39, 255.62 2.26 M158.92 119.6 C196.28 76.62, 233.65 33.64, 259.3 4.13 M158.92 119.6 C196.51 76.36, 234.1 33.12, 259.3 4.13 M163.91 119.96 C190.35 89.55, 216.78 59.13, 262.32 6.75 M163.91 119.96 C197.48 81.35, 231.04 42.73, 262.32 6.75 M169.55 119.56 C189.04 97.14, 208.54 74.72, 265.34 9.38 M169.55 119.56 C190.47 95.5, 211.38 71.44, 265.34 9.38 M174.54 119.92 C207.13 82.43, 239.72 44.94, 267.7 12.76 M174.54 119.92 C206.69 82.94, 238.84 45.95, 267.7 12.76 M180.18 119.53 C214.05 80.57, 247.92 41.61, 269.41 16.89 M180.18 119.53 C211.72 83.25, 243.26 46.97, 269.41 16.89 M185.17 119.89 C202.6 99.84, 220.02 79.8, 270.46 21.78 M185.17 119.89 C217.42 82.79, 249.66 45.7, 270.46 21.78 M190.81 119.5 C208.5 99.15, 226.19 78.8, 272.82 25.16 M190.81 119.5 C220.81 84.99, 250.8 50.48, 272.82 25.16 M195.8 119.86 C213.31 99.72, 230.82 79.58, 273.21 30.8 M195.8 119.86 C217.83 94.51, 239.86 69.17, 273.21 30.8 M201.44 119.46 C223.59 93.99, 245.73 68.51, 272.95 37.2 M201.44 119.46 C218.14 100.26, 234.83 81.05, 272.95 37.2 M206.43 119.82 C229.33 93.48, 252.23 67.13, 273.35 42.84 M206.43 119.82 C223.25 100.47, 240.08 81.11, 273.35 42.84 M212.07 119.43 C226.87 102.41, 241.66 85.39, 273.09 49.24 M212.07 119.43 C225.92 103.5, 239.77 87.57, 273.09 49.24 M217.06 119.79 C234.68 99.52, 252.29 79.25, 273.48 54.88 M217.06 119.79 C234.41 99.83, 251.76 79.87, 273.48 54.88 M222.05 120.15 C236.25 103.81, 250.45 87.47, 273.22 61.28 M222.05 120.15 C232.73 107.86, 243.42 95.56, 273.22 61.28 M227.69 119.75 C238.19 107.67, 248.7 95.59, 273.61 66.92 M227.69 119.75 C237.98 107.91, 248.27 96.07, 273.61 66.92 M232.68 120.11 C243.31 107.88, 253.94 95.65, 273.35 73.32 M232.68 120.11 C246.25 104.49, 259.83 88.88, 273.35 73.32 M238.32 119.72 C246 110.88, 253.69 102.04, 273.75 78.96 M238.32 119.72 C245.92 110.98, 253.52 102.23, 273.75 78.96 M243.31 120.08 C253.06 108.86, 262.81 97.64, 273.49 85.36 M243.31 120.08 C253.83 107.97, 264.36 95.86, 273.49 85.36 M249.61 118.93 C257.74 109.57, 265.87 100.22, 273.88 91 M249.61 118.93 C255.29 112.39, 260.98 105.85, 273.88 91 M255.91 117.78 C261.07 111.84, 266.24 105.89, 269.68 101.93 M255.91 117.78 C259.94 113.13, 263.98 108.49, 269.68 101.93" stroke="#ffec99" stroke-width="0.5" fill="none"></path><path d="M29.5 0 M29.5 0 C87.57 0, 145.64 0, 241.5 0 M29.5 0 C89.1 0, 148.69 0, 241.5 0 M241.5 0 C261.17 0, 271 9.83, 271 29.5 M241.5 0 C261.17 0, 271 9.83, 271 29.5 M271 29.5 C271 47.5, 271 65.51, 271 88.5 M271 29.5 C271 42.73, 271 55.97, 271 88.5 M271 88.5 C271 108.17, 261.17 118, 241.5 118 M271 88.5 C271 108.17, 261.17 118, 241.5 118 M241.5 118 C177.57 118, 113.65 118, 29.5 118 M241.5 118 C192.15 118, 142.8 118, 29.5 118 M29.5 118 C9.83 118, 0 108.17, 0 88.5 M29.5 118 C9.83 118, 0 108.17, 0 88.5 M0 88.5 C0 72.26, 0 56.03, 0 29.5 M0 88.5 C0 66.25, 0 44, 0 29.5 M0 29.5 C0 9.83, 9.83 0, 29.5 0 M0 29.5 C0 9.83, 9.83 0, 29.5 0" stroke="#1e1e1e" stroke-width="1" fill="none"></path></g><g transform="translate(470.18494098237466 537.2437823443879) rotate(0 123.67993164062506 20)"><text x="0" y="0" font-family="Virgil, Segoe UI Emoji" font-size="16px" fill="#1e1e1e" text-anchor="start" style="white-space: pre;" direction="ltr" dominant-baseline="text-before-edge">- A SPA built with React</text><text x="0" y="20" font-family="Virgil, Segoe UI Emoji" font-size="16px" fill="#1e1e1e" text-anchor="start" style="white-space: pre;" direction="ltr" dominant-baseline="text-before-edge">- Handles Authentication state</text></g><g mask="url(#mask-UgKX2lmA5YiEz4slbjb1W)" stroke-linecap="round"><g transform="translate(749.8937717436094 513.9546243142872) rotate(0 142.89886886959903 -110.22823310036426)"><path d="M0 0 C47.63 -36.74, 238.16 -183.71, 285.8 -220.46 M0 0 C47.63 -36.74, 238.16 -183.71, 285.8 -220.46" stroke="#1e1e1e" stroke-width="1" fill="none"></path></g><g transform="translate(749.8937717436094 513.9546243142872) rotate(0 142.89886886959903 -110.22823310036426)"><path d="M269.74 -195.11 C275.24 -203.79, 280.74 -212.47, 285.8 -220.46 M269.74 -195.11 C275.22 -203.77, 280.71 -212.42, 285.8 -220.46" stroke="#1e1e1e" stroke-width="1" fill="none"></path></g><g transform="translate(749.8937717436094 513.9546243142872) rotate(0 142.89886886959903 -110.22823310036426)"><path d="M257.21 -211.36 C267 -214.48, 276.78 -217.59, 285.8 -220.46 M257.21 -211.36 C266.97 -214.47, 276.73 -217.57, 285.8 -220.46" stroke="#1e1e1e" stroke-width="1" fill="none"></path></g></g><mask id="mask-UgKX2lmA5YiEz4slbjb1W"><rect x="0" y="0" fill="#fff" width="1135.6915094828073" height="834.4110905150158"></rect><rect x="798.1686934696538" y="383.7263912139231" fill="#000" width="189.24789428710938" height="40" opacity="1"></rect></mask><g transform="translate(798.1686934696538 383.72639121392297) rotate(0 94.62394714355469 20)"><text x="94.62394714355469" y="0" font-family="Virgil, Segoe UI Emoji" font-size="16px" fill="#1e1e1e" text-anchor="middle" style="white-space: pre;" direction="ltr" dominant-baseline="text-before-edge">Requests and mutates </text><text x="94.62394714355469" y="20" font-family="Virgil, Segoe UI Emoji" font-size="16px" fill="#1e1e1e" text-anchor="middle" style="white-space: pre;" direction="ltr" dominant-baseline="text-before-edge">data</text></g><g mask="url(#mask-MotRxUycPsb543P-wHEe-)" stroke-linecap="round"><g transform="translate(267.27648999920154 568.0261394877655) rotate(0 96.58499957619682 -5.1579041008645845)"><path d="M0 0 C32.19 -1.72, 160.97 -8.6, 193.17 -10.32 M0 0 C32.19 -1.72, 160.97 -8.6, 193.17 -10.32" stroke="#1e1e1e" stroke-width="1" fill="none"></path></g><g transform="translate(267.27648999920154 568.0261394877655) rotate(0 96.58499957619682 -5.1579041008645845)"><path d="M165.57 1.43 C173.2 -1.82, 180.84 -5.07, 193.17 -10.32 M165.57 1.43 C173.85 -2.09, 182.13 -5.62, 193.17 -10.32" stroke="#1e1e1e" stroke-width="1" fill="none"></path></g><g transform="translate(267.27648999920154 568.0261394877655) rotate(0 96.58499957619682 -5.1579041008645845)"><path d="M164.47 -19.06 C172.41 -16.64, 180.35 -14.22, 193.17 -10.32 M164.47 -19.06 C173.08 -16.44, 181.69 -13.81, 193.17 -10.32" stroke="#1e1e1e" stroke-width="1" fill="none"></path></g></g><mask id="mask-MotRxUycPsb543P-wHEe-"><rect x="0" y="0" fill="#fff" width="560.4464891515952" height="678.3419476894946"></rect><rect x="287.2215435915117" y="552.8682353869008" fill="#000" width="153.27989196777344" height="20" opacity="1"></rect></mask><g transform="translate(287.2215435915117 552.8682353869007) rotate(0 76.63994598388666 10)"><text x="76.63994598388672" y="0" font-family="Virgil, Segoe UI Emoji" font-size="16px" fill="#1e1e1e" text-anchor="middle" style="white-space: pre;" direction="ltr" dominant-baseline="text-before-edge">Builds the frontend</text></g><g transform="translate(475.7229061644723 469.1058553842234) rotate(0 70.04796600341797 10)"><text x="0" y="0" font-family="Virgil, Segoe UI Emoji" font-size="16px" fill="#1e1e1e" text-anchor="start" style="white-space: pre;" direction="ltr" dominant-baseline="text-before-edge">TinaCMS frontent</text></g><g transform="translate(38.966517477989214 487.20759652770806) rotate(0 51.70397186279297 20)"><text x="0" y="0" font-family="Virgil, Segoe UI Emoji" font-size="16px" fill="#1e1e1e" text-anchor="start" style="white-space: pre;" direction="ltr" dominant-baseline="text-before-edge">TinaCMS CLI</text><text x="0" y="20" font-family="Virgil, Segoe UI Emoji" font-size="16px" fill="#1e1e1e" text-anchor="start" style="white-space: pre;" direction="ltr" dominant-baseline="text-before-edge"></text></g><g mask="url(#mask-uhBItbkFpatAq4b2mlfxt)" stroke-linecap="round"><g transform="translate(750.5007831470724 552.8482199706666) rotate(0 155.0201936562528 -7.163929381015009)"><path d="M0 0 C51.67 -2.39, 258.37 -11.94, 310.04 -14.33 M0 0 C51.67 -2.39, 258.37 -11.94, 310.04 -14.33" stroke="#1e1e1e" stroke-width="1" fill="none"></path></g><g transform="translate(750.5007831470724 552.8482199706666) rotate(0 155.0201936562528 -7.163929381015009)"><path d="M282.35 -2.78 C288.75 -5.45, 295.15 -8.11, 310.04 -14.33 M282.35 -2.78 C290.26 -6.08, 298.17 -9.37, 310.04 -14.33" stroke="#1e1e1e" stroke-width="1" fill="none"></path></g><g transform="translate(750.5007831470724 552.8482199706666) rotate(0 155.0201936562528 -7.163929381015009)"><path d="M281.41 -23.28 C288.02 -21.21, 294.64 -19.14, 310.04 -14.33 M281.41 -23.28 C289.58 -20.72, 297.76 -18.17, 310.04 -14.33" stroke="#1e1e1e" stroke-width="1" fill="none"></path></g></g><mask id="mask-uhBItbkFpatAq4b2mlfxt"><rect x="0" y="0" fill="#fff" width="1160.541170459578" height="667.1760787326966"></rect><rect x="856.5850026822313" y="535.6842905896515" fill="#000" width="97.8719482421875" height="20" opacity="1"></rect></mask><g transform="translate(856.5850026822313 535.6842905896517) rotate(0 48.93597412109375 10)"><text x="48.93597412109375" y="0" font-family="Virgil, Segoe UI Emoji" font-size="16px" fill="#1e1e1e" text-anchor="middle" style="white-space: pre;" direction="ltr" dominant-baseline="text-before-edge">User Logs in</text></g></svg>