<svg width="17" height="15" viewBox="0 0 17 15" fill="none" xmlns="http://www.w3.org/2000/svg">
<path d="M5.44098 6.43411C5.02227 6.31357 4.60357 6.2524 4.19627 6.2524C3.56733 6.2524 3.04252 6.39613 2.63558 6.57214C3.02789 5.13592 3.97034 2.65774 5.84773 2.37867C6.0216 2.35281 6.16408 2.22709 6.21152 2.05786L6.62184 0.590253C6.65643 0.466139 6.63593 0.333288 6.56513 0.22558C6.49434 0.117872 6.38057 0.0460076 6.25307 0.0285318C6.11451 0.00962948 5.97328 0 5.83329 0C3.57981 0 1.34808 2.3521 0.406351 5.71993C-0.146454 7.69576 -0.308551 10.6663 1.05313 12.536C1.81511 13.5822 2.92678 14.1409 4.3573 14.1967C4.36319 14.1969 4.36889 14.1971 4.37478 14.1971C6.13983 14.1971 7.70498 13.0084 8.18111 11.3066C8.46553 10.2893 8.33696 9.22239 7.81875 8.3017C7.30607 7.39136 6.4617 6.72781 5.44098 6.43411Z" fill="#EC4815"/>
<path d="M16.49 8.30188C15.9773 7.39136 15.1329 6.72781 14.1122 6.43411C13.6935 6.31357 13.2748 6.2524 12.8677 6.2524C12.2387 6.2524 11.7137 6.39613 11.3068 6.57214C11.6991 5.13591 12.6416 2.65774 14.5191 2.37867C14.693 2.35281 14.8353 2.22709 14.8829 2.05786L15.2932 0.590253C15.3278 0.466139 15.3073 0.333288 15.2365 0.22558C15.1659 0.117872 15.0522 0.0460076 14.9245 0.0285318C14.7861 0.00962948 14.6449 0 14.5047 0C12.2512 0 10.0195 2.3521 9.07758 5.71993C8.52495 7.69576 8.36285 10.6663 9.72472 12.5364C10.4865 13.5824 11.5984 14.1413 13.0287 14.1969C13.0346 14.1971 13.0403 14.1973 13.0464 14.1973C14.8112 14.1973 16.3766 13.0086 16.8527 11.3068C17.1368 10.2895 17.008 9.22239 16.49 8.30188Z" fill="#EC4815"/>
</svg>
