<svg width="119" height="96" viewBox="0 0 119 96" fill="none" xmlns="http://www.w3.org/2000/svg">
<path d="M80.5566 29.0459C81.9258 29.0459 83.2761 29.1461 84.6132 29.2916C80.9701 12.4879 62.8269 0 42.1193 0C18.9665 0 0 15.6301 0 35.4757C0 46.9292 6.31141 56.3363 16.8542 63.6326L12.6423 76.1837L27.3647 68.8696C32.6361 69.9008 36.8608 70.9642 42.1193 70.9642C43.4404 70.9642 44.7484 70.8998 46.0502 70.7965C45.2264 68.0099 44.7484 65.0876 44.7484 62.0584C44.7485 43.8356 60.5497 29.0459 80.5566 29.0459ZM57.914 17.7347C61.0858 17.7347 63.1853 19.8036 63.1853 22.9426C63.1853 26.0686 61.0858 28.1633 57.914 28.1633C54.755 28.1633 51.5896 26.0686 51.5896 22.9426C51.5896 19.8036 54.7551 17.7347 57.914 17.7347ZM28.437 28.1632C25.2779 28.1632 22.0931 26.0684 22.0931 22.9424C22.0931 19.8034 25.2779 17.7345 28.437 17.7345C31.5926 17.7345 33.6954 19.8034 33.6954 22.9424C33.6954 26.0686 31.5926 28.1632 28.437 28.1632ZM119 61.5572C119 44.8797 102.149 31.2861 83.2244 31.2861C63.1853 31.2861 47.4036 44.8797 47.4036 61.5572C47.4036 78.259 63.1853 91.8235 83.2244 91.8235C87.4169 91.8235 91.6483 90.7823 95.86 89.7351L107.414 96L104.245 85.5778C112.702 79.2935 119 70.9642 119 61.5572ZM71.6092 56.3363C69.5131 56.3363 67.3974 54.2707 67.3974 52.1629C67.3974 50.0843 69.5131 47.9928 71.6092 47.9928C74.794 47.9928 76.8806 50.0843 76.8806 52.1629C76.8806 54.2707 74.794 56.3363 71.6092 56.3363ZM94.7748 56.3363C92.6949 56.3363 90.5921 54.2707 90.5921 52.1629C90.5921 50.0843 92.6949 47.9928 94.7748 47.9928C97.9339 47.9928 100.046 50.0843 100.046 52.1629C100.046 54.2707 97.9339 56.3363 94.7748 56.3363Z" fill="white"/>
</svg>
