<?xml version="1.0" encoding="UTF-8"?>
<svg xmlns="http://www.w3.org/2000/svg" version="1.1" viewBox="0 0 108.9 127.6">
  <defs>
    <style>
      .cls-1 {
        fill: #fff;
      }
    </style>
  </defs>
  <!-- Generator: Adobe Illustrator 28.6.0, SVG Export Plug-In . SVG Version: 1.2.0 Build 709)  -->
  <g>
    <g id="Layer_1">
      <path class="cls-1" d="M35.8,126.4c-.4,0-.9-.2-1.3-.2-4.2-.2-8.3-.3-12.5-.6-2.7-.2-5.5-.3-8.1-.8-5.8-1.2-9.3-4.9-10.6-10.5-1.2-5.1-1.6-10.4-1.7-15.6-.1-6-.1-12,0-18,0-5.2.5-10.4,1.7-15.5,1.4-6.4,6-10.5,12.4-11.1,3.6-.3,7.1-.6,10.7-.8,5.8-.2,11.6-.4,17.5-.5,8.8,0,17.6-.1,26.4,0,6.8.1,13.6.6,20.4,1,1.9.1,3.8.3,5.5.8,5,1.5,8.1,5,9.3,10.1,1.2,5.2,1.6,10.5,1.7,15.8,0,6,.1,12,0,18-.1,5.6-.5,11.2-1.9,16.6-1.4,5.5-5.8,9.3-11.5,9.9-5.9.5-11.8.8-17.7,1.2-1,0-2.1.2-3.1.2h-37.2ZM56.6,87.7c0,7.4,0,14.8,0,22.1,0,.3,0,.6,0,.9,0,.5.1.8.7.7,1.7,0,3.3,0,5,0,.5,0,.7-.2.7-.7,0-.7,0-1.3,0-2,0-.2,0-.3,0-.5.2,0,.3.2.5.3,1.1,1.2,2.4,2.3,4,2.9,3.4,1.2,6.4-.5,7.2-4,.3-1.3.5-2.6.5-3.9,0-6.6,0-13.2,0-19.8,0-1.7-.2-3.5-1-5.1-1.1-2.3-3.3-3.4-5.9-2.9-1.9.4-3.3,1.5-4.6,2.8-.2.2-.5.4-.7.6,0-.3,0-.6,0-.8,0-2.7,0-5.4,0-8.1,0-1.8,0-3.6,0-5.4,0-.4,0-.8-.6-.8-1.7,0-3.4,0-5.1,0-.4,0-.6.2-.6.6,0,.3,0,.7,0,1,0,7.3,0,14.7,0,22ZM51,93.8c0-3,0-5.9,0-8.9,0-2.6,0-5.1,0-7.7,0-.8-.2-1-1-.9-1.5,0-3.1,0-4.6,0-.6,0-.8.1-.8.8,0,.3,0,.6,0,.9,0,8.1,0,16.1,0,24.2,0,.4,0,1-.2,1.3-.7,1.1-1.6,2.1-2.9,2.6-1.5.6-2.4,0-2.6-1.5,0-.4,0-.8,0-1.2,0-6.7,0-13.4,0-20,0-2,0-4.1,0-6.1,0-.6-.2-.8-.8-.8-1.6,0-3.2,0-4.8,0-.7,0-.9.3-.9.9,0,9.4,0,18.7,0,28.1,0,1.3.2,2.5.5,3.7.4,1.6,1.4,2.5,3,2.8,1.8.3,3.4-.1,4.9-1.1,1-.7,1.9-1.6,2.9-2.4.2-.1.4-.3.6-.4,0,.2,0,.5,0,.7,0,.6,0,1.1,0,1.7,0,1.1,0,1.2,1.1,1.2,1.4,0,2.8,0,4.2,0,1.1,0,1.1,0,1.1-1.2,0-5.5,0-11,0-16.5ZM80.4,93.8s0,0,0,0c0,2.6,0,5.2,0,7.8,0,2.3.5,4.5,1.8,6.4,1.8,2.6,4.4,3.8,7.5,3.9,5.2.2,8.5-2.9,9.4-6.8.4-1.7.3-3.5.4-5.2,0-.5-.3-.6-.7-.6-1.7,0-3.3,0-5,0-.6,0-.9.2-.8.8,0,1,0,2,0,3.1-.1,1.9-1.2,3-2.9,3-1.8,0-3-1-3.1-3.1-.2-2.5-.1-5-.2-7.4,0-.5.3-.7.8-.7.3,0,.6,0,.9,0,3.4,0,6.8,0,10.3,0,.7,0,.9-.2.9-.9,0-3.2,0-6.4-.3-9.5-.4-4.9-3.3-8.1-7.9-8.7-4.8-.6-9.1,1.8-10.3,6.4-.3,1.3-.5,2.6-.6,4,0,2.5,0,5.1,0,7.6ZM24.1,91.2c0-6.4,0-12.9,0-19.3,0-1.1,0-1.1,1.1-1.1,1.8,0,3.6,0,5.4,0,1.1,0,1.1,0,1.1-1.1,0-1.5,0-2.9,0-4.4,0-1.1,0-1.2-1.1-1.2-3.2,0-6.4,0-9.7,0-3.5,0-6.9,0-10.4,0-1.1,0-1.1,0-1.1,1.1,0,1.4,0,2.9,0,4.3,0,1.2,0,1.2,1.3,1.3,1.8,0,3.5,0,5.3,0,1,0,1,0,1,1,0,.2,0,.5,0,.7,0,12.3,0,24.6,0,36.9s0,.5,0,.7c0,1.4-.1,1.3,1.2,1.3,1.5,0,3,0,4.5,0,1.3,0,1.3,0,1.3-1.3,0-6.3,0-12.6,0-18.9Z"/>
      <path class="cls-1" d="M83.5,31.2c0,5.5,0,11.1,0,16.6,0,1.3.1,1.3-1.2,1.3-1.5,0-2.9,0-4.4,0-.6,0-.9-.2-.9-.9,0-.7,0-1.5,0-2.2,0-.1,0-.3-.1-.4-.1,0-.3.1-.4.2-.8.7-1.5,1.5-2.4,2.1-1.5,1.1-3.3,1.8-5.2,1.5-2.1-.3-3.3-1.5-3.6-3.7-.2-1.1-.3-2.3-.3-3.4,0-9.3,0-18.5,0-27.8,0-1.2,0-1.2,1.2-1.2,1.5,0,2.9,0,4.4,0,.7,0,1,.2.9.9,0,.3,0,.7,0,1,0,8.4,0,16.8,0,25.2,0,.6,0,1.2,0,1.8.1.9.7,1.4,1.6,1.2.7-.1,1.4-.4,2-.8,1.3-1,2-2.1,1.9-3.9-.1-7.9,0-15.8,0-23.7,0-.3,0-.7,0-1,0-.4.1-.7.6-.7,1.8,0,3.5,0,5.3,0,.6,0,.6.3.6.8,0,1.4,0,2.9,0,4.3,0,4.2,0,8.5,0,12.7Z"/>
      <path class="cls-1" d="M24.7,39.1c0-2.4,0-4.7,0-7.1,0-1.9-.3-3.8-.8-5.7-1.7-6.7-4.1-13.2-6.4-19.7-.5-1.6-1.1-3.2-1.6-4.7-.2-.5-.2-.7.4-.7,2.1,0,4.2,0,6.2,0,.7,0,.8.4.9.9,1,3.6,2,7.3,3,10.9.6,2,1.1,4.1,1.7,6.1,0,.1.1.3.2.4,0-.1.2-.3.2-.4.9-3.3,1.8-6.7,2.6-10,.6-2.3,1.2-4.6,1.7-6.8.2-.8.6-1.1,1.4-1.1,1.6,0,3.3,0,4.9,0,1.3,0,1.3,0,.9,1.2-1.9,6.3-3.8,12.5-5.7,18.8-.8,2.5-1.6,5-2.3,7.6-.2.6-.3,1.3-.3,1.9,0,5.7,0,11.4,0,17.1,0,1.3.2,1.3-1.3,1.3-1.6,0-3.3,0-4.9,0-1,0-1,0-1-1,0-3,0-6,0-8.9Z"/>
      <path class="cls-1" d="M59.6,31.3c0,2.8,0,5.7,0,8.5,0,1.2-.3,2.3-.6,3.5-1.1,3.8-4.5,6.4-9.3,6.2-5-.2-8.6-3.6-8.9-8.9-.3-5.6-.2-11.2-.2-16.8,0-1.1.2-2.3.4-3.4.8-3.7,2.9-6.2,6.6-7.1,3.9-.9,7.4-.1,10,3.2,1.4,1.8,1.9,3.9,2,6,0,2.9,0,5.9,0,8.8,0,0,0,0,0,0ZM47.1,31.2c0,2.6,0,5.3,0,7.9,0,.9.2,1.8.5,2.6.4,1.3,1.3,1.8,2.6,1.8,1.3,0,2.2-.6,2.6-1.8.3-1,.5-2,.5-3,0-5,0-10.1,0-15.1,0-1-.2-1.9-.5-2.9-.4-1.3-1.3-1.9-2.6-1.9-1.3,0-2.2.6-2.6,2-.2.8-.4,1.7-.4,2.5,0,2.6,0,5.3,0,7.9Z"/>
      <path class="cls-1" d="M63,93.8c0-3.2,0-6.4,0-9.6,0-1,.3-1.6,1.1-1.9.5-.2,1-.5,1.5-.6,1.2-.3,2.3.2,2.8,1.4.3.7.5,1.5.5,2.2,0,5.8,0,11.6,0,17.3,0,.6-.2,1.3-.4,1.9-.5,1.5-1.8,2.1-3.3,1.6-1.6-.5-2.2-1.2-2.2-3,0-3.1,0-6.2,0-9.3Z"/>
      <path class="cls-1" d="M89.9,89.7c-.9,0-1.7,0-2.6,0-.2,0-.6-.3-.6-.5,0-1.8,0-3.6.3-5.3.3-1.6,1.4-2.4,2.8-2.4,1.4,0,2.6.9,2.9,2.5.3,1.7.2,3.5.3,5.2,0,.4-.3.5-.6.5-.9,0-1.7,0-2.6,0Z"/>
    </g>
  </g>
</svg>