<svg xmlns="http://www.w3.org/2000/svg" viewBox="0 0 1024 1024" width="2500" height="2500">
    <path fill="#ff7618" d="M71 512c0 243.6 197.4 441 441 441s441-197.4 441-441S755.6 71 512 71 71 268.4 71 512zm45-.5c.3-218.7 177.8-395.8 396.5-395.5S908.3 293.8 908 512.5 730.5 908 512 908 115.9 730.4 116 511.6z"/>
    <path fill="#ffe0cb" d="M787 512a96.5 96.5 0 0 0-54.3-86.7 102.4 102.4 0 0 0-134-134 96.4 96.4 0 0 0-173.4 0 102.4 102.4 0 0 0-134 134 96.4 96.4 0 0 0 0 173.4 102.4 102.4 0 0 0 134 134 96.4 96.4 0 0 0 173.4 0 102.4 102.4 0 0 0 134-134A96.5 96.5 0 0 0 787 512zm-94.7-180.3a76.6 76.6 0 0 1 15.5 85.5 97.4 97.4 0 0 0-17.2-1.6 82.3 82.3 0 0 1-82.2-82.2 97.4 97.4 0 0 0-1.6-17.2 76.6 76.6 0 0 1 85.5 15.5zm-98.6 368.5a86.4 86.4 0 0 1-9.3-7.9 102.4 102.4 0 0 0-144.8 0 86.4 86.4 0 0 1-9.3 7.9 75 75 0 0 1-.6-9.6 96.4 96.4 0 0 0-96.3-96.3 75 75 0 0 1-9.6-.6 86.4 86.4 0 0 1 7.9-9.3 102.4 102.4 0 0 0 0-144.8 86.4 86.4 0 0 1-7.9-9.3 75 75 0 0 1 9.6-.6 96.4 96.4 0 0 0 96.3-96.3 75 75 0 0 1 .6-9.6 86.4 86.4 0 0 1 9.3 7.9 102.4 102.4 0 0 0 144.8 0 86.4 86.4 0 0 1 9.3-7.9 75 75 0 0 1 .6 9.6 96.4 96.4 0 0 0 96.3 96.3 75 75 0 0 1 9.6.6 86.4 86.4 0 0 1-7.9 9.3 102.4 102.4 0 0 0 0 144.8 86.4 86.4 0 0 1 7.9 9.3 75 75 0 0 1-9.6.6 96.4 96.4 0 0 0-96.3 96.3 75 75 0 0 1-.6 9.6zM512 251.1a82.3 82.3 0 0 1 74.1 46.5 103.6 103.6 0 0 0-20.2 15.7 76.3 76.3 0 0 1-107.8 0 103.6 103.6 0 0 0-20.2-15.7 82.3 82.3 0 0 1 74.1-46.5zm-180.3 80.6a76.6 76.6 0 0 1 85.5-15.5 97.4 97.4 0 0 0-1.6 17.2 82.3 82.3 0 0 1-82.2 82.2 97.4 97.4 0 0 0-17.2 1.6 76.6 76.6 0 0 1 15.5-85.5zM251.1 512a82.3 82.3 0 0 1 46.5-74.1 103.6 103.6 0 0 0 15.7 20.2 76.3 76.3 0 0 1 0 107.8 103.6 103.6 0 0 0-15.7 20.2 82.3 82.3 0 0 1-46.5-74.1zm80.6 180.3a76.6 76.6 0 0 1-15.5-85.5 97.4 97.4 0 0 0 17.2 1.6 82.3 82.3 0 0 1 82.2 82.2 97.4 97.4 0 0 0 1.6 17.2 76.6 76.6 0 0 1-85.5-15.5zM512 772.9a82.3 82.3 0 0 1-74.1-46.5 103.6 103.6 0 0 0 20.2-15.7 76.3 76.3 0 0 1 107.8 0 103.6 103.6 0 0 0 20.2 15.7 82.3 82.3 0 0 1-74.1 46.5zm180.3-80.6a76.6 76.6 0 0 1-85.5 15.5 97.4 97.4 0 0 0 1.6-17.2 82.3 82.3 0 0 1 82.2-82.2 97.4 97.4 0 0 0 17.2-1.6 76.6 76.6 0 0 1-15.5 85.5zm34.1-106.2a103.6 103.6 0 0 0-15.7-20.2 76.3 76.3 0 0 1 0-107.8 103.6 103.6 0 0 0 15.7-20.2 82.3 82.3 0 0 1 0 148.2z"/>
</svg>
