<?xml version="1.0" encoding="UTF-8"?>
<svg id="Layer_1" data-name="Layer 1" xmlns="http://www.w3.org/2000/svg" version="1.1" xmlns:xlink="http://www.w3.org/1999/xlink" viewBox="0 0 99.2 99.2">
  <defs>
    <style>
      .cls-1 {
        fill: #ff7618;
      }

      .cls-1, .cls-2, .cls-3 {
        stroke-width: 0px;
      }

      .cls-2 {
        fill: #ffe0cb;
      }

      .cls-3 {
        fill: url(#radial-gradient);
      }
    </style>
    <radialGradient id="radial-gradient" cx="-2450.2" cy="1980.3" fx="-2450.2" fy="1980.3" r="20.2" gradientTransform="translate(6016.1 4868.9) scale(2.4 -2.4)" gradientUnits="userSpaceOnUse">
      <stop offset="0" stop-color="#3a2a1d"/>
      <stop offset="1" stop-color="#241405"/>
    </radialGradient>
  </defs>
  <path class="cls-3" d="M49.7,11.5c-21,0-38.1,17-38.2,38.1h0c0,21.1,17.1,38.2,38.1,38.2s38.1-17,38.1-38.1c0-21-17-38.1-38.1-38.2Z"/>
  <path class="cls-1" d="M49.6,7.2C26.2,7.2,7.2,26.2,7.2,49.6s19,42.4,42.4,42.4,42.4-19,42.4-42.4S73,7.2,49.6,7.2ZM49.6,87.7c-21,0-38.1-17.1-38.1-38.1h0c0-21.1,17.1-38.1,38.2-38.1s38.1,17.1,38.1,38.2c0,21-17.1,38.1-38.1,38.1Z"/>
  <path class="cls-2" d="M76.1,49.6c0-3.6-2-6.8-5.2-8.3,2.1-5-.3-10.8-5.3-12.9-2.4-1-5.2-1-7.6,0-2.2-4.6-7.8-6.5-12.4-4.3-1.9.9-3.4,2.4-4.3,4.3-5-2.1-10.8.3-12.9,5.3-1,2.4-1,5.2,0,7.6-4.6,2.2-6.5,7.8-4.3,12.4.9,1.9,2.4,3.4,4.3,4.3-2.1,5,.3,10.8,5.3,12.9,2.4,1,5.2,1,7.6,0,2.2,4.6,7.8,6.5,12.4,4.3,1.9-.9,3.4-2.4,4.3-4.3,5,2.1,10.8-.3,12.9-5.3,1-2.4,1-5.2,0-7.6,3.2-1.6,5.2-4.8,5.2-8.3ZM67,32.3c2.2,2.2,2.7,5.4,1.5,8.2-.5-.1-1.1-.2-1.7-.2-4.4,0-7.9-3.5-7.9-7.9,0-.6,0-1.1-.2-1.7,2.8-1.3,6.1-.7,8.2,1.5ZM57.5,67.7c-.3-.2-.6-.5-.9-.8-3.8-3.8-10.1-3.8-13.9,0-.3.3-.6.5-.9.8,0-.3,0-.6,0-.9,0-5.1-4.2-9.3-9.3-9.3-.3,0-.6,0-.9,0,.2-.3.5-.6.8-.9,3.8-3.8,3.8-10.1,0-13.9-.3-.3-.5-.6-.8-.9.3,0,.6,0,.9,0,5.1,0,9.3-4.2,9.3-9.3,0-.3,0-.6,0-.9.3.2.6.5.9.8,3.8,3.8,10.1,3.8,13.9,0,.3-.3.6-.5.9-.8,0,.3,0,.6,0,.9,0,5.1,4.2,9.3,9.3,9.3.3,0,.6,0,.9,0-.2.3-.5.6-.8.9-3.8,3.8-3.8,10.1,0,13.9.3.3.5.6.8.9-.3,0-.6,0-.9,0-5.1,0-9.3,4.2-9.3,9.3,0,.3,0,.6,0,.9ZM49.6,24.5c3,0,5.8,1.7,7.1,4.5-.7.4-1.4.9-1.9,1.5-2.9,2.9-7.5,2.9-10.4,0-.6-.6-1.2-1.1-1.9-1.5,1.3-2.7,4.1-4.5,7.1-4.5h0ZM32.3,32.3c2.2-2.2,5.4-2.7,8.2-1.5-.1.5-.2,1.1-.2,1.7,0,4.4-3.5,7.9-7.9,7.9-.6,0-1.1,0-1.7.2-1.3-2.8-.7-6.1,1.5-8.2h0ZM24.5,49.6c0-3,1.7-5.8,4.5-7.1.4.7.9,1.4,1.5,1.9,2.9,2.9,2.9,7.5,0,10.4-.6.6-1.1,1.2-1.5,1.9-2.7-1.3-4.5-4.1-4.5-7.1h0ZM32.3,67c-2.2-2.2-2.7-5.4-1.5-8.2.5.1,1.1.2,1.7.2,4.4,0,7.9,3.5,7.9,7.9,0,.6,0,1.1.2,1.7-2.8,1.3-6.1.7-8.2-1.5h0ZM49.6,74.7c-3,0-5.8-1.7-7.1-4.5.7-.4,1.4-.9,1.9-1.5,2.9-2.9,7.5-2.9,10.4,0,.6.6,1.2,1.1,1.9,1.5-1.3,2.7-4.1,4.5-7.1,4.5h0ZM67,67c-2.2,2.2-5.4,2.7-8.2,1.5.1-.5.2-1.1.2-1.7,0-4.4,3.5-7.9,7.9-7.9.6,0,1.1,0,1.7-.2,1.3,2.8.7,6.1-1.5,8.2ZM70.2,56.7c-.4-.7-.9-1.4-1.5-1.9-2.9-2.9-2.9-7.5,0-10.4.6-.6,1.1-1.2,1.5-1.9,3.9,1.9,5.6,6.6,3.7,10.6-.8,1.6-2.1,2.9-3.7,3.7Z"/>
</svg>