<?xml version="1.0" encoding="UTF-8"?>
<svg xmlns="http://www.w3.org/2000/svg" version="1.1" viewBox="0 0 64 67">
  <defs>
    <style>
      .cls-1 {
        fill: #18b4f4;
      }

      .cls-2 {
        fill: #fd6b3c;
      }

      .cls-3 {
        fill: #a97ff2;
      }
    </style>
  </defs>
  <!-- Generator: Adobe Illustrator 28.6.0, SVG Export Plug-In . SVG Version: 1.2.0 Build 709)  -->
  <g>
    <g id="Layer_1">
      <g>
        <path class="cls-1" d="M61.3,18.8c0,2.8-.6,5.6-1.8,8.1-1.2,2.5-3,4.8-5.2,6.5L4,4.9c-.2-.1-.4-.2-.5-.4-.3-.2-.5-.5-.6-.9-.1-.3-.2-.7-.2-1,0-.7.3-1.4.8-1.9C4,.3,4.7,0,5.4,0h37.1C47.5,0,52.2,2,55.8,5.5c3.5,3.5,5.5,8.3,5.5,13.3Z"/>
        <path class="cls-2" d="M61.3,48.2c0,2.5-.5,4.9-1.4,7.2-.9,2.3-2.3,4.4-4.1,6.1-1.7,1.8-3.8,3.1-6.1,4.1s-4.7,1.4-7.2,1.4H5.4c-.5,0-1-.2-1.5-.5-.4-.3-.8-.7-1-1.2-.2-.5-.2-1-.1-1.5.1-.5.4-1,.7-1.4.1-.2.3-.3.5-.4l19.8-11.2,30.5-17.3c2.2,1.8,3.9,4,5.2,6.5,1.2,2.5,1.8,5.3,1.8,8.1Z"/>
        <path class="cls-3" d="M54.3,33.5l-30.5,17.3-19.8,11.2c-.2.1-.4.2-.5.4,7.5-7.7,11.8-18.1,11.8-28.9,0-10.8-4.2-21.2-11.7-28.9.2.2.3.3.5.4l50.3,28.5Z"/>
      </g>
    </g>
  </g>
</svg>