<svg width="299" height="87" viewBox="0 0 299 87" fill="none" xmlns="http://www.w3.org/2000/svg">
<g clip-path="url(#clip0_548_3969)">
<path fill-rule="evenodd" clip-rule="evenodd" d="M252.051 62.9103C251.045 62.9103 250.04 63.9174 250.04 64.9244C249.839 66.1328 250.442 66.9384 251.649 66.9384C252.654 66.737 253.458 65.9314 253.659 64.9244C253.861 64.1188 253.458 63.3131 252.654 62.9103C252.252 62.9103 252.051 62.9103 252.051 62.9103ZM266.73 51.4302C264.518 51.4302 262.507 52.4373 261.301 54.4513L261.703 51.6316H258.284L256.072 66.737H259.491L260.496 59.285C260.697 56.8682 262.507 55.0555 264.719 54.8541C266.73 54.8541 267.735 56.0626 267.333 58.278L266.126 66.737H269.545L270.952 57.271C271.757 53.6457 269.947 51.4302 266.73 51.4302ZM281.207 51.4302C276.784 51.4302 273.365 54.8541 272.963 59.285C272.36 63.9174 274.773 66.9384 279.197 66.9384C281.61 66.9384 283.821 65.9314 285.43 64.3202L283.821 62.3061C282.816 63.3131 281.207 63.9174 279.8 63.9174C277.99 64.1188 276.382 62.5075 276.18 60.6949V60.4935H286.637C287.843 55.0555 286.234 51.4302 281.207 51.4302ZM276.583 57.8752C276.985 55.8611 278.794 54.2499 280.805 54.2499C282.414 54.0485 283.821 55.2569 284.023 56.8682C284.023 57.271 284.023 57.6738 284.023 57.8752H276.583ZM296.288 63.1117C295.685 63.5145 295.082 63.7159 294.278 63.7159C293.272 63.7159 292.87 63.3131 293.071 61.7019L294.076 54.8541H298.098L298.5 52.2359H294.479L295.082 48.0063H291.664L291.06 52.2359H289.05L288.647 54.8541H290.658L289.653 62.3061C289.251 65.5286 290.859 66.9384 293.071 66.9384C294.479 66.9384 295.685 66.5356 296.691 65.9314L296.288 63.1117Z" fill="black"/>
<path fill-rule="evenodd" clip-rule="evenodd" d="M90.1814 46.5966C91.589 46.5966 92.7955 47.805 92.7955 49.2149C92.7955 50.6247 91.589 51.8331 90.1814 51.8331C88.7739 51.8331 87.5674 50.6247 87.5674 49.2149C87.5674 47.805 88.7739 46.5966 90.1814 46.5966ZM116.724 39.1446C118.936 37.332 121.751 36.5264 124.566 36.325C127.984 36.325 131.202 37.7348 133.414 40.1516C136.028 43.3741 137.033 47.805 136.229 51.8331C135.625 58.8823 130.8 64.7231 124.164 66.9385C122.756 67.3413 121.349 67.5427 119.941 67.5427C116.925 67.7442 113.909 66.1329 112.099 63.716L111.697 66.3343C111.697 66.5357 111.496 66.7371 111.295 66.7371H105.061C104.86 66.7371 104.86 66.7371 104.659 66.5357C104.659 66.3343 104.659 66.3343 104.659 66.1329L106.871 51.2289H98.8278C97.6214 51.2289 96.616 50.2219 96.616 49.0135C96.616 47.805 97.4203 46.798 98.6268 46.5966H115.92C114.713 48.0064 113.909 49.8191 113.708 51.8331C113.104 56.0627 115.316 60.2922 119.941 60.2922C124.566 60.0908 128.387 56.4655 128.99 51.8331C129.593 47.6036 127.18 43.5755 122.555 43.5755H102.849C101.643 43.5755 100.638 42.5685 100.638 41.3601C100.638 40.1516 101.643 39.1446 102.849 39.1446H108.48L110.088 27.6645C110.088 27.4631 110.289 27.2617 110.49 27.2617H117.126C117.327 27.2617 117.327 27.2617 117.528 27.4631C117.528 27.6645 117.528 27.6645 117.528 27.8659L115.92 39.1446H116.724ZM156.136 64.3203C153.924 66.7371 150.907 67.9456 147.891 67.7441C140.049 67.7441 137.837 61.9034 138.843 55.0556L141.457 37.7348C141.457 37.5334 141.658 37.332 141.859 37.332H148.293C148.495 37.332 148.495 37.332 148.696 37.5334C148.696 37.7348 148.696 37.7348 148.696 37.9362L146.484 53.6458C145.88 57.2711 146.484 60.695 150.907 60.695C155.331 60.695 156.94 57.6739 157.543 53.8472L159.755 37.9362C159.755 37.7348 159.956 37.5334 160.157 37.5334H166.592C166.793 37.5334 166.793 37.5334 166.994 37.7348C166.994 37.9362 166.994 37.9362 166.994 38.1376L162.972 66.7371C162.972 66.9385 162.771 67.1399 162.57 67.1399H156.538C156.337 67.1399 156.337 67.1399 156.136 66.9385C156.136 66.7371 155.934 66.7371 155.934 66.5357L156.136 64.3203ZM177.852 39.9502C180.064 37.7348 183.08 36.3249 186.096 36.5264C193.939 36.5264 196.15 42.3671 195.145 49.2149L192.732 66.5357C192.732 66.7371 192.531 66.9385 192.33 66.9385H185.895C185.694 66.9385 185.694 66.9385 185.493 66.7371C185.493 66.7371 185.292 66.5357 185.292 66.3343L187.504 50.8261C188.107 47.2008 187.705 43.7769 183.281 43.7769C178.858 43.7769 177.249 46.798 176.646 50.6247L174.434 66.5357C174.434 66.7371 174.233 66.9385 174.032 66.9385H167.597C167.396 66.9385 167.396 66.9385 167.195 66.7371C167.195 66.5357 167.195 66.5357 167.195 66.3343L171.217 37.7348C171.217 37.5334 171.418 37.332 171.619 37.332H177.651C177.852 37.332 177.852 37.332 178.053 37.5334C178.053 37.5334 178.254 37.7348 178.254 37.9362L177.852 39.9502ZM207.813 39.9502C210.025 37.7348 213.041 36.3249 216.057 36.5264C223.899 36.5264 226.111 42.3671 225.106 49.2149L222.693 66.5357C222.693 66.7371 222.492 66.9385 222.291 66.9385H215.856C215.655 66.9385 215.655 66.9385 215.454 66.7371C215.454 66.7371 215.253 66.5357 215.253 66.3343L217.666 51.0275C218.269 47.4022 217.867 43.9783 213.443 43.9783C209.019 43.9783 207.411 46.9994 206.808 50.8261L204.596 66.7371C204.596 66.9385 204.395 67.1399 204.194 67.1399H197.558C197.357 67.1399 197.357 67.1399 197.156 66.9385C197.156 66.7371 197.156 66.7371 197.156 66.5357L201.177 37.9362C201.177 37.7348 201.378 37.5334 201.58 37.5334H207.612C207.813 37.5334 207.813 37.5334 208.014 37.7348C208.014 37.7348 208.215 37.9362 208.215 38.1376L207.813 39.9502ZM232.747 65.3273L226.714 37.9362C226.714 37.7348 226.714 37.7348 226.714 37.5334C226.714 37.332 226.916 37.332 227.117 37.332H233.953C234.154 37.332 234.356 37.5334 234.356 37.7348L237.975 55.4584L246.621 37.7348C246.621 37.5334 246.822 37.5334 247.024 37.5334H253.86C254.061 37.5334 254.061 37.5334 254.262 37.7348C254.262 37.9362 254.262 38.1376 254.262 38.1376L234.557 76.8074C234.557 77.0088 234.355 77.0088 234.154 77.0088H227.318C227.117 77.0088 227.117 77.0088 226.916 76.8074C226.916 76.606 226.916 76.4046 226.916 76.4046L232.747 65.3273Z" fill="black"/>
<path fill-rule="evenodd" clip-rule="evenodd" d="M42.7265 14.3718L62.6333 25.2477L44.3351 0.67627C41.3189 4.70437 40.7157 9.94091 42.7265 14.3718Z" fill="black"/>
<path fill-rule="evenodd" clip-rule="evenodd" d="M33.6785 54.4517C36.0915 54.4517 38.1023 56.4657 38.1023 59.084C38.1023 61.5008 36.0915 63.5149 33.4775 63.5149C31.0645 63.5149 29.0537 61.5008 29.0537 59.084C29.2548 56.6671 31.2656 54.4517 33.6785 54.4517Z" fill="black"/>
<path fill-rule="evenodd" clip-rule="evenodd" d="M20.0044 4.30176L75.5024 34.5125C76.9099 35.1167 77.3121 36.728 76.7089 38.1378C76.5078 38.742 76.1056 39.1449 75.5024 39.3463C71.2797 41.9645 66.6549 43.7772 61.829 44.5828L50.1664 68.3486C50.1664 68.3486 46.5469 76.6062 36.4929 73.3837C40.7156 69.1542 45.7426 65.3275 45.7426 58.8826C45.7426 52.0348 40.3135 46.5968 33.4768 46.5968C26.64 46.5968 21.2109 52.0348 21.2109 58.8826C21.2109 67.3416 29.6562 70.9669 34.2811 76.8076C36.2919 79.8287 36.0908 83.8568 33.6778 86.4751C28.0476 80.8357 16.9882 71.1683 12.3634 64.9247C9.95043 61.7022 8.54288 57.8755 8.3418 53.8474C8.74396 44.9856 14.7763 37.3322 23.2217 34.7139C25.8357 33.9083 28.4498 33.7069 31.0638 33.7069C34.6832 33.9083 38.3027 35.1167 41.5199 36.9294C46.5469 39.7491 48.7588 39.1448 52.1772 36.1238C54.188 34.5125 56.3998 29.0746 52.9815 27.8662C51.775 27.4633 50.7696 27.2619 49.5631 27.0605C43.3297 25.8521 32.2703 24.6437 28.2487 22.4282C21.8141 18.8029 17.3904 11.3509 20.0044 4.30176Z" fill="black"/>
<path fill-rule="evenodd" clip-rule="evenodd" d="M45.7426 59.0839C48.3566 45.5897 34.6832 32.6998 24.026 34.5124L24.8303 34.311C24.2271 34.5124 23.6238 34.5124 23.2217 34.7138C14.7763 37.3321 8.74396 44.9855 8.3418 53.8473C8.3418 57.8754 9.74935 61.9035 12.3634 64.9246C16.9882 71.1682 28.0476 80.8356 33.8789 86.6764C36.2919 84.0581 36.694 80.03 34.4821 77.0089C29.6562 71.1682 21.412 67.5429 21.412 59.0839C21.412 52.2361 26.8411 46.7982 33.6778 46.7982C40.5145 46.7982 45.9437 52.2361 45.7426 59.0839Z" fill="black"/>
<path fill-rule="evenodd" clip-rule="evenodd" d="M20.0047 4.30176L62.2314 27.2619L63.4379 27.8662C64.4433 28.6718 65.4487 30.283 64.2422 33.1027C62.2314 37.3322 54.1882 41.5617 44.9386 38.3392C47.7537 39.1449 49.7645 38.1378 52.3785 36.1238C54.3893 34.5125 56.6012 29.0746 53.1828 27.8662C51.9764 27.4633 50.971 27.2619 49.7645 27.0605C43.531 25.8521 32.4716 24.6437 28.45 22.4282C21.8144 18.8029 17.3907 11.3509 20.0047 4.30176Z" fill="black"/>
<path fill-rule="evenodd" clip-rule="evenodd" d="M20.0049 4.30176C24.4286 20.4142 50.9711 21.824 64.2424 28.4704L20.0049 4.30176Z" fill="black"/>
<path fill-rule="evenodd" clip-rule="evenodd" d="M34.4821 77.0089C29.8572 71.1681 21.4119 67.5428 21.4119 59.0838C21.4119 52.8403 26.0367 47.8051 32.0691 46.9995C22.4173 46.9995 14.5752 54.8543 14.5752 64.7232C14.5752 65.9316 14.7763 67.14 14.9774 68.3485C18.7979 72.7794 24.4281 77.8145 29.0529 82.2454C30.8626 83.8567 32.6724 85.6693 33.8788 86.8777C35.0853 85.4679 35.6886 83.8567 35.8896 82.044C36.0907 80.2314 35.4875 78.4187 34.4821 77.0089Z" fill="black"/>
<path fill-rule="evenodd" clip-rule="evenodd" d="M45.743 60.4935C45.743 60.0907 45.743 59.4865 45.743 59.0837C48.357 45.5895 34.4825 32.6996 24.0264 34.5123C26.2382 33.908 28.6512 33.7066 30.8631 33.908C44.7376 34.3109 48.7592 49.2148 45.743 60.4935Z" fill="black"/>
<path fill-rule="evenodd" clip-rule="evenodd" d="M5.12483 30.4844C7.53779 30.4844 9.74966 32.4984 9.74966 35.1167V39.749H5.12483C2.71188 39.749 0.5 37.735 0.5 35.1167C0.5 32.6998 2.5108 30.4844 5.12483 30.4844Z" fill="black"/>
</g>
<defs>
<clipPath id="clip0_548_3969">
<rect width="298" height="86" fill="white" transform="translate(0.5 0.67627)"/>
</clipPath>
</defs>
</svg>
