<svg width="109" height="109" viewBox="0 0 109 109" fill="none" xmlns="http://www.w3.org/2000/svg">
<g clip-path="url(#clip0_543_3784)">
<path fill-rule="evenodd" clip-rule="evenodd" d="M58.3962 63.3653C58.5306 63.4315 58.6494 63.5257 58.7444 63.6415C58.8394 63.7574 58.9086 63.8922 58.9472 64.037C58.9858 64.1818 58.9929 64.3331 58.9681 64.4809C58.9434 64.6287 58.8873 64.7694 58.8036 64.8937C58.7762 65.0243 58.7127 65.1446 58.6204 65.241C52.463 70.5549 44.4683 73.7634 35.7312 73.7634C16.2735 73.7634 0.5 57.8478 0.5 38.2164C0.5 18.585 16.2735 2.66797 35.7312 2.66797C44.4779 2.66797 52.4781 5.88336 58.6382 11.2068C58.8481 11.4046 58.9727 11.6765 58.9855 11.9647C58.9982 12.2528 58.8982 12.5346 58.7065 12.7502C58.6955 12.7658 58.6831 12.7805 58.6696 12.794C54.9965 16.4156 52.154 20.7918 50.3386 25.62C50.2688 25.7985 50.1539 25.9558 50.0051 26.0765C49.8562 26.1973 49.6786 26.2774 49.4896 26.3089C49.3006 26.3405 49.1066 26.3224 48.9267 26.2565C48.7467 26.1907 48.5869 26.0792 48.4629 25.9331C46.827 24.1985 44.8537 22.8168 42.6643 21.8726C40.4749 20.9285 38.1156 20.4419 35.7312 20.4429C26.003 20.4429 18.1163 28.3993 18.1163 38.215C18.1163 48.0321 26.003 55.9899 35.7326 55.9899C40.7321 55.9899 45.2448 53.8887 48.4506 50.5133C48.5736 50.3604 48.7351 50.2431 48.9185 50.1735C49.102 50.1039 49.3007 50.0845 49.4941 50.1174C49.6876 50.1503 49.8687 50.2342 50.0189 50.3606C50.169 50.4869 50.2827 50.651 50.3482 50.836C52.118 55.5329 54.8606 59.8026 58.3962 63.3653ZM15.9577 104.638C15.9966 104.712 16.0094 104.797 15.9941 104.879C15.9788 104.962 15.9363 105.036 15.8733 105.092C15.8103 105.147 15.7306 105.179 15.647 105.184C15.5634 105.188 15.4807 105.164 15.4122 105.116C14.0445 106.135 12.3846 106.685 10.6793 106.684C6.22537 106.684 2.61352 102.999 2.61352 98.4544C2.61352 93.9088 6.22537 90.2245 10.6793 90.2245C12.6143 90.2247 14.4826 90.9316 15.9331 92.2123C15.9766 92.2591 16.0012 92.3203 16.0022 92.3842C16.0032 92.448 15.9805 92.51 15.9385 92.5582C15.0878 93.4045 14.4319 94.4262 14.0164 95.5521C13.9989 95.5912 13.9718 95.6252 13.9375 95.6509C13.9032 95.6765 13.8629 95.693 13.8205 95.6988C13.778 95.7045 13.7348 95.6993 13.695 95.6837C13.6551 95.6681 13.6198 95.6425 13.5926 95.6095C13.2203 95.2089 12.7695 94.8893 12.2683 94.6705C11.7671 94.4518 11.2262 94.3386 10.6793 94.3381C8.45099 94.3381 6.64643 96.1809 6.64643 98.453C6.64643 100.727 8.45099 102.568 10.6793 102.568C11.8236 102.568 12.8571 102.083 13.5912 101.301C13.6194 101.266 13.6564 101.239 13.6984 101.223C13.7404 101.207 13.7858 101.203 13.8301 101.211C13.8743 101.218 13.9156 101.238 13.9498 101.267C13.984 101.296 14.0099 101.334 14.0246 101.376C14.4398 102.491 15.0913 103.504 15.9344 104.344C15.9809 104.39 15.9864 104.541 15.9577 104.638ZM21.627 98.4544C21.627 99.0737 21.7432 99.6465 21.9756 100.17C22.4247 101.203 23.2634 102.016 24.3092 102.434C24.8383 102.649 25.3974 102.755 25.9866 102.755C27.1308 102.761 28.2328 102.324 29.0612 101.534C29.4795 101.139 29.8115 100.661 30.0361 100.13C30.2608 99.5999 30.3734 99.0289 30.3668 98.453C30.3732 97.8774 30.2605 97.3066 30.0359 96.7766C29.8112 96.2465 29.4794 95.7687 29.0612 95.373C28.2326 94.5843 27.1306 94.1472 25.9866 94.1535C25.3974 94.1535 24.8383 94.2588 24.3106 94.4734C23.2644 94.891 22.4253 95.7045 21.9756 96.7373C21.7432 97.2609 21.627 97.8337 21.627 98.4544ZM17.4109 98.4544C17.4109 97.2965 17.6228 96.2178 18.048 95.2171C18.4599 94.2375 19.061 93.3488 19.817 92.6019C20.5919 91.8439 21.5116 91.2497 22.5211 90.8548C23.5696 90.4337 24.7248 90.2232 25.9866 90.2232C27.2334 90.2232 28.3859 90.4337 29.4413 90.8548C30.4569 91.2495 31.3833 91.8435 32.1659 92.6019C32.9273 93.3456 33.5193 94.2178 33.9445 95.2171C34.3696 96.2165 34.5829 97.2951 34.5829 98.4544C34.5829 99.6123 34.3696 100.691 33.9445 101.69C33.5319 102.672 32.9277 103.561 32.1672 104.306C31.4058 105.051 30.4967 105.632 29.4413 106.054C28.3404 106.482 27.1678 106.696 25.9866 106.683C24.7248 106.683 23.5696 106.474 22.5211 106.054C21.5115 105.659 20.5919 105.064 19.817 104.306C19.061 103.559 18.4599 102.67 18.048 101.69C17.6182 100.666 17.4014 99.5651 17.4109 98.4544ZM36.4339 106.25L39.0656 90.6579H43.0547L46.1608 98.9698L49.2449 90.6579H53.2354L55.8671 106.25H51.8574L50.5204 97.2746L46.8593 106.25H45.2557L41.7806 97.2746L40.4436 106.25H36.4339ZM67.2399 94.0907H62.4483V96.6963H66.9733V100.128H62.4483V102.817H67.2399V106.25H58.4167V90.6579H67.2399V94.0907ZM74.171 102.817H75.0952C75.7938 102.817 76.4185 102.707 76.9667 102.486C77.5149 102.266 77.9784 101.962 78.3543 101.577C78.7317 101.19 79.0201 100.732 79.2183 100.202C79.4166 99.6711 79.5164 99.0887 79.5164 98.4544C79.5164 97.8337 79.4138 97.2541 79.2088 96.7168C79.0157 96.1998 78.7178 95.7283 78.3338 95.332C77.9401 94.9347 77.4674 94.6245 76.9462 94.4215C76.3562 94.1933 75.7277 94.081 75.0952 94.0907H74.1697L74.171 102.817ZM70.1381 90.6579H76.1027C77.1581 90.6579 78.1493 90.8712 79.0748 91.2991C79.9818 91.7135 80.8045 92.2919 81.5014 93.0052C82.1931 93.7161 82.7386 94.5418 83.1364 95.4865C83.5329 96.4297 83.7325 97.4195 83.7325 98.453C83.7325 99.4743 83.537 100.456 83.146 101.4C82.7674 102.327 82.2163 103.172 81.5219 103.893C80.8272 104.611 80.0041 105.193 79.0953 105.608C78.1569 106.039 77.1353 106.258 76.1027 106.251H70.1395L70.1381 90.6579ZM90.3341 90.6579V106.25H86.3026V90.6579H90.3341ZM102.015 100.46L100.205 95.2691L98.3945 100.46H102.015ZM103.084 103.541H97.3254L96.3999 106.25H92.1018L98.0049 90.6579H102.406L108.307 106.25H104.009L103.084 103.541ZM84.3504 55.9024C74.4267 55.9024 66.3827 47.9842 66.3827 38.2164C66.3827 28.4485 74.4267 20.5303 84.3504 20.5303C94.2741 20.5303 102.318 28.4485 102.318 38.2164C102.318 47.9842 94.2741 55.9024 84.3504 55.9024Z" fill="black"/>
</g>
<defs>
<clipPath id="clip0_543_3784">
<rect width="108" height="108" fill="white" transform="translate(0.5 0.67627)"/>
</clipPath>
</defs>
</svg>
