<?xml version="1.0" encoding="UTF-8"?>
<svg id="Layer_1" data-name="Layer 1" xmlns="http://www.w3.org/2000/svg" version="1.1" viewBox="0 0 99.2 99.2">
  <defs>
    <style>
      .cls-1 {
        fill: #fff;
        stroke-width: 0px;
      }
    </style>
  </defs>
  <path class="cls-1" d="M75,42.3c0,.2,0,.4,0,.6,0,.2-.2.3-.3.5,0,0-.3.2-.5.3s-.4,0-.6,0h-27c-.2,0-.4,0-.6,0-.2,0-.3-.2-.5-.3,0,0-.2-.3-.3-.5,0-.2,0-.4,0-.6v-3.1c0-.2,0-.4,0-.6s.2-.3.3-.5c0-.1.3-.2.5-.3.2-.1.4-.1.6-.1h26.9c.2,0,.4,0,.6.1s.3.2.5.3c0,.1.2.3.3.5,0,.2,0,.4,0,.6v3.1Z"/>
  <path class="cls-1" d="M86.9,51.2c0,.2,0,.4,0,.6,0,.2-.2.3-.3.5,0,0-.3.2-.5.3,0,0-.3,0-.5,0h-33.2c-.2,0-.4,0-.6,0-.2,0-.3-.2-.5-.3,0,0-.2-.3-.3-.5s0-.4,0-.6v-3.1c0-.2,0-.4,0-.6,0-.2.2-.3.3-.5s.3-.2.5-.3.4,0,.6,0h32.9c.2,0,.4,0,.6,0s.3.2.5.3c0,0,.2.3.3.5,0,.2,0,.4,0,.6l.2,3.2Z"/>
  <path class="cls-1" d="M96,60.2c0,.2,0,.4,0,.6,0,.2-.2.3-.3.5,0,0-.3.2-.5.3s-.4,0-.6,0h-36c-.2,0-.4,0-.6,0-.2,0-.3-.2-.5-.3,0,0-.2-.3-.3-.5s0-.4,0-.6v-3.1c0-.2,0-.4,0-.6,0-.2.2-.3.3-.5,0,0,.3-.2.5-.3s.4,0,.6,0h36.1c.2,0,.4,0,.6,0s.3.2.5.3c0,0,.2.3.3.5,0,.2,0,.4,0,.6v3.1h0Z"/>
  <path class="cls-1" d="M96,69.3c0,.2,0,.4,0,.6,0,.2-.2.3-.3.5,0,0-.3.2-.5.3s-.4,0-.6,0h-36c-.2,0-.4,0-.6,0-.2,0-.3-.2-.5-.3s-.2-.3-.3-.5,0-.4,0-.6v-3.1c0-.2,0-.4,0-.6,0-.2.2-.3.3-.5,0,0,.3-.2.5-.3s.4,0,.6,0h36.1c.2,0,.4,0,.6,0s.3.2.5.3c0,0,.2.3.3.5,0,.2,0,.4,0,.6v3.1h0Z"/>
  <path class="cls-1" d="M86.9,78.1c0,.2,0,.4,0,.6s-.2.3-.3.5c0,0-.3.2-.5.3s-.3,0-.5,0h-33.2c-.2,0-.4,0-.6,0-.2,0-.3-.2-.5-.3,0,0-.2-.3-.3-.5s0-.4,0-.6v-3.1c0-.2,0-.4,0-.6,0-.2.2-.3.3-.5,0,0,.3-.2.5-.3s.4,0,.6,0h32.9c.2,0,.4,0,.6,0s.3.2.5.3c0,0,.2.3.3.5.1.2,0,.4,0,.6l.2,3.1Z"/>
  <path class="cls-1" d="M75,87.2c0,.2,0,.4,0,.6s-.2.3-.3.5c0,0-.3.2-.5.3-.2,0-.4,0-.6,0h-27c-.2,0-.4,0-.6,0-.2,0-.3-.2-.5-.3,0,0-.2-.3-.3-.5s0-.4,0-.6v-3.1c0-.2,0-.4,0-.6s.2-.3.3-.5.3-.2.5-.3c.2,0,.4,0,.6,0h26.9c.2,0,.4,0,.6,0s.3.2.5.3.2.3.3.5c0,.2,0,.4,0,.6v3.1Z"/>
  <path class="cls-1" d="M23.9,15.2c0,.2,0,.4.1.6s.2.3.3.5c.1,0,.3.2.5.3.2,0,.3,0,.5,0h27c.2,0,.4,0,.6,0,.2,0,.3-.2.5-.3,0,0,.2-.3.3-.5s0-.4,0-.6v-3.1c0-.2,0-.4,0-.6,0-.2-.2-.3-.3-.5,0,0-.3-.2-.5-.3-.2,0-.4,0-.6,0h-27c-.2,0-.4,0-.6.1s-.3.2-.5.3c-.1,0-.2.3-.3.5-.1.2-.1.4-.1.6v3.1h.1Z"/>
  <path class="cls-1" d="M12.3,24.2c0,.2,0,.4.1.6.1.2.2.3.3.5.1.1.3.2.5.3s.4.1.6.1h32.9c.2,0,.4,0,.6-.1.2-.1.3-.2.5-.3,0-.1.2-.3.3-.5s0-.4,0-.6v-3.1c0-.2,0-.4,0-.6,0-.2-.2-.3-.3-.5,0-.1-.3-.2-.5-.3s-.4-.1-.6-.1H13.7c-.2,0-.4,0-.6.1,0,.1-.3.2-.4.4-.2.1-.3.3-.3.4-.1.2-.1.4-.1.6,0,0,0,3.1,0,3.1Z"/>
  <path class="cls-1" d="M3.2,33.3c0,.2,0,.4.1.6s.2.3.3.5c0,0,.3.2.5.2.2.1.4.1.6.1h36.1c.2,0,.4,0,.6-.1s.3-.2.5-.3.2-.3.3-.5,0-.4,0-.6v-3.1c0-.2,0-.4,0-.6s-.2-.3-.3-.5c0-.1-.3-.2-.5-.3-.2-.1-.4-.1-.6-.1H4.6c-.2,0-.4,0-.6.1-.2.1-.3.2-.5.3,0,.1-.2.3-.3.5,0,.3,0,.5,0,.7v3.1Z"/>
  <path class="cls-1" d="M3.2,42.3c0,.2,0,.4.1.6.1.2.2.3.3.5,0,.1.3.2.5.2.2,0,.4,0,.6,0h36.1c.2,0,.4,0,.6,0,.2,0,.3-.2.5-.3,0,0,.2-.3.3-.5s0-.4,0-.6v-3.1c0-.2,0-.4,0-.6s-.2-.3-.3-.5c0-.1-.3-.2-.5-.3-.2-.1-.4-.1-.6-.1H4.6c-.2,0-.4,0-.6.1-.2.1-.3.2-.5.3,0,.1-.2.3-.3.5,0,.4,0,.6,0,.8v3Z"/>
  <path class="cls-1" d="M12.3,51.2c0,.2,0,.4.1.6.1.2.2.3.3.5.1,0,.3.2.5.3s.4,0,.6,0h32.9c.2,0,.4,0,.6,0,.2,0,.3-.2.5-.3,0,0,.2-.3.3-.5s0-.4,0-.6v-3.1c0-.2,0-.4,0-.6,0-.2-.2-.3-.3-.5,0,0-.3-.2-.5-.3s-.4,0-.6,0H13.7c-.2,0-.4,0-.6,0-.2,0-.3.2-.5.3-.1,0-.2.3-.3.5s-.1.4-.1.6v3.1h.1Z"/>
  <path class="cls-1" d="M23.9,60.2c0,.2,0,.4.1.6.1.2.2.3.3.5.1,0,.3.2.5.3s.4,0,.6,0h27c.2,0,.4,0,.6,0,.2,0,.3-.2.5-.3,0,0,.2-.3.3-.5s0-.4,0-.6v-3.1c0-.2,0-.4,0-.6,0-.2-.2-.3-.3-.5,0,0-.3-.2-.5-.3s-.4,0-.6,0h-27c-.2,0-.4,0-.6,0s-.3.2-.5.3c-.1,0-.2.3-.3.5-.1.2-.1.4-.1.6v3.1Z"/>
</svg>