<?xml version="1.0" encoding="UTF-8"?>
<svg id="Layer_1" data-name="Layer 1" xmlns="http://www.w3.org/2000/svg" version="1.1" viewBox="0 0 99.2 99.2">
  <defs>
    <style>
      .cls-1 {
        fill: #0033a3;
      }

      .cls-1, .cls-2, .cls-3, .cls-4, .cls-5, .cls-6 {
        stroke-width: 0px;
      }

      .cls-2 {
        fill: #67b3ff;
      }

      .cls-3 {
        fill: #ffda00;
      }

      .cls-4 {
        fill: #d5465f;
      }

      .cls-5 {
        fill: #eb5a68;
      }

      .cls-6 {
        fill: #47a1ff;
      }
    </style>
  </defs>
  <circle class="cls-1" cx="49.6" cy="49.6" r="42.6"/>
  <path class="cls-3" d="M41.8,59.4c-2.6-2.6-4.1-6.2-4.1-9.9,0-3.7,1.5-7.3,4.1-9.9,2.1-2.2,2-5.7-.2-7.8-2.1-2-5.4-2-7.6,0-9.8,9.7-9.8,25.5-.1,35.3,2.1,2.2,5.6,2.3,7.8.2,2.2-2.1,2.3-5.6.2-7.8,0,0-.1-.1-.2-.2Z"/>
  <path class="cls-2" d="M41.8,39.7c2.6-2.6,6.2-4.1,9.9-4.1,3.7,0,7.3,1.5,9.9,4.1,2,2.3,5.5,2.5,7.7.5,2.3-2,2.5-5.5.5-7.7-.1-.1-.3-.3-.4-.4-9.6-9.8-25.4-9.9-35.2-.2,0,0,0,0,0,0-2,2.3-1.8,5.7.5,7.8,2.1,1.8,5.2,1.8,7.2,0Z"/>
  <path class="cls-5" d="M61.6,59.5c-2.6,2.6-6.2,4.1-9.9,4.1-3.7,0-7.3-1.5-9.9-4.1-2.1-2.1-5.6-2.2-7.8,0s-2.2,5.6,0,7.8h0c9.7,9.8,25.4,9.9,35.2.2,0,0,0,0,0,0,2.2-2.1,2.2-5.6,0-7.8-2.1-2.2-5.6-2.2-7.8,0Z"/>
  <path class="cls-6" d="M41.8,39.7c-2.1,2.1-5.6,2.1-7.8,0-2.1-2.1-2.1-5.6,0-7.8,2.1-2.1,5.6-2.1,7.8,0,0,0,0,0,0,0,2.1,2.2,2.1,5.6,0,7.7Z"/>
  <path class="cls-4" d="M41.7,67.2c-2.1,2.1-5.6,2.1-7.8,0-2.1-2.1-2.1-5.6,0-7.8,2.1-2.1,5.6-2.1,7.8,0,0,0,0,0,0,0,2.1,2.2,2.1,5.6,0,7.7Z"/>
</svg>