<?xml version="1.0" encoding="UTF-8"?>
<svg id="Layer_1" data-name="Layer 1" xmlns="http://www.w3.org/2000/svg" version="1.1" viewBox="0 0 99.2 99.2">
  <defs>
    <style>
      .cls-1 {
        opacity: .4;
      }

      .cls-1, .cls-2, .cls-3, .cls-4, .cls-5, .cls-6 {
        fill: #fff;
        stroke-width: 0px;
      }

      .cls-2 {
        opacity: .2;
      }

      .cls-3 {
        opacity: .1;
      }

      .cls-5 {
        opacity: 0;
      }

      .cls-6 {
        opacity: 0;
      }
    </style>
  </defs>
  <path class="cls-4" d="M49.6,7.1C26.1,7.1,7.1,26.1,7.1,49.6s19.1,42.6,42.6,42.6,42.6-19.1,42.6-42.6S73.1,7.1,49.6,7.1ZM41.8,59.4c2.6,2.6,6.2,4.1,9.9,4.1,3.7,0,7.3-1.4,9.9-4.1,2.2-2.1,5.6-2.1,7.8,0s2.1,5.6,0,7.8c0,0,0,0,0,0-9.7,9.6-25.2,9.6-34.9.1-.1-.1-.3-.2-.4-.3,0,0,0,0,0,0,0,0,0,0,0,0-9.6-9.8-9.6-25.5.1-35.2,0,0,0,0,0,0,0,0,.1-.1.2-.2,9.8-9.6,25.5-9.4,35.1.3.1.1.3.3.4.4,2,2.3,1.8,5.7-.5,7.7s-5.7,1.8-7.7-.5c-2.6-2.6-6.2-4.1-9.9-4.1-3.7,0-7.3,1.4-9.9,4.1-2.6,2.6-4.1,6.2-4.1,9.9,0,3.7,1.4,7.2,4,9.8,0,0,0,0,.1.1Z"/>
  <path class="cls-1" d="M41.8,39.7c-2.1,2.1-5.6,2.1-7.8,0-2.1-2.1-2.1-5.6,0-7.7-9.7,9.7-9.8,25.4-.1,35.2-2.1-2.2-2.1-5.6,0-7.7,1.6-1.6,4-2,6-1.2.6.2,1.2.6,1.7,1.1-2.5-2.6-4-6.1-4-9.8,0-3.7,1.5-7.3,4.1-9.9Z"/>
  <path class="cls-5" d="M41.9,31.9s0,0,0,0c2.1,2.2,2.1,5.6,0,7.7,2.6-2.6,6.2-4.1,9.9-4.1,3.7,0,7.3,1.5,9.9,4.1,2,2.3,5.5,2.5,7.7.5s2.5-5.5.5-7.7c-.1-.1-.3-.3-.4-.4-9.6-9.7-25.3-9.9-35.1-.3,2.2-1.9,5.5-1.9,7.6.2Z"/>
  <path class="cls-6" d="M42,59.6c2.1,2.2,2,5.7-.2,7.8-2.1,2-5.3,2-7.4.1,9.7,9.4,25.2,9.4,34.9-.1,0,0,0,0,0,0,2.2-2.1,2.2-5.6,0-7.8s-5.6-2.2-7.8,0c-2.6,2.6-6.2,4.1-9.9,4.1-3.7,0-7.3-1.5-9.9-4.1,0,0,0,0-.1-.1,0,0,0,0,0,.1,0,0,.1.1.2.2Z"/>
  <path class="cls-2" d="M41.9,31.9s0,0,0,0c-2.1-2.1-5.4-2.1-7.6-.2,0,0,0,0,0,0,0,0,0,0-.1.1,0,0,0,0,0,0-2.1,2.1-2.1,5.6,0,7.7,2.1,2.1,5.6,2.2,7.8,0,2.1-2.1,2.1-5.6,0-7.7Z"/>
  <path class="cls-3" d="M42,59.6c0,0-.1-.1-.2-.2,0,0,0,0,0,0-.5-.5-1.1-.9-1.8-1.2-2-.8-4.4-.4-6,1.2-2.1,2.1-2.2,5.6,0,7.7,0,0,0,0,0,0,0,0,0,0,0,0,0,0,.2.1.3.2,0,0,0,0,.1.1,2.1,1.8,5.3,1.8,7.4-.1,2.2-2.1,2.3-5.6.2-7.8Z"/>
</svg>