<svg viewBox="0 0 188 85" fill="none" xmlns="http://www.w3.org/2000/svg">
  <g clip-path="url(#clip0_615_323)">
    <path fill-rule="evenodd" clip-rule="evenodd" d="M171.525 35.324C171.515 38.889 170.503 39.429 168.285 39.065C166.165 38.723 165.252 37.87 165.26 35.375C165.286 27.001 165.293 22.815 165.317 14.438C165.321 12.208 166.438 11.223 168.258 11.519C169.873 11.783 171.591 12.785 171.583 15.549C171.559 23.459 171.547 27.413 171.525 35.324V35.324ZM180.795 68.375C180.792 69.412 180.792 69.928 180.788 70.959C180.786 71.494 180.584 71.639 180.28 71.58C179.882 71.504 179.68 71.017 179.683 70.217L179.747 50.35C179.759 46.073 174.794 42.405 174.835 42.141C174.835 42.141 179.78 39.836 179.796 34.757C179.817 28.094 179.83 24.763 179.848 18.098C179.87 11.416 173.628 7.68004 169.282 6.96504C166.955 6.57904 165.633 6.74004 164.525 6.74004C163.317 6.74004 162.095 6.72404 160.679 6.52004C160.07 6.42804 159.259 6.22604 158.653 5.96204C158.046 5.69504 157.395 5.14604 157.338 5.15604C157.252 5.16304 155.205 6.28804 153.988 5.94804C154.388 9.28204 154.586 10.95 154.985 14.281C155.311 14.324 155.471 14.347 155.795 14.391C155.799 13.392 155.799 12.891 155.801 11.893C155.805 10.648 156.009 10.493 156.414 10.548C156.719 10.592 156.918 10.714 156.914 11.959C156.9 17.945 156.895 20.941 156.879 26.929C156.866 32.629 154.754 36.595 154.73 36.976C154.727 37.036 156.147 38.413 156.144 39.036C156.144 39.303 156.042 39.558 155.839 39.799C155.636 40.037 154.949 40.369 154.924 40.476C154.858 40.786 156.837 44.836 156.827 49.202C156.813 55.867 156.807 59.199 156.79 65.864C156.787 67.201 156.586 67.351 156.18 67.294C155.573 67.214 155.473 66.577 155.474 65.954C155.475 64.99 155.477 64.508 155.479 63.546C155.155 63.503 154.994 63.482 154.67 63.437C154.174 66.583 153.931 68.154 153.44 71.3C154.35 71.417 156.553 73.387 156.772 73.44C156.956 73.484 159.402 72.914 160.715 73.106C161.423 73.208 162.232 73.42 163.04 73.719C163.846 74.019 164.778 74.662 164.956 74.636C165.252 74.598 167.281 73.487 168.492 73.686C168.098 70.591 167.898 69.041 167.502 65.947C167.234 65.9035 166.966 65.8608 166.697 65.819C166.692 66.779 166.691 67.263 166.69 68.226C166.688 69.026 166.587 69.097 166.282 69.051C165.478 68.924 165.176 67.807 165.186 63.978C165.206 57.136 165.212 53.714 165.229 46.869C165.235 43.753 166.049 43.25 168.17 43.596C170.392 43.954 171.497 44.686 171.488 47.978C171.461 58.099 171.444 63.162 171.415 73.281C172.525 73.471 173.981 76.058 174.229 76.175C174.339 76.229 176.143 75.979 176.947 76.125C177.35 76.2 177.855 76.295 178.357 76.477C178.858 76.659 179.501 77.152 179.562 77.147C179.649 77.14 181.676 75.945 182.579 76.119C182.19 73.085 181.992 71.566 181.6 68.531L180.795 68.375V68.375ZM153.485 59.778L153.496 53.434C153.5 51.652 154.42 49.929 154.399 49.771C154.362 49.513 151.564 48.126 151.575 43.421C151.347 43.392 151.233 43.374 151.007 43.345C150.997 47.766 148.349 48.417 148.157 48.849C148.105 48.96 148.72 51.196 148.717 52.836L148.707 57.968C148.699 61.105 148.211 61.544 146.67 61.368C144.967 61.17 144.32 60.6 144.32 58.89C144.332 53.046 144.34 50.121 144.35 44.277C144.356 40.284 144.36 39.354 145.656 39.503C146.144 39.556 146.793 40.063 146.792 40.705C146.792 41.271 146.689 41.625 146.467 42.018C146.154 42.5671 145.985 43.1862 145.974 43.818C145.972 45.102 147.96 45.998 148.001 45.908C148.001 45.908 147.514 45.063 147.514 44.634C147.518 44.136 148.109 43.779 149.062 43.037C149.623 42.597 150.035 42.014 150.037 41.159C150.038 40.161 149.473 39.379 148.662 38.71L150.532 37.725C149.819 37.097 149.462 36.781 148.749 36.156C149.642 35.762 150.052 35.099 150.054 34.316C150.055 33.606 149.487 32.678 149.084 32.276C148.274 31.462 147.95 30.997 147.95 30.57C147.952 30.142 148.298 29.526 148.276 29.467C148.266 29.439 146.163 30.005 146.161 31.147C146.161 31.718 146.314 32.323 146.485 32.751C146.63 33.121 146.807 33.359 146.807 33.931C146.804 34.361 146.397 34.951 145.827 34.886C144.935 34.787 144.367 34.438 144.373 31.302L144.403 17.117C144.408 14.264 145.22 13.568 146.603 13.728C148.144 13.904 148.793 15.054 148.787 17.551C148.785 19.289 148.78 20.161 148.778 21.901C148.772 24.251 147.933 25.571 147.958 25.722C147.994 25.942 150.798 27.992 150.788 31.914L151.438 31.992C151.445 27.929 153.938 26.923 154.123 26.492C154.163 26.393 153.561 24.422 153.566 22.57C153.572 19.832 153.574 18.461 153.583 15.725C153.585 13.657 154.324 12.437 154.32 12.397C154.32 12.397 152.373 10.905 152.212 10.842C152.094 10.8 150.83 11.379 150.262 11.31C149.288 11.19 148.637 10.83 147.989 10.612C147.34 10.394 146.689 10.175 145.713 10.064C145.09 9.9938 144.461 10.0194 143.846 10.14C142.881 10.3259 141.893 10.3653 140.916 10.257C140.266 10.188 139.533 10.047 138.966 9.84704C138.394 9.64704 137.793 9.21104 137.666 9.22204C137.431 9.24804 136.199 10.294 135.138 10.269C135.428 12.747 135.574 13.989 135.862 16.467L136.512 16.527C136.517 15.587 136.515 15.117 136.517 14.174C136.599 13.614 136.762 13.414 137.168 13.451C137.494 13.482 137.575 13.704 137.574 14.275L137.55 29.031C137.546 32.311 136.08 34.391 136.077 34.599C136.074 34.702 137.053 35.685 137.053 36.115C137.051 36.615 136.107 37.325 136.074 37.45C136.042 37.56 137.534 40.011 137.526 44.644C137.518 50.119 137.511 52.855 137.501 58.334C137.501 59.115 137.338 59.386 136.934 59.349C136.527 59.309 136.444 59.013 136.446 58.159L136.45 55.881C136.158 55.854 136.01 55.839 135.717 55.813C135.42 58.353 135.277 59.621 134.978 62.163C135.79 62.377 137.252 63.846 137.415 63.883C137.509 63.906 138.712 63.295 139.446 63.37C140.42 63.465 141.393 63.708 142.204 63.937C143.014 64.167 143.824 64.537 144.798 64.647C146.016 64.781 146.676 64.651 147.313 64.578C147.873 64.511 148.531 64.364 149.585 64.494C150.068 64.554 150.473 64.671 150.88 64.795C151.285 64.915 151.871 65.335 152.013 65.293C152.139 65.253 154.174 64.43 154.203 64.364C154.203 64.364 153.477 63.272 153.485 59.778V59.778ZM130.02 9.26504C129.519 9.22378 129.025 9.11444 128.553 8.94004C128.064 8.76004 127.478 8.34404 127.413 8.35504C127.343 8.36704 125.945 9.46204 125.21 9.41204C125.208 11.978 125.208 13.257 125.203 15.823C125.529 15.846 125.694 15.863 126.019 15.883C126.151 14.979 126.214 14.529 126.347 13.626C126.429 12.992 126.674 12.792 126.918 12.811C127.409 12.845 127.405 13.273 127.324 14.125C126.73 20.411 126.434 23.553 125.838 29.845C125.673 31.472 124.618 33.427 124.613 33.826C124.609 34.056 125.343 34.946 125.343 35.516C125.343 36.084 124.564 36.717 124.527 36.957C124.507 37.079 125.014 37.987 124.932 39.693C124.796 42.533 124.732 43.957 124.597 46.798C124.37 46.781 124.257 46.775 124.028 46.758L123.71 39.755C123.631 38.322 124.29 37.08 124.284 36.94C124.277 36.827 123.388 35.883 123.388 35.384C123.39 34.884 124.356 33.959 124.366 33.809C124.38 33.657 122.823 31.496 122.663 27.919L121.866 13.543C121.866 12.899 121.946 12.619 122.11 12.629C122.357 12.645 122.517 12.869 122.598 13.585L122.84 15.671C123.101 15.687 123.232 15.693 123.492 15.711C123.494 13.146 123.494 11.864 123.499 9.29704C122.276 9.21504 121.281 7.96404 121.136 7.93504C121.083 7.92704 119.096 8.52904 117.709 8.45504C117.02 8.42711 116.337 8.3211 115.672 8.13904C115.107 7.98004 114.448 7.55304 114.367 7.58204C114.284 7.60604 113.06 8.94604 111.999 8.90204C112.486 11.428 112.733 12.695 113.219 15.225C113.479 15.238 113.611 15.245 113.873 15.255C113.873 14.201 113.871 13.675 113.873 12.618C113.873 12.262 114.116 12.058 114.36 12.069C114.69 12.086 114.934 12.239 115.014 13.309C115.468 20.15 115.69 23.566 116.141 30.404C116.302 32.479 115.063 33.67 115.082 33.849C115.09 33.929 116.055 34.609 116.055 35.106C116.055 35.604 115.252 36.319 115.239 36.422C115.229 36.513 116.95 38.003 117.434 44.446C117.915 51.086 118.157 54.407 118.64 61.051C119.211 61.083 120.317 62.551 120.428 62.577C120.462 62.585 121.65 61.939 122.871 62.015C123.522 62.057 124.121 62.146 124.499 62.262C124.969 62.406 125.505 62.915 125.555 62.907C125.555 62.907 126.778 61.497 127.426 61.544L129.649 41.892C129.979 38.85 131.524 37.578 131.527 37.478C131.527 37.478 130.309 36.383 130.309 35.813C130.311 35.243 131.349 34.605 131.369 34.473C131.382 34.371 130.559 32.48 130.887 29.373C131.483 23.231 131.779 20.16 132.377 14.023C132.458 13.53 132.542 13.323 132.785 13.343C133.028 13.364 133.19 13.593 133.19 14.09L133.186 16.3C133.48 16.327 133.626 16.338 133.918 16.364C134.279 13.914 134.463 12.69 134.823 10.241C134.174 10.181 132.724 8.79304 132.546 8.76304C132.48 8.74804 130.996 9.34304 130.02 9.26504V9.26504ZM116.78 46.907C116.726 46.69 114.01 44.92 114.014 40.928C113.786 40.918 113.672 40.914 113.442 40.902C113.439 45.109 111.15 46.039 110.912 46.573C110.854 46.704 111.645 48.527 111.642 51.667V55.227C111.642 57.224 111.233 58.344 108.952 58.265C106.668 58.188 106.425 57.046 106.427 55.049L106.433 40.723C106.436 37.513 107.686 35.61 107.658 35.408C107.654 35.382 106.679 34.594 106.68 34.023C106.685 33.456 107.642 32.666 107.66 32.56C107.667 32.52 106.438 30.67 106.44 26.82C106.444 21.231 106.444 18.434 106.45 12.845C106.45 11.917 106.611 11.565 107.101 11.581C107.591 11.597 107.753 11.887 107.834 12.457V14.383C108.062 14.391 108.175 14.393 108.405 14.399L109.225 8.51304C108.246 8.47704 106.845 7.34304 106.615 7.29304C106.46 7.25404 104.817 7.95004 103.427 7.91904C102.767 7.90322 102.111 7.81877 101.469 7.66704C100.829 7.50704 100.163 7.12704 100.082 7.14404C99.936 7.18404 98.449 8.26204 97.632 8.25404C97.825 10.596 97.927 11.765 98.122 14.105C98.35 14.11 98.463 14.11 98.692 14.112V12.473C98.692 11.475 98.854 11.191 99.182 11.197C99.508 11.203 99.753 11.417 99.753 12.417C99.751 18.12 99.751 20.972 99.751 26.677C99.749 29.241 98.188 32.172 98.201 32.357C98.201 32.387 99.177 33.369 99.177 33.868C99.177 34.081 99.097 34.364 98.934 34.576C98.771 34.787 98.124 35.143 98.118 35.207C98.114 35.234 99.749 37.299 99.748 40.577L99.742 56.333C99.742 57.119 99.582 57.399 99.173 57.394C98.765 57.387 98.683 57.105 98.683 56.604V54.537L98.031 54.53C97.773 56.838 97.641 57.99 97.379 60.296C98.437 60.306 99.893 61.781 100.067 61.827C100.221 61.867 101.372 61.135 102.349 61.157C103.653 61.18 104.722 61.412 105.771 61.662C106.741 61.892 107.725 62.003 108.868 62.04C109.439 62.062 110.035 61.9 110.578 61.818C111.11 61.739 111.638 61.644 112.126 61.668C112.453 61.678 112.784 61.758 113.182 61.853C113.506 61.93 114.036 62.284 114.16 62.253C114.416 62.184 116.62 61.143 116.686 61.02C116.686 61.02 115.876 59.196 115.879 55.916L115.88 51.853C115.882 48.718 116.821 47.073 116.78 46.907V46.907ZM86.003 58.261C84.453 58.286 83.721 57.589 83.721 55.591C83.717 50.315 83.717 47.677 83.715 42.402C83.715 38.908 85.031 36.136 85.019 35.889C85.014 35.804 83.957 34.84 83.957 34.269C83.957 33.7 85 32.821 85.018 32.684C85.023 32.636 83.711 31.212 83.709 27.076C83.709 21.487 83.709 18.69 83.707 13.101C83.707 11.319 84.358 10.592 86.071 10.565C87.784 10.54 88.276 11.322 88.276 12.96C88.276 18.608 88.279 21.43 88.279 27.076C88.279 29.789 86.876 32.5 86.893 32.726C86.897 32.754 87.954 33.713 87.954 34.211C87.954 34.708 86.902 35.515 86.895 35.651C86.887 35.747 88.282 37.275 88.282 41.976C88.282 47.396 88.282 50.103 88.284 55.52C88.284 57.662 87.47 58.24 86.004 58.261H86.003ZM95.295 26.348C95.297 21.156 95.297 18.562 95.297 13.372C95.297 8.30804 89.705 6.63904 88.767 7.11204C88.501 7.24304 87.379 7.83604 86.153 7.85304C85.583 7.86304 84.913 7.81104 84.44 7.66704C84.038 7.54404 83.591 7.25304 83.458 7.18904C81.748 6.37404 76.685 10.583 76.688 14.505L76.695 27.838C76.697 31.755 75.2 33.142 75.23 33.308C75.235 33.329 76.29 34.124 76.29 34.628C76.291 35.121 75.255 35.858 75.233 36.016C75.215 36.136 76.703 37.819 76.703 40.742C76.709 46.758 76.71 49.767 76.713 55.782C76.716 59.992 82.573 62.449 83.56 61.867C83.91 61.664 84.862 61.131 86.004 61.115C86.574 61.105 87.084 61.131 87.551 61.236C87.933 61.319 88.328 61.7 88.529 61.796C89.656 62.328 95.293 59.498 95.295 52.939V41.674C95.295 37.61 96.778 35.577 96.766 35.408C96.759 35.366 95.706 34.478 95.706 33.979C95.706 33.479 96.75 32.549 96.766 32.416C96.776 32.331 95.296 31.123 95.296 26.348H95.295ZM73.477 7.50104C73.414 7.49104 71.927 8.27604 70.948 8.32104C70.4542 8.34648 69.9592 8.29931 69.479 8.18104C68.99 8.06204 68.402 7.72704 68.337 7.74204C68.249 7.76404 66.871 9.03204 66.137 9.07404L66.141 15.488C66.466 15.471 66.631 15.459 66.959 15.443C67.087 14.523 67.15 14.064 67.28 13.146C67.361 12.499 67.606 12.271 67.85 12.262C68.34 12.232 68.34 12.662 68.261 13.52C67.678 19.881 67.388 23.063 66.809 29.426C66.649 31.077 65.572 33.139 65.589 33.559C65.599 33.772 66.324 34.587 66.326 35.159C66.326 35.73 65.537 36.439 65.51 36.702C65.5 36.827 66.002 37.67 65.922 39.386C65.794 42.246 65.729 43.674 65.602 46.534L65.032 46.566C64.899 43.779 64.833 42.388 64.702 39.601C64.618 38.181 65.285 36.866 65.267 36.717C65.254 36.619 64.371 35.773 64.371 35.275C64.371 34.775 65.345 33.738 65.345 33.573C65.345 33.427 63.796 31.458 63.629 27.905L62.799 13.626C62.799 12.983 62.879 12.696 63.041 12.684C63.287 12.667 63.449 12.87 63.532 13.579L63.777 15.632L64.43 15.587C64.426 13.023 64.425 11.743 64.423 9.17504C63.2 9.25204 62.185 8.13304 62.055 8.11304C62.011 8.10904 60.021 8.96304 58.635 9.06404C57.902 9.11704 57.238 9.10504 56.598 9.00604C56.036 8.91704 55.378 8.58104 55.294 8.61104C55.191 8.64904 53.994 10.141 52.935 10.231L54.165 16.402C54.425 16.379 54.556 16.367 54.816 16.346L54.812 13.712C54.812 13.355 55.056 13.12 55.299 13.102C55.625 13.074 55.871 13.197 55.954 14.262L57.116 31.208C57.281 33.265 56.029 34.611 56.062 34.788C56.074 34.851 57.042 35.422 57.042 35.922C57.042 36.42 56.233 37.23 56.229 37.34C56.224 37.435 57.939 38.706 58.436 45.083L59.676 61.538C60.247 61.493 61.368 62.819 61.468 62.836C61.49 62.84 62.689 62.043 63.908 61.969C64.56 61.927 65.155 61.942 65.534 62.01C66.002 62.091 66.547 62.53 66.596 62.52C66.601 62.52 67.816 60.956 68.466 60.922C69.338 52.949 69.774 48.962 70.649 40.992C70.972 37.907 72.527 36.445 72.519 36.342C72.519 36.342 71.295 35.398 71.295 34.832C71.295 34.26 72.342 33.504 72.355 33.354C72.363 33.25 71.535 31.465 71.86 28.315C72.441 22.098 72.734 18.995 73.317 12.781C73.399 12.279 73.48 12.062 73.725 12.053C73.969 12.043 74.135 12.248 74.135 12.747V14.958L74.869 14.928C75.225 12.433 75.405 11.188 75.762 8.69204C75.11 8.71504 73.639 7.52204 73.477 7.50204V7.50104ZM49.94 41.73L49.371 41.781C49.378 46.199 46.714 47.316 46.536 47.902C46.486 48.064 47.111 50.127 47.112 51.766C47.115 53.819 47.116 54.846 47.122 56.899C47.126 60.035 46.638 60.579 45.095 60.739C43.392 60.914 42.741 60.486 42.738 58.776L42.713 44.163C42.705 40.171 42.703 39.24 44.003 39.104C44.49 39.054 45.141 39.414 45.143 40.055C45.143 40.628 45.043 40.995 44.819 41.441C44.569 41.945 44.333 42.637 44.335 43.351C44.338 44.634 46.333 45.119 46.369 44.999C46.369 44.999 45.88 44.26 45.88 43.834C45.88 43.334 46.46 42.856 47.42 41.896C47.99 41.327 48.394 40.66 48.393 39.804C48.391 38.806 47.821 38.151 47.008 37.657C47.755 37.101 48.128 36.821 48.874 36.264C48.157 35.79 47.799 35.555 47.084 35.084C47.977 34.496 48.384 33.747 48.381 32.964C48.381 32.25 47.809 31.447 47.402 31.13C46.588 30.5 46.263 30.104 46.262 29.677C46.262 29.25 46.612 28.551 46.585 28.505C46.585 28.505 44.475 29.501 44.475 30.645C44.477 31.215 44.631 31.785 44.802 32.175C44.948 32.511 45.129 32.715 45.132 33.287C45.132 33.714 44.726 34.393 44.158 34.453C43.263 34.55 42.693 34.325 42.688 31.188C42.678 25.515 42.674 22.679 42.662 17.003C42.657 14.15 43.47 13.278 44.852 13.135C46.396 12.975 47.05 13.981 47.053 16.478L47.06 20.828C47.065 23.181 46.21 24.691 46.254 24.829C46.287 24.935 49.102 26.479 49.109 30.401C49.371 30.373 49.5 30.363 49.761 30.339C49.754 26.274 52.271 24.833 52.437 24.25C52.477 24.11 51.863 22.304 51.861 20.454L51.849 13.606C51.849 11.54 52.589 10.156 52.577 10.122C52.577 10.122 50.589 9.06304 50.459 9.02504C50.361 9.00204 49.077 9.86504 48.507 9.92004C47.531 10.014 46.877 9.79304 46.228 9.71804C45.578 9.64004 44.926 9.56404 43.95 9.66504C43.38 9.72504 42.81 9.85704 42.08 10.151C41.146 10.5388 40.162 10.793 39.157 10.906C38.507 10.982 37.777 10.997 37.208 10.919C36.638 10.846 36.028 10.554 35.904 10.584C35.624 10.648 34.447 11.971 33.392 12.179L34.135 18.215C34.393 18.183 34.525 18.167 34.785 18.137C34.782 17.194 34.785 16.723 34.78 15.783C34.86 15.2 35.022 14.968 35.428 14.919C35.752 14.879 35.835 15.082 35.836 15.652C35.848 21.553 35.856 24.506 35.866 30.409C35.874 33.687 34.391 36.069 34.417 36.293C34.427 36.379 35.393 37.169 35.394 37.597C35.394 38.097 34.447 38.987 34.424 39.144C34.404 39.278 35.89 41.386 35.899 46.018C35.911 51.495 35.916 54.231 35.926 59.705C35.927 60.489 35.767 60.796 35.362 60.846C34.958 60.897 34.875 60.617 34.873 59.763C34.873 58.849 34.873 58.398 34.87 57.488C34.577 57.52 34.432 57.54 34.14 57.578C33.855 60.179 33.71 61.481 33.423 64.086C34.234 64.121 35.724 65.254 35.859 65.276C35.941 65.286 37.153 64.406 37.882 64.316C38.855 64.206 39.83 64.233 40.64 64.286C41.45 64.337 42.263 64.531 43.236 64.427C44.454 64.298 45.116 64.025 45.753 63.809C46.315 63.62 46.97 63.331 48.026 63.23C48.513 63.184 48.919 63.214 49.326 63.244C49.732 63.279 50.314 63.564 50.463 63.495C50.626 63.427 52.633 62.18 52.653 62.095C52.653 62.095 51.923 61.158 51.917 57.663C51.912 55.127 51.911 53.854 51.907 51.317C51.904 49.538 52.837 47.609 52.794 47.463C52.751 47.316 49.948 46.433 49.94 41.73V41.73ZM16.65 67.47L16.6 49.47C16.59 45.817 18.26 43.282 18.2 43.061C18.194 43.041 16.58 41.721 16.58 41.272C16.577 40.742 18.276 39.377 18.29 39.212C18.29 39.212 16.567 37.263 16.557 33.522C16.538 26.717 16.53 23.312 16.512 16.505C16.502 13.119 17.205 11.482 19.53 11.117C22.06 10.721 22.47 12.179 22.477 15.565L22.52 32.495C22.53 36.15 20.837 38.436 20.917 38.799C20.97 39.04 22.133 40.04 22.135 40.666C22.138 41.291 20.623 42.526 20.623 42.678C20.623 42.678 22.55 44.793 22.559 48.622C22.579 55.789 22.589 59.369 22.607 66.533C22.617 70.095 21.607 70.689 19.688 70.991C17.871 71.276 16.659 71.032 16.649 67.471L16.65 67.47ZM32.657 36.788C32.672 36.653 31.132 34.756 31.121 29.945C31.107 23.636 31.102 20.485 31.086 14.173C31.076 9.09804 26.802 5.98004 20.428 6.96704C18.608 7.25004 17.484 7.42304 16.384 7.78904C15.377 8.12404 13.757 8.93904 12.345 9.18304C11.335 9.35804 8.76704 8.76904 8.50604 8.88004C8.33404 8.95504 6.69704 10.905 5.28704 11.262L6.21704 18.308C6.58004 18.242 6.76304 18.208 7.12504 18.138C7.12504 17.355 7.12104 16.962 7.11904 16.179C7.11304 14.576 7.21404 14.199 7.71604 14.109C8.22304 14.015 8.32304 14.179 8.32704 15.601L8.38404 33.775C8.39604 38.052 6.43604 40.478 6.49104 40.989C6.51504 41.229 7.60404 42.299 7.60504 42.833C7.60704 43.458 6.50204 44.6 6.50204 44.908C6.50404 45.116 8.42504 47.228 8.43604 51.236L8.49704 70.57C8.50004 71.82 8.29804 72.212 7.69504 72.318C7.09204 72.431 6.88904 72.113 6.88504 70.864L6.87804 68.284C6.59604 68.335 6.45504 68.359 6.17304 68.414L5.49404 76.301C6.49904 76.021 8.29104 77.299 8.51804 77.342C8.67804 77.373 10.426 76.105 11.532 75.91C12.944 75.663 14.152 75.637 15.664 75.652C17.176 75.668 18.894 75.567 21.214 75.213C25.05 74.621 31.217 72.093 31.196 63.183C31.186 57.443 31.178 54.577 31.166 48.836C31.154 43.669 32.706 41.081 32.667 40.886C32.652 40.808 31.344 39.546 31.344 39.007C31.344 38.474 32.625 37.105 32.657 36.788V36.788ZM182.367 78.638C182.163 78.698 181.755 78.854 180.955 79.265C180.625 79.435 180.282 79.61 179.773 79.655C178.803 79.662 178.309 79.345 177.949 79.112C177.84 79.043 177.584 78.877 177.479 78.832C177.2 78.73 176.834 78.662 176.509 78.6C175.894 78.593 175.429 78.63 175.056 78.656C174.724 78.682 174.456 78.698 174.312 78.698C174.152 78.698 173.666 78.698 173.129 78.434C172.504 78.14 172.17 77.676 171.709 77.034C171.604 76.8867 171.498 76.7404 171.39 76.595L168.15 76.178C167.751 76.205 166.792 76.611 166.472 76.748C166.018 76.939 165.692 77.078 165.269 77.132C164.21 77.152 163.681 76.862 163.069 76.527C162.777 76.367 162.414 76.168 162.166 76.075C161.582 75.8547 160.977 75.6942 160.361 75.596C159.411 75.582 158.436 75.74 157.854 75.836C157.365 75.914 157.095 75.958 156.804 75.958L156.195 75.888C155.589 75.738 155.25 75.473 154.573 74.949C154.224 74.679 153.336 73.99 152.914 73.767L150.564 73.465L151.268 68.955L151.456 67.755C151.004 67.661 150.639 67.47 150.332 67.305C149.787 67.09 149.54 67.022 149.278 66.99C148.476 66.957 148.23 66.991 147.948 67.03C147.83 67.047 147.364 67.105 147.364 67.105C146.962 67.156 146.461 67.22 145.798 67.22C145.389 67.22 144.972 67.196 144.525 67.146C143.582 67.04 142.797 66.776 142.167 66.563C141.951 66.491 141.739 66.418 141.527 66.359C140.957 66.197 140.125 65.979 139.33 65.886C139.135 65.93 138.783 66.066 138.642 66.122C138.289 66.257 137.925 66.397 137.422 66.397L136.833 66.328C136.198 66.178 135.82 65.856 135.304 65.415C135.078 65.222 134.499 64.728 134.216 64.562L132.233 64.042L129.647 64.226L127.9 64.099C127.742 64.2437 127.591 64.3963 127.448 64.556L126.829 65.271L125.726 65.422C124.69 65.423 124.13 64.995 123.861 64.789C123.501 64.609 123.177 64.555 122.711 64.526C122.383 64.526 122.007 64.63 121.544 64.836C121.341 64.926 120.965 65.092 120.429 65.092L119.861 65.026C119.064 64.841 118.639 64.369 118.263 63.952C118.174 63.854 118.014 63.677 117.866 63.525C116.858 63.9523 115.833 64.3392 114.794 64.685L114.144 64.768C113.48 64.768 112.981 64.519 112.616 64.338C112.308 64.229 112.109 64.183 112.036 64.18C111.784 64.178 111.466 64.227 111.159 64.274C110.823 64.324 110.695 64.348 110.565 64.374C110.128 64.455 109.583 64.556 108.976 64.556C107.433 64.511 106.291 64.369 105.196 64.109C104.234 63.881 103.357 63.69 102.306 63.672C102.149 63.689 101.703 63.887 101.512 63.972C101.1 64.155 100.673 64.344 100.082 64.344L99.452 64.265C98.859 64.108 98.508 63.822 98.137 63.518C97.959 63.373 97.451 62.958 97.158 62.808L94.574 62.786L94.764 61.116C92.859 63.254 90.471 64.373 88.877 64.373C88.388 64.3786 87.9038 64.2748 87.46 64.069C87.2314 63.9562 87.0138 63.8223 86.81 63.669C86.6127 63.6375 86.4128 63.6242 86.213 63.629C85.803 63.634 85.395 63.707 84.819 64.042C84.345 64.322 83.777 64.467 83.141 64.467C81.621 64.467 79.521 63.613 77.789 62.293L70.727 63.323L69.171 63.403C68.9564 63.6167 68.754 63.8424 68.565 64.079L67.813 65.009L66.876 65.029C65.852 65.035 65.358 64.722 65.092 64.553C64.434 64.46 64.254 64.467 64.067 64.478C63.953 64.485 63.545 64.54 62.798 64.972C62.604 65.085 62.148 65.348 61.476 65.35C60.256 65.186 59.786 64.723 59.442 64.386C59.3448 64.2899 59.2464 64.1949 59.147 64.101L57.367 64.241L52.947 64.928C51.807 65.648 51.579 65.752 51.443 65.809C51.116 65.949 50.766 66.019 50.401 66.019C49.922 66.019 49.528 65.896 49.211 65.799C48.9921 65.7475 48.768 65.721 48.543 65.72C47.693 65.787 47.318 65.921 46.884 66.076L46.336 66.266C45.71 66.486 44.853 66.783 43.5 66.928C43.22 66.9568 42.9386 66.9708 42.657 66.97C42.068 66.97 41.56 66.911 41.111 66.858C40.899 66.834 40.692 66.808 40.484 66.795C40.1013 66.7687 39.7177 66.7554 39.334 66.755C38.958 66.755 38.608 66.769 38.289 66.802C38.064 66.893 37.627 67.159 37.475 67.252C37.059 67.504 36.588 67.79 35.861 67.79C34.906 67.667 34.556 67.442 34.149 67.18C34.009 67.09 33.671 66.874 33.389 66.72C31.756 75.401 24.129 77.307 21.595 77.7C19.499 78.02 17.713 78.17 15.97 78.17C15.97 78.17 15.235 78.163 15.041 78.163C13.962 78.163 13.025 78.203 11.964 78.387C11.64 78.464 10.758 78.982 10.427 79.178C9.75704 79.571 9.27304 79.855 8.52704 79.856C7.59704 79.727 7.26804 79.542 6.88704 79.327C6.69704 79.22 6.17404 78.927 5.85304 78.81L2.68504 79.692L3.83804 66.308L5.97504 65.891L5.92904 51.244C5.92204 48.707 4.96904 47.212 4.56204 46.574C4.32504 46.202 4.00204 45.694 3.99404 44.932C3.99404 44.074 4.37404 43.453 4.74504 42.913C4.39604 42.454 4.06904 41.957 3.99604 41.243C3.90604 40.403 4.22604 39.738 4.56404 39.035C5.05804 38.012 5.88404 36.299 5.87704 33.782L5.83704 20.934L4.07804 21.257L2.50704 9.37004L4.67404 8.82404C4.87704 8.75704 5.35404 8.45404 6.39904 7.41404C6.75404 7.05904 7.03504 6.77904 7.51104 6.57404C7.86204 6.42204 8.22304 6.35404 8.62504 6.35404C9.00504 6.35404 9.44704 6.41604 10.058 6.50404C10.636 6.58704 11.428 6.70104 11.876 6.70104C12.611 6.58604 13.513 6.21904 14.309 5.89604C14.763 5.71204 15.192 5.53604 15.592 5.40304C16.89 4.97304 18.14 4.77804 20.033 4.48404C20.9164 4.34543 21.8089 4.27422 22.703 4.27104C27.324 4.27104 30.933 6.40104 32.593 9.77404C33.075 9.61804 33.546 9.22404 33.753 9.05204C34.223 8.65804 34.668 8.28604 35.353 8.13204L35.924 8.06704C36.394 8.06704 36.761 8.18904 37.086 8.29704C37.68 8.44504 37.866 8.45704 38.066 8.45704C39.1259 8.44281 40.1732 8.2252 41.151 7.81604C41.9624 7.47899 42.8177 7.25945 43.691 7.16404C44.094 7.12204 44.474 7.10204 44.855 7.10204C45.525 7.10204 46.078 7.16704 46.521 7.22004C46.747 7.24604 46.978 7.28604 47.217 7.32804C47.527 7.38404 47.773 7.42804 48.033 7.42804C48.287 7.33304 48.619 7.14804 48.775 7.06004C49.302 6.76404 49.757 6.51004 50.455 6.51004L51.096 6.59104C51.392 6.67904 51.509 6.71504 52.891 7.44404C53.005 7.34004 53.137 7.21404 53.306 7.04004C53.558 6.78204 53.871 6.46004 54.419 6.25504L54.842 6.09704C55.812 6.09704 56.192 6.23904 56.527 6.36504C56.647 6.40904 56.895 6.50304 56.994 6.52304C57.244 6.56304 57.519 6.58304 57.824 6.58304C58.027 6.58304 58.237 6.57304 58.454 6.55704C58.802 6.53204 59.522 6.38504 60.962 5.83704C61.268 5.72004 61.585 5.59904 62.055 5.59904C63.126 5.73304 63.569 6.09004 63.835 6.30304C63.936 6.38504 64.193 6.59304 64.349 6.65804L64.946 6.62404L65.697 6.57704C65.878 6.46704 66.157 6.26004 66.53 5.96104C66.85 5.70504 67.181 5.44104 67.733 5.30304L68.343 5.22804C68.918 5.22804 69.329 5.41504 69.66 5.56604C69.767 5.61404 69.991 5.71604 70.083 5.74204C70.278 5.78904 70.484 5.81404 70.693 5.81404C70.943 5.79904 71.29 5.71604 72.201 5.31004C72.557 5.15104 72.925 4.98704 73.476 4.98704C74.433 5.08904 74.847 5.36804 75.326 5.69104C75.491 5.80304 75.829 6.03104 76.066 6.16404L78.671 6.06804L78.617 6.44604C79.737 5.54604 81.32 4.57304 82.954 4.57304C83.521 4.57304 84.052 4.68904 84.534 4.91804C84.93 5.13404 85.115 5.24104 85.195 5.27104C85.252 5.28704 85.572 5.34104 86.022 5.34104C86.513 5.33404 87.012 5.18104 87.6 4.88504C88.1015 4.63719 88.6548 4.51241 89.214 4.52104C90.794 4.52104 92.827 5.30404 94.395 6.51604C94.615 6.68604 94.817 6.86804 95.017 7.05304L94.907 5.71304L97.455 5.73804C97.651 5.65904 97.987 5.47204 98.459 5.18204C98.789 4.97804 99.049 4.81804 99.441 4.71404L100.088 4.63004C100.66 4.63004 101.072 4.81304 101.435 4.97504C101.622 5.05904 101.905 5.18504 102.08 5.22804C102.539 5.33515 103.009 5.39447 103.48 5.40504C104.098 5.40504 104.937 5.15004 105.388 5.01304C105.838 4.87604 106.163 4.77704 106.599 4.77704L107.172 4.84204C107.663 4.95404 108.013 5.17704 108.416 5.43504C108.626 5.56904 109.16 5.91004 109.426 6.00504L112.093 6.10204C112.191 6.14504 112.336 6.02504 112.529 5.84904C112.737 5.66004 113.045 5.38104 113.54 5.20904L114.376 5.06704C115.019 5.06704 115.466 5.29304 115.862 5.49304C115.986 5.55604 116.247 5.68804 116.352 5.72004C116.783 5.84204 117.255 5.91204 117.839 5.94404C118.739 5.94604 119.919 5.64604 120.307 5.54904C120.575 5.48004 120.807 5.42104 121.134 5.42104C122.354 5.61704 122.789 6.02104 123.077 6.28604C123.192 6.39204 123.531 6.70604 123.722 6.79104L125.043 6.88104C125.189 6.80504 125.425 6.66304 125.811 6.40104C126.089 6.21104 126.435 5.97404 126.983 5.87804C128.126 5.84104 128.614 6.12804 128.971 6.33804C129.084 6.40304 129.319 6.54104 129.417 6.57904C129.685 6.67904 129.955 6.73904 130.217 6.76004C130.424 6.76004 130.87 6.65204 131.527 6.44204C131.837 6.34304 132.129 6.24904 132.542 6.24904L133.077 6.30604C133.708 6.44104 134.118 6.76804 134.628 7.17704C134.775 7.29404 135.051 7.51404 135.279 7.67904C135.496 7.57304 135.771 7.40504 135.911 7.31904C136.331 7.05904 136.765 6.79004 137.401 6.72304C138.385 6.70804 138.897 6.99504 139.308 7.22504C139.44 7.29904 139.685 7.43604 139.791 7.47204C140.138 7.59504 140.667 7.70304 141.178 7.75704C141.92 7.84073 142.67 7.81004 143.402 7.66604C144.256 7.50107 145.131 7.46735 145.995 7.56604C147.23 7.70604 148.089 7.99604 148.78 8.22604C149.006 8.30304 149.23 8.38904 149.458 8.48104C149.786 8.61104 150.058 8.71904 150.354 8.78104C150.528 8.73204 150.781 8.64504 150.919 8.59804C151.205 8.50104 151.467 8.41604 151.752 8.36804L151.052 2.51604L154.553 3.49604C154.711 3.48304 155.147 3.40004 156.105 2.95304C156.321 2.85304 156.585 2.73004 156.943 2.67304C158.158 2.64104 158.689 3.01604 159.039 3.26404C159.189 3.37004 159.499 3.58904 159.659 3.65904C159.994 3.80404 160.58 3.96304 161.044 4.03204C162.281 4.21204 163.354 4.22504 164.525 4.22504C164.736 4.22504 164.955 4.21904 165.19 4.21204C165.511 4.20204 165.857 4.19204 166.24 4.19204C167.391 4.19204 168.487 4.28504 169.69 4.48404C175.847 5.49804 182.381 10.617 182.355 18.108C182.342 22.853 182.332 25.909 182.32 29.681L182.304 34.766C182.292 38.427 180.401 40.96 178.674 42.512C180.318 44.333 182.264 47.086 182.254 50.358L182.204 66.089L183.854 66.419L184.274 69.659C184.554 71.814 184.744 73.287 185.066 75.8L185.507 79.246L182.365 78.639L182.367 78.638ZM187.553 75.479C187.266 73.239 187.084 71.823 186.85 70.015L186.762 69.335L186.342 66.095C186.284 65.6392 186.101 65.2081 185.815 64.8486C185.529 64.4891 185.149 64.215 184.718 64.056L184.763 50.366C184.77 47.772 183.844 45.18 182.007 42.637C183.84 40.351 184.802 37.673 184.812 34.774L184.829 29.688L184.833 28.441C184.843 25.208 184.853 22.326 184.864 18.114C184.894 9.23404 177.278 3.18404 170.097 2.00104C168.823 1.78545 167.533 1.67707 166.24 1.67704C165.832 1.67704 165.462 1.68704 165.118 1.69704C164.88 1.70404 164.7 1.71004 164.526 1.71004C163.414 1.71004 162.479 1.69704 161.403 1.54104C161.176 1.50417 160.952 1.44967 160.733 1.37804C160.027 0.88404 158.955 0.12604 157.341 0.12604C156.987 0.12604 156.848 0.13704 156.711 0.16104C155.848 0.30104 155.332 0.54104 155.054 0.66904C154.848 0.76404 154.685 0.83504 154.559 0.88504L151.726 0.0920401C151.329 -0.0186714 150.911 -0.0296853 150.508 0.059975C150.106 0.149635 149.732 0.3372 149.419 0.60604C149.106 0.875671 148.864 1.21806 148.715 1.60308C148.566 1.9881 148.513 2.40395 148.562 2.81404L148.898 5.61904C148.045 5.35099 147.167 5.16613 146.278 5.06704C145.854 5.01804 145.448 4.99504 145.034 4.99504C144.354 4.99504 143.674 5.05904 142.954 5.19104C142.455 5.29106 141.943 5.31231 141.437 5.25404C141.189 5.22901 140.943 5.18555 140.702 5.12404C140.009 4.73604 139.04 4.19404 137.672 4.19404C136.474 4.29204 135.934 4.47404 135.492 4.67804C134.931 4.28012 134.296 3.99858 133.624 3.85004C133.211 3.75504 133.022 3.73304 132.832 3.73304C131.737 3.73304 131.152 3.92104 130.764 4.04504C130.604 4.09762 130.443 4.14597 130.281 4.19004C129.774 3.89304 128.807 3.32504 127.417 3.32504C127.052 3.32604 126.909 3.33804 126.769 3.36304C125.599 3.56704 124.941 3.95904 124.544 4.22404C123.862 3.6096 123.028 3.18874 122.128 3.00504C121.582 2.91504 121.455 2.90604 121.328 2.90604C120.498 2.90604 120.033 3.02304 119.695 3.10804C118.549 3.40004 118.099 3.43004 117.959 3.43004C117.69 3.41943 117.422 3.38631 117.159 3.33104C116.477 2.98604 115.616 2.55104 114.377 2.55104C113.633 2.55304 113.348 2.60304 113.078 2.70104C112.128 3.04104 111.682 3.31404 111.356 3.55804L110.081 3.51204C109.265 2.99404 108.644 2.59704 107.728 2.38804C107.289 2.28304 107.095 2.26104 106.901 2.26104C105.791 2.26104 105.191 2.44404 104.661 2.60604C104.072 2.78604 103.681 2.88004 103.494 2.88804C103.241 2.87899 102.989 2.8499 102.741 2.80104C101.983 2.46604 101.194 2.11404 100.089 2.11404C99.639 2.11504 99.465 2.13404 99.295 2.17004C98.051 2.48004 97.55 2.79004 97.148 3.03704C97.071 3.08504 96.332 3.13904 94.932 3.19704C94.622 3.19704 94.342 3.24504 94.076 3.33804C92.474 2.49504 90.732 2.00504 89.216 2.00504C88.232 2.00504 87.328 2.20904 86.529 2.61004C86.222 2.76404 86.075 2.81004 86.022 2.82404C84.792 2.25504 83.898 2.05704 82.955 2.05704C81.445 2.05704 79.891 2.56304 78.323 3.56404L76.753 3.62204C76.145 3.21204 75.354 2.67804 74.193 2.52304C73.9557 2.49089 73.7166 2.47352 73.477 2.47104C72.393 2.47104 71.635 2.80904 71.182 3.01104C70.94 3.12104 70.76 3.19404 70.632 3.24404C70.182 3.04104 69.404 2.71204 68.344 2.71204C67.825 2.71304 67.624 2.73804 67.426 2.78704C66.046 3.13104 65.37 3.67204 64.967 3.99504C64.1597 3.44733 63.2174 3.13186 62.243 3.08304C61.127 3.08304 60.468 3.33404 60.074 3.48404C58.736 3.99404 58.282 4.04704 58.264 4.04804C57.716 4.06604 57.616 4.06204 57.527 4.05404C56.983 3.84804 56.269 3.57904 55.308 3.57904C54.538 3.58304 54.245 3.63704 53.969 3.74004C53.136 4.05004 52.793 4.23804 52.505 4.43004C52.3019 4.33822 52.0924 4.26135 51.878 4.20004C51.799 4.17604 51.608 4.12904 51.302 4.05704C51.1184 4.01435 50.9305 3.99287 50.742 3.99304C49.132 3.99304 48.245 4.47604 47.594 4.84104C47.3353 4.79303 47.0752 4.75301 46.814 4.72104C46.1648 4.63546 45.5109 4.59037 44.856 4.58604C44.39 4.58604 43.924 4.61104 43.434 4.66104C42.345 4.77504 41.324 5.03504 40.216 5.48104C39.6933 5.7033 39.1407 5.84751 38.576 5.90904C38.027 5.94004 37.994 5.93904 37.967 5.93904C37.469 5.77404 36.797 5.55104 35.925 5.55104C35.428 5.55404 35.249 5.57504 35.073 5.61504C34.199 5.81304 33.703 6.03304 33.286 6.28004C30.86 3.40704 27.081 1.75504 22.703 1.75504C21.718 1.75504 20.691 1.83704 19.653 1.99704C17.703 2.30004 16.299 2.51804 14.804 3.01404C14.33 3.17404 13.869 3.36004 13.381 3.55804C12.871 3.76604 12.153 4.05804 11.718 4.17804C11.2833 4.13442 10.8499 4.0794 10.418 4.01304C9.72604 3.91404 9.18504 3.83704 8.62604 3.83704C7.87904 3.83704 7.19304 3.97404 6.52904 4.25804C5.60604 4.65804 5.06704 5.19604 4.63404 5.62604C4.15504 6.10304 3.86604 6.35204 3.71504 6.47104L1.89604 6.93104C1.29852 7.08256 0.777501 7.44834 0.432 7.95885C0.0864989 8.46936 -0.0593964 9.08901 0.0220428 9.70004L1.59204 21.587C1.65432 22.0632 1.85179 22.5116 2.16106 22.879C2.47034 23.2464 2.87845 23.5175 3.33704 23.66L3.36804 33.791C3.37404 35.728 2.75604 37.007 2.30604 37.942C1.89604 38.792 1.33604 39.956 1.50204 41.515C1.55704 42.059 1.69004 42.535 1.86404 42.955C1.61379 43.5845 1.48519 44.2557 1.48504 44.933C1.50004 46.438 2.14004 47.444 2.44704 47.927C2.78704 48.459 3.41704 49.447 3.42004 51.252L3.46004 63.822C2.26004 64.054 1.43504 64.973 1.33804 66.093L0.186043 79.476C0.150975 79.8804 0.214131 80.2872 0.370136 80.6619C0.526141 81.0366 0.770374 81.3681 1.08204 81.628C1.39302 81.8875 1.76238 82.0674 2.15834 82.1525C2.5543 82.2375 2.96499 82.225 3.35504 82.116L5.60504 81.489C6.13504 81.789 6.73104 82.125 7.58004 82.282C7.96304 82.356 8.12204 82.372 8.28204 82.372C9.95304 82.372 10.918 81.803 11.693 81.347C12.213 81.041 12.486 80.895 12.625 80.827C13.419 80.704 14.149 80.678 15.04 80.678C15.231 80.678 15.951 80.683 15.952 80.683C17.84 80.683 19.748 80.525 21.972 80.184C24.443 79.804 32.022 78.009 35 70.231C35.533 70.301 35.626 70.305 35.72 70.305C37.286 70.303 38.253 69.718 38.772 69.403C39.097 69.27 39.213 69.268 39.332 69.268C39.624 69.268 39.948 69.28 40.322 69.304C41.312 69.414 41.922 69.486 42.656 69.486C43.036 69.486 43.397 69.468 43.763 69.428C44.9229 69.3094 46.0631 69.0453 47.157 68.642C47.157 68.642 47.607 68.487 47.727 68.444C48.115 68.305 48.25 68.261 48.497 68.237C48.994 68.361 49.619 68.534 50.4 68.534C51.104 68.534 51.786 68.395 52.425 68.124C52.671 68.018 52.947 67.887 53.837 67.335L57.657 66.741L58.247 66.695C58.9406 67.2741 59.7772 67.6561 60.669 67.801C61.003 67.855 61.136 67.865 61.271 67.865C62.822 67.861 63.748 67.326 64.051 67.15C64.841 67.267 65.612 67.55 66.594 67.55C66.811 67.55 67.236 67.541 67.867 67.522C68.2308 67.5143 68.5884 67.4272 68.9151 67.2669C69.2417 67.1066 69.5294 66.877 69.758 66.594L70.352 65.86C70.933 65.83 71.01 65.822 71.087 65.811L77.164 64.925C79.136 66.209 81.351 66.981 83.14 66.981C84.228 66.981 85.22 66.721 86.088 66.211C87.151 66.705 87.988 66.887 88.876 66.887C90.43 66.887 92.197 66.263 93.844 65.192C94.071 65.262 94.309 65.3 94.551 65.302L96.365 65.317C97.007 65.84 97.695 66.4 98.809 66.697C99.365 66.834 99.567 66.859 99.769 66.859C101.201 66.859 101.999 66.506 102.525 66.272C103.316 66.256 103.92 66.39 104.615 66.556C105.88 66.856 107.175 67.018 108.692 67.066C109.814 67.071 110.542 66.936 111.023 66.846C111.6 66.75 111.689 66.736 111.774 66.724C112.511 67.087 113.321 67.2785 114.142 67.284C114.706 67.28 114.913 67.254 115.114 67.2C115.832 67.0003 116.533 66.7452 117.211 66.437C117.814 66.9419 118.527 67.2975 119.293 67.475C119.759 67.585 119.949 67.606 120.14 67.606C121.494 67.606 122.266 67.264 122.557 67.136C123.274 67.431 124.243 67.937 125.553 67.937C125.744 67.937 126.283 67.879 127.166 67.763C127.769 67.6812 128.321 67.3826 128.72 66.923L129.464 66.734C129.624 66.739 130.469 66.687 131.997 66.579L133.133 66.879C133.253 66.972 133.425 67.115 133.676 67.33C134.28 67.844 135.026 68.48 136.238 68.772C136.703 68.887 136.906 68.912 137.11 68.912C138.39 68.912 139.081 68.646 139.54 68.47C140.024 68.553 140.495 68.68 140.843 68.78C141.004 68.824 141.158 68.877 141.315 68.93C142.072 69.185 143.036 69.51 144.245 69.645C144.76 69.7042 145.278 69.7342 145.797 69.735C146.617 69.735 147.229 69.657 147.677 69.6C147.677 69.6 148.167 69.54 148.29 69.521C148.398 69.507 148.33 70.691 148.087 73.075C148.035 73.4068 148.049 73.7458 148.13 74.0718C148.211 74.3978 148.357 74.7043 148.558 74.973C148.758 75.2419 149.011 75.4678 149.3 75.6372C149.59 75.8066 149.91 75.916 150.243 75.959L152.043 76.191C152.238 76.331 152.549 76.559 153.035 76.935C153.807 77.535 154.47 78.05 155.589 78.329C156.144 78.453 156.326 78.472 156.509 78.472C157.297 78.472 157.699 78.408 158.254 78.317C158.695 78.245 159.604 78.098 160.075 78.097C160.428 78.155 160.876 78.279 161.297 78.435C161.393 78.475 161.712 78.65 161.867 78.735C162.585 79.128 163.568 79.667 164.944 79.667C165.131 79.667 165.344 79.653 165.581 79.627C166.346 79.53 166.906 79.293 167.447 79.063C167.833 78.899 168.087 78.803 168.25 78.744L170.071 79.044C170.543 79.654 171.123 80.265 172.046 80.704C172.743 81.042 173.506 81.214 174.311 81.214C174.449 81.214 174.679 81.208 175.243 81.165C175.569 81.14 175.963 81.111 176.234 81.108C177.071 81.538 178.065 82.178 179.561 82.178C180.983 82.075 181.679 81.719 182.095 81.506C182.307 81.396 182.478 81.312 182.615 81.248L185.035 81.715C186.139 81.76 186.755 81.52 187.225 81.078C187.514 80.8053 187.735 80.468 187.869 80.0936C188.003 79.7192 188.046 79.3184 187.995 78.924L187.552 75.479H187.553Z" fill="white" />
    <path fill-rule="evenodd" clip-rule="evenodd" d="M141.95 78.2548V83.5598H146.978V84.8098H140.36V78.2548H141.95ZM124.03 78.2548H125.99L129.456 84.8088H127.849L127.1 83.3968H122.911L122.162 84.8088H120.555L124.03 78.2548V78.2548ZM123.561 82.1478H126.432L124.997 79.4588L123.561 82.1488V82.1478ZM103.621 79.5038V78.2548H111.438V79.5048H108.324V84.8088H106.735V79.5038H103.621V79.5038ZM90.9211 84.8088V78.2538H92.5091V84.8088H90.9201H90.9211ZM74.4721 82.3458V81.0798H79.4021V81.4598C79.4021 82.4618 79.0101 83.2828 78.2281 83.9228C77.7815 84.277 77.2733 84.5456 76.7291 84.7148C76.1071 84.9106 75.4581 85.0068 74.8061 84.9998C74.1813 85.0055 73.5599 84.9092 72.9661 84.7148C72.4302 84.5413 71.9312 84.2701 71.4941 83.9148C70.7411 83.2858 70.3651 82.4888 70.3651 81.5228C70.3651 81.0528 70.4621 80.6168 70.6551 80.2148C70.8471 79.8148 71.1291 79.4588 71.5031 79.1508C71.9417 78.7942 72.4419 78.521 72.9791 78.3448C73.568 78.1483 74.1853 78.0503 74.8061 78.0548C75.6671 78.0548 76.4161 78.1868 77.0541 78.4498C77.6677 78.6934 78.2061 79.0946 78.6151 79.6128L76.9651 80.1928C76.6982 79.911 76.3725 79.6915 76.0111 79.5498C75.6242 79.3999 75.212 79.3259 74.7971 79.3318C74.3701 79.3318 73.9811 79.3878 73.6291 79.4998C73.3012 79.5982 72.9936 79.7546 72.7211 79.9618C72.4771 80.1467 72.2767 80.383 72.1341 80.6538C71.9949 80.9226 71.9235 81.2212 71.9261 81.5238C71.9261 82.2108 72.2461 82.7668 72.8831 83.1888C73.1301 83.3508 73.4171 83.4818 73.7461 83.5788C74.0906 83.6777 74.4477 83.7262 74.8061 83.7228C75.1371 83.7228 75.4521 83.6898 75.7501 83.6238C76.0481 83.5568 76.3181 83.4638 76.5621 83.3388C76.8061 83.2148 77.0201 83.0688 77.2031 82.8988C77.3861 82.7298 77.5331 82.5468 77.6411 82.3458H74.4721V82.3458ZM57.0781 84.8098V78.2548H58.6661V84.8098H57.0781ZM44.3131 79.1748C44.6561 79.4678 44.9201 79.8208 45.1031 80.2348C45.2871 80.6468 45.3791 81.1048 45.3791 81.6048C45.3791 82.5708 44.9901 83.3618 44.2141 83.9768C43.8677 84.2506 43.4747 84.4597 43.0541 84.5938C42.5975 84.7401 42.1205 84.813 41.6411 84.8098H37.0381V78.2558H41.4241C42.0321 78.2558 42.5801 78.3358 43.0681 78.4958C43.5551 78.6558 43.9701 78.8818 44.3131 79.1758V79.1748ZM43.3031 82.7148C43.5653 82.3939 43.7087 81.9923 43.7091 81.5778C43.7112 81.294 43.6558 81.0127 43.5461 80.7508C43.441 80.5003 43.2854 80.2742 43.0889 80.0866C42.8923 79.8991 42.6592 79.7541 42.4041 79.6608C42.123 79.5545 41.8246 79.5015 41.5241 79.5048H38.6261V83.5608H41.5331C41.8761 83.5608 42.2061 83.4848 42.5231 83.3338C42.8276 83.1908 43.0946 82.9788 43.3031 82.7148V82.7148Z" fill="white" />
  </g>
  <defs>
    <clipPath id="clip0_615_323">
      <rect width="188" height="85" fill="white" />
    </clipPath>
  </defs>
</svg>
  