<svg width="303" height="53" viewBox="0 0 303 53" fill="none" xmlns="http://www.w3.org/2000/svg">
<g clip-path="url(#clip0_543_3637)">
<path d="M63.0297 36.0388H76.0316V41.0294H56.9062V10.8784H63.0297V36.0388Z" fill="black"/>
<path d="M77.8379 29.6191C77.8379 27.3965 78.2597 25.4153 79.1034 23.6759C79.9471 21.9365 81.1582 20.5904 82.7366 19.6378C84.3287 18.6852 86.1725 18.209 88.2681 18.209C91.2482 18.209 93.6771 19.1339 95.555 20.9838C97.4459 22.8337 98.501 25.3464 98.7184 28.5216L98.7594 30.054C98.7594 33.4915 97.8135 36.2526 95.9225 38.3373C94.0307 40.4081 91.4931 41.4435 88.3089 41.4435C85.1247 41.4435 82.5802 40.4081 80.6751 38.3373C78.7836 36.2664 77.8379 33.4501 77.8379 29.8884V29.6191ZM83.7368 30.054C83.7368 32.18 84.1314 33.8091 84.9206 34.9411C85.7099 36.0594 86.8394 36.6185 88.3089 36.6185C89.7377 36.6185 90.8535 36.0662 91.6564 34.9618C92.4592 33.8436 92.8606 32.0627 92.8606 29.6191C92.8606 27.5345 92.4592 25.9193 91.6564 24.7734C90.8535 23.6276 89.7241 23.0546 88.2681 23.0546C86.8257 23.0546 85.7099 23.6276 84.9206 24.7734C84.1314 25.9054 83.7368 27.6656 83.7368 30.054Z" fill="black"/>
<path d="M111.161 36.6185C112.248 36.6185 113.134 36.3147 113.814 35.7074C114.494 35.0999 114.848 34.2923 114.875 33.2844H120.406C120.393 34.803 119.985 36.1975 119.182 37.4676C118.379 38.7238 117.277 39.704 115.875 40.4081C114.487 41.0984 112.95 41.4435 111.262 41.4435C108.105 41.4435 105.616 40.4288 103.792 38.3994C101.968 36.3561 101.057 33.5399 101.057 29.9505V29.557C101.057 26.1056 101.962 23.3515 103.771 21.2944C105.581 19.2375 108.064 18.209 111.221 18.209C113.984 18.209 116.195 19.0097 117.855 20.6111C119.529 22.1987 120.379 24.3179 120.406 26.9685H114.875C114.848 25.8089 114.494 24.8701 113.814 24.1522C113.134 23.4205 112.235 23.0546 111.12 23.0546C109.745 23.0546 108.704 23.5654 107.996 24.5871C107.302 25.5948 106.955 27.2377 106.955 29.5155V30.1369C106.955 32.4423 107.302 34.099 107.996 35.1068C108.69 36.1145 109.745 36.6185 111.161 36.6185Z" fill="black"/>
<path d="M136.155 41.0293C135.882 40.4909 135.685 39.8213 135.562 39.0206C134.134 40.6358 132.277 41.4435 129.99 41.4435C127.827 41.4435 126.03 40.8085 124.602 39.5384C123.187 38.2683 122.479 36.6668 122.479 34.734C122.479 32.3595 123.343 30.5372 125.071 29.2671C126.813 27.997 129.323 27.355 132.603 27.3412H135.318V26.0574C135.318 25.0219 135.052 24.1936 134.521 23.5723C134.004 22.9511 133.181 22.6405 132.052 22.6405C131.058 22.6405 130.276 22.8821 129.705 23.3652C129.147 23.8485 128.868 24.5111 128.868 25.3532H122.968C122.968 24.0555 123.363 22.8544 124.153 21.75C124.942 20.6456 126.058 19.7827 127.5 19.1615C128.942 18.5265 130.562 18.209 132.358 18.209C135.08 18.209 137.237 18.9062 138.828 20.3005C140.434 21.681 141.237 23.6276 141.237 26.1402V35.8523C141.251 37.9783 141.543 39.5866 142.115 40.6773V41.0293H136.155ZM131.277 36.867C132.147 36.867 132.95 36.6737 133.684 36.2872C134.419 35.8868 134.964 35.3552 135.318 34.6926V30.8409H133.113C130.16 30.8409 128.589 31.8763 128.399 33.9472L128.378 34.2992C128.378 35.0446 128.636 35.659 129.153 36.1422C129.67 36.6253 130.378 36.867 131.277 36.867Z" fill="black"/>
<path d="M151.575 41.0293H145.655V9.22168H151.575V41.0293Z" fill="black"/>
<path d="M162.26 41.0297H156.341V18.6235H162.26V41.0297ZM155.994 12.8253C155.994 11.9279 156.287 11.1893 156.872 10.6095C157.471 10.0297 158.281 9.73975 159.301 9.73975C160.308 9.73975 161.111 10.0297 161.709 10.6095C162.308 11.1893 162.607 11.9279 162.607 12.8253C162.607 13.7364 162.301 14.4819 161.688 15.0617C161.09 15.6415 160.294 15.9314 159.301 15.9314C158.308 15.9314 157.504 15.6415 156.893 15.0617C156.294 14.4819 155.994 13.7364 155.994 12.8253Z" fill="black"/>
<path d="M173.784 13.1147V18.6231H177.559V23.0132H173.784V34.1956C173.784 35.0239 173.939 35.6176 174.253 35.9765C174.565 36.3354 175.164 36.5149 176.049 36.5149C176.703 36.5149 177.28 36.4666 177.784 36.37V40.905C176.627 41.264 175.437 41.4435 174.212 41.4435C170.075 41.4435 167.966 39.3243 167.884 35.086V23.0132H164.659V18.6231H167.884V13.1147H173.784Z" fill="black"/>
<path d="M188.675 32.5601L192.756 18.6235H199.084L190.205 44.5087L189.715 45.6891C188.395 48.6158 186.218 50.0792 183.184 50.0792C182.326 50.0792 181.455 49.9481 180.571 49.6857V45.1506L181.469 45.1713C182.585 45.1713 183.415 44.9988 183.959 44.6536C184.517 44.3085 184.953 43.7355 185.266 42.9348L185.959 41.0918L178.224 18.6235H184.572L188.675 32.5601Z" fill="black"/>
<path d="M211.372 41.0294V10.8784H221.782C225.388 10.8784 228.123 11.5825 229.987 12.9906C231.852 14.385 232.784 16.4351 232.784 19.1409C232.784 20.6181 232.409 21.9228 231.66 23.0548C230.912 24.1731 229.871 24.9945 228.538 25.519C230.061 25.9056 231.259 26.6856 232.131 27.8591C233.015 29.0325 233.457 30.4683 233.457 32.1664C233.457 35.0655 232.546 37.2605 230.722 38.7515C228.898 40.2425 226.299 41.0018 222.925 41.0294H211.372ZM217.496 27.9005V36.0388H222.741C224.183 36.0388 225.306 35.6937 226.109 35.0034C226.925 34.2993 227.334 33.3329 227.334 32.1043C227.334 29.3432 225.925 27.9419 223.109 27.9005H217.496ZM217.496 23.5103H222.027C225.115 23.4552 226.66 22.2058 226.66 19.7622C226.66 18.3955 226.266 17.4153 225.476 16.8216C224.7 16.2142 223.469 15.9104 221.782 15.9104H217.496V23.5103Z" fill="black"/>
<path d="M250.062 41.0293C249.79 40.4909 249.593 39.8213 249.47 39.0206C248.041 40.6358 246.184 41.4435 243.898 41.4435C241.735 41.4435 239.938 40.8085 238.51 39.5384C237.094 38.2683 236.387 36.6668 236.387 34.734C236.387 32.3595 237.251 30.5372 238.979 29.2671C240.721 27.997 243.231 27.355 246.51 27.3412H249.225V26.0574C249.225 25.0219 248.96 24.1936 248.429 23.5723C247.912 22.9511 247.089 22.6405 245.96 22.6405C244.966 22.6405 244.184 22.8821 243.612 23.3652C243.054 23.8485 242.775 24.5111 242.775 25.3532H236.876C236.876 24.0555 237.271 22.8544 238.06 21.75C238.85 20.6456 239.965 19.7827 241.407 19.1615C242.851 18.5265 244.469 18.209 246.266 18.209C248.987 18.209 251.144 18.9062 252.736 20.3005C254.342 21.681 255.145 23.6276 255.145 26.1402V35.8523C255.158 37.9783 255.451 39.5866 256.022 40.6773V41.0293H250.062ZM245.184 36.867C246.055 36.867 246.857 36.6737 247.593 36.2872C248.328 35.8868 248.871 35.3552 249.225 34.6926V30.8409H247.021C244.068 30.8409 242.496 31.8763 242.306 33.9472L242.285 34.2992C242.285 35.0446 242.544 35.659 243.062 36.1422C243.578 36.6253 244.285 36.867 245.184 36.867Z" fill="black"/>
<path d="M264.687 18.6231L264.871 21.2116C266.45 19.2098 268.565 18.209 271.218 18.209C273.559 18.209 275.301 18.9062 276.444 20.3005C277.587 21.6948 278.172 23.7794 278.199 26.5543V41.0293H272.301V26.6993C272.301 25.4292 272.028 24.5111 271.484 23.9451C270.939 23.3652 270.035 23.0753 268.77 23.0753C267.109 23.0753 265.865 23.7932 265.034 25.229V41.0293H259.136V18.6231H264.687Z" fill="black"/>
<path d="M290.294 32.0421L288.171 34.1957V41.0293H282.272V9.22168H288.171V26.8443L289.314 25.3533L294.968 18.6232H302.051L294.07 27.9626L302.745 41.0293H295.968L290.294 32.0421Z" fill="black"/>
<path d="M13.5947 44.3398H39.3749V51.0077H13.5947V44.3398Z" fill="black"/>
<path fill-rule="evenodd" clip-rule="evenodd" d="M26.5771 20.881C27.7966 18.8129 28.1162 16.4614 28.1162 14.6447C28.1162 7.03428 21.8222 0.864746 14.0582 0.864746C6.29403 0.864746 0 7.03428 0 14.6447C0 16.373 0.418556 18.9158 1.53921 20.881C5.35347 27.57 14.0582 40.8452 14.0582 40.8452C14.0582 40.8452 22.6872 27.4768 26.5771 20.881ZM14.0428 19.792C17.3341 19.792 20.0022 17.1512 20.0022 13.8936C20.0022 10.636 17.3341 7.99524 14.0428 7.99524C10.7515 7.99524 8.08336 10.636 8.08336 13.8936C8.08336 17.1512 10.7515 19.792 14.0428 19.792Z" fill="black"/>
</g>
<defs>
<clipPath id="clip0_543_3637">
<rect width="303" height="52" fill="white" transform="translate(0 0.17627)"/>
</clipPath>
</defs>
</svg>
