<svg width="186" height="115" viewBox="0 0 186 115" fill="none" xmlns="http://www.w3.org/2000/svg">
<mask id="mask0_543_3787" style="mask-type:luminance" maskUnits="userSpaceOnUse" x="0" y="0" width="186" height="115">
<path d="M185.477 0.858887H0.522461V114.676H185.477V0.858887Z" fill="white"/>
</mask>
<g mask="url(#mask0_543_3787)">
<path fill-rule="evenodd" clip-rule="evenodd" d="M0.523523 73.0308C1.14004 73.0308 1.75655 73.0308 2.37307 73.0308C3.4828 73.0308 4.55142 73.0308 5.53785 73.0308C6.52426 73.0308 7.26408 73.0308 7.6751 73.0308C10.5933 73.0308 12.8127 73.6461 14.2512 74.918C15.6898 76.19 16.4296 77.8312 16.4296 79.8417C16.4296 81.8521 16.2652 81.5239 15.9775 82.4676C15.6898 83.3702 15.1966 84.2318 14.4568 85.0115C13.758 85.791 12.7716 86.4065 11.5386 86.8989C10.3056 87.3912 8.74373 87.6374 6.85307 87.6374H4.46922V97.4435C3.8527 97.4435 3.19509 97.4435 2.53747 97.4435C1.87985 97.4435 1.14004 97.4435 0.482422 97.4435V73.1127H0.523523V73.0308ZM6.56538 86.8578C8.12721 86.8578 9.27804 86.5295 10.1001 85.9141C10.9221 85.2986 11.4564 84.4781 11.7441 83.4523C12.0318 82.4265 12.1963 81.3598 12.1963 80.1699C12.1963 77.9953 11.7852 76.3541 11.0043 75.2464C10.2234 74.1795 8.86703 73.6051 6.89417 73.6051C4.92133 73.6051 5.25014 73.8103 4.92133 74.1795C4.59252 74.5898 4.46922 75.3694 4.46922 76.5593V86.8168H6.52426L6.56538 86.8578Z" fill="black"/>
<path fill-rule="evenodd" clip-rule="evenodd" d="M33.1579 88.1699H25.0198L21.4852 97.3606C21.1974 97.3606 20.9098 97.3606 20.6631 97.3606C23.828 89.1957 27.0338 80.9896 30.1986 72.8247H31.3905C34.5963 81.0307 37.7612 89.1957 40.9671 97.4016C40.7204 97.4016 40.4738 97.4016 40.2272 97.4016C39.4874 97.4016 38.7065 97.4016 37.9666 97.4016C37.2269 97.4016 37.0624 97.4016 36.6514 97.4016L33.199 88.2109L33.1579 88.1699ZM25.2665 87.4723H32.8701L29.1299 77.4611L25.2665 87.4723Z" fill="black"/>
<path fill-rule="evenodd" clip-rule="evenodd" d="M53.1345 85.1346H55.1895C56.7514 85.1346 57.9021 84.8883 58.7243 84.3549C59.5462 83.8216 60.0806 83.1241 60.3682 82.2625C60.656 81.4008 60.8204 80.4161 60.8204 79.3903C60.8204 77.585 60.4094 76.149 59.6285 75.1642C58.8475 74.1795 57.4912 73.6462 55.5184 73.6462C53.5455 73.6462 53.8743 73.8513 53.5455 74.2206C53.2167 74.6308 53.0934 75.4105 53.0934 76.6003V85.0935L53.1345 85.1346ZM57.9844 85.668C58.0666 85.668 58.1488 85.668 58.2721 85.709C59.9984 85.9551 61.2725 86.4065 62.0533 87.104C62.8343 87.8015 63.4098 88.8683 63.6974 90.3044L64.5605 93.8329C64.7661 94.8176 65.0127 95.5151 65.2182 95.9255C65.6703 96.705 65.8758 96.9101 66.7389 97.3614H62.2589C62.1356 97.2794 62.0533 97.2384 61.9712 97.1563C61.2725 96.6229 60.7792 95.6382 60.4505 94.2021L59.7517 90.7557C59.5462 89.7709 59.2996 88.9093 59.053 88.1707C58.8064 87.4322 58.4365 86.8578 57.9844 86.4475C57.5323 86.0372 56.8747 85.832 56.0115 85.832H53.0523V93.7918V97.3614C52.3946 97.3614 51.7782 97.3614 51.1205 97.3614C50.4629 97.3614 49.7231 97.3614 49.0654 97.3614V93.8329V76.6413V73.0718C49.682 73.0718 50.2985 73.0718 50.915 73.0718C52.0247 73.0718 53.0934 73.0718 54.0798 73.0718C55.0663 73.0718 55.8061 73.0718 56.217 73.0718C59.1353 73.0718 61.3547 73.6462 62.7932 74.754C64.2318 75.8618 64.9715 77.3389 64.9715 79.1032C64.9715 80.8674 64.8072 80.5803 64.5194 81.3598C64.2318 82.1393 63.7386 82.8779 62.9987 83.5754C62.3 84.273 61.3136 84.8062 60.0806 85.2577C59.4229 85.5038 58.6831 85.668 57.8612 85.7499L57.9844 85.668Z" fill="black"/>
<path fill-rule="evenodd" clip-rule="evenodd" d="M108.578 72.9482C112.853 72.9482 116.018 73.974 118.113 76.0254C120.21 78.077 121.238 81.0311 121.238 84.8879C121.238 88.7448 120.745 89.6064 119.717 91.4938C118.689 93.3811 117.21 94.8172 115.278 95.8839C113.346 96.9097 111.003 97.4431 108.249 97.4431C105.496 97.4431 106.975 97.4431 105.989 97.402C105.003 97.402 104.098 97.361 103.317 97.361C102.537 97.361 102.043 97.361 101.427 97.361V93.8325V76.6409V73.0714C102.043 73.0714 102.66 73.0714 103.276 73.0714C104.098 73.0714 105.044 73.0303 106.071 72.9893C107.099 72.9893 107.921 72.9893 108.578 72.9893V72.9482ZM108.003 73.5637C106.934 73.5637 106.236 73.7688 105.907 74.1381C105.578 74.5483 105.414 75.328 105.414 76.5178V93.8325C105.414 95.0223 105.578 95.8429 105.907 96.2122C106.236 96.6225 106.934 96.7866 108.003 96.7866C110.346 96.7866 112.154 96.3352 113.428 95.4326C114.702 94.5299 115.648 93.1759 116.182 91.4527C116.717 89.6885 116.963 87.5548 116.963 85.0521C116.963 81.1952 116.306 78.2821 114.949 76.3947C113.593 74.5074 111.291 73.5637 107.962 73.5637H108.003Z" fill="black"/>
<path fill-rule="evenodd" clip-rule="evenodd" d="M134.677 76.5593V93.7508V97.3204C134.019 97.3204 133.403 97.3204 132.745 97.3204C132.088 97.3204 131.348 97.3204 130.69 97.3204V93.7919V76.6003V73.0308C131.348 73.0308 132.006 73.0308 132.745 73.0308C133.485 73.0308 134.06 73.0308 134.677 73.0308V76.5593Z" fill="black"/>
<path fill-rule="evenodd" clip-rule="evenodd" d="M151.816 72.5386C153.05 72.5386 153.994 72.6617 154.611 72.9489C155.269 73.2361 155.844 73.5233 156.296 73.8515C158.556 75.1644 158.844 79.4316 158.844 80.1292H158.064C157.982 78.9803 157.735 77.9134 157.324 76.8467C156.913 75.7799 156.255 74.9183 155.433 74.2618C154.611 73.6054 153.584 73.2772 152.31 73.2772C151.035 73.2772 150.172 73.6464 149.391 74.3439C148.611 75.0414 148.241 75.9851 148.241 77.1339C148.241 78.2828 148.488 78.9803 149.022 79.6778C149.514 80.3753 150.213 80.9908 151.117 81.5652C152.022 82.1395 153.009 82.7961 154.159 83.5346C155.31 84.2732 156.337 85.0117 157.283 85.7503C158.187 86.4887 158.926 87.2683 159.461 88.1709C159.995 89.0327 160.242 90.0994 160.242 91.3714C160.242 92.6433 159.872 94.1204 159.173 95.105C158.474 96.0897 157.53 96.8283 156.337 97.3207C155.145 97.8131 153.871 98.0592 152.474 98.0592C151.076 98.0592 150.131 97.9361 149.391 97.6489C144.459 95.8436 144.87 89.9762 144.87 89.1557H145.651C145.733 90.5917 146.021 91.9047 146.432 93.1767C146.843 94.4075 147.501 95.4333 148.405 96.1718C149.309 96.9104 150.46 97.2796 151.94 97.2796C153.42 97.2796 154.117 96.9104 155.022 96.2128C155.926 95.5154 156.379 94.4075 156.379 92.8894C156.379 91.3713 155.885 90.3046 154.899 89.3609C153.912 88.4172 152.639 87.4735 151.035 86.4888C149.966 85.7913 148.94 85.0937 147.994 84.3963C147.049 83.6987 146.309 82.8781 145.733 81.9755C145.158 81.0728 144.87 79.965 144.87 78.6931C144.87 77.4212 145.199 76.1492 145.856 75.2465C146.514 74.3439 147.377 73.6875 148.405 73.2361C149.473 72.7848 150.583 72.5796 151.775 72.5796L151.816 72.5386Z" fill="black"/>
<path fill-rule="evenodd" clip-rule="evenodd" d="M184.778 72.9482C184.778 73.2354 184.736 73.4816 184.695 73.7278H176.434C175.694 73.7278 175.119 73.8099 174.749 73.933C174.379 74.056 174.092 74.3022 173.969 74.7125C173.845 75.0818 173.763 75.6972 173.763 76.4768V84.7648H178.982V85.4624H173.763V93.9146C173.763 94.6941 173.845 95.2685 173.969 95.6788C174.092 96.0891 174.379 96.3352 174.749 96.4583C175.119 96.5815 175.694 96.6636 176.434 96.6636H185.394C185.394 96.9097 185.435 97.197 185.476 97.4431C184.284 97.402 182.97 97.361 181.49 97.361C180.01 97.361 178.695 97.361 177.544 97.361H174.666C173.475 97.361 172.201 97.361 170.844 97.361C170.474 97.361 170.145 97.361 169.775 97.361V93.7914V76.5999V72.9893H170.844C172.201 73.0303 173.475 73.0303 174.666 73.0303H177.544C178.613 73.0303 179.804 73.0303 181.161 73.0303C182.518 73.0303 183.709 73.0303 184.778 72.9482Z" fill="black"/>
<path fill-rule="evenodd" clip-rule="evenodd" d="M85.399 88.1699H77.261L73.7264 97.3606C73.4386 97.3606 73.151 97.3606 72.9043 97.3606C76.0692 89.1957 79.275 80.9896 82.4398 72.8247H83.6317C86.8375 81.0307 90.0024 89.1957 93.2083 97.4016C92.9616 97.4016 92.7151 97.4016 92.4684 97.4016C91.7286 97.4016 90.9477 97.4016 90.2079 97.4016C89.4681 97.4016 89.3036 97.4016 88.8926 97.4016L85.4401 88.2109L85.399 88.1699ZM77.5077 87.4723H85.1113L81.3711 77.4611L77.5077 87.4723Z" fill="black"/>
<path d="M12.1123 114.552V107.659H13.1397V110.572H17.6198V107.659H18.6474V114.552H17.6198V111.475H13.1397V114.552H12.1123Z" fill="black"/>
<path d="M28.7998 114.552V107.659H34.8828V108.521H29.8274V110.572H34.3895V111.475H29.8274V113.691H34.965V114.552H28.7998Z" fill="black"/>
<path d="M44.832 114.552V107.659H45.8596V113.691H49.7642V114.552H44.832Z" fill="black"/>
<path d="M59.1738 114.552V107.659H60.2014V114.552H59.1738Z" fill="black"/>
<path d="M73.8076 114.676C72.9855 114.676 72.3279 114.553 71.7525 114.266C71.177 114.019 70.766 113.609 70.4784 113.076C70.1906 112.542 70.0674 111.886 70.0674 111.106C70.0674 109.916 70.3962 109.055 71.0538 108.439C71.7114 107.824 72.6156 107.537 73.8076 107.537C74.9995 107.537 75.0817 107.619 75.616 107.824C76.1503 108.029 76.5613 108.316 76.849 108.726C77.1367 109.137 77.3011 109.629 77.3011 110.204H76.2736C76.2736 109.793 76.1915 109.465 75.9859 109.178C75.7803 108.932 75.4927 108.727 75.1228 108.603C74.7529 108.48 74.3419 108.398 73.8076 108.398C73.2732 108.398 72.8211 108.48 72.4101 108.686C71.9992 108.891 71.7114 109.137 71.5059 109.547C71.3004 109.916 71.177 110.409 71.177 111.024V111.27C71.177 111.886 71.3004 112.378 71.5059 112.747C71.7114 113.117 72.0401 113.404 72.4513 113.609C72.8623 113.773 73.3144 113.896 73.8897 113.896C74.4651 113.896 74.835 113.814 75.205 113.691C75.5749 113.568 75.8626 113.363 76.0681 113.117C76.2736 112.871 76.3558 112.501 76.3558 112.132H77.3833C77.3833 112.706 77.2189 113.199 76.9312 113.609C76.6436 114.019 76.2325 114.307 75.6982 114.471C75.1639 114.676 74.5885 114.758 73.8897 114.758L73.8076 114.676Z" fill="black"/>
<path d="M90.6595 114.676C89.8375 114.676 89.1388 114.553 88.5634 114.266C87.988 113.978 87.5359 113.609 87.207 113.076C86.8782 112.542 86.7549 111.886 86.7549 111.106C86.7549 110.327 86.9193 109.67 87.207 109.137C87.4948 108.603 87.988 108.193 88.5634 107.947C89.1388 107.66 89.8375 107.537 90.6595 107.537C91.4815 107.537 92.1803 107.66 92.7557 107.947C93.3311 108.234 93.7832 108.603 94.1121 109.137C94.4408 109.67 94.5642 110.327 94.5642 111.106C94.5642 111.886 94.3997 112.542 94.1121 113.076C93.7832 113.609 93.3311 114.019 92.7557 114.266C92.1803 114.553 91.4815 114.676 90.6595 114.676ZM90.6595 113.814C91.0705 113.814 91.4815 113.773 91.8104 113.65C92.1392 113.568 92.468 113.404 92.7146 113.199C92.9612 112.994 93.1667 112.706 93.29 112.378C93.4133 112.05 93.4955 111.681 93.4955 111.229V111.024C93.4955 110.573 93.4133 110.204 93.29 109.834C93.1667 109.506 92.9612 109.219 92.7146 109.014C92.468 108.809 92.1392 108.644 91.8104 108.562C91.4815 108.48 91.0705 108.398 90.6595 108.398C90.2485 108.398 89.8375 108.439 89.5088 108.562C89.1799 108.644 88.8511 108.809 88.6045 109.014C88.3579 109.219 88.1523 109.506 88.0291 109.834C87.9058 110.163 87.8236 110.573 87.8236 111.024V111.229C87.8236 111.681 87.9058 112.05 88.0291 112.378C88.1523 112.706 88.3579 112.994 88.6045 113.199C88.8511 113.404 89.1799 113.568 89.5088 113.65C89.8375 113.732 90.2485 113.814 90.6595 113.814Z" fill="black"/>
<path d="M104.429 114.553V107.619H108.621C109.073 107.619 109.484 107.701 109.772 107.906C110.101 108.07 110.347 108.358 110.512 108.645C110.676 108.973 110.758 109.342 110.758 109.753C110.758 110.163 110.676 110.532 110.512 110.861C110.347 111.189 110.101 111.435 109.772 111.64C109.443 111.804 109.073 111.927 108.621 111.927H105.497V114.553H104.47H104.429ZM105.456 111.025H108.416C108.827 111.025 109.114 110.902 109.361 110.696C109.566 110.45 109.69 110.163 109.69 109.753C109.69 109.342 109.649 109.26 109.525 109.096C109.443 108.891 109.279 108.768 109.114 108.645C108.909 108.563 108.703 108.481 108.416 108.481H105.456V111.025Z" fill="black"/>
<path d="M122.101 114.552V108.562H119.306V107.659H125.882V108.562H123.128V114.552H122.101Z" fill="black"/>
<path d="M135.333 114.552V107.659H141.416V108.521H136.361V110.572H140.882V111.475H136.361V113.691H141.457V114.552H135.333Z" fill="black"/>
<path d="M151.321 114.553V107.619H155.76C156.212 107.619 156.623 107.701 156.952 107.906C157.281 108.07 157.487 108.317 157.651 108.645C157.816 108.973 157.898 109.301 157.898 109.712C157.898 110.122 157.775 110.573 157.569 110.902C157.363 111.23 157.035 111.517 156.623 111.64L158.103 114.553H156.952L155.596 111.804H152.39V114.553H151.362H151.321ZM152.349 110.942H155.555C155.966 110.942 156.253 110.819 156.459 110.614C156.665 110.368 156.788 110.081 156.788 109.712C156.788 109.342 156.747 109.26 156.665 109.096C156.582 108.932 156.418 108.768 156.253 108.686C156.048 108.604 155.842 108.563 155.596 108.563H152.39V110.984L152.349 110.942Z" fill="black"/>
<path d="M170.684 114.676C170.231 114.676 169.82 114.676 169.45 114.594C169.039 114.512 168.71 114.43 168.381 114.265C168.094 114.101 167.847 113.896 167.641 113.609C167.477 113.322 167.354 112.994 167.354 112.583C167.354 112.173 167.354 112.501 167.354 112.46C167.354 112.46 167.354 112.419 167.354 112.378H168.381C168.381 112.378 168.381 112.46 168.381 112.501C168.381 112.542 168.381 112.583 168.381 112.624C168.381 112.87 168.464 113.117 168.669 113.281C168.834 113.445 169.121 113.609 169.45 113.691C169.779 113.773 170.19 113.814 170.642 113.814C171.095 113.814 171.054 113.814 171.259 113.814C171.464 113.814 171.669 113.773 171.833 113.691C172.039 113.65 172.203 113.568 172.327 113.486C172.491 113.404 172.573 113.281 172.656 113.158C172.738 113.035 172.779 112.87 172.779 112.706C172.779 112.542 172.697 112.296 172.573 112.132C172.45 111.968 172.245 111.886 171.998 111.763C171.751 111.681 171.463 111.599 171.136 111.516C170.807 111.434 170.519 111.393 170.19 111.311C169.861 111.229 169.532 111.147 169.245 111.065C168.916 110.983 168.669 110.86 168.381 110.696C168.135 110.573 167.929 110.368 167.806 110.163C167.641 109.957 167.6 109.67 167.6 109.342C167.6 109.014 167.682 108.809 167.806 108.562C167.929 108.316 168.135 108.152 168.381 107.988C168.628 107.824 168.957 107.701 169.327 107.619C169.697 107.537 170.19 107.496 170.725 107.496C171.259 107.496 171.628 107.537 171.998 107.619C172.368 107.701 172.656 107.824 172.902 107.988C173.149 108.152 173.355 108.357 173.478 108.603C173.601 108.85 173.683 109.096 173.683 109.383V109.547H172.656V109.383C172.656 109.178 172.573 109.014 172.409 108.85C172.245 108.685 172.039 108.562 171.751 108.48C171.463 108.398 171.136 108.357 170.766 108.357C170.396 108.357 169.902 108.357 169.574 108.48C169.245 108.562 169.039 108.685 168.875 108.809C168.71 108.932 168.628 109.096 168.628 109.301C168.628 109.506 168.71 109.67 168.834 109.793C168.998 109.916 169.162 110.039 169.409 110.121C169.656 110.204 169.944 110.286 170.272 110.327C170.601 110.368 170.889 110.45 171.218 110.532C171.546 110.614 171.875 110.696 172.162 110.778C172.491 110.86 172.738 110.983 173.026 111.147C173.272 111.311 173.478 111.475 173.642 111.722C173.807 111.968 173.848 112.214 173.848 112.542C173.848 113.035 173.725 113.445 173.437 113.773C173.149 114.101 172.779 114.307 172.286 114.43C171.792 114.553 171.259 114.635 170.642 114.635L170.684 114.676Z" fill="black"/>
<path fill-rule="evenodd" clip-rule="evenodd" d="M100.48 17.8863L99.9043 17.3529C99.5755 17.1066 99.2879 16.8195 98.959 16.6143L97.9725 15.9168C97.726 15.7527 97.5204 15.6295 97.2739 15.4655L94.6844 14.1526C93.9858 13.8653 93.3692 13.6191 92.6706 13.3729L90.9443 12.8805C90.6566 12.7986 90.3689 12.7165 90.0811 12.6755C89.7524 12.5934 89.4647 12.5523 89.1769 12.4703C88.807 12.3882 88.6426 12.3472 88.6426 11.8959C88.7659 11.8959 88.8482 11.7317 89.0537 11.7317L90.04 11.8548C92.6295 12.2652 94.7256 12.9216 97.0272 14.0705L97.3972 14.2756C97.9725 14.5628 98.6302 14.9731 99.1645 15.3834L99.8221 15.8758C100.11 16.0809 100.356 16.3271 100.603 16.5322L101.055 16.9426C101.22 17.1066 101.466 17.3118 101.631 17.4759C101.795 17.6811 102.001 17.8863 102.165 18.0914C103.028 18.994 104.384 21.0045 104.877 22.2764C104.919 22.3995 105.001 22.5227 105.042 22.6867C105.453 23.6714 105.782 24.6562 106.069 25.6819C106.234 26.2973 106.357 26.9128 106.48 27.5693C106.522 27.8565 106.604 28.2668 106.645 28.5541C106.686 29.0463 106.768 29.5797 106.768 30.0721V30.4413C106.85 31.0568 106.768 31.8363 106.768 32.4929C106.727 33.3955 106.522 34.5034 106.357 35.2829C106.152 36.1445 105.905 36.9651 105.576 37.7858C105.289 38.4832 105.001 39.1808 104.631 39.7962C103.973 40.9451 103.521 41.5195 102.74 42.5041L101.959 43.3658C100.973 44.3505 100.315 44.8839 99.1645 45.7455C98.7946 46.0328 98.4246 46.2379 98.0136 46.4841C97.5615 46.7713 97.0683 46.9765 96.6162 47.2226C95.2599 47.9202 93.246 48.5766 91.7664 48.9049C91.3554 48.9868 90.41 49.192 89.9579 49.2331C89.999 48.987 90.2045 48.7407 90.3689 48.5766C90.7799 48.2073 91.3554 48.0432 91.8896 47.9202C92.5884 47.797 92.9582 47.756 93.6159 47.5509C93.8625 47.4688 94.1502 47.3457 94.3968 47.2636C94.9311 47.0585 95.3832 46.8533 95.8764 46.6072C95.9998 46.5251 96.123 46.4841 96.2463 46.4431C96.6984 46.1969 97.1505 45.9507 97.6026 45.6635C98.3425 45.1712 99.0823 44.6788 99.74 44.0633C99.8221 44.0223 99.8221 43.9812 99.9043 43.9402L100.48 43.4478C100.932 43.0786 101.959 41.8067 102.329 41.3553L102.781 40.7399C103.233 40.1245 103.644 39.4269 103.973 38.7295L104.631 37.2524C105.576 34.9137 105.987 32.1236 105.823 29.5797L105.7 28.3489C105.617 27.6923 105.535 27.077 105.371 26.4615C105.042 25.0254 104.59 23.6304 103.932 22.3175L103.727 21.9482C103.521 21.5379 103.233 21.1276 102.987 20.7172L102.658 20.225C102.37 19.8146 101.877 19.1992 101.548 18.83C101.507 18.7889 101.466 18.7479 101.425 18.7069C101.178 18.4196 100.891 18.1324 100.603 17.8863H100.48ZM62.6257 23.8356C62.6257 23.6714 62.7079 23.3843 62.749 23.2201C63.2011 21.2506 63.8999 19.3633 64.8452 17.558C64.8863 17.4759 64.9274 17.435 64.9684 17.3118C65.2151 16.8605 65.5027 16.4092 65.7905 15.9989C65.8316 15.9168 65.8728 15.8758 65.9137 15.7937C66.0371 15.6706 66.0782 15.5065 66.2015 15.3834L67.7633 13.4139C67.9277 13.2089 68.0922 13.0447 68.2565 12.8395C68.3387 12.7575 68.3387 12.7165 68.421 12.6755C68.832 12.2652 69.2429 11.8138 69.6951 11.4445C69.7773 11.4035 69.8184 11.3214 69.8595 11.2804L70.6404 10.6239C70.7226 10.5829 70.7637 10.5419 70.8459 10.4598C71.1747 10.1726 71.5035 9.92642 71.8324 9.72128L72.2434 9.43407C72.9831 8.85965 73.8462 8.40832 74.6272 7.91597C74.7094 7.87494 74.7916 7.8339 74.8327 7.79287C74.9971 7.71081 75.1205 7.62875 75.2848 7.5467C76.0658 7.13639 76.8878 6.76712 77.7098 6.43889C77.8742 6.35682 78.0386 6.31579 78.203 6.23374C78.2852 6.23374 78.3675 6.15168 78.4496 6.15168L79.7649 5.70034C81.2855 5.24902 82.7241 4.87975 84.3682 4.63356C84.5325 4.63356 84.8203 4.55151 84.9435 4.55151C85.1491 4.55151 85.3546 4.55151 85.5601 4.46945C85.9299 4.42842 87.1631 4.30533 87.5741 4.30533C87.6973 4.30533 87.8617 4.30533 87.9028 4.30533C88.3549 4.30533 88.9304 4.30533 89.3825 4.30533H90.1634C90.9033 4.30533 92.6295 4.55151 93.3281 4.71563L94.479 4.9618C94.6844 5.00284 94.8489 5.04387 95.0544 5.0849C95.7942 5.24902 96.493 5.4952 97.2328 5.74138C99.0001 6.31579 100.809 7.25949 102.37 8.28523L102.781 8.57245C103.357 8.94171 103.85 9.35201 104.384 9.76231L106.439 11.5676C106.48 11.6087 106.563 11.6907 106.604 11.7317C106.686 11.8138 106.727 11.8548 106.768 11.8959C106.85 11.9779 106.85 12.019 106.933 12.101L107.426 12.6344C107.672 12.8805 107.878 13.1268 108.083 13.3729C108.166 13.455 108.166 13.496 108.248 13.5781C108.289 13.6602 108.371 13.7012 108.412 13.7832L109.769 15.5476C110.262 16.245 110.714 16.9426 111.125 17.6811C111.166 17.7632 111.207 17.8042 111.248 17.9272C111.289 18.0093 111.33 18.0503 111.372 18.1324C111.454 18.2966 111.536 18.4196 111.618 18.6248C111.988 19.4043 112.152 19.7326 112.44 20.5532C112.481 20.7172 112.563 20.8814 112.605 21.0866C112.851 21.8251 113.016 22.6046 113.139 23.3843C113.18 23.7125 113.221 24.328 113.221 24.6562C112.152 24.6562 112.44 23.3843 112.152 22.6867C111.783 21.7841 111.454 20.9224 111.002 20.0608L110.097 18.3376C110.056 18.2555 110.015 18.1734 109.974 18.0914C109.358 16.9836 108.618 15.9579 107.837 14.9731C107.713 14.809 107.631 14.6858 107.508 14.5628C107.22 14.1936 106.933 13.9063 106.645 13.5371L105.905 12.7575C105.658 12.5113 105.042 11.8959 104.754 11.6497C104.672 11.6087 104.631 11.5266 104.549 11.4445L102.905 10.0905C102.823 10.0085 102.781 10.0085 102.699 9.92642C102.042 9.43407 100.932 8.69553 100.192 8.28523L98.1781 7.25949C97.1917 6.84919 96.2052 6.43889 95.1777 6.15168C95.0545 6.15168 95.0133 6.11065 94.89 6.06962C94.6844 6.02858 94.5201 5.94652 94.3146 5.9055C93.0405 5.57726 91.8075 5.37211 90.4511 5.24902H89.7524C89.0537 5.12593 88.4372 5.16696 87.6563 5.16696C87.3685 5.16696 87.2042 5.16696 86.9164 5.16696L85.519 5.29004C85.3135 5.29004 85.0668 5.33107 84.8614 5.37211C83.9982 5.4952 83.1351 5.65931 82.3131 5.82344C82.1076 5.86447 81.9021 5.9055 81.6965 5.94652C81.4911 5.98755 81.2855 6.02858 81.1212 6.11065C79.8881 6.47992 78.9839 6.72609 77.7509 7.25949L75.7369 8.24421C75.2437 8.49038 74.2984 9.0648 73.8462 9.39304C73.2298 9.84437 72.4899 10.3367 71.9145 10.8701C71.6268 11.1573 71.2158 11.4445 70.9282 11.7728L70.1883 12.5113C70.1061 12.5934 70.0649 12.6344 70.0239 12.7165L69.6539 13.0857C69.3663 13.3729 69.0786 13.7832 68.7908 14.1115C67.5578 15.6295 66.4481 17.3939 65.585 19.1582C65.4205 19.4864 65.2562 19.8146 65.0918 20.1839C64.6808 21.0456 64.3109 21.9072 63.941 22.8098C63.8588 23.015 63.8177 23.1791 63.7354 23.3432C63.4478 24.1228 63.3655 24.1228 63.6121 24.369C63.941 24.6972 64.2287 24.9844 64.5985 25.2717C65.5028 26.0101 66.6125 26.6667 67.7223 27.0359C67.8866 27.077 68.0922 27.2 68.2565 27.241C68.2565 26.9949 68.1744 26.7897 68.1333 26.5436C68.1333 26.2973 68.0922 26.0922 68.0511 25.8049C67.9688 25.1896 68.0511 24.2459 68.0511 23.6304C68.0922 22.9329 68.2565 22.1943 68.421 21.579C68.7497 20.348 69.2841 18.8709 69.9417 17.7632L70.2294 17.2298C70.7637 16.3271 71.3392 15.4244 72.0789 14.6039C72.12 14.5628 72.12 14.5218 72.1612 14.4808L72.7366 13.8242C72.942 13.5781 73.4764 13.0447 73.764 12.8395C73.8051 12.7986 73.8051 12.7986 73.8874 12.7575C74.3806 12.3062 75.2026 11.6907 75.778 11.3625L77.5864 10.3367C77.6687 10.2957 77.7509 10.2547 77.8742 10.2136C78.8196 9.68025 80.8334 8.98274 81.7376 8.77759C82.1898 8.6545 82.6007 8.57245 83.053 8.44935C83.7105 8.28523 84.4503 8.16214 85.1491 8.08008L85.8888 7.99802C86.4232 7.91597 86.9164 7.91597 87.3685 7.87494C87.6152 7.87494 87.9028 7.87494 88.1905 7.87494C88.3549 7.87494 88.7248 7.87494 88.9715 7.87494H89.7524C89.8757 7.91597 90.04 7.91597 90.1223 7.95699C90.2456 7.95699 90.3689 7.95699 90.4921 7.95699C90.9854 7.95699 91.4786 8.08008 91.9307 8.16214C92.4239 8.24421 92.8349 8.32626 93.287 8.44935C94.6844 8.81862 96.2463 9.26994 97.5204 9.92642L98.1781 10.2547C98.7946 10.5419 99.5344 10.9932 100.11 11.3625C100.644 11.7317 101.548 12.3062 102.001 12.7165L103.316 13.8653C103.603 14.1115 103.891 14.3987 104.138 14.6858L105.289 15.9579C105.658 16.4092 106.028 16.8605 106.357 17.3118C106.48 17.4759 106.604 17.64 106.686 17.8042L107.344 18.7889C107.467 18.953 107.549 19.1171 107.631 19.3222L108.083 20.1019C108.125 20.184 108.166 20.2659 108.207 20.389C108.494 20.9224 108.741 21.4969 108.988 22.0713C109.481 23.3022 109.851 24.492 110.18 25.764C110.344 26.4204 110.426 27.118 110.549 27.8565C110.549 28.1027 110.591 28.3489 110.632 28.595C110.632 28.7181 110.632 28.8823 110.632 28.9643C110.632 29.1284 110.632 29.2105 110.632 29.3336C110.632 30.031 110.673 30.9747 110.632 31.6313C110.508 33.1494 110.385 34.4623 110.015 35.8984C109.81 36.76 109.563 37.5806 109.275 38.4011C108.947 39.3038 108.618 40.1245 108.166 40.9451C108.166 40.9451 108.166 40.9451 108.166 41.0271C108.166 41.0271 108.166 41.0271 108.166 41.1091C108.166 41.1501 108.125 41.1912 108.083 41.2322L107.796 41.7656C107.549 42.299 107.22 42.7914 106.891 43.2838C106.604 43.6941 105.987 44.2685 105.453 44.2685C105.289 43.612 105.741 42.8324 106.028 42.4222C106.439 41.7656 106.686 41.5604 107.097 40.8219C107.385 40.3296 107.755 39.55 107.96 39.0166C108.083 38.7705 108.166 38.5243 108.289 38.2781C108.659 37.1703 109.029 36.1445 109.275 34.9957C109.358 34.6674 109.399 34.4213 109.44 34.0931C109.481 33.8058 109.522 33.4776 109.563 33.1494L109.686 31.9184C109.686 31.3441 109.727 30.3183 109.686 29.7849C109.686 29.6618 109.686 29.6208 109.686 29.4977C109.686 29.3336 109.686 29.2925 109.686 29.2105L109.604 28.3489C109.44 26.7077 109.07 25.1485 108.577 23.6304C108.248 22.6867 107.878 21.7841 107.426 20.9224C107.097 20.225 106.686 19.5685 106.275 18.9119C106.234 18.83 106.193 18.7889 106.152 18.7069L104.754 16.8605C104.713 16.7784 104.672 16.7374 104.631 16.6963L104.179 16.1629C103.809 15.7937 103.48 15.3424 103.069 15.0142L102.576 14.5628C102.165 14.1936 101.466 13.6191 100.973 13.2908C100.356 12.8395 99.6989 12.3882 99.0412 12.019C98.3425 11.6497 97.6438 11.2394 96.904 10.9522C96.6162 10.8291 96.2874 10.706 95.9998 10.5829C95.3421 10.3367 94.7667 10.1316 94.1091 9.92642C92.7528 9.55715 91.3965 9.26995 89.7524 9.14686C89.5879 9.14686 89.3003 9.10583 89.1358 9.10583C89.0126 9.10583 88.9304 9.10583 88.807 9.10583C88.3138 9.0648 87.7795 9.10583 87.2863 9.10583C87.1219 9.10583 87.0808 9.10583 86.9986 9.10583C86.8753 9.10583 86.7931 9.10583 86.6698 9.10583C85.3546 9.22891 84.0393 9.39304 82.7652 9.68025C81.7788 9.92642 80.8334 10.2547 79.847 10.6239L78.9839 11.0342C78.0797 11.4856 77.1755 11.9779 76.3535 12.5934C75.6958 13.0857 75.0382 13.6191 74.4628 14.1936C74.3806 14.2756 74.1751 14.4397 74.1751 14.5628C74.1751 14.891 74.4628 15.7937 74.545 16.1219C74.7505 16.7784 74.956 17.3939 75.2026 18.0093C75.2848 18.1734 75.3259 18.2966 75.4081 18.4606C75.6137 18.994 75.9014 19.4864 76.1479 19.9787C76.189 20.0608 76.2301 20.1019 76.2712 20.1839L76.7645 21.0045L80.1759 25.9281C80.3813 26.2153 81.1212 27.282 81.1623 27.4872C81.5322 27.4872 83.1762 26.2973 83.6694 26.0101L86.2588 24.6562C86.9575 24.369 87.6152 24.2048 88.4372 24.2048C88.6016 24.2048 88.6837 24.1638 88.8482 24.2048C89.3414 24.2459 89.4236 24.2048 90.04 24.328C90.5333 24.4099 91.0265 24.5331 91.5197 24.6151L93.0405 24.9023C93.9036 25.0665 94.7256 25.2717 95.5477 25.5178C96.7395 25.846 97.8904 26.2973 98.8768 27.077C99.37 27.4872 99.8221 27.9386 100.151 28.472C100.315 28.7591 100.48 29.0463 100.562 29.3746C100.562 29.4977 100.603 29.6208 100.685 29.7028C100.48 29.6618 99.781 29.0873 99.5344 28.9233C99.4111 28.8412 99.37 28.8002 99.2467 28.7181C99.1645 28.636 99.0823 28.595 98.959 28.513C98.7535 28.3899 98.5891 28.2668 98.3835 28.1437C97.5615 27.6923 96.6573 27.282 95.3832 27.282C94.1091 27.282 94.479 27.3641 94.1502 27.3641C94.1502 27.6104 94.1091 27.7334 93.9447 27.9386L92.4239 29.2925C91.6841 29.867 90.6566 31.6723 90.2456 32.4929L89.8346 33.3134C89.3003 34.3803 88.7659 35.7342 88.3549 36.8831C88.1494 37.4985 87.9028 38.114 87.6974 38.7295C87.3685 39.6732 87.0397 40.6169 86.7109 41.5604C86.4232 42.4632 86.0122 43.4478 85.6834 44.3095C85.1902 45.5404 84.6558 46.6483 84.0804 47.756C83.7927 48.2894 83.464 48.8228 83.1351 49.3562C82.2309 50.7102 81.1212 51.9821 79.7649 52.9668C79.6415 53.0489 79.4771 53.131 79.436 53.254C79.5182 53.254 79.5593 53.295 79.6416 53.3361L81.039 53.8284C81.5733 53.9926 82.1486 54.1156 82.7652 54.2387C84.4914 54.5669 85.8888 54.5669 87.6974 54.608C87.9028 54.608 87.9851 54.608 88.1905 54.608H88.6837C89.9579 54.485 91.1909 54.3208 92.4239 54.0746C93.0405 53.9515 93.5748 53.8284 94.1502 53.6643C95.3832 53.3361 97.6438 52.5976 98.8768 51.9821L101.137 50.7923C101.672 50.505 102.412 50.0126 102.864 49.6023L104.549 48.0842C104.631 48.0022 105.001 47.5509 105.083 47.5509C105.247 47.5509 105.494 47.8381 105.617 47.9612C105.658 48.0433 105.7 48.0842 105.741 48.1252C105.905 48.3304 106.193 48.5355 106.563 48.5355C107.138 48.5355 107.426 48.1663 107.796 47.756C108.371 47.0585 108.947 46.3199 109.44 45.5814L109.686 45.2122C110.919 43.2838 111.865 41.2322 112.522 39.0166C112.892 37.8268 113.18 36.5138 113.385 35.2419C113.591 33.8468 113.755 32.4929 113.755 31.0158C113.755 29.5387 113.796 28.4309 113.714 28.2257H114.988C115.194 28.2257 115.44 28.2257 115.646 28.2257C115.893 28.2257 116.016 28.2257 116.263 28.2257C116.879 28.2257 117.249 27.9796 117.496 27.4872C117.702 27.077 117.578 26.6667 117.496 26.2153C117.208 24.6562 116.838 23.015 116.304 21.5379C115.975 20.6763 115.523 19.3222 115.112 18.5017C115.029 18.2966 114.947 18.1324 114.865 17.9272C114.7 17.558 114.495 17.1887 114.29 16.8195L113.057 14.6858C112.974 14.6039 112.933 14.5218 112.892 14.4397L111.7 12.7165C111.207 12.06 110.714 11.4856 110.18 10.8701C110.056 10.706 109.892 10.5829 109.769 10.4188C109.563 10.1316 108.823 9.39304 108.536 9.14686C108.494 9.10583 108.453 9.10583 108.412 9.02377C108.371 9.02377 108.33 8.94171 108.289 8.94171L107.385 8.12111C107.344 8.08008 107.302 8.08008 107.261 8.03905C107.22 8.03905 107.22 7.99802 107.138 7.95699C106.604 7.50566 106.069 7.05433 105.494 6.64403C105.412 6.56198 105.371 6.52095 105.247 6.47992L103.727 5.45417C102.781 4.79769 100.85 3.89503 99.8221 3.4437C98.7946 3.0334 97.7671 2.66413 96.6984 2.33589C95.301 1.9256 93.9858 1.67942 92.5061 1.47427C92.2596 1.47427 92.0129 1.43324 91.7664 1.39221C91.6841 1.39221 91.4786 1.39221 91.3965 1.35118C91.1087 1.35118 89.8346 1.22809 89.629 1.26912H87.9028C87.7795 1.26912 87.6152 1.26912 87.4918 1.26912C87.3274 1.26912 86.9575 1.31015 86.7521 1.31015C86.1766 1.31015 85.108 1.43324 84.4914 1.5153C84.2037 1.5153 83.9982 1.55632 83.7516 1.59736C83.2584 1.67942 82.7652 1.76147 82.3131 1.84354C81.3678 2.04868 80.4635 2.21281 79.6004 2.50001C78.1619 2.91032 76.6411 3.4437 75.2848 4.10018C75.1615 4.14121 75.0794 4.18224 74.9971 4.22327C74.8738 4.26429 74.8327 4.30533 74.7094 4.34636L73.8874 4.79769C73.8051 4.83872 73.723 4.87975 73.6408 4.9618C73.4764 5.0849 73.3119 5.16696 73.1065 5.29004L71.0925 6.64403C70.9282 6.76712 70.7637 6.89022 70.5993 7.0133L69.7773 7.66978C69.7362 7.66978 69.6951 7.71081 69.6539 7.75184L68.2976 8.94171C68.01 9.18789 67.7633 9.51613 67.4756 9.80334L66.2837 11.1163C65.174 12.4292 64.3931 13.6191 63.4478 15.0142C63.1189 15.5476 62.8312 16.0809 62.5024 16.6143C62.2969 16.9836 62.1326 17.3529 61.927 17.7221C61.6803 18.0914 61.2693 18.994 61.0639 19.4043L60.5296 20.5532C60.4473 20.7583 60.3651 20.9224 60.2829 21.1276C60.1186 21.4969 60.1186 21.4148 60.4885 21.9482L61.4338 23.097C61.516 23.1791 61.5571 23.2201 61.6393 23.3022L62.7901 24.2459L62.6257 23.8356Z" fill="black"/>
<path fill-rule="evenodd" clip-rule="evenodd" d="M89.3428 26.4197C89.3839 26.666 89.425 26.7481 89.5893 26.9121C89.9181 27.2403 90.4524 27.1584 90.7813 26.83C90.9045 26.707 90.9045 26.666 90.8224 26.5018C90.5758 25.8453 89.9181 25.9274 89.466 26.2967C89.425 26.3377 89.3839 26.3787 89.3428 26.4197Z" fill="black"/>
</g>
</svg>
