<?xml version="1.0" encoding="UTF-8"?>
<svg id="Layer_1" data-name="Layer 1" xmlns="http://www.w3.org/2000/svg" version="1.1" viewBox="0 0 99.2 99.2">
  <defs>
    <style>
      .cls-1 {
        fill: #5237e6;
        stroke-width: 0px;
      }
    </style>
  </defs>
  <path class="cls-1" d="M39,38.9s0,0,0,0h0c.1-.3,0-.6-.2-.8h0c-3.8-2.1-8.5-1.4-11.5,1.8-1.7,1.8-2.7,4.1-2.7,6.6h0v9.4c0,.3.3.6.6.6h2.7c.3,0,.6-.3.6-.6v-9.2h0c0-1.5.5-2.9,1.6-4.1,1.9-2,4.8-2.2,6.8-1.1h0s0,0,0,0c0,0,.2,0,.2,0,.2,0,.4-.1.5-.3l1.3-2.3h0ZM13.1,36.9c-5.3,0-9.6,4.4-9.6,9.8v15c0,.3.3.6.6.6h2.7c.3,0,.6-.3.6-.6v-7.2c1.7,1.3,3.7,2,5.8,2,5.3,0,9.6-4.4,9.6-9.8s-4.3-9.8-9.6-9.8h0ZM13.1,52.5c-3.2,0-5.8-2.6-5.8-5.9s2.6-5.9,5.8-5.9,5.8,2.6,5.8,5.9-2.6,5.9-5.8,5.9h0ZM69.7,36.9c-5.3,0-9.6,4.4-9.6,9.8v15c0,.3.3.6.6.6h2.7c.3,0,.6-.3.6-.6v-7.2c1.7,1.3,3.7,2,5.8,2,5.3,0,9.6-4.4,9.6-9.8s-4.3-9.8-9.6-9.8ZM69.7,52.5c-3.2,0-5.8-2.6-5.8-5.9s2.6-5.9,5.8-5.9,5.8,2.6,5.8,5.9-2.6,5.9-5.8,5.9ZM58.1,46.9c0-5.4-4.3-10-9.6-10s-9.6,4.4-9.6,9.8,4.3,9.8,9.6,9.8,5.5-1.4,7-3.1h0c.2-.2.2-.6,0-.8,0,0,0,0,0,0h0s0,0,0,0l-2.1-1.7c-.2-.2-.6-.2-.8,0,0,0,0,0,0,0-1.1,1.1-2.5,1.7-4.1,1.7-3.2,0-5.8-2.6-5.8-5.9s2.6-5.9,5.8-5.9,4.6,1.6,5.4,3.9h-5c-.3,0-.6.3-.6.6v2.7c0,.3.3.6.6.6h8.4c.3,0,.5-.1.6-.4h0c0-.5.1-.9.1-1.4h0ZM95.7,38.9h0s0,0,0,0c.1-.3,0-.6-.2-.8,0,0,0,0,0,0-3.8-2.1-8.5-1.3-11.5,1.8-1.7,1.8-2.7,4.1-2.7,6.6h0v9.4c0,.3.3.6.6.6h2.7c.3,0,.6-.3.6-.6v-9.2h0c0-1.5.5-2.9,1.6-4.1,1.9-2,4.8-2.2,6.8-1.1h0s0,0,0,0h0c.3.1.6,0,.8-.3,0,0,0,0,0,0l1.3-2.3s0,0,0,0Z"/>
</svg>