<?xml version="1.0" encoding="UTF-8"?>
<svg id="Layer_1" data-name="Layer 1" xmlns="http://www.w3.org/2000/svg" version="1.1" viewBox="0 0 99.2 99.2">
  <defs>
    <style>
      .cls-1 {
        fill: #000;
        stroke-width: 0px;
      }
    </style>
  </defs>
  <path class="cls-1" d="M35.1,9.3c-9,0-12.2.9-15.5,2.7-3.2,1.7-5.9,4.4-7.6,7.6-1.8,3.3-2.7,6.5-2.7,15.5v3.4c0,.7.3,1.3.7,1.8l6,6c.2.2.5.2.7,0,0,0,.2-.2.2-.4v-9.6c0-6.7.7-9.2,2-11.7,1.3-2.4,3.3-4.4,5.7-5.7,2.5-1.3,4.9-2,11.6-2h7.3c.7,0,1.3-.3,1.8-.7l6-6c.2-.2.2-.5,0-.7,0,0-.2-.1-.4-.2h-15.8ZM60.7,9.3c-.7,0-1.3.3-1.8.7l-5.9,6c0,0-.1.2-.1.3,0,.3.2.5.5.5h9.6c6.7,0,9.2.7,11.6,2,2.4,1.3,4.4,3.3,5.7,5.7,1.3,2.5,2,4.9,2,11.7v7.3c0,.7.3,1.3.7,1.8l6,6c.2.2.5.2.7,0,0,0,.2-.2.2-.4v-15.8c0-9-.9-12.3-2.7-15.5-1.7-3.2-4.4-5.9-7.6-7.6-3.3-1.8-6.5-2.7-15.5-2.7h-3.3ZM32,21.9c-5.6,0-10.1,4.5-10.1,10.1,0,0,0,0,0,0v19.1c0,.7.3,1.3.7,1.8l6,6c.2.2.5.2.7,0,0,0,.2-.2.1-.4v-24c0-.6.1-1.2.3-1.8.2-.7.6-1.3,1.2-1.8l7.8-8.1c.2-.2.2-.5,0-.7,0,0-.2-.1-.3-.1h-6.4ZM48.1,21.9c-.7,0-1.3.3-1.8.7l-6,6c-.2.2-.2.5,0,.7,0,0,.2.1.3.1h24c.6,0,1.2.1,1.8.3.7.2,1.3.6,1.8,1.2l8.1,7.8c.2.2.5.2.7,0,0,0,.1-.2.1-.4v-6.4c0-5.6-4.5-10.1-10.1-10.1,0,0,0,0,0,0h-19.1ZM70.2,40.2c-.3,0-.5.2-.5.5v24c0,.6-.1,1.2-.3,1.8-.3.7-.7,1.3-1.2,1.8l-7.8,8.1c-.2.2-.2.5,0,.7,0,0,.2.1.4.1h6.4c5.6,0,10.1-4.5,10.1-10.1,0,0,0,0,0,0v-19.1c0-.7-.3-1.3-.7-1.8l-6-6c0,0-.2-.1-.4-.1ZM9.9,47.8c-.3,0-.5.2-.5.5v15.8c0,9,.9,12.3,2.7,15.5,1.7,3.2,4.4,5.9,7.6,7.6,3.3,1.8,6.5,2.7,15.5,2.7h3.3c.7,0,1.3-.3,1.8-.7l6-6c.2-.2.2-.5,0-.7,0,0-.2-.2-.4-.1h-9.6c-6.7,0-9.2-.7-11.6-2-2.4-1.3-4.4-3.3-5.7-5.7-1.3-2.5-2-4.9-2-11.7v-7.3c0-.7-.3-1.3-.7-1.8l-5.9-6c0,0-.2-.1-.4-.1ZM82.8,52.8c-.3,0-.5.2-.5.5v9.6c0,6.7-.7,9.2-2,11.7-1.3,2.4-3.3,4.4-5.7,5.7-2.5,1.3-4.9,2-11.6,2h-7.3c-.7,0-1.3.3-1.8.7l-5.9,6c0,0-.1.2-.1.4,0,.3.2.5.5.5h15.8c9,0,12.2-.9,15.5-2.7,3.2-1.7,5.9-4.4,7.6-7.6,1.8-3.3,2.7-6.5,2.7-15.5v-3.4c0-.7-.3-1.3-.7-1.8l-5.9-6c0,0-.2-.1-.4-.1h0ZM22.4,60.4c-.3,0-.5.2-.5.5,0,0,0,0,0,0v6.4c0,5.6,4.5,10.1,10.1,10.1h19.1c.7,0,1.3-.3,1.8-.7l6-6c0,0,.1-.2.1-.3,0-.3-.2-.5-.5-.5h-24c-.6,0-1.2-.1-1.8-.3-.7-.2-1.3-.6-1.8-1.2l-8.1-7.8c0,0-.2-.1-.3-.1h0Z"/>
</svg>