<svg width="328" height="56" viewBox="0 0 328 56" fill="none" xmlns="http://www.w3.org/2000/svg">
<g clip-path="url(#clip0_543_3688)">
<mask id="mask0_543_3688" style="mask-type:luminance" maskUnits="userSpaceOnUse" x="0" y="0" width="328" height="56">
<path d="M0 0.67627H328V55.6763H0V0.67627Z" fill="white"/>
</mask>
<g mask="url(#mask0_543_3688)">
<path d="M109.753 46.8204L101.62 32.3675H98.1341V46.8204H90.7402V9.73177H104.577C107.429 9.73177 109.859 10.2454 111.866 11.2727C113.873 12.2646 115.369 13.6284 116.355 15.3641C117.376 17.0645 117.886 18.9774 117.886 21.1028C117.886 23.547 117.182 25.761 115.774 27.7447C114.365 29.693 112.271 31.0391 109.489 31.783L118.309 46.8204H109.753ZM98.1341 26.7883H104.313C106.32 26.7883 107.817 26.3101 108.802 25.3536C109.788 24.3618 110.281 22.998 110.281 21.2622C110.281 19.5619 109.788 18.2512 108.802 17.3302C107.817 16.3737 106.32 15.8955 104.313 15.8955H98.1341V26.7883ZM147.548 31.4642C147.548 32.5269 147.477 33.4834 147.336 34.3335H125.947C126.123 36.459 126.862 38.1239 128.165 39.3283C129.468 40.5327 131.07 41.1349 132.971 41.1349C135.717 41.1349 137.672 39.9482 138.833 37.5748H146.808C145.963 40.4087 144.344 42.7467 141.949 44.5887C139.555 46.3953 136.615 47.2986 133.13 47.2986C130.313 47.2986 127.778 46.6787 125.524 45.4389C123.306 44.1636 121.563 42.3747 120.296 40.0722C119.064 37.7697 118.447 35.1129 118.447 32.1019C118.447 29.0554 119.064 26.3809 120.296 24.0784C121.528 21.7758 123.253 20.0047 125.472 18.7648C127.69 17.525 130.242 16.9051 133.13 16.9051C135.911 16.9051 138.393 17.5073 140.576 18.7117C142.794 19.9161 144.502 21.6341 145.699 23.8658C146.932 26.0621 147.548 28.5949 147.548 31.4642ZM139.89 29.3388C139.855 27.4259 139.168 25.9027 137.83 24.7691C136.492 23.6002 134.855 23.0157 132.918 23.0157C131.087 23.0157 129.538 23.5824 128.271 24.716C127.038 25.8141 126.281 27.3551 126 29.3388H139.89ZM148.931 31.9956C148.931 29.02 149.512 26.3809 150.674 24.0784C151.871 21.7758 153.491 20.0047 155.533 18.7648C157.575 17.525 159.846 16.9051 162.346 16.9051C164.247 16.9051 166.06 17.3302 167.785 18.1803C169.511 18.9951 170.884 20.0932 171.905 21.4747V7.50008H179.404V46.8204H171.905V42.4633C170.99 43.9157 169.704 45.0847 168.05 45.9702C166.395 46.8558 164.476 47.2986 162.293 47.2986C159.828 47.2986 157.575 46.661 155.533 45.3857C153.491 44.1105 151.871 42.3216 150.674 40.0191C149.512 37.6811 148.931 35.0066 148.931 31.9956ZM171.958 32.1019C171.958 30.2952 171.606 28.7543 170.901 27.4791C170.197 26.1684 169.247 25.1765 168.05 24.5035C166.852 23.795 165.567 23.4408 164.194 23.4408C162.821 23.4408 161.553 23.7773 160.392 24.4503C159.23 25.1234 158.279 26.1152 157.54 27.4259C156.835 28.7012 156.483 30.2244 156.483 31.9956C156.483 33.7668 156.835 35.3254 157.54 36.6715C158.279 37.9822 159.23 38.9918 160.392 39.7002C161.589 40.4087 162.856 40.763 164.194 40.763C165.567 40.763 166.852 40.4264 168.05 39.7534C169.247 39.0449 170.197 38.053 170.901 36.7778C171.606 35.4671 171.958 33.9085 171.958 32.1019ZM181.555 31.9956C181.555 29.02 182.136 26.3809 183.298 24.0784C184.495 21.7758 186.097 20.0047 188.104 18.7648C190.146 17.525 192.417 16.9051 194.917 16.9051C197.1 16.9051 199.002 17.3479 200.621 18.2335C202.276 19.1191 203.596 20.2349 204.582 21.581V17.3833H212.029V46.8204H204.582V42.5164C203.632 43.898 202.311 45.0492 200.621 45.9702C198.966 46.8558 197.047 47.2986 194.864 47.2986C192.4 47.2986 190.146 46.661 188.104 45.3857C186.097 44.1105 184.495 42.3216 183.298 40.0191C182.136 37.6811 181.555 35.0066 181.555 31.9956ZM204.582 32.1019C204.582 30.2952 204.23 28.7543 203.526 27.4791C202.822 26.1684 201.871 25.1765 200.674 24.5035C199.477 23.795 198.192 23.4408 196.819 23.4408C195.445 23.4408 194.178 23.7773 193.016 24.4503C191.854 25.1234 190.903 26.1152 190.164 27.4259C189.46 28.7012 189.108 30.2244 189.108 31.9956C189.108 33.7668 189.46 35.3254 190.164 36.6715C190.903 37.9822 191.854 38.9918 193.016 39.7002C194.213 40.4087 195.481 40.763 196.819 40.763C198.192 40.763 199.477 40.4264 200.674 39.7534C201.871 39.0449 202.822 38.053 203.526 36.7778C204.23 35.4671 204.582 33.9085 204.582 32.1019ZM213.652 32.1019C213.652 29.0554 214.268 26.3986 215.501 24.1315C216.733 21.829 218.441 20.0578 220.624 18.818C222.807 17.5427 225.306 16.9051 228.123 16.9051C231.75 16.9051 234.742 17.8261 237.101 19.6681C239.496 21.4747 241.098 24.0252 241.907 27.3197H233.933C233.51 26.0444 232.788 25.0525 231.767 24.3441C230.781 23.6002 229.549 23.2282 228.07 23.2282C225.958 23.2282 224.285 24.0075 223.053 25.5662C221.821 27.0894 221.205 29.268 221.205 32.1019C221.205 34.9003 221.821 37.0789 223.053 38.6375C224.285 40.1608 225.958 40.9224 228.07 40.9224C231.063 40.9224 233.017 39.5763 233.933 36.8841H241.907C241.098 40.0722 239.496 42.605 237.101 44.4824C234.707 46.3599 231.714 47.2986 228.123 47.2986C225.306 47.2986 222.807 46.6787 220.624 45.4389C218.441 44.1636 216.733 42.3924 215.501 40.1253C214.268 37.8228 213.652 35.1483 213.652 32.1019ZM252.236 23.4939V37.7342C252.236 38.7261 252.465 39.4523 252.922 39.9128C253.415 40.3379 254.225 40.5504 255.352 40.5504H258.785V46.8204H254.137C247.905 46.8204 244.789 43.774 244.789 37.6811V23.4939H241.303V17.3833H244.789V10.1037H252.236V17.3833H258.785V23.4939H252.236ZM264.155 13.8763C262.853 13.8763 261.761 13.469 260.881 12.6542C260.036 11.8041 259.613 10.7591 259.613 9.51923C259.613 8.2794 260.036 7.25211 260.881 6.43736C261.761 5.58719 262.853 5.16211 264.155 5.16211C265.458 5.16211 266.532 5.58719 267.377 6.43736C268.257 7.25211 268.697 8.2794 268.697 9.51923C268.697 10.7591 268.257 11.8041 267.377 12.6542C266.532 13.469 265.458 13.8763 264.155 13.8763ZM267.8 17.3833V46.8204H260.406V17.3833H267.8ZM283.608 39.9659L291.002 17.3833H298.871L288.044 46.8204H279.066L268.292 17.3833H276.214L283.608 39.9659ZM325.47 31.4642C325.47 32.5269 325.399 33.4834 325.258 34.3335H303.869C304.045 36.459 304.784 38.1239 306.087 39.3283C307.39 40.5327 308.992 41.1349 310.893 41.1349C313.639 41.1349 315.594 39.9482 316.755 37.5748H324.73C323.885 40.4087 322.266 42.7467 319.871 44.5887C317.477 46.3953 314.537 47.2986 311.052 47.2986C308.235 47.2986 305.7 46.6787 303.446 45.4389C301.228 44.1636 299.485 42.3747 298.218 40.0722C296.986 37.7697 296.369 35.1129 296.369 32.1019C296.369 29.0554 296.986 26.3809 298.218 24.0784C299.45 21.7758 301.175 20.0047 303.394 18.7648C305.612 17.525 308.164 16.9051 311.052 16.9051C313.833 16.9051 316.315 17.5073 318.498 18.7117C320.716 19.9161 322.424 21.6341 323.621 23.8658C324.853 26.0621 325.47 28.5949 325.47 31.4642ZM317.812 29.3388C317.776 27.4259 317.09 25.9027 315.752 24.7691C314.414 23.6002 312.777 23.0157 310.84 23.0157C309.009 23.0157 307.46 23.5824 306.193 24.716C304.96 25.8141 304.203 27.3551 303.922 29.3388H317.812Z" fill="black"/>
<path fill-rule="evenodd" clip-rule="evenodd" d="M6.48628 3.00684C3.92761 3.00684 1.85352 5.09357 1.85352 7.66785V49.617C1.85352 52.1913 3.92761 54.278 6.48628 54.278H48.1812C50.7399 54.278 52.814 52.1913 52.814 49.617V46.269C59.9595 43.5703 65.0445 36.6342 65.0445 28.5026C65.0445 20.371 59.9595 13.4345 52.814 10.7362V7.66785C52.814 5.09357 50.7399 3.00684 48.1812 3.00684H6.48628ZM52.814 10.7362C50.6956 9.93732 48.4514 9.52947 46.1891 9.53226C35.7756 9.53226 27.3337 18.0256 27.3337 28.5026C27.3337 38.9796 35.7756 47.4729 46.1891 47.4729C48.5203 47.4729 50.7528 47.0474 52.814 46.269V10.7362Z" fill="black"/>
</g>
</g>
<defs>
<clipPath id="clip0_543_3688">
<rect width="328" height="55" fill="white" transform="translate(0 0.67627)"/>
</clipPath>
</defs>
</svg>
