<svg width="212" height="43" viewBox="0 0 212 43" fill="none" xmlns="http://www.w3.org/2000/svg">
<g clip-path="url(#clip0_543_3655)">
<path fill-rule="evenodd" clip-rule="evenodd" d="M146.972 21.6592H114.98C115.027 19.471 116.594 17.1925 117.946 15.8002C119.428 14.2819 121.569 13.5826 124.483 13.5826H146.177C152.879 13.5826 151.938 21.6592 146.972 21.6592ZM108.962 24.5677C108.962 31.0924 111.802 37.7242 117.545 40.5298C119.344 41.4118 121.546 42.0145 124.166 42.0145H151.878C155.804 42.0145 156.277 35.8447 151.728 35.8678L132.716 35.8762C126.364 35.8762 120.272 37.1152 117.16 32.3566C116.448 31.2647 115.423 29.3746 115.295 27.7997H146.019C149.909 27.7997 152.673 26.7391 155.003 23.5555C156.298 21.7873 157.03 19.4143 156.796 16.6486C156.582 14.1349 155.517 12.205 153.898 10.5544C153.033 9.67245 152.523 9.22305 151.356 8.62455C150.578 8.22765 148.989 7.60605 147.918 7.60605H122.898C119.049 7.60605 115.023 9.96645 112.827 12.8413C110.645 15.6973 108.962 19.5844 108.962 24.5677ZM34.2082 23.923H8.07658C7.03511 23.923 6.01833 23.356 6.01833 22.3081V13.4251H34.8421C37.8204 13.4251 40.2265 15.6385 40.2265 18.1081C40.2265 19.8889 40.033 21.4618 38.4008 22.7071C37.1844 23.6311 36.2355 23.923 34.2082 23.923ZM0 11.1613V38.1379C0 42.193 4.32233 42.6634 5.65814 40.1959C6.90955 37.8817 4.5014 30.0613 7.60113 30.0613H31.199C32.3084 30.0613 33.6977 32.2159 34.4057 32.9299L38.1209 36.7309C39.4279 38.3269 40.4303 39.209 41.8484 40.6852C44.0343 42.9595 47.0352 41.101 47.0352 38.623C47.0352 36.8443 44.662 34.99 43.0381 33.331L38.4852 28.6081C42.9845 28.6081 47.0372 21.7558 45.8085 16.2916C44.6044 10.9366 40.1483 7.28475 34.5251 7.28475H3.48462C1.19379 7.28475 0 8.80095 0 11.1613ZM58.7569 24.4081C58.7569 18.7717 61.7537 13.423 67.1525 13.423H87.8997C99.0328 13.423 99.0884 35.2294 87.8997 35.2294H67.1525C61.5685 35.2294 58.7569 29.5468 58.7569 24.4081ZM52.8971 23.1145C52.8971 28.7866 53.5907 32.3713 57.2194 36.7981C59.7428 39.8725 64.0508 41.3677 68.2599 41.3677H86.7903C93.3438 41.3677 98.3886 38.0182 100.751 32.0248C104.819 21.7117 100.34 7.28475 86.9488 7.28475H68.1014C61.6138 7.28475 56.6287 10.7182 54.2988 16.6297C53.6339 18.316 52.8971 20.7247 52.8971 23.1145ZM162.015 10.1932C162.015 11.0626 162.641 12.1483 162.995 12.7468C166.342 18.3895 169.849 25.1473 173.19 30.7774C175.45 34.5826 176.95 38.644 180.859 40.7251C182.483 41.6026 184.279 42.0984 186.115 42.1762H186.994C190.668 42.0334 194.161 40.1182 196.543 36.6868C197.769 34.9186 206.105 19.6915 207.912 16.6234L210.749 11.6002C211.393 10.1344 210.893 8.55735 209.625 7.66905C208.373 6.79335 206.83 7.16085 205.924 7.97145C205.566 8.29065 204.998 9.32175 204.726 9.81945C203.956 11.2306 203.265 12.4297 202.468 13.8136L193.428 29.7946C193.046 30.5086 192.739 31.0441 192.331 31.7456C191.446 33.2722 191.142 34.1605 189.512 35.1685C187.424 36.46 183.66 36.0505 182.057 33.8497C180.914 32.281 174.781 21.0187 173.013 18.0367C172.195 16.6633 171.557 15.397 170.757 14.0362C169.281 11.5246 167.606 7.12305 165.183 7.12305C163.518 7.12305 162.015 8.82405 162.015 10.1932Z" fill="black"/>
<path fill-rule="evenodd" clip-rule="evenodd" d="M200.025 3.40607C200.025 0.0187694 195.934 -0.76033 194.53 1.67567L188.495 12.4865C188.071 13.2215 187.723 13.9691 186.614 13.8515C185.667 13.7507 185.241 12.959 184.873 12.2387C184.084 10.7057 183.321 9.38687 182.493 7.88117L180.102 3.53627C179.072 1.80377 178.764 0.17627 176.428 0.17627C175.92 0.178928 175.421 0.31668 174.981 0.575935C174.541 0.835191 174.175 1.20699 173.919 1.65467C172.778 3.63497 174.211 5.27297 175.429 7.49477C176.65 9.72077 180.186 16.6403 181.534 17.9066C183.996 20.2229 187.939 20.6366 190.558 18.9503C193.314 17.1737 193.995 14.6915 195.779 11.6759C196.306 10.7876 196.784 9.92867 197.28 9.00467C197.875 7.89377 200.025 4.63877 200.025 3.40607Z" fill="black"/>
</g>
<defs>
<clipPath id="clip0_543_3655">
<rect width="212" height="42" fill="white" transform="translate(0 0.17627)"/>
</clipPath>
</defs>
</svg>
