<svg width="304" height="50" viewBox="0 0 304 50" fill="none" xmlns="http://www.w3.org/2000/svg">
<g clip-path="url(#clip0_543_3763)">
<path d="M13.1375 48.7264H0.5V0.193848H53.7582V12.7377H13.1375V48.7264Z" fill="black"/>
<path d="M119.202 0.193848H61.5811V12.663H119.202V0.193848Z" fill="black"/>
<path d="M31.6424 48.7262H19.1553V18.2627H53.7581V30.6572H31.6424V48.7262Z" fill="black"/>
<path d="M119.202 18.2627H61.5811V30.7318H119.202V18.2627Z" fill="black"/>
<path d="M119.202 36.332H61.5811V48.8012H119.202V36.332Z" fill="black"/>
<path d="M136.053 0.194209H145.681C146.798 0.118582 147.918 0.264504 148.977 0.623457C150.037 0.982409 151.013 1.5472 151.85 2.28484C152.456 2.92158 152.929 3.67238 153.239 4.49305C153.549 5.31372 153.69 6.18767 153.655 7.06344C153.73 8.49774 153.329 9.91679 152.513 11.1034C151.698 12.2901 150.514 13.1789 149.142 13.634L154.257 21.1006H148.991L144.478 14.3807H140.717V21.1006H136.053V0.194209ZM145.38 10.4981C147.637 10.4981 148.991 9.3034 148.991 7.51143C148.991 5.57013 147.637 4.52481 145.38 4.52481H140.717V10.4981H145.38Z" fill="black"/>
<path d="M158.168 0.194209H167.797C168.913 0.118582 170.034 0.264504 171.093 0.623457C172.152 0.982409 173.128 1.5472 173.965 2.28484C174.572 2.92158 175.044 3.67238 175.354 4.49305C175.664 5.31372 175.806 6.18767 175.77 7.06344C175.845 8.49774 175.444 9.91679 174.629 11.1034C173.814 12.2901 172.629 13.1789 171.257 13.634L176.372 21.1006H170.956L166.443 14.3807H162.832V21.1006H158.168V0.194209ZM167.496 10.4981C169.752 10.4981 171.106 9.3034 171.106 7.51143C171.106 5.57013 169.752 4.52481 167.496 4.52481H162.832V10.4981H167.496Z" fill="black"/>
<path d="M180.284 0.194336H196.232V4.37561H184.798V8.55688H194.878V12.7381H184.798V17.2181H196.382V21.3993H180.284V0.194336Z" fill="black"/>
<path d="M134.247 27.6709H139.362L144.929 42.4547L150.495 27.6709H155.46L146.885 48.8759H142.823L134.247 27.6709Z" fill="black"/>
<path d="M158.619 27.6709H174.567V31.8522H163.133V36.0334H173.212V40.2147H163.133V44.6946H174.717V48.8759H158.619V27.6709Z" fill="black"/>
<path d="M179.381 27.6709H183.744L193.673 40.6627V27.6709H198.337V48.7266H194.426L184.195 35.2868V48.7266H179.531L179.381 27.6709Z" fill="black"/>
<path d="M207.966 31.8522H201.497V27.6709H219.099V32.0015H212.63V48.7266H207.966V31.8522Z" fill="black"/>
<path d="M222.259 39.6174V27.6709H226.923V39.6174C226.923 43.052 228.578 44.844 231.436 44.844C234.295 44.844 235.949 43.2013 235.949 39.7667V27.6709H240.613V39.6174C240.613 46.0386 237.003 49.1746 231.286 49.1746C225.569 49.1746 222.259 45.8893 222.259 39.6174Z" fill="black"/>
<path d="M245.879 27.6713H255.507C256.624 27.5956 257.745 27.7416 258.804 28.1005C259.863 28.4595 260.839 29.0242 261.676 29.7619C262.283 30.3986 262.755 31.1494 263.065 31.9701C263.375 32.7908 263.517 33.6647 263.481 34.5405C263.556 35.9748 263.155 37.3938 262.34 38.5805C261.525 39.7671 260.34 40.656 258.968 41.1111L264.083 48.5776H258.667L254.153 41.8577H250.543V48.5776H245.879V27.6713ZM255.207 37.9751C257.463 37.9751 258.817 36.7805 258.817 34.9885C258.817 33.0472 257.463 32.0019 255.207 32.0019H250.543V38.1244L255.207 37.9751Z" fill="black"/>
<path d="M267.994 27.6709H283.941V31.8522H272.508V36.0334H282.587V40.2147H272.508V44.6946H284.092V48.8759H267.994V27.6709Z" fill="black"/>
<path d="M286.95 45.5909L289.658 42.3057C291.39 43.8767 293.632 44.7777 295.977 44.8443C297.933 44.8443 298.986 44.0976 298.986 42.903C298.986 41.7083 298.234 41.111 294.773 40.215C291.313 39.319 287.702 37.9751 287.702 33.7938C287.702 29.9112 290.862 27.3726 295.074 27.3726C297.916 27.3474 300.68 28.2969 302.898 30.0605L300.49 33.4951C298.894 32.2497 296.951 31.52 294.924 31.4045C293.119 31.4045 292.216 32.1512 292.216 33.1965C292.216 34.5404 293.119 34.9884 296.729 36.0338C300.34 37.0791 303.499 38.7217 303.499 42.3057C303.499 46.4869 300.34 48.8762 295.676 48.8762C292.467 48.8421 289.375 47.6778 286.95 45.5909Z" fill="black"/>
</g>
<defs>
<clipPath id="clip0_543_3763">
<rect width="303" height="49" fill="white" transform="translate(0.5 0.17627)"/>
</clipPath>
</defs>
</svg>
