<?xml version="1.0" encoding="UTF-8"?>
<svg id="Layer_1" data-name="Layer 1" xmlns="http://www.w3.org/2000/svg" version="1.1" viewBox="0 0 99.2 99.2">
  <defs>
    <style>
      .cls-1 {
        fill: #f9b1ab;
      }

      .cls-1, .cls-2, .cls-3 {
        stroke-width: 0px;
      }

      .cls-2 {
        fill: #fff;
      }

      .cls-3 {
        fill: #f03e2f;
      }
    </style>
  </defs>
  <path class="cls-3" d="M64.6,60.8c0,0,.1.1.2.2,0,0-.1-.1-.2-.2Z"/>
  <path class="cls-3" d="M35,35.6c0,0,0-.2-.1-.3,0,0,0,.2.1.3Z"/>
  <path class="cls-3" d="M65.3,61.8s0,0,0,.1c0,0,0,0,0-.1Z"/>
  <path class="cls-3" d="M65.8,62.8c0,.1.1.2.2.3,0-.1-.1-.2-.2-.3Z"/>
  <path class="cls-3" d="M61.9,58.4s0,0,0,0c0,0,0,0,0,0Z"/>
  <path class="cls-3" d="M66.3,63.8c0,.2.1.3.2.5,0-.2-.1-.3-.2-.5Z"/>
  <path class="cls-3" d="M62.9,59.1s0,0,.1.1c0,0,0,0-.1-.1Z"/>
  <path class="cls-3" d="M63.9,60s0,0,0,0c0,0,0,0,0,0Z"/>
  <path class="cls-3" d="M67.1,67.4c0,.2,0,.5,0,.7,0-.3,0-.5,0-.7Z"/>
  <path class="cls-3" d="M36.3,37.4s0,0,0-.1c0,0,0,0,0,.1Z"/>
  <path class="cls-3" d="M66.9,66c0,.3.1.7.2,1,0-.3,0-.7-.2-1Z"/>
  <path class="cls-3" d="M8.1,8.1v83h83V8.1H8.1ZM67.1,69.2c0-.3,0-.5,0-.7,0,.2,0,.5,0,.7-3.4,4.2-9.3,6.6-16.2,6.6-11.7,0-19.8-5.6-21.7-15.5h11.2c1.4,4.5,5.3,6.6,10.4,6.6s10.3-3.2,10.4-9c-2.1-1.3-4.7-2.4-8.1-3.2l-9.3-2.1c-7.5-1.7-13.3-5.6-13.3-14,0-3.3,1-6.4,3-9,3.2-4.2,8.9-6.8,15.8-6.8,11.9,0,18.8,6.2,20.5,14.9h-10.8c-1.2-3.4-4.2-6.1-9.6-6.1s-9.8,3.3-10,8.6h0c2,1.3,4.6,2.3,7.6,3l9.5,2.2c8.5,1.9,13.7,6.7,13.7,14.4,0,3.4-1.1,6.7-3.2,9.3Z"/>
  <path class="cls-3" d="M66.6,64.9c0,.2,0,.3.1.5,0-.2,0-.3-.1-.5Z"/>
  <path class="cls-3" d="M35.7,36.6c0,0-.1-.2-.2-.3,0,0,.1.2.2.3Z"/>
  <path class="cls-2" d="M56.6,45.4l-9.5-2.2c-3.1-.8-5.6-1.8-7.6-3h0c-1.2-.7-2.3-1.7-3.2-2.8,0,0,0,0,0-.1-.2-.2-.3-.4-.5-.7,0,0-.1-.2-.2-.3-.1-.2-.3-.5-.4-.7,0,0,0,0,0,0,0,0,0-.2-.1-.3-.9-1.8-1.3-3.7-1.2-5.7-2,2.6-3.1,5.8-3,9,0,8.4,5.8,12.3,13.3,14l9.3,2.1c3.3.9,6,1.9,8.1,3.2,0,0,0,0,0,0,0,0,0,0,0,0h0s0,0,0,0c.2.1.4.3.6.4,0,0,0,0,0,0,.3.2.6.5.9.7,0,0,0,0,.1.1.3.2.6.5.8.7,0,0,0,0,0,0,.3.3.5.5.7.8,0,0,.1.1.2.2.2.2.4.5.5.8,0,0,0,0,0,.1.2.3.3.6.5.9,0,.1.1.2.2.3.1.2.2.5.3.7,0,.2.1.3.2.5,0,.2.1.4.2.7,0,.2,0,.3.1.5,0,.2,0,.3.1.5,0,.3.1.7.2,1,0,.1,0,.3,0,.4,0,.2,0,.5,0,.7,0,0,0,.2,0,.3,0,.2,0,.5,0,.7,2.1-2.7,3.2-6,3.2-9.3,0-7.8-5.2-12.5-13.7-14.4Z"/>
  <path class="cls-1" d="M67.1,67.4c0-.1,0-.3,0-.4,0-.3,0-.7-.2-1,0-.2,0-.4-.1-.5,0-.2,0-.3-.1-.5,0-.2-.1-.5-.2-.7,0-.2-.1-.3-.2-.5,0-.2-.2-.5-.3-.7,0-.1-.1-.2-.2-.3-.1-.3-.3-.6-.5-.9,0,0,0,0,0-.1-.2-.3-.3-.5-.5-.8,0,0-.1-.1-.2-.2-.2-.3-.5-.6-.7-.8,0,0,0,0,0,0-.3-.3-.5-.5-.8-.7,0,0,0,0-.1-.1-.3-.3-.6-.5-.9-.7,0,0,0,0,0,0-.2-.1-.4-.3-.6-.4-.1,5.7-4.2,9-10.4,9s-8.9-2.1-10.4-6.6h-11.2c1.8,9.8,10,15.5,21.7,15.5s12.8-2.4,16.2-6.6c0-.3,0-.5,0-.7,0,0,0-.2,0-.3,0-.3,0-.5,0-.7Z"/>
  <path class="cls-1" d="M35,35.6c.1.3.3.5.5.8,0,0,.1.2.2.3.2.2.3.4.5.7,0,0,0,0,0,.1.9,1,1.9,2,3.2,2.8h0c.2-5.2,4.2-8.6,10-8.6s8.4,2.7,9.6,6.1h10.8c-1.7-8.7-8.6-14.9-20.5-14.9s-12.5,2.6-15.8,6.8c0,2.2.4,4.1,1.2,5.7,0,0,0,.2.1.3Z"/>
  <path class="cls-1" d="M36.2,37.3c-.2-.2-.3-.4-.5-.7.2.2.3.4.5.7Z"/>
  <path class="cls-1" d="M35.1,35.7c.1.2.3.5.4.7-.2-.3-.3-.5-.5-.8,0,0,0,0,0,0Z"/>
  <path class="cls-1" d="M61.3,57.9s0,0,0,0c0,0,0,0,0,0h0Z"/>
  <path class="cls-1" d="M61.3,57.9s0,0,0,0c.2.1.4.3.6.4-.2-.1-.4-.3-.6-.4Z"/>
  <path class="cls-1" d="M34.9,35.3c-.8-1.7-1.2-3.6-1.2-5.7,0,2,.3,3.9,1.2,5.7Z"/>
  <path class="cls-1" d="M36.3,37.4c.9,1.1,2,2,3.2,2.8h0c-1.3-.8-2.4-1.7-3.2-2.8Z"/>
  <path class="cls-1" d="M63.9,60c.3.3.5.5.7.8-.2-.3-.5-.6-.7-.8Z"/>
  <path class="cls-1" d="M66.8,65.5c0,.2,0,.3.1.5,0-.2,0-.4-.1-.5Z"/>
  <path class="cls-1" d="M67,67c0,.1,0,.3,0,.4,0-.1,0-.3,0-.4Z"/>
  <path class="cls-1" d="M67.1,68.4c0,0,0-.2,0-.3,0,0,0,.2,0,.3Z"/>
  <path class="cls-1" d="M66.4,64.3c0,.2.1.4.2.7,0-.2-.1-.5-.2-.7Z"/>
  <path class="cls-1" d="M63.1,59.2c.3.2.5.5.8.7-.3-.3-.5-.5-.8-.7Z"/>
  <path class="cls-1" d="M66,63.1c.1.2.2.5.3.7,0-.2-.2-.5-.3-.7Z"/>
  <path class="cls-1" d="M64.7,61c.2.2.4.5.5.8-.2-.3-.3-.5-.5-.8Z"/>
  <path class="cls-1" d="M62,58.4c.3.2.6.5.9.7-.3-.3-.6-.5-.9-.7Z"/>
  <path class="cls-1" d="M65.4,61.9c.2.3.3.6.5.9-.1-.3-.3-.6-.5-.9Z"/>
</svg>