<?xml version="1.0" encoding="UTF-8"?>
<svg id="Layer_1" data-name="Layer 1" xmlns="http://www.w3.org/2000/svg" version="1.1" viewBox="0 0 99.2 99.2">
  <defs>
    <style>
      .cls-1 {
        fill: #f9b1ab;
      }

      .cls-1, .cls-2, .cls-3 {
        stroke-width: 0px;
      }

      .cls-2 {
        fill: #fff;
      }

      .cls-3 {
        fill: #f03e2f;
      }
    </style>
  </defs>
  <path class="cls-3" d="M7,7h85.2v85.2H7V7Z"/>
  <path class="cls-2" d="M33.2,29.1c0,7.3,4.6,11.7,13.8,14l9.8,2.2c8.7,2,14,6.9,14,14.8,0,3.5-1.1,6.9-3.3,9.6,0-7.9-4.2-12.2-14.3-14.8l-9.6-2.1c-7.7-1.7-13.6-5.7-13.6-14.4,0-3.3,1.1-6.6,3.1-9.3Z"/>
  <path class="cls-1" d="M61.6,58.1c4.2,2.6,6,6.3,6,11.5-3.4,4.3-9.5,6.8-16.6,6.8-12,0-20.4-5.8-22.2-15.9h11.5c1.5,4.6,5.4,6.8,10.6,6.8s10.6-3.4,10.7-9.2M39.2,39.9c-1.9-1.1-3.5-2.7-4.5-4.6-1.1-1.9-1.6-4.1-1.5-6.2,3.3-4.3,9.1-6.9,16.2-6.9,12.2,0,19.3,6.3,21,15.3h-11.1c-1.2-3.5-4.3-6.3-9.8-6.3s-10,3.4-10.2,8.8"/>
</svg>