<?xml version="1.0" encoding="UTF-8"?>
<svg id="Layer_1" data-name="Layer 1" xmlns="http://www.w3.org/2000/svg" version="1.1" viewBox="0 0 99.2 99.2">
  <defs>
    <style>
      .cls-1, .cls-2 {
        fill: #fff;
        stroke-width: 0px;
      }

      .cls-2 {
        opacity: .5;
      }
    </style>
  </defs>
  <path class="cls-1" d="M8.1,8.1v83h83V8.1H8.1ZM67.1,69.2c0-.3,0-.5,0-.7,0,.2,0,.5,0,.7-3.4,4.2-9.3,6.6-16.2,6.6-11.7,0-19.8-5.6-21.7-15.5h11.2c1.4,4.5,5.3,6.6,10.4,6.6s10.3-3.2,10.4-9c-2.1-1.3-4.7-2.4-8.1-3.2l-9.3-2.1c-7.5-1.7-13.3-5.6-13.3-14,0-3.3,1-6.4,3-9,3.2-4.2,8.9-6.8,15.8-6.8,11.9,0,18.8,6.2,20.5,14.9h-10.8c-1.2-3.4-4.2-6.1-9.6-6.1s-9.8,3.3-10,8.6h0c2,1.3,4.6,2.3,7.6,3l9.5,2.2c8.5,1.9,13.7,6.7,13.7,14.4,0,3.4-1.1,6.7-3.2,9.3Z"/>
  <path class="cls-2" d="M67.1,67.4c0-.1,0-.3,0-.4,0-.3,0-.7-.2-1,0-.2,0-.4-.1-.5,0-.2,0-.3-.1-.5,0-.2-.1-.5-.2-.7,0-.2-.1-.3-.2-.5,0-.2-.2-.5-.3-.7,0-.1-.1-.2-.2-.3-.1-.3-.3-.6-.5-.9,0,0,0,0,0-.1-.2-.3-.3-.5-.5-.8,0,0-.1-.1-.2-.2-.2-.3-.5-.6-.7-.8,0,0,0,0,0,0-.3-.3-.5-.5-.8-.7,0,0,0,0-.1-.1-.3-.3-.6-.5-.9-.7,0,0,0,0,0,0-.2-.1-.4-.3-.6-.4-.1,5.7-4.2,9-10.4,9s-8.9-2.1-10.4-6.6h-11.2c1.8,9.8,10,15.5,21.7,15.5s12.8-2.4,16.2-6.6c0-.3,0-.5,0-.7,0,0,0-.2,0-.3,0-.3,0-.5,0-.7Z"/>
  <path class="cls-2" d="M35,35.6c.1.3.3.5.5.8,0,0,.1.2.2.3.2.2.3.4.5.7,0,0,0,0,0,.1.9,1,1.9,2,3.2,2.8h0c.2-5.2,4.2-8.6,10-8.6s8.4,2.7,9.6,6.1h10.8c-1.7-8.7-8.6-14.9-20.5-14.9s-12.5,2.6-15.8,6.8c0,2.2.4,4.1,1.2,5.7,0,0,0,.2.1.3Z"/>
</svg>