<svg width="368" height="58" viewBox="0 0 368 58" fill="none" xmlns="http://www.w3.org/2000/svg">
<mask id="mask0_543_3673" style="mask-type:luminance" maskUnits="userSpaceOnUse" x="0" y="11" width="368" height="37">
<path d="M368 11.4277H0V47.2668H368V11.4277Z" fill="white"/>
</mask>
<g mask="url(#mask0_543_3673)">
<path d="M0.254915 19.6188C0.611316 15.9737 3.82742 12.7024 7.89206 11.9122C10.1227 11.4798 12.4182 11.51 14.6367 12.001C16.8552 12.4921 18.9496 13.4335 20.7903 14.7671C20.9591 14.8497 21.1073 14.969 21.224 15.1165C21.3406 15.264 21.4227 15.4357 21.4642 15.6192C21.5057 15.8026 21.5056 15.9931 21.4639 16.1765C21.4222 16.3599 21.3399 16.5316 21.2231 16.6789C20.6376 17.5965 20.0266 18.5142 19.3902 19.3978C19.2987 19.5723 19.1691 19.7239 19.011 19.8412C18.8528 19.9585 18.6702 20.0385 18.4768 20.0753C18.2835 20.112 18.0843 20.1046 17.8942 20.0535C17.7042 20.0024 17.5281 19.909 17.3791 19.7802C15.8238 18.7247 14.1028 17.9378 12.2877 17.4521C11.2291 17.1601 10.1084 17.1838 9.06309 17.5201C6.25432 18.4802 5.57544 21.3606 7.69688 23.4678C9.02508 24.6199 10.564 25.5029 12.2283 26.0678C14.3815 26.8852 16.4252 27.9668 18.3125 29.2879C21.2995 31.4972 22.9372 34.386 22.5554 38.15C22.4041 40.0407 21.6695 41.8373 20.4532 43.2911C19.2369 44.7449 17.5991 45.784 15.7668 46.2645C10.022 48.0403 4.73536 46.8251 0.119141 42.9933V41.8205C0.503781 40.8378 0.990124 39.8982 1.5702 39.0167C2.35938 37.7763 3.05521 37.5723 4.31108 38.3284C5.90449 39.404 7.64519 40.2427 9.47888 40.8181C10.1857 41.0587 10.9367 41.141 11.6787 41.0587C12.4207 40.9766 13.1356 40.7318 13.7727 40.3422C14.1545 40.1168 14.485 39.8141 14.7428 39.453C15.0006 39.0922 15.1801 38.6809 15.2696 38.2463C15.3592 37.8117 15.3568 37.3631 15.2626 36.9296C15.1685 36.4958 14.9847 36.0866 14.7231 35.7286C13.9896 34.6505 12.9976 33.7738 11.8379 33.1796C10.5566 32.5081 9.19886 31.9985 7.88357 31.3866C4.8966 29.9933 2.17269 28.2854 0.721631 25.0991C0.407659 24.4109 0.382196 23.6717 0.119141 22.9834V22.5076C0.322798 21.556 -0.0590563 20.5619 0.254915 19.6188Z" fill="black"/>
<path d="M368.001 46.7399C366.778 47.5385 366.302 47.4535 365.388 46.2725L344.435 20.0093C344.2 19.7204 343.945 19.4485 343.546 18.9897V45.0236C343.546 46.5615 343.461 46.6379 341.711 46.6379C339.965 46.6379 339.88 46.468 339.88 44.9387C339.88 34.4593 339.88 23.9801 339.88 13.5008C339.88 12.7531 339.795 11.8865 340.726 11.6316C341.131 11.4983 341.567 11.5019 341.966 11.6417C342.365 11.7815 342.711 12.0497 342.943 12.4048C349.867 21.1734 356.799 29.84 363.749 38.5151C363.859 38.6596 363.987 38.7955 364.335 39.2034V37.708C364.335 29.942 364.335 22.1845 364.335 14.4185C364.335 13.6793 363.961 12.6342 364.878 12.3113C365.377 12.0804 365.926 11.9862 366.472 12.0385C367.016 12.0907 367.539 12.2876 367.984 12.6087L368.001 46.7399Z" fill="black"/>
<path d="M202.707 32.381C204.184 28.5829 205.541 25.0822 206.891 21.5816C208.019 18.6757 209.139 15.7698 210.226 12.8555C210.531 12.0058 210.836 11.4025 211.923 11.428C213.009 11.4535 213.229 12.0398 213.526 12.813C215.948 19.0439 218.377 25.2748 220.816 31.5057C220.837 31.6317 220.886 31.7514 220.959 31.856C221.032 31.9603 221.128 32.0469 221.24 32.1091L225.033 17.2907C225.372 15.9653 225.729 14.6483 226.017 13.3143C226.221 12.4136 226.628 11.9718 227.621 12.0398C228.835 12.1248 230.056 12.0398 231.27 12.0398C232.67 12.0398 232.967 12.3711 232.543 13.7391C231.541 17.2653 230.506 20.7744 229.497 24.292C227.454 31.3726 225.415 38.4532 223.378 45.5337C223.107 46.4771 222.742 47.0123 221.613 46.9356C220.765 46.8764 220.569 46.4175 220.34 45.8227L212.576 26.1358C212.313 25.4901 212.041 24.8528 211.728 24.1051C211.175 24.9275 210.759 25.8343 210.497 26.79C208.025 33.0607 205.578 39.3398 203.157 45.6272C202.834 46.4768 202.436 46.9952 201.392 46.9274C200.348 46.8593 200.255 46.1795 200.051 45.4402C197.109 34.9272 194.154 24.4025 191.183 13.8666C190.785 12.4561 191.065 12.0993 192.516 12.0993C193.695 12.0993 194.875 12.1502 196.046 12.0993C196.241 12.0617 196.441 12.065 196.635 12.1091C196.828 12.1531 197.011 12.2369 197.17 12.355C197.33 12.4732 197.463 12.6233 197.562 12.7957C197.66 12.9682 197.722 13.1592 197.743 13.3568C199.14 18.84 200.554 24.3147 201.986 29.7809C202.215 30.5202 202.41 31.3188 202.707 32.381Z" fill="black"/>
<path d="M32.7123 29.441V13.79C32.7123 12.405 32.9756 12.1416 34.3332 12.1416C35.4703 12.1416 36.6074 12.1841 37.7276 12.1416C38.8477 12.0991 39.2466 12.609 39.2381 13.688C39.2381 17.4945 39.2381 21.3351 39.2381 25.1076C39.2381 25.8383 39.3822 26.0932 40.1799 26.0847C44.8413 26.0394 49.5027 26.0394 54.1644 26.0847C55.0128 26.0847 55.1572 25.7703 55.1487 25.0141C55.1487 21.3265 55.1487 17.639 55.1487 13.9684C55.1487 12.3625 55.3607 12.1756 56.9901 12.1671C58.0933 12.1671 59.1879 12.1671 60.2826 12.1671C61.2074 12.1671 61.6402 12.5155 61.6402 13.4841C61.6402 24.105 61.6402 34.7315 61.6402 45.3637C61.6402 46.3492 61.1819 46.6892 60.2741 46.6807C59.2219 46.6807 58.1612 46.6807 57.1005 46.6807C55.2846 46.6807 55.1487 46.5447 55.1487 44.7689C55.1487 40.9624 55.1487 37.1218 55.1487 33.3578C55.1487 32.3637 54.9027 32.1514 53.9351 32.1599C49.353 32.2192 44.7705 32.2024 40.1884 32.1599C39.4076 32.1599 39.2211 32.3722 39.2296 33.1284C39.2296 37.0879 39.2296 41.0474 39.2296 45.024C39.2296 46.4344 38.9833 46.6721 37.6002 46.7231C36.4631 46.7231 35.3259 46.7231 34.2058 46.7231C33.0857 46.7231 32.6953 46.2557 32.6953 45.1599C32.7293 39.8663 32.7123 34.6579 32.7123 29.441Z" fill="black"/>
<path d="M248.038 29.2196C248.038 23.9262 248.038 18.6328 248.038 13.3393C248.038 12.4897 248.395 12.1243 249.209 12.1328H249.328C251.814 12.0648 251.823 12.0733 251.823 14.5289C251.823 23.6628 251.823 32.7966 251.823 41.9306C251.823 43.0523 252.162 43.2393 253.172 43.2308C257.245 43.1712 261.318 43.2308 265.392 43.2308C266.834 43.2308 266.944 43.3667 266.944 44.9299C266.944 46.4934 266.851 46.5784 265.392 46.5784H249.625C248.216 46.5784 248.081 46.4339 248.081 45.0151C248.081 39.764 248.081 34.5132 248.081 29.262L248.038 29.2196Z" fill="black"/>
<path d="M277.967 29.4156V14.0111C277.967 12.3117 278.12 12.1333 279.97 12.1333C281.819 12.1333 281.913 12.3372 281.913 13.9516V44.888C281.913 46.4259 281.675 46.6385 280.02 46.6385C278.171 46.6385 277.967 46.4769 277.967 44.939V29.4156Z" fill="black"/>
<path d="M166.32 11.6232C162.839 11.6334 159.438 12.6743 156.546 14.615C153.654 16.5556 151.4 19.3093 150.067 22.5297C148.734 25.75 148.382 29.2933 149.055 32.7133C149.728 36.1336 151.396 39.278 153.85 41.7512C156.303 44.2244 159.432 45.9159 162.844 46.6127C166.255 47.3096 169.796 46.9807 173.021 45.6677C176.246 44.3544 179.011 42.1157 180.968 39.2329C182.926 36.3502 183.988 32.9521 184.022 29.4663C184.064 27.1215 183.635 24.7921 182.762 22.616C181.889 20.44 180.589 18.4614 178.938 16.7976C177.288 15.1338 175.321 13.8186 173.153 12.9298C170.986 12.041 168.662 11.5967 166.32 11.6232ZM165.811 40.6055C163.591 40.4986 161.453 39.7337 159.668 38.4073C157.884 37.0812 156.533 35.2538 155.788 33.157C155.043 31.0603 154.937 28.7893 155.484 26.6323C156.031 24.4754 157.205 22.5298 158.859 21.043C160.513 19.5561 162.571 18.595 164.771 18.2818C166.971 17.9686 169.215 18.3174 171.217 19.2839C173.219 20.2504 174.889 21.791 176.014 23.71C177.14 25.6289 177.67 27.8395 177.539 30.0611C177.36 35.9067 171.963 40.8093 165.811 40.6055Z" fill="black"/>
<path d="M123.577 12.1416C119.895 12.1416 116.212 12.1416 112.546 12.1416C111.103 12.1416 110.968 12.2946 110.968 13.7985C110.968 18.9701 110.968 24.1446 110.968 29.3218C110.968 34.4991 110.968 39.7531 110.968 45.0832C110.968 46.4258 111.188 46.6467 112.537 46.6467C116.297 46.6467 120.056 46.6467 123.815 46.6467C128.318 46.5219 132.594 44.6354 135.725 41.3919C138.856 38.1483 140.593 33.8054 140.564 29.2945C140.535 24.7835 138.743 20.4634 135.571 17.2602C132.398 14.0569 128.099 12.2256 123.594 12.1586L123.577 12.1416ZM133.862 30.18C133.336 36.4166 129.042 40.4357 122.737 40.5716C121.244 40.5716 119.759 40.5716 118.274 40.5716C117.519 40.5716 117.357 40.3166 117.366 39.6286C117.366 36.1786 117.366 32.7207 117.366 29.2708C117.366 25.8213 117.366 22.5246 117.366 19.1599C117.366 18.3102 117.612 18.0808 118.427 18.1233C120.684 18.2422 122.975 17.9024 125.215 18.3867C127.875 18.9001 130.244 20.4 131.847 22.5866C133.45 24.7731 134.17 27.4851 133.862 30.18Z" fill="black"/>
<path d="M102.55 45.2702C102.45 44.9809 102.334 44.6971 102.202 44.4206L87.7763 12.7365C87.5134 12.1587 87.3011 11.6319 86.4782 11.6064C85.655 11.5809 85.3495 12.0907 85.0526 12.7195C83.2706 16.6166 81.477 20.5081 79.6724 24.3939C76.5158 31.2254 73.3621 38.0537 70.2109 44.8795C69.6255 46.1369 69.9394 46.5789 71.3225 46.6467C72.5021 46.6467 73.6732 46.6467 74.8527 46.6467C75.2632 46.6878 75.6754 46.5883 76.0221 46.3646C76.3689 46.1409 76.6296 45.806 76.7618 45.4147C77.3475 44.0552 78.0263 42.7382 78.5863 41.362C78.6709 41.0311 78.8741 40.7432 79.1578 40.5534C79.4411 40.3636 79.7848 40.2853 80.1222 40.3337C83.3383 40.3933 86.5461 40.3337 89.7621 40.3337C91.0433 40.3337 92.6133 39.943 93.5381 40.5292C94.4632 41.1155 94.8705 42.6619 95.2354 43.8768C95.9397 46.0605 97.1278 47.2754 99.5546 46.6128C100.259 46.6128 100.963 46.6128 101.667 46.6128C102.499 46.5789 102.813 46.0944 102.55 45.2702ZM81.4884 34.7175C81.532 34.5268 81.5888 34.3393 81.6582 34.1566C83.1432 30.8176 84.6367 27.4697 86.2319 23.9011L91.1367 34.7175H81.4884Z" fill="black"/>
<path d="M310.952 11.623C307.459 11.6297 304.047 12.6723 301.146 14.619C298.247 16.5658 295.988 19.3295 294.655 22.561C293.322 25.7926 292.976 29.3469 293.659 32.7758C294.344 36.2043 296.025 39.3533 298.496 41.8248C300.965 44.2966 304.11 45.9798 307.535 46.6627C310.96 47.3453 314.51 46.9967 317.737 45.6606C320.961 44.3245 323.721 42.0614 325.663 39.1561C327.608 36.2511 328.647 32.8348 328.653 29.3387C328.667 27.0073 328.219 24.6963 327.333 22.5398C326.45 20.3833 325.145 18.4241 323.501 16.776C321.853 15.1279 319.894 13.8237 317.743 12.9391C315.589 12.0545 313.279 11.6072 310.952 11.623ZM310.952 43.6046C307.249 43.514 303.73 41.9779 301.143 39.3242C298.556 36.6706 297.109 33.1098 297.109 29.4022C297.109 25.6947 298.556 22.134 301.143 19.4804C303.73 16.8268 307.249 15.2907 310.952 15.2001C312.843 15.1537 314.725 15.4868 316.486 16.1797C318.247 16.8726 319.852 17.9113 321.208 19.2347C322.561 20.5581 323.636 22.1394 324.372 23.8856C325.108 25.6317 325.485 27.5074 325.485 29.4022C325.485 31.2972 325.108 33.1728 324.372 34.919C323.636 36.6652 322.561 38.2466 321.208 39.5699C319.852 40.8931 318.247 41.932 316.486 42.6248C314.725 43.3176 312.843 43.6508 310.952 43.6046Z" fill="black"/>
</g>
</svg>
