<?xml version="1.0" encoding="UTF-8"?>
<svg id="Layer_1" data-name="Layer 1" xmlns="http://www.w3.org/2000/svg" viewBox="0 0 1277.19 674.92">
  <defs>
    <style>
      .cls-1 {
        fill: #333;
        stroke-width: 0px;
      }
    </style>
  </defs>
  <path class="cls-1" d="m1135.2,155.71c-58.42-67.05-148.44-110.01-249.45-110.01s-188.18,41.6-246.6,106.79C697.39,63.83,796.22,4.16,909.34,0c3.11.13,6.45.19,10.05.38,4.29.19,8.88.81,13.85,1.24,9.87,1.05,20.92,3.04,32.72,5.9,11.73,3.29,24.34,7.14,36.88,13.1,12.54,5.84,25.27,13.16,37.56,21.92,12.29,8.75,24.15,18.81,35.82,29.8,11.55,10.74,21.86,22.79,31.23,35.82,4.65,6.46,9.07,13.16,13.16,19.93,4.1,6.83,7.76,13.47,11.42,20.86,1.05,2.24,2.11,4.47,3.16,6.77"/>
  <path class="cls-1" d="m1174.44,561.92c-61.9,69.35-152.04,113-252.37,113-118.46,0-222.7-60.84-283.04-152.91,58.42,65.31,147.27,106.97,246.72,106.97,77.29,0,148.13-25.15,203.33-67.05h85.36Z"/>
  <path class="cls-1" d="m1260.12,337.37v1.43h-67.67c-.13-2.73-.31-5.84-.43-9.31-.81-14.47-1.8-35.2-4.84-60.22-3.11-24.9-8.26-54.26-19.25-84.19-5.46-15.02-12.23-29.86-20.55-44.57-3.91-6.83-8.45-14.22-13.17-21.11-4.71-6.95-9.68-13.72-15.02-20.24-10.43-13.04-22.29-25.33-34.96-35.88-12.41-10.43-25.39-20.3-38.61-28.56-13.22-8.38-26.82-15.15-40.1-20.43-13.23-5.4-26.39-8.63-38.5-11.3-1.93-.37-3.85-.68-5.71-.93,168.19,19.37,298.81,162.1,298.81,335.31"/>
  <path class="cls-1" d="m289.93,346.06c-8.87-14.71-23.09-27.07-42.65-36.99-19.49-10-51.84-19.81-96.97-29.55-18.25-3.8-29.8-7.95-34.71-12.29-4.96-4.28-7.51-9.07-7.51-14.41,0-7.26,3.04-13.47,9.13-18.56,6.08-5.09,15.14-7.64,27.12-7.64,14.59,0,26.02,3.42,34.34,10.24,8.26,6.83,13.72,17.83,16.27,32.85l97.41-5.71c-4.28-34.64-17.64-59.91-40.04-75.81-22.42-15.9-55.01-23.84-97.72-23.84-34.77,0-62.21,4.42-82.14,13.15-20.05,8.7-35.01,20.75-44.94,36.02-9.94,15.28-14.96,31.48-14.96,48.67,0,26.14,9.75,47.62,29.24,64.51,19.24,16.88,51.59,30.42,96.84,40.59,27.69,6.09,45.33,12.55,52.9,19.38,7.64,6.83,11.42,14.59,11.42,23.28s-3.97,17.13-11.98,24.02c-7.95,6.9-19.12,8.88-33.84,8.88-19.74,0-35.2-5.28-45.81-18.81-6.58-8.32-10.87-20.49-13.04-36.44L0,393.74c2.92,33.72,15.34,61.52,37.18,83.45,21.92,21.85,61.28,32.84,118.09,32.84,32.41,0,59.23-4.65,80.52-14.03,21.23-9.37,37.81-23.03,49.67-41.16,11.86-18.07,17.82-37.82,17.82-59.3,0-18.24-4.46-34.7-13.35-49.48"/>
  <path class="cls-1" d="m621.79,395.94c0,20.99-5.66,40.28-17.04,58.11-.24.36-.49.79-.73,1.15-1.82,2.8-3.77,5.47-5.9,8.04-11.2,14.17-25.86,25.25-43.81,33.1-21.24,9.37-48.07,14-80.5,14-56.89,0-96.19-10.9-118.1-32.86-21.9-21.84-34.26-49.65-37.17-83.41l98.27-6.15c2.13,15.94,6.51,28.11,13.02,36.51,10.65,13.51,25.86,18.74,45.69,18.74,14.66,0,25.98-1.94,34.01-8.88,7.91-6.87,11.99-14.91,11.99-24.03s-3.83-16.43-11.44-23.24c-7.6-6.87-25.19-13.32-52.87-19.41-45.33-10.16-77.64-23.73-96.93-40.58-19.41-16.85-29.21-38.39-29.21-64.5,0-17.16,4.99-33.41,14.97-48.67,9.98-15.27,24.89-27.26,44.9-36.02,20.02-8.76,47.4-13.08,82.2-13.08,42.72,0,75.33,7.91,97.72,23.79,10.16,7.18,18.5,16.37,24.89,27.44,2.31,3.9,4.38,8.09,6.14,12.53,4.38,10.52,7.36,22.51,8.94,35.84l-19.16,1.09-15.21.92-62.97,3.65c-2.62-15.03-8.03-25.92-16.25-32.86-8.33-6.75-19.77-10.22-34.32-10.22-12.05,0-21.05,2.56-27.13,7.67-6.09,5.05-9.13,11.25-9.13,18.62,0,5.23,2.44,10.04,7.48,14.3,4.87,4.45,16.37,8.52,34.68,12.29,45.09,9.8,77.46,19.66,96.99,29.57.85.43,1.65.85,2.44,1.28,5.9,3.17,11.32,6.51,16.18,10.1,10.22,7.55,18.25,16.06,24.04,25.62,8.88,14.78,13.32,31.28,13.32,49.59"/>
  <polygon class="cls-1" points="1088.28 170.45 1014.66 504.61 913.29 504.61 854.7 294.21 796.35 504.61 695.05 504.61 622.83 180.25 622.83 180.19 621.49 174.16 620.64 170.45 718.78 170.45 754.06 357.49 805.78 170.45 903.5 170.45 955.33 357.24 990.75 170.45 1088.28 170.45"/>
  <rect class="cls-1" x="1192.01" y="356.37" width="85.18" height="85.18"/>
  <rect class="cls-1" x="1089.2" y="356.37" width="85.17" height="85.18"/>
  <rect class="cls-1" x="1192.01" y="459.17" width="85.18" height="85.18"/>
  <rect class="cls-1" x="1089.2" y="459.17" width="85.17" height="85.18"/>
</svg>