<svg width="147" height="78" viewBox="0 0 147 78" fill="none" xmlns="http://www.w3.org/2000/svg">
<g clip-path="url(#clip0_543_2313)">
<path d="M130.264 18.5568C123.581 10.8903 113.283 5.97828 101.728 5.97828C90.1733 5.97828 80.2015 10.7348 73.5186 18.1887C80.1809 8.05126 91.4865 1.22858 104.427 0.75293C104.783 0.767794 105.165 0.774654 105.576 0.796379C106.067 0.818104 106.592 0.888994 107.161 0.938161C108.29 1.05822 109.554 1.28575 110.904 1.61277C112.246 1.98895 113.688 2.42916 115.123 3.11062C116.557 3.77837 118.013 4.61534 119.419 5.61696C120.825 6.61744 122.182 7.7677 123.517 9.0243C124.838 10.2523 126.018 11.6301 127.09 13.12C127.621 13.8586 128.127 14.6247 128.595 15.3988C129.064 16.1797 129.483 16.9389 129.901 17.7839C130.021 18.04 130.143 18.295 130.263 18.558" fill="#333333"/>
<path d="M134.753 65.0028C127.672 72.9323 117.36 77.9232 105.883 77.9232C92.3319 77.9232 80.4075 70.9668 73.5049 60.4395C80.1878 67.907 90.3518 72.6704 101.728 72.6704C110.57 72.6704 118.674 69.7948 124.988 65.0039H134.753V65.0028Z" fill="#333333"/>
<path d="M144.554 39.3277V39.4912H136.813C136.798 39.179 136.778 38.8234 136.764 38.4267C136.671 36.7722 136.558 34.4019 136.21 31.5411C135.855 28.694 135.265 25.337 134.008 21.9148C133.384 20.1974 132.609 18.5006 131.657 16.8187C131.21 16.0377 130.691 15.1928 130.151 14.405C129.612 13.6103 129.044 12.8362 128.433 12.0907C127.24 10.5997 125.883 9.19447 124.433 7.98819C123.014 6.79562 121.529 5.66708 120.017 4.72263C118.504 3.76446 116.949 2.99038 115.429 2.38666C113.916 1.76922 112.411 1.39991 111.025 1.09462C110.804 1.05231 110.585 1.01687 110.372 0.988281C129.612 3.20305 144.554 19.5228 144.554 39.3277Z" fill="#333333"/>
<path d="M33.5697 40.3217C32.5551 38.6397 30.9284 37.2265 28.6908 36.0922C26.4613 34.9488 22.7606 33.8272 17.598 32.7135C15.5103 32.279 14.189 31.8045 13.6273 31.3082C13.0599 30.8189 12.7682 30.2712 12.7682 29.6606C12.7682 28.8305 13.116 28.1204 13.8127 27.5384C14.5082 26.9565 15.5446 26.6649 16.915 26.6649C18.5841 26.6649 19.8916 27.0559 20.8433 27.8357C21.7882 28.6167 22.4128 29.8744 22.7045 31.5918L33.8477 30.9389C33.3581 26.9782 31.8298 24.0888 29.2674 22.2708C26.7026 20.4528 22.9745 19.5449 18.0887 19.5449C14.1112 19.5449 10.9722 20.0503 8.69235 21.0485C6.39874 22.0433 4.6874 23.4211 3.55146 25.167C2.41438 26.9141 1.84012 28.7665 1.84012 30.732C1.84012 33.7208 2.95546 36.1768 5.18501 38.108C7.38597 40.0381 11.0866 41.5863 16.263 42.7491C19.4306 43.4454 21.4485 44.1841 22.3145 44.965C23.1884 45.746 23.6208 46.6333 23.6208 47.6269C23.6208 48.6205 23.1667 49.5855 22.2504 50.3733C21.341 51.1623 20.0632 51.3887 18.3793 51.3887C16.1211 51.3887 14.3526 50.7849 13.1389 49.2379C12.3862 48.2866 11.8954 46.8951 11.6472 45.0714L0.40332 45.7734C0.737353 49.629 2.15813 52.8076 4.65651 55.3151C7.16404 57.8134 11.6666 59.07 18.1654 59.07C21.8729 59.07 24.941 58.5383 27.3764 57.4658C29.805 56.3945 31.7017 54.8326 33.0584 52.7596C34.4151 50.6935 35.0969 48.4353 35.0969 45.9792C35.0969 43.8937 34.5867 42.0116 33.5697 40.3217Z" fill="#333333"/>
<path d="M71.5329 46.025C71.5329 48.425 70.8855 50.6306 69.5836 52.6693C69.5562 52.7104 69.5276 52.7596 69.5001 52.8008C69.2919 53.1209 69.0689 53.4262 68.8252 53.7201C67.544 55.3402 65.867 56.6071 63.8136 57.5047C61.3838 58.5761 58.3146 59.1055 54.6048 59.1055C48.0969 59.1055 43.6012 57.8592 41.0948 55.3483C38.5896 52.8511 37.1757 49.6713 36.8428 45.8111L48.0843 45.108C48.328 46.9305 48.829 48.3221 49.5737 49.2825C50.792 50.8272 52.532 51.4252 54.8004 51.4252C56.4775 51.4252 57.7724 51.2034 58.691 50.4099C59.5959 49.6244 60.0626 48.7051 60.0626 47.6623C60.0626 46.6195 59.6245 45.7837 58.7539 45.005C57.8845 44.2195 55.8723 43.482 52.7059 42.7857C47.5204 41.624 43.8243 40.0724 41.6176 38.1458C39.3972 36.2191 38.2761 33.7563 38.2761 30.7708C38.2761 28.8088 38.847 26.9507 39.9886 25.2059C41.1303 23.4599 42.8359 22.089 45.1249 21.0874C47.4151 20.0857 50.5472 19.5918 54.5282 19.5918C59.4151 19.5918 63.1455 20.4962 65.7068 22.312C66.8691 23.1329 67.8231 24.1837 68.5541 25.4494C68.8183 25.8954 69.0551 26.3745 69.2565 26.8821C69.7575 28.085 70.0984 29.4559 70.2792 30.9801L68.0874 31.1047L66.3474 31.2099L59.144 31.6272C58.8443 29.9087 58.2254 28.6635 57.2851 27.87C56.3322 27.0982 55.0235 26.7015 53.3591 26.7015C51.9806 26.7015 50.9511 26.9942 50.2555 27.5785C49.5589 28.1559 49.2111 28.8648 49.2111 29.7075C49.2111 30.3055 49.4902 30.8554 50.0668 31.3425C50.6239 31.8514 51.9394 32.3167 54.034 32.7478C59.192 33.8683 62.895 34.9957 65.1291 36.1288C65.2264 36.178 65.3179 36.226 65.4082 36.2752C66.0832 36.6376 66.7032 37.0195 67.2591 37.43C68.4283 38.2933 69.3468 39.2663 70.0092 40.3594C71.025 42.0494 71.5329 43.936 71.5329 46.0295" fill="#333333"/>
<path d="M124.897 20.2422L116.475 58.4501H104.879L98.1766 34.3929L91.5016 58.4501H79.9135L71.6519 21.3627V21.3559L71.4986 20.6664L71.4014 20.2422H82.6281L86.6639 41.6284L92.5804 20.2422H103.759L109.688 41.5998L113.74 20.2422H124.897Z" fill="#333333"/>
<path d="M146.507 41.5005H136.763V51.24H146.507V41.5005Z" fill="#333333"/>
<path d="M134.745 41.5005H125.002V51.24H134.745V41.5005Z" fill="#333333"/>
<path d="M146.507 53.2544H136.763V62.9939H146.507V53.2544Z" fill="#333333"/>
<path d="M134.745 53.2544H125.002V62.9939H134.745V53.2544Z" fill="#333333"/>
</g>
<defs>
<clipPath id="clip0_543_2313">
<rect width="146.104" height="77.1705" fill="white" transform="translate(0.40332 0.75293)"/>
</clipPath>
</defs>
</svg>
