<?xml version="1.0" encoding="UTF-8"?>
<svg id="Layer_1" data-name="Layer 1" xmlns="http://www.w3.org/2000/svg" version="1.1" viewBox="0 0 99.2 99.2">
  <defs>
    <style>
      .cls-1 {
        fill: #fff;
        stroke-width: 0px;
      }
    </style>
  </defs>
  <path class="cls-1" d="M39.1,31.9v6.9h14.6c.8.2,1.6-.3,2.2-.8.6-.5.9-1.4.9-2.8s-.3-2-.8-2.5c-.5-.5-1.3-.8-2-.8h-14.9Z"/>
  <path class="cls-1" d="M57.5,54.1c.6-.6.9-1.6.9-2.7s-.3-1.9-.8-2.8c-.6-.8-1.4-1.3-2.4-1.3h-16.2v7.7h15.9c.9,0,1.7-.3,2.5-.9Z"/>
  <path class="cls-1" d="M81.9,9H17.8c-2,0-3.6,1.6-3.6,3.6v63.9c0,1.9,1.6,3.1,3.6,3.1h9.4v12.7l11.8-12.7h42.8c1.9,0,3.1-1.3,3.1-3.3V12.6c0-1.9-1.3-3.5-3.1-3.6ZM77.1,71.9H22.1V16.8h55.1v55.1Z"/>
  <path class="cls-1" d="M22.1,71.9h55.1V16.8H22.1v55.1ZM27.3,22h32.7c1.6,0,3,.3,4.2,1.1,1.3.6,2.4,1.6,3.3,2.7,1.9,2.2,2.8,5,2.8,7.9s-.6,4.1-1.6,6.1c-1.1,1.9-2.8,3.5-4.9,4.4,2.7.8,4.7,2,6.1,3.9,1.4,1.9,2.2,4.4,2.2,7.7s-.5,3.5-1.1,4.9c-.8,1.4-2,2.7-3.5,3.6-1.6.9-3.3,1.9-5.2,2.2-1.9.5-4.1.9-6.3.9h-28.9V22Z"/>
</svg>