<?xml version="1.0" encoding="UTF-8"?>
<svg id="Layer_1" data-name="Layer 1" xmlns="http://www.w3.org/2000/svg" version="1.1" xmlns:xlink="http://www.w3.org/1999/xlink" viewBox="0 0 99.2 99.2">
  <defs>
    <style>
      .cls-1 {
        fill: #00b3b0;
      }

      .cls-1, .cls-2, .cls-3 {
        stroke-width: 0px;
      }

      .cls-2 {
        fill: none;
      }

      .cls-4 {
        clip-path: url(#clippath-1);
      }

      .cls-5 {
        clip-path: url(#clippath);
      }

      .cls-3 {
        fill: #fff;
      }
    </style>
    <clipPath id="clippath">
      <path class="cls-2" d="M55.9,38.1c.6-.5.9-1.4.9-2.8s-.3-2-.8-2.5-1.3-.8-2-.8h-14.9v6.9h14.6c.8.2,1.6-.3,2.2-.8ZM55.3,47.3h-16.2v7.7h15.9c.9,0,1.7-.3,2.5-.9.6-.6.9-1.6.9-2.7s-.3-1.9-.8-2.8c-.6-.8-1.4-1.3-2.4-1.3Z"/>
    </clipPath>
    <clipPath id="clippath-1">
      <path class="cls-2" d="M71.2,60.7c-.8,1.4-2,2.7-3.5,3.6-1.6.9-3.3,1.9-5.2,2.2-1.9.5-4.1.9-6.3.9h-28.9V22h32.7c1.6,0,3,.3,4.2,1.1,1.3.6,2.4,1.6,3.3,2.7,1.9,2.2,2.8,5,2.8,7.9s-.6,4.1-1.6,6.1c-1.1,1.9-2.8,3.5-4.9,4.4,2.7.8,4.7,2,6.1,3.9,1.4,1.9,2.2,4.4,2.2,7.7,0,1.7-.5,3.5-1.1,4.9h0ZM81.9,9H17.8c-2,0-3.6,1.6-3.6,3.6v63.9c0,1.9,1.6,3.1,3.6,3.1h9.4v12.7l11.8-12.7h42.8c1.9,0,3.1-1.3,3.1-3.3V12.6c0-1.9-1.3-3.5-3.1-3.6h0Z"/>
    </clipPath>
  </defs>
  <rect class="cls-3" x="22.1" y="16.8" width="55.1" height="55.1"/>
  <g class="cls-5">
    <rect class="cls-1" x="37.5" y="30.5" width="22.7" height="26.3"/>
  </g>
  <g class="cls-4">
    <rect class="cls-1" x="12.6" y="7.4" width="73.9" height="86.5"/>
  </g>
</svg>