<svg width="381" height="77" viewBox="0 0 381 77" fill="none" xmlns="http://www.w3.org/2000/svg">
<g clip-path="url(#clip0_543_3842)">
<path d="M95.209 46.6729C95.4835 53.3194 99.6033 59.6362 111.633 59.6362C123.058 59.6362 127.507 54.9672 127.507 47.7716C127.507 41.3997 123.772 37.8843 116.357 37.0603L108.721 36.1265C105.7 35.797 104.437 34.204 104.437 32.0618C104.437 29.2055 106.799 27.3928 111.248 27.3928C116.082 27.3928 118.499 29.5899 118.938 32.9956H127.123C126.683 26.5139 122.179 21.2407 111.248 21.2407C100.976 21.2407 96.0328 25.9646 96.0328 32.5562C96.0328 38.5984 99.6582 42.1687 106.14 42.9378L114.214 43.9814C117.455 44.4209 119.103 45.8491 119.103 48.5954C119.103 51.5067 117.29 53.4293 111.743 53.4293C105.975 53.4293 103.558 50.5729 103.338 46.6729H95.209Z" fill="black"/>
<path d="M152.663 43.7067C152.663 49.9137 150.136 52.9347 146.071 52.9347C142.611 52.9347 140.688 51.177 140.688 46.8376V31.2378H132.559V48.0461C132.559 55.2418 135.745 59.5812 142.94 59.5812C147.884 59.5812 150.96 57.1094 152.663 53.4292V58.7024H160.792V31.2378H152.663V43.7067Z" fill="black"/>
<path d="M184.963 30.3589C180.241 30.3589 177.109 32.1716 175.187 35.1928V31.2379H167.058V69.6883H175.187V54.6926C177.109 57.7686 180.241 59.5813 184.963 59.5813C193.972 59.5813 197.652 52.7701 197.652 44.9702C197.652 37.0603 193.972 30.3589 184.963 30.3589ZM182.492 53.2095C177.328 53.2095 175.187 50.5729 175.187 44.9702C175.187 39.3673 177.328 36.7307 182.492 36.7307C187.655 36.7307 189.468 39.2574 189.468 44.9702C189.468 50.6278 187.655 53.2095 182.492 53.2095Z" fill="black"/>
<path d="M216.196 53.9785C212.297 53.9785 209.715 52.2758 209.221 47.0575H230.148C230.259 46.4533 230.259 45.6843 230.259 44.8603C230.259 37.1153 226.413 30.3589 216.032 30.3589C205.869 30.3589 201.256 36.9505 201.256 44.9152C201.256 52.6602 205.32 59.5813 216.032 59.5813C225.919 59.5813 229.435 54.8025 230.203 50.4081H222.404C221.635 52.4405 219.766 53.9785 216.196 53.9785ZM216.141 35.8519C220.206 35.8519 222.239 37.9391 222.513 42.1138H209.275C209.935 37.4448 212.241 35.8519 216.141 35.8519Z" fill="black"/>
<path d="M251.07 30.7983C246.455 30.7983 243.984 33.2153 242.666 37.1153V31.2379H234.756V58.7025H242.885V47.8815C242.885 41.6744 244.753 38.7083 250.191 38.7083H252.883V30.7983H251.07Z" fill="black"/>
<path d="M275.356 30.3589C270.357 30.3589 267.225 32.8857 265.468 36.6208V31.2379H257.338V58.7025H265.468V46.2335C265.468 39.6969 267.885 36.9505 272.225 36.9505C275.575 36.9505 277.443 38.7082 277.443 43.1026V58.7025H285.572V41.8391C285.572 34.6435 282.552 30.3589 275.356 30.3589Z" fill="black"/>
<path d="M305.035 59.5813C316.02 59.5813 320.25 52.5504 320.25 44.9152C320.25 37.39 316.02 30.3589 305.035 30.3589C294.104 30.3589 289.819 37.3349 289.819 44.9152C289.819 52.6053 294.104 59.5813 305.035 59.5813ZM298.003 44.9702C298.003 38.873 300.092 36.7307 305.035 36.7307C310.034 36.7307 312.121 38.873 312.121 44.9702C312.121 51.0672 310.034 53.2095 305.035 53.2095C300.092 53.2095 298.003 51.0672 298.003 44.9702Z" fill="black"/>
<path d="M336.817 52.3854L329.566 31.2378H321.272L330.83 58.7024H342.255L351.812 31.2378H344.068L336.817 52.3854Z" fill="black"/>
<path d="M362.403 59.4168C368.007 59.4168 371.303 56.6152 372.566 52.8251C372.566 55.0773 372.73 56.8899 373.005 58.7027H380.091C379.816 56.3407 379.652 54.1434 379.652 51.5619V39.697C379.652 33.8747 375.588 30.3042 367.238 30.3042C358.889 30.3042 354.055 34.3141 353.835 40.1915H361.8C361.909 37.3901 363.668 35.9069 367.402 35.9069C371.082 35.9069 372.181 37.1703 372.181 39.0928C372.181 40.6858 371.303 41.3999 368.775 41.8393L362.294 42.938C355.207 44.1464 353.286 47.0028 353.286 51.3971C353.286 56.3407 356.857 59.4168 362.403 59.4168ZM365.15 53.8689C362.953 53.8689 361.306 52.7703 361.306 50.5731C361.306 48.4858 362.459 47.4422 365.37 46.7281L367.677 46.1788C369.38 45.7942 370.752 45.4098 372.181 44.421V45.6294C372.181 50.7379 369.435 53.8689 365.15 53.8689Z" fill="black"/>
<path d="M55.8975 36.9639C58.8641 37.9278 62.0292 38.4506 65.3162 38.4506C66.8757 38.4506 68.4094 38.3335 69.9046 38.1072C71.4018 37.8798 72.8625 37.5442 74.2792 37.1087C73.4418 37.404 72.6189 37.7619 71.8153 38.1829C71.0133 38.603 70.2307 39.0873 69.4749 39.636C64.4079 43.3172 61.7175 49.0556 61.7175 54.8746C61.7175 58.7093 62.8857 62.5793 65.3113 65.9189C65.3133 65.9218 65.3162 65.9247 65.3171 65.9267C65.3171 65.9267 65.3162 65.9276 65.3151 65.9276C65.3142 65.9258 65.3123 65.9229 65.3094 65.9209C64.3945 64.6607 63.374 63.4617 62.2508 62.3348C61.1248 61.2068 59.8971 60.1527 58.5657 59.186C55.9109 57.2581 53.0498 55.8222 50.0899 54.8584C50.0968 48.5051 52.084 42.2132 55.8975 36.9639ZM30.6388 61.0283C30.6379 61.0341 30.6369 61.0408 30.6359 61.0457C30.5967 61.2366 30.5535 61.4264 30.5112 61.6163C30.493 61.697 30.4748 61.7776 30.4556 61.8581C30.4249 61.9875 30.3933 62.117 30.3617 62.2456C30.3261 62.3837 30.2916 62.5208 30.2551 62.659C30.2331 62.7434 30.2091 62.8286 30.1861 62.9131C30.1382 63.0886 30.0882 63.2632 30.0365 63.4388C30.0192 63.4982 30.001 63.5585 29.9838 63.619C29.9253 63.8089 29.8677 63.9989 29.8063 64.1878C29.7976 64.2165 29.7891 64.2453 29.7804 64.2731C29.7756 64.2874 29.7709 64.3029 29.7651 64.3182C29.7602 64.3327 29.7555 64.348 29.7506 64.3623C29.7219 64.4515 29.6921 64.5388 29.6614 64.6271C29.6318 64.7163 29.6011 64.8045 29.5704 64.8928C29.5416 64.9752 29.5128 65.0557 29.484 65.1374C29.4351 65.2754 29.3843 65.4116 29.3334 65.5478C29.2855 65.6764 29.2366 65.8039 29.1876 65.9305C29.1569 66.0073 29.1273 66.084 29.0966 66.1608C29.0581 66.2567 29.0198 66.3515 28.9805 66.4474C28.9412 66.5434 28.9019 66.6393 28.8607 66.7343C28.8607 66.7363 28.8596 66.7372 28.8596 66.739C28.805 66.8696 28.7484 67 28.6909 67.1295C27.8823 68.9767 26.904 70.7098 25.7828 72.3145C31.9777 64.2875 43.4768 62.5947 51.7339 68.5949C52.5253 69.1705 53.258 69.7948 53.9323 70.4633C54.6075 71.1309 55.2223 71.8407 55.7756 72.5869C55.7353 72.5264 55.697 72.4651 55.6587 72.4037C51.8989 67.0728 50.089 60.9393 50.0928 54.8602C43.9217 52.8518 37.3221 52.9027 31.2767 54.8593C31.2738 56.9012 31.0676 58.9672 30.6388 61.0283ZM31.2623 54.8612C31.2594 51.0036 30.5266 47.1699 29.0966 43.5771C29.0505 43.462 29.0036 43.3459 28.9566 43.2299C28.9315 43.1703 28.9086 43.11 28.8827 43.0505C28.8596 42.9967 28.8356 42.9431 28.8126 42.8894C28.757 42.7589 28.6994 42.6284 28.6429 42.4989C27.7768 40.552 26.7084 38.698 25.4547 36.9696C22.4929 37.9297 19.3345 38.4515 16.0543 38.4515C12.8642 38.4515 9.78831 37.9595 6.89941 37.0502C7.71181 37.3274 8.51172 37.665 9.29244 38.0601C9.29437 38.0611 9.2982 38.0621 9.30012 38.063C9.40083 38.1148 9.50057 38.1666 9.60225 38.2203C9.66939 38.2559 9.73652 38.2904 9.80271 38.3268C9.83916 38.3469 9.87367 38.3661 9.91012 38.3863C10.0089 38.4408 10.1077 38.4956 10.2055 38.5532C10.2688 38.5886 10.3321 38.626 10.3945 38.6644C10.407 38.6702 10.4185 38.6769 10.43 38.6845C11.8667 39.5352 13.1616 40.5615 14.2943 41.7269C14.3567 41.7883 14.4171 41.8507 14.4756 41.915C14.5456 41.9887 14.6147 42.0625 14.6828 42.1373C14.7192 42.1749 14.7528 42.2132 14.7873 42.2515C14.8602 42.332 14.9312 42.4117 15.0021 42.4933C15.0156 42.5085 15.028 42.523 15.0415 42.5374C15.1029 42.6102 15.1642 42.6822 15.2247 42.7551C15.2697 42.8078 15.3148 42.8605 15.3589 42.9133C15.38 42.9411 15.4021 42.9671 15.4242 42.9938C15.5383 43.134 15.6515 43.2769 15.7608 43.4207C15.8692 43.5626 15.9757 43.7066 16.0792 43.8495C16.132 43.9223 16.1847 43.9952 16.2346 44.0691C16.6998 44.7327 17.1189 45.4234 17.4901 46.1351C17.5736 46.2942 17.6551 46.4535 17.7328 46.6146C17.7539 46.6578 17.7759 46.6999 17.7961 46.7441C17.8057 46.7651 17.8162 46.7873 17.8258 46.8074C17.8709 46.9042 17.9159 46.9992 17.9601 47.0971C17.9889 47.1594 18.0176 47.2208 18.0436 47.284C19.8448 51.369 20.2073 56.1043 18.7208 60.6832C18.1413 62.4652 17.3204 64.1006 16.3085 65.5671C20.2122 60.3465 25.4835 56.7343 31.2623 54.8612ZM14.4708 27.646C14.5072 27.6631 14.5437 27.6824 14.5792 27.6996C14.7144 27.7677 14.8468 27.8378 14.981 27.9077C15.1163 27.9787 15.2496 28.0497 15.3839 28.1226C15.4203 28.1427 15.4549 28.162 15.4913 28.1811C18.4511 29.8039 21.0629 31.8795 23.268 34.2888C23.2881 34.3109 23.3072 34.332 23.3274 34.3522C23.432 34.4663 23.5326 34.5814 23.6343 34.6965C23.7111 34.7848 23.7887 34.871 23.8644 34.9584C23.8962 34.9947 23.9269 35.0322 23.9575 35.0677C24.4851 35.6834 24.9848 36.3174 25.4566 36.9667C31.6335 34.9631 36.9431 31.0394 40.6848 25.8993C37.0285 20.8754 34.8705 14.6919 34.8705 8.00391C34.8705 13.2005 32.7642 17.904 29.3583 21.3089C25.9535 24.7148 21.2499 26.8211 16.0534 26.8211C14.1217 26.8211 12.2581 26.5304 10.5048 25.9895C11.6922 26.3875 12.8623 26.8651 14.0094 27.4196C14.1639 27.4933 14.3173 27.5692 14.4708 27.646ZM52.1138 21.4115C48.7164 18.0662 46.5852 13.4393 46.5029 8.31371C46.5009 8.35495 46.4971 8.39619 46.4942 8.43647C46.4031 14.9586 44.2622 20.9858 40.6848 25.9013C44.4224 31.0374 49.7274 34.9593 55.8975 36.9639C56.8135 35.7026 57.8349 34.5018 58.96 33.3738C60.0851 32.2468 61.3118 31.1927 62.6412 30.2269C65.1665 28.393 67.878 27.0033 70.6844 26.0433C68.9829 26.5496 67.1826 26.8211 65.3162 26.8211C60.1724 26.822 55.5101 24.758 52.1138 21.4115Z" fill="black"/>
<path d="M15.9022 65.2695L15.9059 65.2646C19.8754 59.9615 25.234 56.2897 31.1059 54.3876L31.7594 54.1759L31.76 54.8628C31.7619 56.9546 31.5539 59.0526 31.1279 61.1229L31.1275 61.1257L31.1257 61.1372L31.1233 61.1487C31.083 61.3443 31.04 61.5378 30.9965 61.7292C30.9927 61.7459 30.9888 61.7635 30.9847 61.7818C30.971 61.8431 30.9558 61.9115 30.9392 61.9782C30.9082 62.1087 30.8764 62.2389 30.8447 62.3675L30.8436 62.3717L30.8436 62.3717C30.8344 62.4076 30.8252 62.4439 30.8158 62.4804C30.79 62.5816 30.7636 62.685 30.7364 62.788M15.9022 65.2695L29.5585 66.3483C29.5744 66.3086 29.5899 66.2691 29.6049 66.231C29.6201 66.1924 29.6348 66.1552 29.6496 66.1182L29.651 66.1146C29.7021 65.984 29.7511 65.8547 29.7997 65.7243C29.8512 65.5861 29.9018 65.4474 29.9516 65.3103L29.9517 65.3101C29.9815 65.2282 30.0116 65.1441 30.0411 65.0569C30.0448 65.0463 30.0485 65.0356 30.0522 65.0249C30.0785 64.9494 30.1058 64.8711 30.1324 64.7913C30.1635 64.7018 30.1941 64.6114 30.2238 64.5192C30.2272 64.5088 30.2292 64.5026 30.2308 64.4975C30.2327 64.4917 30.2341 64.4874 30.2366 64.4799L30.2367 64.4799L30.2384 64.4744C30.2525 64.4309 30.2667 64.3867 30.281 64.3398C30.3434 64.1477 30.4025 63.9556 30.4599 63.7659L30.46 63.7659L30.462 63.7587C30.4723 63.723 30.4802 63.6961 30.4887 63.6677C30.4961 63.6425 30.5039 63.616 30.514 63.5811C30.5669 63.402 30.6166 63.2245 30.6655 63.0496L30.6664 63.0462C30.673 63.0218 30.6801 62.9958 30.6875 62.9691C30.7036 62.9105 30.7208 62.8478 30.7364 62.788M15.9022 65.2695C15.891 65.2842 15.8823 65.2971 15.8763 65.3067C15.7462 65.4944 15.612 65.6797 15.4751 65.8625L15.4517 65.8712L15.361 66.0179C13.641 68.8004 14.3314 72.4796 17.0212 74.4349L17.0213 74.435C19.7027 76.3832 23.4038 75.9126 25.5212 73.4357L25.5555 73.4612L25.8523 73.0525C27.1751 71.2308 28.2714 69.3141 29.145 67.3344C29.206 67.1994 29.2634 67.0646 29.3184 66.9336L29.3573 66.8407V66.8395C29.3852 66.7737 29.4129 66.7076 29.44 66.6422L29.4407 66.6404C29.4811 66.5421 29.5202 66.4442 29.5583 66.3488L29.5584 66.3485L15.9022 65.2695ZM30.7364 62.788C30.7364 62.7882 30.7363 62.7884 30.7362 62.7887L30.2528 62.6609L30.7367 62.7871C30.7366 62.7874 30.7365 62.7877 30.7364 62.788ZM25.3365 72.0538C26.4876 70.4126 27.4513 68.6961 28.231 66.9286L28.2329 66.9243L28.2329 66.9243C28.2755 66.8302 28.3169 66.7345 28.3582 66.6369V66.6329L28.3986 66.5386L25.3365 72.0538ZM25.3365 72.0538L25.3217 72.0428L25.0249 72.4513C23.3015 74.8234 19.9811 75.3494 17.609 73.626C15.3544 71.9869 14.7689 68.9077 16.1955 66.5698C16.1993 66.5646 16.2027 66.5596 16.2059 66.5548C16.2066 66.5537 16.2074 66.5526 16.2081 66.5515L25.3365 72.0538Z" fill="black" stroke="white"/>
<path d="M78.9384 29.5034C77.9311 26.4041 74.7514 24.6156 71.631 25.2806L71.6255 25.2157L71.0253 25.4125C70.8641 25.4654 70.7036 25.5164 70.5436 25.5633L70.533 25.5665L70.5225 25.57C67.6694 26.546 64.9135 27.9587 62.3473 29.8222L62.3472 29.8223C60.9961 30.8038 59.7495 31.8751 58.6061 33.0204L58.606 33.0205C57.4624 34.167 56.424 35.3877 55.4929 36.6699L55.0885 37.2268L55.7431 37.4393C58.7586 38.4181 61.9757 38.9504 65.3161 38.9504C66.9007 38.9504 68.4585 38.8315 69.9794 38.6014L69.9796 38.6014C71.4998 38.3705 72.983 38.0299 74.4215 37.5879C74.4396 37.5826 74.4553 37.5774 74.4658 37.5739C74.481 37.5687 74.4815 37.5685 74.4818 37.5684C74.4822 37.5682 74.4824 37.5681 74.4913 37.5652L74.4913 37.5652L74.4978 37.5629C74.7517 37.4736 75.0084 37.3906 75.2683 37.3118L75.2899 37.3052L75.3108 37.2968C78.3528 36.0653 79.9689 32.6739 78.9384 29.5034L78.4629 29.658L78.9384 29.5034Z" fill="black" stroke="white"/>
<path d="M16.0538 38.9512C19.3872 38.9512 22.5974 38.4211 25.608 37.4452L2.43921 29.4746C2.22899 30.1201 2.12891 30.7774 2.12891 31.4237C2.12891 34.0177 3.73912 36.4335 6.29304 37.3556L6.28606 37.3805L6.74779 37.5259C9.68554 38.4512 12.8111 38.9512 16.0538 38.9512ZM15.6257 27.6865C15.6256 27.6864 15.6256 27.6864 15.6255 27.6863L15.3844 28.1244L15.6257 27.6865ZM25.6085 37.445L26.2701 37.2357L25.8614 36.6742C25.3825 36.0162 24.8752 35.3715 24.3392 34.7458C24.3344 34.7401 24.3291 34.7338 24.3235 34.7271C24.3002 34.6993 24.2707 34.6639 24.2415 34.6311C24.1902 34.5713 24.1355 34.5096 24.0842 34.4517C24.0586 34.4227 24.0337 34.3947 24.0106 34.3683L24.0095 34.3671C23.9068 34.2509 23.8032 34.1347 23.6994 34.0194L23.6996 34.0193L23.6904 34.0096C23.6704 33.9886 23.654 33.9713 23.6371 33.9528C23.637 33.9527 23.6369 33.9527 23.6368 33.9526L25.6085 37.445Z" fill="black" stroke="white"/>
<path d="M55.3421 72.8231C55.3942 72.8974 55.4496 72.9763 55.5012 73.0472C55.5618 73.1312 55.6267 73.2169 55.687 73.2968C55.7138 73.3322 55.7396 73.3664 55.7638 73.3987L55.7727 73.4106L55.7822 73.4219C57.8959 75.923 61.6133 76.4059 64.3036 74.4504C66.0039 73.2157 66.9057 71.291 66.9057 69.3413C66.9057 68.2096 66.6003 67.0665 65.9704 66.045L66.0011 66.0214L65.7149 65.6272C64.7846 64.3458 63.7462 63.1271 62.6061 61.982L62.6056 61.9816C61.4612 60.8352 60.2134 59.7638 58.8604 58.7814C56.1627 56.8224 53.2546 55.3629 50.2457 54.383L49.5914 54.1699L49.5908 54.858C49.586 61.0369 51.4259 67.272 55.2482 72.69L55.2496 72.692C55.278 72.7319 55.3094 72.7766 55.3421 72.8231Z" fill="black" stroke="white"/>
<path d="M46.9936 7.55255L46.9938 7.56778C46.9944 7.61271 46.9952 7.66036 46.9961 7.70945C46.9978 7.80565 46.9996 7.90735 46.9996 8.00477C46.9996 8.1023 46.9978 8.20448 46.9961 8.30105C46.9952 8.35018 46.9944 8.39785 46.9938 8.44273L46.9938 8.44338C46.9011 15.0731 44.7241 21.199 41.0887 26.1953L40.6844 26.751L40.2801 26.1953C36.5648 21.0889 34.3701 14.8031 34.3701 8.00573V7.50573H34.4126C34.5339 5.96304 35.2111 4.57513 36.241 3.5444L46.9936 7.55255ZM46.9936 7.55255L46.9925 7.53736M46.9936 7.55255L46.9925 7.53736M46.9925 7.53736C46.7518 4.27272 44.0304 1.69629 40.7027 1.69629M46.9925 7.53736L40.7027 1.69629M40.7027 1.69629C38.9603 1.69629 37.3822 2.40198 36.241 3.54437L40.7027 1.69629Z" fill="black" stroke="white"/>
</g>
<defs>
<clipPath id="clip0_543_3842">
<rect width="380" height="76" fill="white" transform="translate(0.5 0.67627)"/>
</clipPath>
</defs>
</svg>
