<?xml version="1.0" encoding="UTF-8"?>
<svg id="Layer_1" data-name="Layer 1" xmlns="http://www.w3.org/2000/svg" version="1.1" viewBox="0 0 99.2 99.2">
  <defs>
    <style>
      .cls-1 {
        fill: #3544b1;
        stroke-width: 0px;
      }
    </style>
  </defs>
  <path class="cls-1" d="M7,49.6c0-23.5,19.1-42.6,42.6-42.5,23.5,0,42.6,19.1,42.5,42.6,0,23.5-19.1,42.5-42.6,42.5-23.5,0-42.6-19.1-42.6-42.6h0ZM48.7,64.1c-3.3,0-6.6-.2-9.8-.9-2.4-.5-4.4-2.1-5.4-4.3-1-2.2-1.4-5.6-1.4-10.3,0-2.4.2-4.8.5-7.2.3-2.3.6-4.3.8-5.8l.3-1.5s0,0,0-.1c0-.4-.3-.8-.7-.9l-5.5-.9h-.1c-.4,0-.7.3-.8.7,0,.3-.1.6-.3,1.5-.3,1.6-.6,3.2-.9,5.5-.3,2.5-.5,5-.6,7.5-.1,1.8-.1,3.5,0,5.3.1,4.7.9,8.4,2.4,11.2,1.5,2.8,4,4.8,7.5,6,3.5,1.2,8.4,1.8,14.7,1.8h.8c6.3,0,11.2-.6,14.7-1.8s6-3.2,7.5-6c1.5-2.8,2.3-6.5,2.4-11.2.1-1.8.1-3.5,0-5.3,0-2.5-.3-5-.6-7.5-.3-2.3-.6-3.8-.9-5.5-.2-.8-.2-1.1-.3-1.5,0-.4-.4-.7-.8-.7h-.1l-5.5.9c-.4,0-.7.4-.7.9,0,0,0,0,0,.1l.3,1.5c.3,1.5.6,3.4.8,5.8.3,2.4.4,4.8.4,7.2,0,4.6-.4,8-1.4,10.3-1,2.2-3,3.8-5.3,4.3-3.2.7-6.5,1-9.8.9h-1.8Z"/>
</svg>