<svg preserveAspectRatio="none" viewBox="0 0 2000 1600" fill="none" xmlns="http://www.w3.org/2000/svg">
  <g clip-path="url(#clip0_526_411)">
    <rect width="2000" height="1600" fill="white" />
    <rect width="2000" height="1600" fill="url(#paint0_linear_526_411)" />
    <g opacity="0.12" filter="url(#filter0_f_526_411)">
      <path d="M260.151 454.828C504.826 452.498 857.663 545.281 905 872.793C952.337 1200.31 636.431 980.665 390.5 1180C144.569 1379.33 -263.795 1081.76 -263.795 872.793C-263.796 663.828 15.4759 457.157 260.151 454.828Z" fill="#0084FF" />
    </g>
    <g opacity="0.22" filter="url(#filter1_f_526_411)">
      <path d="M1347.1 -88.4023C1591.72 -295.732 1975.66 -451.427 2159.41 -70.6025C2343.15 310.222 2184.09 705.444 1895.59 593.86C1607.08 482.277 1661.38 1086.47 1218.75 851.061C776.123 615.655 1102.47 118.927 1347.1 -88.4023Z" fill="#A2F1E4" />
    </g>
    <g opacity="0.7" filter="url(#filter2_f_526_411)">
      <path d="M1268.37 561.893C1381.4 481.807 1558.79 421.667 1643.69 568.768C1728.58 715.869 1655.09 868.531 1521.79 825.43C1388.49 782.329 1413.58 1015.71 1209.07 924.779C1004.56 833.849 1155.35 641.978 1268.37 561.893Z" fill="#A5FFE4" />
    </g>
    <g opacity="0.5" filter="url(#filter3_f_526_411)">
      <path d="M2133.12 179.186C2161.81 348.153 2124.99 546.832 1887.82 463.453C1650.64 380.075 1506.42 168.145 1644.3 108.439C1782.18 48.7322 1475.02 -168.6 1717.52 -235.037C1960.03 -301.473 2104.44 10.2194 2133.12 179.186Z" fill="white" />
    </g>
    <g opacity="0.08" filter="url(#filter4_f_526_411)">
      <path d="M1466.84 1296.66C1396.74 1242.49 1210.91 1354.86 1227.93 1189.9C1244.95 1024.94 1404.66 1079.73 1518.79 972.287C1632.92 864.847 1715.98 1009.02 1699.44 1146.62C1682.9 1284.21 1536.94 1350.82 1466.84 1296.66Z" fill="#0084FF" />
    </g>
    <g opacity="0.9" filter="url(#filter5_f_526_411)">
      <path d="M739.65 364.398C903.748 388.321 907.259 463.375 916.37 575.065C925.48 686.756 1134.68 786.909 970.738 913.144C806.799 1039.38 594.52 343.24 739.65 364.398Z" fill="white" />
    </g>
    <g opacity="0.38" filter="url(#filter6_f_526_411)">
      <path d="M530.368 1240.95C441.953 1303.75 267.81 1398.82 293.162 1240.95C318.514 1083.08 441.364 1050.5 553.953 941.751C666.541 833.002 758.614 1040.86 735.283 1172.67C711.951 1304.49 618.783 1178.14 530.368 1240.95Z" fill="#ACD7FF" />
    </g>
    <g opacity="0.6" filter="url(#filter7_f_526_411)">
      <path d="M41.207 156.986C302.135 412.311 532.005 255.997 550.845 460.366C569.685 664.736 195.352 568.003 68.4703 662.706C-58.4113 757.41 -207.137 542.281 -219.687 372.686C-232.237 203.091 -219.721 -98.3382 41.207 156.986Z" fill="#D7F9EE" />
    </g>
    <rect x="2000" y="1600" width="2000" height="760" transform="rotate(-180 2000 1600)" fill="url(#paint1_linear_526_411)" />
  </g>
  <defs>
    <filter id="filter0_f_526_411" x="-763.795" y="-45.2151" width="2173.55" height="1791.03" filterUnits="userSpaceOnUse" color-interpolation-filters="sRGB">
      <feFlood flood-opacity="0" result="BackgroundImageFix" />
      <feBlend mode="normal" in="SourceGraphic" in2="BackgroundImageFix" result="shape" />
      <feGaussianBlur stdDeviation="250" result="effect1_foregroundBlur_526_411" />
    </filter>
    <filter id="filter1_f_526_411" x="500" y="-803" width="2238" height="2209" filterUnits="userSpaceOnUse" color-interpolation-filters="sRGB">
      <feFlood flood-opacity="0" result="BackgroundImageFix" />
      <feBlend mode="normal" in="SourceGraphic" in2="BackgroundImageFix" result="shape" />
      <feGaussianBlur stdDeviation="250" result="effect1_foregroundBlur_526_411" />
    </filter>
    <filter id="filter2_f_526_411" x="758" y="129" width="1272" height="1167" filterUnits="userSpaceOnUse" color-interpolation-filters="sRGB">
      <feFlood flood-opacity="0" result="BackgroundImageFix" />
      <feBlend mode="normal" in="SourceGraphic" in2="BackgroundImageFix" result="shape" />
      <feGaussianBlur stdDeviation="175" result="effect1_foregroundBlur_526_411" />
    </filter>
    <filter id="filter3_f_526_411" x="1240.59" y="-594.181" width="1250.88" height="1427.27" filterUnits="userSpaceOnUse" color-interpolation-filters="sRGB">
      <feFlood flood-opacity="0" result="BackgroundImageFix" />
      <feBlend mode="normal" in="SourceGraphic" in2="BackgroundImageFix" result="shape" />
      <feGaussianBlur stdDeviation="175" result="effect1_foregroundBlur_526_411" />
    </filter>
    <filter id="filter4_f_526_411" x="916.834" y="624.831" width="1094.71" height="1000.65" filterUnits="userSpaceOnUse" color-interpolation-filters="sRGB">
      <feFlood flood-opacity="0" result="BackgroundImageFix" />
      <feBlend mode="normal" in="SourceGraphic" in2="BackgroundImageFix" result="shape" />
      <feGaussianBlur stdDeviation="155" result="effect1_foregroundBlur_526_411" />
    </filter>
    <filter id="filter5_f_526_411" x="381.281" y="53.925" width="961.987" height="1184.54" filterUnits="userSpaceOnUse" color-interpolation-filters="sRGB">
      <feFlood flood-opacity="0" result="BackgroundImageFix" />
      <feBlend mode="normal" in="SourceGraphic" in2="BackgroundImageFix" result="shape" />
      <feGaussianBlur stdDeviation="155" result="effect1_foregroundBlur_526_411" />
    </filter>
    <filter id="filter6_f_526_411" x="-9.33301" y="611.338" width="1048.26" height="1015.9" filterUnits="userSpaceOnUse" color-interpolation-filters="sRGB">
      <feFlood flood-opacity="0" result="BackgroundImageFix" />
      <feBlend mode="normal" in="SourceGraphic" in2="BackgroundImageFix" result="shape" />
      <feGaussianBlur stdDeviation="150" result="effect1_foregroundBlur_526_411" />
    </filter>
    <filter id="filter7_f_526_411" x="-532.889" y="-251.666" width="1394.42" height="1247.56" filterUnits="userSpaceOnUse" color-interpolation-filters="sRGB">
      <feFlood flood-opacity="0" result="BackgroundImageFix" />
      <feBlend mode="normal" in="SourceGraphic" in2="BackgroundImageFix" result="shape" />
      <feGaussianBlur stdDeviation="155" result="effect1_foregroundBlur_526_411" />
    </filter>
    <linearGradient id="paint0_linear_526_411" x1="1000" y1="0" x2="1000" y2="1600" gradientUnits="userSpaceOnUse">
      <stop stop-color="#D7F9EE" />
      <stop offset="1" stop-color="#EEFCF7" stop-opacity="0" />
    </linearGradient>
    <linearGradient id="paint1_linear_526_411" x1="3000" y1="1600" x2="3000" y2="2360" gradientUnits="userSpaceOnUse">
      <stop stop-color="white" />
      <stop offset="1" stop-color="white" stop-opacity="0" />
    </linearGradient>
    <clipPath id="clip0_526_411">
      <rect width="2000" height="1600" fill="white" />
    </clipPath>
  </defs>
</svg>
    