<svg width="791" height="55" viewBox="0 0 791 55" fill="none" xmlns="http://www.w3.org/2000/svg">
  <path d="M763.315 55L613.13 55C597.942 55 585.63 42.6879 585.63 27.5C585.63 12.3122 597.942 4.3869e-05 613.13 4.00543e-05L763.315 0C778.503 -3.8147e-06 790.815 12.3122 790.815 27.5C790.815 42.6878 778.503 55 763.315 55Z" fill="url(#paint0_linear_549_316)" />
  <path d="M470.779 55.0001L320.594 55.0001C305.406 55.0001 293.094 42.688 293.094 27.5001C293.094 12.3123 305.406 0.000133514 320.594 0.000127792L470.779 8.96454e-05C485.967 8.39233e-05 498.279 12.3122 498.279 27.5001C498.279 42.6879 485.967 55.0001 470.779 55.0001Z" fill="url(#paint1_linear_549_316)" />
  <path d="M178.243 55.0002L28.0581 55.0002C12.8703 55.0002 0.55812 42.6881 0.558105 27.5002C0.558105 12.3124 12.8703 0.000221252 28.0581 0.00021553L178.243 0.000177383C193.431 0.000171661 205.743 12.3123 205.743 27.5002C205.743 42.688 193.431 55.0002 178.243 55.0002Z" fill="url(#paint2_linear_549_316)" />
  <defs>
    <linearGradient id="paint0_linear_549_316" x1="791" y1="28" x2="-36" y2="28.0002" gradientUnits="userSpaceOnUse">
      <stop stop-color="#CFE7FF" />
      <stop offset="1" stop-color="#C5F9EF" />
    </linearGradient>
    <linearGradient id="paint1_linear_549_316" x1="791" y1="28" x2="-36" y2="28.0002" gradientUnits="userSpaceOnUse">
      <stop stop-color="#CFE7FF" />
      <stop offset="1" stop-color="#C5F9EF" />
    </linearGradient>
    <linearGradient id="paint2_linear_549_316" x1="791" y1="28" x2="-36" y2="28.0002" gradientUnits="userSpaceOnUse">
      <stop stop-color="#CFE7FF" />
      <stop offset="1" stop-color="#C5F9EF" />
    </linearGradient>
  </defs>
</svg>
  