<svg width="145" height="238" viewBox="0 0 145 238" fill="none" xmlns="http://www.w3.org/2000/svg">
<path fill-rule="evenodd" clip-rule="evenodd" d="M132.263 0.00761379C132.222 0.0787404 127.59 8.17097 129.491 14.2166C131.397 20.2761 144.426 25.6939 144.48 25.7166L141.659 33.1463C141.629 33.1425 135.759 32.411 132.263 39.3973C123.106 57.6919 139.062 111.11 139.062 111.11C138.984 111.265 124.624 139.591 120 165.008C119.709 166.365 119.171 168.268 118.347 170.596C114.063 185.857 103.767 200.358 93.5605 211.84C86.8678 219.369 80.1766 225.641 75.1602 230.03C72.6515 232.225 70.5602 233.951 69.0947 235.129C68.3622 235.717 67.7855 236.169 67.3916 236.474C67.1948 236.627 67.0429 236.743 66.9404 236.821C66.8894 236.86 66.8506 236.89 66.8242 236.91C66.8112 236.92 66.8007 236.927 66.7939 236.932C66.7907 236.935 66.7879 236.937 66.7861 236.938L66.7842 236.94L66.4648 236.515L66.4639 236.516L66.7832 236.941C66.5167 237.141 66.1493 237.141 65.8828 236.941L65.9189 236.891C65.8884 236.932 65.8828 236.941 65.8828 236.941L65.8799 236.938C65.8781 236.937 65.8751 236.935 65.8721 236.932C65.8653 236.927 65.8555 236.92 65.8428 236.91C65.8164 236.89 65.7767 236.86 65.7256 236.821C65.6232 236.743 65.4711 236.627 65.2744 236.474C64.8806 236.169 64.3045 235.717 63.5723 235.129C62.1068 233.951 60.0145 232.225 57.5059 230.03C52.4895 225.641 45.799 219.369 39.1064 211.84C25.756 196.82 12.2502 176.637 12.25 156.341C12.25 153.777 12.4323 151.233 12.7891 148.724C13.4256 140.204 12.895 134.145 12.043 130.786C10.497 124.693 0.051114 119.372 0 119.346C5.14002 108.887 13.4083 103.79 32.9551 103.336C55.5238 102.811 75.5826 100.426 89.4961 90.4549C103.409 80.4827 105.511 34.4613 109.871 16.7859C114.227 -0.874033 132.231 0.00607332 132.263 0.00761379ZM66.333 135.591C54.8732 135.591 45.583 144.881 45.583 156.341C45.5832 167.8 54.8733 177.09 66.333 177.091C77.7928 177.091 87.0828 167.8 87.083 156.341C87.083 144.881 77.7929 135.591 66.333 135.591Z" fill="#EC4815"/>
</svg>
