<svg preserveAspectRatio="xMinYMin slice" viewBox="0 0 1500 600" fill="none" xmlns="http://www.w3.org/2000/svg">
<g clip-path="url(#clip0)">
<g opacity="0.12" filter="url(#filter0_f)">
<path d="M-223.271 209.15C-299.187 219.757 -295.116 301.47 -283.592 341H251.939C268.417 245.538 182.055 232.476 136.447 242.297C125.854 199.87 82.5014 193.682 62.1493 195.892C45.23 -47.921 -247.546 80.2453 -223.271 209.15Z" fill="url(#paint0_linear)"/>
</g>
<g opacity="0.06" filter="url(#filter1_f)">
<path d="M799.914 269.433C869.41 274.305 865.684 311.841 855.134 330H364.887C349.802 286.148 428.861 280.148 470.613 284.659C480.31 265.17 519.997 262.327 538.628 263.342C554.117 151.344 822.136 210.219 799.914 269.433Z" fill="url(#paint1_linear)"/>
</g>
<g opacity="0.12" filter="url(#filter2_f)">
<path d="M432.891 428.508C567.079 377.234 602.209 474.138 603 529H20.6738C-5.43599 479.941 32.5416 453.829 66.5636 479.941C42.036 398.44 166.255 402.923 231.134 421.386C242.211 367.579 290.474 344.632 307.881 415.056C389.533 366.314 425.243 403.715 432.891 428.508Z" fill="url(#paint2_linear)"/>
</g>
<g opacity="0.12" filter="url(#filter3_f)">
<path d="M1276.73 209.15C1200.81 219.757 1204.88 301.47 1216.41 341H1751.94C1768.42 245.538 1682.06 232.476 1636.45 242.297C1625.85 199.87 1582.5 193.682 1562.15 195.892C1545.23 -47.921 1252.45 80.2453 1276.73 209.15Z" fill="url(#paint3_linear)"/>
</g>
</g>
<defs>
<filter id="filter0_f" x="-300" y="48" width="564" height="303" filterUnits="userSpaceOnUse" color-interpolation-filters="sRGB">
<feFlood flood-opacity="0" result="BackgroundImageFix"/>
<feBlend mode="normal" in="SourceGraphic" in2="BackgroundImageFix" result="shape"/>
<feGaussianBlur stdDeviation="5" result="effect1_foregroundBlur"/>
</filter>
<filter id="filter1_f" x="353" y="190" width="518" height="150" filterUnits="userSpaceOnUse" color-interpolation-filters="sRGB">
<feFlood flood-opacity="0" result="BackgroundImageFix"/>
<feBlend mode="normal" in="SourceGraphic" in2="BackgroundImageFix" result="shape"/>
<feGaussianBlur stdDeviation="5" result="effect1_foregroundBlur"/>
</filter>
<filter id="filter2_f" x="2" y="361" width="611" height="178" filterUnits="userSpaceOnUse" color-interpolation-filters="sRGB">
<feFlood flood-opacity="0" result="BackgroundImageFix"/>
<feBlend mode="normal" in="SourceGraphic" in2="BackgroundImageFix" result="shape"/>
<feGaussianBlur stdDeviation="5" result="effect1_foregroundBlur"/>
</filter>
<filter id="filter3_f" x="1200" y="48" width="564" height="303" filterUnits="userSpaceOnUse" color-interpolation-filters="sRGB">
<feFlood flood-opacity="0" result="BackgroundImageFix"/>
<feBlend mode="normal" in="SourceGraphic" in2="BackgroundImageFix" result="shape"/>
<feGaussianBlur stdDeviation="5" result="effect1_foregroundBlur"/>
</filter>
<linearGradient id="paint0_linear" x1="-18" y1="58" x2="-18" y2="341" gradientUnits="userSpaceOnUse">
<stop stop-color="white"/>
<stop offset="1" stop-color="white" stop-opacity="0.3"/>
</linearGradient>
<linearGradient id="paint1_linear" x1="612" y1="200" x2="612" y2="330" gradientUnits="userSpaceOnUse">
<stop stop-color="white"/>
<stop offset="1" stop-color="white" stop-opacity="0.3"/>
</linearGradient>
<linearGradient id="paint2_linear" x1="307.5" y1="371" x2="307.5" y2="529" gradientUnits="userSpaceOnUse">
<stop stop-color="white"/>
<stop offset="1" stop-color="white" stop-opacity="0.3"/>
</linearGradient>
<linearGradient id="paint3_linear" x1="1482" y1="58" x2="1482" y2="341" gradientUnits="userSpaceOnUse">
<stop stop-color="white"/>
<stop offset="1" stop-color="white" stop-opacity="0.3"/>
</linearGradient>
<clipPath id="clip0">
<rect width="1500" height="600" fill="white"/>
</clipPath>
</defs>
</svg>
