<svg viewBox="0 0 32 32" fill="none" xmlns="http://www.w3.org/2000/svg">
<path d="M23.3698 19.4793V11.5967C23.3645 9.8301 22.2367 7.2 19.151 7.2V5L14.9427 8.3L19.151 11.6V9.4C21.0752 9.4 21.2562 11.0929 21.2657 11.6V19.4793C19.7507 19.9567 18.6355 21.412 18.6355 23.15C18.6355 25.273 20.2872 27 22.3177 27C24.3482 27 26 25.273 26 23.15C26 21.412 24.8848 19.9567 23.3698 19.4793ZM22.3177 24.8C21.4477 24.8 20.7396 24.0597 20.7396 23.15C20.7396 22.2403 21.4477 21.5 22.3177 21.5C23.1878 21.5 23.8958 22.2403 23.8958 23.15C23.8958 24.0597 23.1878 24.8 22.3177 24.8ZM13.3645 8.85C13.3645 6.727 11.7128 5 9.68227 5C7.65176 5 6 6.727 6 8.85C6 10.588 7.1152 12.0433 8.63019 12.5207V19.4793C7.1152 19.9567 6 21.412 6 23.15C6 25.273 7.65176 27 9.68227 27C11.7128 27 13.3645 25.273 13.3645 23.15C13.3645 21.412 12.2493 19.9567 10.7344 19.4793V12.5207C12.2493 12.0433 13.3645 10.588 13.3645 8.85ZM8.10416 8.85C8.10416 7.9403 8.8122 7.2 9.68227 7.2C10.5523 7.2 11.2604 7.9403 11.2604 8.85C11.2604 9.7597 10.5523 10.5 9.68227 10.5C8.8122 10.5 8.10416 9.7597 8.10416 8.85ZM11.2604 23.15C11.2604 24.0597 10.5523 24.8 9.68227 24.8C8.8122 24.8 8.10416 24.0597 8.10416 23.15C8.10416 22.2403 8.8122 21.5 9.68227 21.5C10.5523 21.5 11.2604 22.2403 11.2604 23.15Z" fill="inherit"/>
</svg>
