<svg
  viewBox="0 0 183 40"
  fill="none"
  xmlns="http://www.w3.org/2000/svg"
>
  <path
    d="M49.78 12V16.47H55.72V33H61.69V16.47H67.63V12H49.78Z"
    fill="#EC4815"
  />
  <path
    d="M72.4474 9.78003V14.16H78.3274V9.78003H72.4474ZM69.7774 20.64H72.8374V33H78.2974V16.2H69.7774V20.64Z"
    fill="#EC4815"
  />
  <path
    d="M88.5635 18.42V16.2H83.6135V33H89.0735V23.52C89.0735 21.24 90.1235 20.31 92.0135 20.31C93.6935 20.31 94.7135 21.15 94.7135 22.98V33H100.173V21.36C100.173 17.28 97.5635 15.6 94.1135 15.6C90.8135 15.6 89.6435 16.74 89.1035 18.42H88.5635Z"
    fill="#EC4815"
  />
  <path
    d="M115.651 30.45V33H122.251V28.62H120.361V21.06C120.361 17.7 117.781 15.6 112.561 15.6C107.581 15.6 105.271 18.03 105.061 21.42H110.281C110.371 20.25 111.271 19.56 112.801 19.56C114.601 19.56 115.141 20.49 115.141 21.24V21.57C115.141 22.08 114.871 22.65 113.821 22.83L109.081 23.58C105.901 24.09 104.191 25.77 104.191 28.65C104.191 31.56 106.111 33.42 109.861 33.42C112.411 33.42 114.481 32.07 115.351 30.45H115.651ZM115.141 26.46C115.141 28.26 114.061 29.73 111.931 29.73C110.491 29.73 109.771 29.16 109.771 28.05C109.771 27.12 110.251 26.55 111.241 26.31L113.461 25.77C114.121 25.62 114.541 25.38 114.841 25.05H115.141V26.46Z"
    fill="#EC4815"
  />
  <path
    d="M141.474 18.84C141.294 14.34 138.894 11.4 133.764 11.4C127.404 11.4 125.574 15.96 125.574 22.5C125.574 29.25 127.164 33.6 133.914 33.6C139.254 33.6 141.594 30.3 141.654 26.04H138.384C138.324 28.89 136.884 30.9 133.974 30.9C130.284 30.9 128.904 28.08 128.904 22.5C128.904 16.92 130.164 14.04 133.794 14.04C136.524 14.04 138.024 15.84 138.144 18.84H141.474Z"
    fill="#EC4815"
  />
  <path
    d="M154.665 25.2L157.635 20.34C158.265 19.35 159.585 17.04 159.795 16.62H160.155C160.095 17.79 160.065 19.11 160.065 19.8V33H163.245V12H159.525L155.385 18.69C154.905 19.41 154.545 20.07 154.425 20.37H154.065C153.945 20.07 153.615 19.41 153.135 18.72L148.965 12H145.245V33H148.485V19.8C148.485 18.78 148.455 17.79 148.365 16.62H148.725C149.025 17.16 150.345 19.5 150.885 20.34L153.855 25.2H154.665Z"
    fill="#EC4815"
  />
  <path
    d="M182.124 17.76C181.614 13.68 178.974 11.4 174.504 11.4C170.634 11.4 167.514 13.71 167.454 17.64C167.454 20.82 169.554 22.56 172.074 23.22L176.424 24.42C178.674 25.02 179.214 26.43 179.214 27.84C179.214 30.12 177.354 30.99 175.014 30.99C172.344 30.99 170.934 29.64 170.604 27.24H167.034C167.394 30.96 169.614 33.6 174.924 33.6C180.414 33.6 182.514 30.84 182.574 27.27C182.574 24.15 180.684 22.23 177.744 21.45L173.334 20.28C171.144 19.71 170.694 18.48 170.694 17.07C170.754 15.36 172.134 13.86 174.474 13.89C177.624 13.92 178.404 15.84 178.674 17.76H182.124Z"
    fill="#EC4815"
  />
  <path
    d="M18.5071 17.7516C20.4488 16.1457 21.3094 6.65273 22.15 3.24037C22.9912 -0.17139 26.4676 0.000963018 26.4676 0.000963018C26.4676 0.000963018 25.5653 1.57214 25.9329 2.74449C26.3012 3.91685 28.8235 4.96449 28.8235 4.96449L28.2794 6.39861C28.2794 6.39861 27.1441 6.25332 26.4676 7.60567C25.7912 8.95743 26.9024 22.3457 26.9024 22.3457C26.9024 22.3457 22.8394 30.3592 22.8394 33.7421C22.8394 37.1257 24.4412 39.961 24.4412 39.961H22.1941C22.1941 39.961 18.8971 36.0374 18.2212 34.0774C17.5447 32.1168 17.8153 30.1563 17.8153 30.1563C17.8153 30.1563 14.2324 29.9533 11.0547 30.1563C7.87765 30.3592 5.75824 33.0904 5.37588 34.618C4.99353 36.1463 4.83471 39.961 4.83471 39.961H3.05882C1.97706 36.6233 1.11765 35.4274 1.58412 33.7421C2.87471 29.0745 2.62118 26.4268 2.32235 25.248C2.02353 24.0686 0 23.0398 0 23.0398C0.991176 21.0204 2.00294 20.0498 6.35471 19.9486C10.7065 19.8474 16.5647 19.358 18.5065 17.7516H18.5071Z"
    fill="#EB5729"
  />
  <path
    d="M7.20593 33.5471C7.20593 33.5471 7.66476 37.7959 10.1042 39.9612H12.1948C10.1042 37.593 9.87652 31.4207 9.87652 31.4207C8.81299 31.7671 7.34123 33.0065 7.20593 33.5471Z"
    fill="#EB5729"
  />
</svg>