<svg viewBox="0 0 474 190" fill="none" xmlns="http://www.w3.org/2000/svg">
<path d="M169.691 91.9547V107.795H197.015V184.355H217.739V107.795H245.063V91.9547H169.691Z" fill="#EC4815"/>
<path d="M264.765 83.2427V100.007H286.281V83.2427H264.765ZM253.413 126.011H267.273V184.355H286.149V110.435H253.413V126.011Z" fill="#EC4815"/>
<path d="M328.339 120.995V110.435H311.047V184.355H330.055V141.851C330.055 130.367 335.599 124.295 345.631 124.295C355.663 124.295 359.887 129.575 359.887 139.211V184.355H378.895V133.403C378.895 115.451 367.807 107.795 352.891 107.795C338.767 107.795 332.959 113.075 330.319 120.995H328.339Z" fill="#EC4815"/>
<path d="M447.58 172.343V184.355H473.056V168.911H464.212V131.951C464.212 117.299 454.444 107.795 432.664 107.795C412.336 107.795 402.304 118.355 401.248 132.347H419.596C420.388 126.011 425.008 121.919 433.588 121.919C443.356 121.919 445.996 127.331 445.996 131.819V133.799C445.996 136.571 444.808 138.815 439.264 139.871L419.2 143.171C405.736 145.283 397.816 152.543 397.816 165.347C397.816 177.755 406.396 186.071 421.708 186.071C433.456 186.071 442.432 180.263 446.26 172.343H447.58ZM445.996 155.843C445.996 164.819 439.66 172.607 428.572 172.607C421.048 172.607 417.22 169.439 417.22 163.367C417.22 157.955 419.992 154.919 426.064 153.467L437.944 150.827C440.98 150.167 443.356 149.243 444.676 147.791H445.996V155.843Z" fill="#EC4815"/>
<path d="M87.9637 84.4033C97.1946 76.7661 101.285 31.6317 105.281 15.4079C109.276 -0.815879 125.802 0.00697925 125.802 0.00697925C125.802 0.00697925 121.512 7.47591 123.262 13.0496C125.012 18.6233 137 23.6054 137 23.6054L134.414 30.4241C134.414 30.4241 129.015 29.7333 125.802 36.1621C122.589 42.5909 129.827 105.593 129.827 105.593C129.827 105.593 108.557 144.346 108.557 160.432C108.557 176.518 116.169 190 116.169 190H105.488C105.488 190 89.8193 171.347 86.606 162.026C83.3926 152.704 84.6775 143.382 84.6775 143.382C84.6775 143.382 67.6462 142.418 52.5439 143.382C37.4415 144.346 27.3698 157.333 25.5521 164.597C23.7344 171.862 22.9814 190 22.9814 190H14.5361C9.39589 174.132 5.31343 168.445 7.52815 160.432C13.6627 138.239 12.4577 125.651 11.0373 120.045C9.61695 114.439 0 109.545 0 109.545C4.71089 99.9447 9.51954 95.3312 30.204 94.85C50.8884 94.3688 78.7329 92.0406 87.9637 84.4033Z" fill="#EC4815"/>
<path d="M32.6617 159.503C32.6617 159.503 34.8441 179.705 46.4379 190H56.3736C46.4379 178.741 45.3545 149.392 45.3545 149.392C40.3009 151.038 33.9682 156.501 32.6617 159.503Z" fill="#EC4815"/>
</svg>
