<svg width="160" height="44.944" viewBox="0 0 160 44.944" fill="none" xmlns="http://www.w3.org/2000/svg"><path d="M150.395 42.022c-6.708 0 -9.472 -3.675 -9.472 -10.112s2.764 -10.112 9.472 -10.112c6.674 0 9.438 3.675 9.438 10.112s-2.764 10.112 -9.438 10.112m0 -15.506c-2.528 0 -3.606 1.551 -3.606 5.393s1.079 5.393 3.606 5.393c2.494 0 3.572 -1.551 3.572 -5.393s-1.079 -5.393 -3.572 -5.393" fill="#EC4815"/><path d="M129.759 15.259h6.606v4.922h-6.606zm-3.001 12.203v-4.99h9.572v18.877h-6.134v-13.888z" fill="#EC4815"/><path d="M116.206 35.753h6.471v5.596h-6.471z" fill="#EC4815"/><path d="M104.484 38.483h-0.337c-0.977 1.821 -3.303 3.337 -6.167 3.337 -4.213 0 -6.37 -2.09 -6.37 -5.359 0 -3.236 1.921 -5.123 5.494 -5.697l5.326 -0.843c1.179 -0.203 1.484 -0.843 1.484 -1.417v-0.371c0 -0.843 -0.607 -1.888 -2.629 -1.888 -1.719 0 -2.731 0.775 -2.831 2.09h-5.866c0.236 -3.809 2.831 -6.539 8.428 -6.539 5.866 0 8.764 2.361 8.764 6.134v8.494h2.124v4.922h-7.417zm-0.574 -4.483V32.416H103.573c-0.337 0.371 -0.809 0.64 -1.551 0.809l-2.494 0.607c-1.113 0.27 -1.651 0.91 -1.651 1.955 0 1.247 0.809 1.888 2.428 1.888 2.393 0 3.606 -1.651 3.606 -3.675" fill="#EC4815"/><path d="M74.386 24.966h0.607c0.607 -1.888 1.921 -3.169 5.63 -3.169 3.877 0 6.809 1.888 6.809 6.471v13.078h-6.134V30.09c0 -2.055 -1.147 -3.001 -3.034 -3.001 -2.124 0 -3.303 1.045 -3.303 3.606v10.652h-6.135V22.471h5.562z" fill="#EC4815"/><path d="M56.615 15.259h6.606v4.922h-6.606zm-3.001 12.203v-4.99h9.572v18.877h-6.134v-13.888z" fill="#EC4815"/><path d="M50.449 22.471v4.989h-4.786v7.078c0 1.584 0.574 2.191 2.629 2.191 0.708 0 1.584 -0.068 2.428 -0.135v4.922c-0.91 0.203 -2.393 0.438 -4.247 0.438 -5.866 0 -6.944 -3.371 -6.944 -5.967v-8.528h-3.034v-4.988h3.034v-3.001l5.797 -2.663h0.337v5.663z" fill="#EC4815"/><path d="M20.46 19.584c3.012 -2.159 3.468 -12.123 4.412 -15.95S29.719 0.002 29.719 0.002s-1.013 1.761 -0.601 3.076 3.245 2.49 3.245 2.49l-0.61 1.607s-1.276 -0.162 -2.034 1.354c-1.983 3.961 1.473 15.526 1.473 15.526s-5.547 7.866 -5.547 13.788c0 3.794 1.798 6.974 1.798 6.974h-2.525s-3.701 -4.4 -4.461 -6.598 -0.455 -4.398 -0.455 -4.398 -4.023 -0.227 -7.591 0 -5.947 3.291 -6.377 5.004 -0.607 5.991 -0.607 5.991h-1.995c-1.215 -3.743 -2.178 -5.085 -1.655 -6.975 1.45 -5.234 1.165 -8.204 0.829 -9.526S0 25.84 0 25.84c1.113 -2.265 2.903 -3.367 7.135 -3.467 4.886 -0.113 10.311 -0.629 13.324 -2.789" fill="#EC4815"/></svg>