<svg width="160" height="45" viewBox="0 0 712 199" fill="none" xmlns="http://www.w3.org/2000/svg">
<path d="M669.255 187C639.405 187 627.105 170.65 627.105 142C627.105 113.35 639.405 97 669.255 97C698.955 97 711.255 113.35 711.255 142C711.255 170.65 698.955 187 669.255 187ZM669.255 118C658.005 118 653.205 124.9 653.205 142C653.205 159.1 658.005 166 669.255 166C680.355 166 685.155 159.1 685.155 142C685.155 124.9 680.355 118 669.255 118Z" fill="#EC4815"/>
<path d="M577.424 67.9H606.824V89.8H577.424V67.9ZM564.074 122.2V100H606.674V184H579.374V122.2H564.074Z" fill="#EC4815"/>
<path d="M517.117 159.1H545.917V184H517.117V159.1Z" fill="#EC4815"/>
<path d="M464.954 171.25H463.454C459.104 179.35 448.754 186.1 436.004 186.1C417.254 186.1 407.654 176.8 407.654 162.25C407.654 147.85 416.204 139.45 432.104 136.9L455.804 133.15C461.054 132.25 462.404 129.4 462.404 126.85V125.2C462.404 121.45 459.704 116.8 450.704 116.8C443.054 116.8 438.554 120.25 438.104 126.1H412.004C413.054 109.15 424.604 97 449.504 97C475.604 97 488.504 107.5 488.504 124.3V162.1H497.954V184H464.954V171.25ZM462.404 151.3V144.25H460.904C459.404 145.9 457.304 147.1 454.004 147.85L442.904 150.55C437.954 151.75 435.554 154.6 435.554 159.25C435.554 164.8 439.154 167.65 446.354 167.65C457.004 167.65 462.404 160.3 462.404 151.3Z" fill="#EC4815"/>
<path d="M331.016 111.1H333.716C336.416 102.7 342.266 97 358.766 97C376.016 97 389.066 105.4 389.066 125.8V184H361.766V133.9C361.766 124.75 356.666 120.55 348.266 120.55C338.816 120.55 333.566 125.2 333.566 136.6V184H306.266V100H331.016V111.1Z" fill="#EC4815"/>
<path d="M251.936 67.9H281.336V89.8H251.936V67.9ZM238.586 122.2V100H281.186V184H253.886V122.2H238.586Z" fill="#EC4815"/>
<path d="M224.5 100V122.2H203.2V153.7C203.2 160.75 205.75 163.45 214.9 163.45C218.05 163.45 221.95 163.15 225.7 162.85V184.75C221.65 185.65 215.05 186.7 206.8 186.7C180.7 186.7 175.9 171.7 175.9 160.15V122.2H162.4V100H175.9V86.65L201.7 74.8H203.2V100H224.5Z" fill="#EC4815"/>
<path d="M92.4582 88.1348C102.161 80.1599 106.46 33.0302 110.66 16.0891C114.86 -0.851949 132.23 0.0072878 132.23 0.0072878C132.23 0.0072878 127.721 7.80643 129.56 13.6265C131.399 19.4466 144 24.649 144 24.649L141.282 31.7692C141.282 31.7692 135.607 31.0478 132.23 37.7608C128.853 44.4739 136.461 110.261 136.461 110.261C136.461 110.261 114.104 150.728 114.104 167.525C114.104 184.322 122.105 198.4 122.105 198.4H110.878C110.878 198.4 94.4086 178.923 91.0311 169.189C87.6535 159.455 89.0041 149.721 89.0041 149.721C89.0041 149.721 71.1026 148.714 55.2286 149.721C39.3546 150.728 28.7683 164.289 26.8577 171.874C24.9471 179.46 24.1557 198.4 24.1557 198.4H15.2789C9.87597 181.83 5.58492 175.892 7.9128 167.525C14.3608 144.351 13.0942 131.207 11.6013 125.352C10.1083 119.498 0 114.388 0 114.388C4.9516 104.363 10.0059 99.5458 31.7473 99.0433C53.4886 98.5409 82.7557 96.1097 92.4582 88.1348Z" fill="#EC4815"/>
<path d="M34.3306 166.555C34.3306 166.555 36.6244 187.65 48.8107 198.4H59.254C48.8107 186.643 47.6718 155.997 47.6718 155.997C42.36 157.716 35.0061 163.869 34.3306 166.555Z" fill="#EC4815"/>
</svg>
