<svg viewBox="0 0 181 47" fill="none" xmlns="http://www.w3.org/2000/svg">
<path d="M47.7799 21V25.47H53.7199V42H59.6899V25.47H65.6299V21H47.7799Z" fill="#EC4815"/>
<path d="M70.4473 18.78V23.16H76.3272V18.78H70.4473ZM67.7773 29.64H70.8372V42H76.2972V25.2H67.7773V29.64Z" fill="#EC4815"/>
<path d="M86.5633 27.42V25.2H81.6133V42H87.0733V32.52C87.0733 30.24 88.1233 29.31 90.0133 29.31C91.6933 29.31 92.7133 30.15 92.7133 31.98V42H98.1733V30.36C98.1733 26.28 95.5633 24.6 92.1133 24.6C88.8133 24.6 87.6433 25.74 87.1033 27.42H86.5633Z" fill="#EC4815"/>
<path d="M113.651 39.45V42H120.251V37.62H118.361V30.06C118.361 26.7 115.781 24.6 110.561 24.6C105.581 24.6 103.271 27.03 103.061 30.42H108.281C108.371 29.25 109.271 28.56 110.801 28.56C112.601 28.56 113.141 29.49 113.141 30.24V30.57C113.141 31.08 112.871 31.65 111.821 31.83L107.081 32.58C103.901 33.09 102.191 34.77 102.191 37.65C102.191 40.56 104.111 42.42 107.861 42.42C110.411 42.42 112.481 41.07 113.351 39.45H113.651ZM113.141 35.46C113.141 37.26 112.061 38.73 109.931 38.73C108.491 38.73 107.771 38.16 107.771 37.05C107.771 36.12 108.251 35.55 109.241 35.31L111.461 34.77C112.121 34.62 112.541 34.38 112.841 34.05H113.141V35.46Z" fill="#EC4815"/>
<path d="M139.474 27.84C139.294 23.34 136.893 20.4 131.763 20.4C125.403 20.4 123.574 24.96 123.574 31.5C123.574 38.25 125.163 42.6 131.913 42.6C137.254 42.6 139.594 39.3 139.654 35.04H136.383C136.324 37.89 134.884 39.9 131.974 39.9C128.284 39.9 126.904 37.08 126.904 31.5C126.904 25.92 128.164 23.04 131.794 23.04C134.524 23.04 136.023 24.84 136.144 27.84H139.474Z" fill="#EC4815"/>
<path d="M152.665 34.2L155.635 29.34C156.265 28.35 157.585 26.04 157.795 25.62H158.155C158.095 26.79 158.065 28.11 158.065 28.8V42H161.245V21H157.525L153.385 27.69C152.905 28.41 152.545 29.07 152.425 29.37H152.065C151.945 29.07 151.615 28.41 151.135 27.72L146.965 21H143.245V42H146.485V28.8C146.485 27.78 146.455 26.79 146.365 25.62H146.725C147.025 26.16 148.345 28.5 148.885 29.34L151.855 34.2H152.665Z" fill="#EC4815"/>
<path d="M180.124 26.76C179.614 22.68 176.974 20.4 172.504 20.4C168.634 20.4 165.514 22.71 165.454 26.64C165.454 29.82 167.554 31.56 170.074 32.22L174.424 33.42C176.674 34.02 177.214 35.43 177.214 36.84C177.214 39.12 175.354 39.99 173.014 39.99C170.344 39.99 168.934 38.64 168.604 36.24H165.034C165.394 39.96 167.614 42.6 172.924 42.6C178.414 42.6 180.514 39.84 180.574 36.27C180.574 33.15 178.684 31.23 175.744 30.45L171.334 29.28C169.144 28.71 168.694 27.48 168.694 26.07C168.754 24.36 170.134 22.86 172.474 22.89C175.624 22.92 176.404 24.84 176.674 26.76H180.124Z" fill="#EC4815"/>
<path d="M22.1255 21.4149C24.3605 19.5665 25.3511 8.63992 26.3186 4.71223C27.2868 0.785222 31.2883 0.983604 31.2883 0.983604C31.2883 0.983604 30.2497 2.79206 30.6728 4.14146C31.0967 5.49086 34 6.69673 34 6.69673L33.3737 8.34743C33.3737 8.34743 32.0669 8.18019 31.2883 9.73678C30.5097 11.2927 31.7886 26.7028 31.7886 26.7028C31.7886 26.7028 27.1121 35.9266 27.1121 39.8204C27.1121 43.7149 28.9558 46.9784 28.9558 46.9784H26.3694C26.3694 46.9784 22.5744 42.4623 21.7964 40.2063C21.0178 37.9496 21.3293 35.693 21.3293 35.693C21.3293 35.693 17.2052 35.4594 13.5477 35.693C9.89082 35.9265 7.45133 39.0702 7.01124 40.8285C6.57114 42.5876 6.38833 46.9784 6.38833 46.9784H4.34425C3.09912 43.1367 2.10992 41.7602 2.64684 39.8204C4.13233 34.4478 3.84051 31.4003 3.49656 30.0435C3.15261 28.686 0.823486 27.5018 0.823486 27.5018C1.96435 25.1774 3.12891 24.0602 8.13788 23.9437C13.1469 23.8273 19.8898 23.264 22.1248 21.4149H22.1255Z" fill="#EB5729"/>
<path d="M9.11768 39.5959C9.11768 39.5959 9.64579 44.4864 12.4536 46.9787H14.8599C12.4536 44.2528 12.1916 37.1483 12.1916 37.1483C10.9674 37.5471 9.2734 38.9737 9.11768 39.5959Z" fill="#EB5729"/>
</svg>
