<svg width="56" height="791" viewBox="0 0 56 791" fill="none" xmlns="http://www.w3.org/2000/svg">
  <path d="M0.186493 763.128L0.186458 612.943C0.186455 597.755 12.4986 585.443 27.6864 585.443C42.8743 585.443 55.1865 597.755 55.1865 612.943L55.1865 763.128C55.1865 778.316 42.8743 790.628 27.6865 790.628C12.4987 790.628 0.186497 778.316 0.186493 763.128Z" fill="#C1F5EB" />
  <path d="M0.186415 470.593L0.186383 320.407C0.186376 305.219 12.4985 292.907 27.6864 292.907C42.8742 292.907 55.1864 305.219 55.1864 320.407L55.1864 470.593C55.1864 485.78 42.8743 498.093 27.6864 498.093C12.4986 498.093 0.186422 485.78 0.186415 470.593Z" fill="#C1F5EB" />
  <path d="M0.18634 178.057L0.186308 27.8716C0.186305 12.6838 12.4985 0.371595 27.6863 0.37158C42.8741 0.371581 55.1863 12.6837 55.1863 27.8716L55.1863 178.057C55.1863 193.245 42.8742 205.557 27.6863 205.557C12.4985 205.557 0.186343 193.245 0.18634 178.057Z" fill="#C1F5EB" />
</svg>
  