<?xml version="1.0" encoding="UTF-8"?>
<svg id="Layer_2" data-name="Layer 2" xmlns="http://www.w3.org/2000/svg" viewBox="0 0 77.93 159.17">
  <defs>
    <style>
      .cls-1, .cls-2, .cls-3, .cls-4, .cls-5, .cls-6 {
        stroke-width: 0px;
      }

      .cls-2 {
        fill: #231f20;
      }

      .cls-3 {
        fill: #e2ac88;
      }

      .cls-4 {
        fill: #333;
      }

      .cls-5 {
        fill: #eb4924;
      }

      .cls-6 {
        fill: #fdd3b6;
      }
    </style>
  </defs>
  <g id="Layer_1-2" data-name="Layer 1">
    <g>
      <path class="cls-3" d="m47.17,49.43s-5.76,8.48-10.86,11.86v-9.31s6.58-3.93,6.96-3.93,3.9,1.38,3.9,1.38Z"/>
      <path class="cls-2" d="m58.06,145.61s10.41,6,18.41,4.14c0,0,1.86,1.65,1.38,2.55,0,0-16.06,8.2-24.27,6.69,0,0-1.45-4.95-.62-8.61l-.69-2.58,5.79-2.18Z"/>
      <path class="cls-2" d="m10.42,143.29s6.18,10.3,14.07,12.57c0,0,.82,2.35-.04,2.9,0,0-18.03-.64-24.46-5.96,0,0,1.14-5.03,3.65-7.83l.65-2.59,6.12.91Z"/>
      <path class="cls-4" d="m36.32,72.39s8.89,28.34,11.39,39.4,11.18,34.2,11.18,34.2l-6.62,1.8s-12.84-12.53-13.55-33l-10.64-18.61-15.1,48.31s-8.07-.53-9-2.6c-.56-1.24,9.19-11.48,7.44-32.73-1.22-14.84,2.67-41.96,2.67-41.96l22.23,5.2Z"/>
      <path class="cls-1" d="m31.26,101.44s.06,0,.09-.02c.07-.04.09-.13.05-.2l-8.42-13.97c-.04-.07-.13-.09-.2-.05-.07.04-.09.13-.05.2l8.42,13.97s.07.07.11.07Z"/>
      <path class="cls-5" d="m32.73,33.72s6.58,8.62,5.4,13.72c-1.17,5.1.14,26.4.14,26.4,0,0-25.29,12.28-25.99-1.24-.86-16.7,2.48-50.29,2.48-50.29l12.62,6.37,5.35,5.03Z"/>
      <path class="cls-1" d="m14.46,26.15c2.14.11,4.24.97,5.84,2.4,1.6,1.42,3.02,3.45,3.25,5.58.04.34.42.51.74.6,1.06.29,2.17.38,3.26.28-.63-.91-.67-1.93-.9-3.01.77.44,1.16,1.32,1.66,2.05,1.41,2.07,4.14,3.14,6.59,2.58-.1-.28-.48-.63-.44-.92.17-1.19.34-2.37.51-3.56.23-1.6.45-3.26,0-4.82-.69-2.38-2.91-4.35-2.72-6.82.1-1.36.93-2.55,1.8-3.59,1.11-1.33,2.36-2.56,3.37-3.97s1.8-3.06,1.83-4.79c.03-1.66-.66-3.32-1.87-4.47-1.2-1.15-2.9-1.76-4.56-1.64-2.2.15-4.72.25-6.73-.65-.66-.3-1.26-.71-1.93-.99-2.49-1.06-5.7.02-7.04,2.38-1.36,2.39-.79,5.38-1.28,8.09-.74,4.07-3.89,7.55-3.89,11.69,0,1.45,1.43,2.63,2.52,3.59Z"/>
      <rect class="cls-1" x="49.45" y="33.38" width="2.64" height="19.91" rx=".86" ry=".86" transform="translate(56.03 109.87) rotate(-135)"/>
      <path class="cls-6" d="m24.35,46.75l1.65,5.65s11.51-3.79,14-5.31c0,0,3.33-2.72,4.62-3.6,0,0,1.59-2.88,1.86-2.88s6.07-.52,6.1,0-2.96,2.17-2.96,2.17l.52,1s4.58-.65,4.62.55c.03,1.21-2.17,1.48-2.17,1.48,0,0-1.28,4.86-4.48,5.21l-3.55-.9s-15.41,11.62-21.2,10.44-6.45-12.89-6.45-12.89l7.45-.93Z"/>
      <path class="cls-6" d="m23.52,22.7s.72,1.4,4.96,2.17,5.48-6.2,5.48-6.2l1.76.31c1.71-5.58-.78-12.36-.78-12.36,0,0-5.55-2.12-6.52,2.02-.98,4.14-.3,6.41-2.89,7.7s-2.02,6.36-2.02,6.36Z"/>
      <circle class="cls-1" cx="31.83" cy="13.78" r=".9"/>
      <path class="cls-1" d="m27.75,16.81c.21,0,.35.17.36.36.11,1.44.89,2.82,2.08,3.64.16.11.23.32.13.49-.09.16-.33.24-.49.13-1.41-.98-2.31-2.56-2.44-4.27-.01-.19.18-.36.36-.36Z"/>
      <path class="cls-1" d="m30.52,10.18c1.33-.38,2.78-.34,4.08.14.18.07.31.25.25.44-.05.18-.26.32-.44.25-1.19-.43-2.48-.49-3.7-.14-.45.13-.64-.57-.19-.7Z"/>
    </g>
  </g>
</svg>