<?xml version="1.0" encoding="UTF-8"?>
<svg id="Layer_2" data-name="Layer 2" xmlns="http://www.w3.org/2000/svg" viewBox="0 0 76.44 169.88">
  <defs>
    <style>
      .cls-1, .cls-2, .cls-3, .cls-4, .cls-5, .cls-6, .cls-7, .cls-8, .cls-9, .cls-10, .cls-11 {
        stroke-width: 0px;
      }

      .cls-2 {
        fill: #5c9dd5;
      }

      .cls-3 {
        fill: #58595b;
      }

      .cls-4 {
        fill: #1d1741;
      }

      .cls-5 {
        fill: #231f20;
      }

      .cls-6 {
        fill: #bcbec0;
      }

      .cls-7 {
        fill: #a7a9ac;
      }

      .cls-8 {
        fill: #333;
      }

      .cls-9 {
        fill: #fff;
      }

      .cls-10 {
        fill: #e4c098;
      }

      .cls-11 {
        fill: #fdd3b6;
      }
    </style>
  </defs>
  <g id="Layer_1-2" data-name="Layer 1">
    <g>
      <path class="cls-1" d="m62.05,155.55l-9.6.05-1.15,3.24-13.46,9.07.57,1.48s10.43,2.34,25.56-3.24l-1.92-10.6Z"/>
      <path class="cls-1" d="m49.33,151.35l-9.6.05-1.15,3.24-13.46,9.07.57,1.48s10.43,2.34,25.56-3.24l-1.92-10.6Z"/>
      <path class="cls-8" d="m69.06,81.61s1.29,17.75-3.29,34.64c0,0,3.01,22.62-3.15,40.37,0,0-7.28.84-10.53-.78,0,0,2.61-33.05,2.04-38.4-.57-5.34-2.95-15.63-2.95-15.63l-.52-1.33s-4.93,11.33-7.13,19.72l6.01,31.87s-4.68,4.2-10.4,1.81c0,0-6.49-21.09-7.54-31.78-1.05-10.69,7.16-42.09,7.16-42.09l30.3,1.57Z"/>
      <path class="cls-2" d="m62.55,26.22s12.81.42,13.81,11.3c1,10.88-7.49,40.11-5.61,44.98,0,0-20.97,3.55-33.09-2.03,0,0,7.26-20.09,7.45-23.71l-3.82-9.46s1.48-11.06,4.68-14.11c3.2-3.05,7.22-3.63,7.22-3.63l9.36-3.33Z"/>
      <path class="cls-11" d="m46.32,47.9s-1.84-.43-5.03-.61l-.57,4.45-2.62,2.28s-1.29-2.99-3.39-2.71,1.96,11.79,5.2,12.26c1.58.23,4.63-1.24,4.87-4.01.24-2.77,1.16-8.03,1.16-8.03l.39-3.64Z"/>
      <path class="cls-4" d="m45.63,54.4c.07,0,.12-.05.13-.12.01-.11,1.2-10.77,1.38-13.36,0-.07-.05-.14-.12-.14-.07,0-.14.05-.14.12-.19,2.59-1.37,13.24-1.38,13.35,0,.07.04.14.12.15,0,0,0,0,.01,0Z"/>
      <path class="cls-7" d="m48.65,55.46l-15.85,1.29-1.19-1.24s2.67-.43,3.44-.43,2.62-.24,3.48,0,10.13.38,10.13.38Z"/>
      <polygon class="cls-3" points="37.02 53.98 48.65 54.36 48.65 55.46 37.02 55.51 37.02 53.98"/>
      <path class="cls-3" d="m.75,41.66l9.66,17.77c.17.31.52.49.88.43l26.38-4.62-9.18-19.64c-.31-.65-1.02-1.01-1.73-.87L1.33,40.41c-.56.12-.86.74-.58,1.25Z"/>
      <g>
        <path class="cls-6" d="m.1,41.93l9.66,17.77c.17.31.52.49.88.43l26.38-4.62-9.18-19.64c-.31-.65-1.02-1.01-1.73-.87L.69,40.68c-.56.12-.86.74-.58,1.25Z"/>
        <ellipse class="cls-9" cx="16.51" cy="48.82" rx="2.03" ry="3.03" transform="translate(-31.07 29.02) rotate(-48.72)"/>
      </g>
      <path class="cls-11" d="m55.94,52.6s-11.88,3.77-19.99,4.2c0,0-1.15-.81-2.96-.62s-4.03-.48-4.03-.48c0,0-1.1.52-.55,1.43l-3.6-.98-1.91-2.48s0-2.08-.91-2.43l-.86,2.41,1.03,2.91,2.03,1.43-2.08-.81-1.62-2.43s-.33-2.19-2-1.84l1.79,4.65-1.06-.14s-2.05-1.86-2.93-.91l2.1,1.75,2.82.99s9.96,1.96,15.46,1.61c0,0,15.67,1.03,23.83-.71.98-.21,1.84-.8,2.37-1.66l5.29-8.45s-2.39-4.29-9.23-4.17l-2.99,6.73Z"/>
      <path class="cls-4" d="m44.27,61.29c.07,0,.13-.05.13-.13,0-.07-.05-.14-.13-.14-.26-.01-6.47-.34-7.63-.3-.07,0-.13.06-.13.14,0,.07.07.13.14.13,1.15-.04,7.54.3,7.6.3,0,0,0,0,0,0Z"/>
      <path class="cls-4" d="m58.8,46.28c.05,0,.1-.03.12-.08l3.48-7.87c.03-.07,0-.15-.07-.18-.07-.03-.15,0-.18.07l-3.48,7.87c-.03.07,0,.15.07.18.02,0,.04.01.05.01Z"/>
      <path class="cls-4" d="m68.15,50.17s.09-.02.11-.06l5.2-7.82c.04-.06.02-.14-.04-.18-.06-.04-.14-.02-.18.04l-5.2,7.82c-.04.06-.02.14.04.18.02.02.05.02.07.02Z"/>
      <path class="cls-5" d="m63.62,2.14s.42-.59-.46-1.16-1.44.23-1.44.23l1.91.93Z"/>
      <g>
        <path class="cls-11" d="m63.39,13.29s1.59.45.25,2.48-1.94,2.64-1.94,2.64l1.02,9.45s-4.61,6.78-10.05,2.7l.51-4.58s-9.34,3.69-6.23-17.89l9.03-3.2s3.75.89,3.75,1.53c0,.64,3.66,6.87,3.66,6.87Z"/>
        <path class="cls-5" d="m63.39,13.29s-3.75.52-4.34,3.17h-.64s-2.61-3.11-1.8-6.93c0,0-9.26,1.08-9.65-1.45,0,0,.5-6.51,10.64-6.78s5.8,11.98,5.8,11.98Z"/>
        <circle class="cls-5" cx="52.8" cy="16.8" r=".84"/>
        <ellipse class="cls-5" cx="47.9" cy="16.8" rx=".68" ry=".84"/>
        <path class="cls-5" d="m52.56,13.75c.87-.01,1.74.2,2.51.6.16.08.21.31.12.46-.1.16-.3.2-.46.12-.68-.35-1.42-.52-2.18-.51-.18,0-.33-.15-.33-.33,0-.18.15-.33.33-.33Z"/>
        <path class="cls-5" d="m46.44,14.76c.52-.64,1.29-1.03,2.11-1.12.17-.02.34.17.33.33,0,.2-.15.31-.33.33,0,0-.01,0-.02,0-.02,0-.04,0-.05,0-.04,0-.09.02-.13.03-.08.02-.16.04-.24.07-.04.01-.08.03-.13.04-.02,0-.04.01-.06.02,0,0,0,0-.01,0,0,0,0,0,0,0-.08.04-.16.07-.24.12-.07.04-.15.08-.21.13-.04.02-.07.05-.11.08,0,0,0,0,0,0,0,0,0,0,0,0-.02.02-.04.03-.06.05-.14.11-.26.24-.37.38-.11.14-.36.12-.47,0-.13-.14-.12-.33,0-.47Z"/>
        <path class="cls-5" d="m48.38,19.78c.68-.96.99-2.12.88-3.29-.02-.18.16-.33.33-.33.19,0,.32.15.33.33.12,1.27-.24,2.58-.97,3.63-.1.15-.29.22-.46.12-.15-.08-.22-.31-.12-.46Z"/>
        <path class="cls-5" d="m51.58,21.61c1.27-.06,2.41-.89,2.91-2.05.07-.17.31-.2.46-.12.17.1.19.29.12.46-.59,1.37-2,2.3-3.49,2.38-.43.02-.43-.65,0-.67Z"/>
        <path class="cls-5" d="m59.26,17.49c.47-.93,1.37-1.63,2.39-1.84.17-.04.37.05.41.23.04.17-.05.37-.23.41-.11.02-.22.05-.33.09-.06.02-.11.04-.17.06,0,0-.01,0-.02,0,0,0,0,0,0,0-.03.01-.05.02-.07.03-.1.05-.21.1-.3.16-.05.03-.09.06-.14.09-.02.02-.05.03-.07.05,0,0-.04.03-.05.04-.17.13-.33.29-.47.46-.02.02-.03.04-.05.06,0,0-.01.01-.01.02,0,0,0,.01-.01.02-.03.04-.06.09-.09.13-.07.1-.13.21-.18.31-.08.16-.31.21-.46.12-.16-.1-.2-.29-.12-.46Z"/>
        <path class="cls-10" d="m53.18,25.99s4.07-.91,5.88-5.31c0,0,.61,6.16-6.18,8.01l.3-2.7Z"/>
      </g>
      <path class="cls-2" d="m62.08,13.63s-2.2-2.63-6.1-4.74l-8.37-3.99s6.38-7.44,14.01-3.98c8.4,3.81,2.43,14.05,2.43,14.05,0,0,.46-2.05-1.98-1.33Z"/>
      <path class="cls-3" d="m58.51,10.47S50.4-.22,43.05,1.88c-7.35,2.1,3.66,8.02,3.66,8.02,0,0,3.49-3.15,11.79.58Z"/>
      <path class="cls-4" d="m51.36,102.4s.03,0,.05,0c.07-.03.1-.1.08-.17l-3.65-9.31-2.16-.78c-.07-.03-.15.01-.17.08-.03.07.01.15.08.17l2.04.74,3.6,9.2c.02.05.07.08.12.08Z"/>
    </g>
  </g>
</svg>