<?xml version="1.0" encoding="UTF-8"?>
<svg id="Layer_2" data-name="Layer 2" xmlns="http://www.w3.org/2000/svg" viewBox="0 0 141.81 196.6">
  <defs>
    <style>
      .cls-1 {
        fill: #eb4a24;
      }

      .cls-1, .cls-2 {
        stroke-width: 0px;
      }

      .cls-2 {
        fill: #eb4924;
      }
    </style>
  </defs>
  <g id="Layer_1-2" data-name="Layer 1">
    <g>
      <path class="cls-2" d="m91.05,87.34c9.55-7.9,13.79-54.6,17.92-71.39C113.11-.84,130.21,0,130.21,0c0,0-4.44,7.73-2.63,13.5,1.81,5.77,14.22,10.92,14.22,10.92l-2.68,7.06s-5.59-.71-8.91,5.94c-3.33,6.65,4.17,71.84,4.17,71.84,0,0-22.02,40.1-22.02,56.74s7.88,30.59,7.88,30.59h-11.06s-16.22-19.3-19.54-28.95c-3.33-9.65-2-19.29-2-19.29,0,0-17.63-1-33.26,0-15.63,1-26.06,14.44-27.94,21.95-1.88,7.52-2.66,26.28-2.66,26.28h-8.74c-5.32-16.42-9.55-22.3-7.25-30.59,6.35-22.96,5.1-35.99,3.63-41.79-1.47-5.8-11.42-10.86-11.42-10.86,4.88-9.93,9.85-14.71,31.26-15.21,21.41-.5,50.23-2.91,59.79-10.81Z"/>
      <path class="cls-1" d="m33.81,165.04s2.26,20.9,14.26,31.56h10.28c-10.28-11.65-11.41-42.02-11.41-42.02-5.23,1.7-12.47,7.8-13.14,10.46Z"/>
    </g>
  </g>
</svg>