<?xml version="1.0" encoding="UTF-8"?>
<svg id="Layer_2" data-name="Layer 2" xmlns="http://www.w3.org/2000/svg" viewBox="0 0 188.46 112.62">
  <defs>
    <style>
      .cls-1, .cls-2, .cls-3, .cls-4, .cls-5, .cls-6, .cls-7, .cls-8 {
        stroke-width: 0px;
      }

      .cls-2 {
        fill: #5c9dd5;
      }

      .cls-3 {
        fill: #37af4a;
      }

      .cls-4 {
        fill: #58595b;
      }

      .cls-5 {
        fill: #cc4241;
      }

      .cls-6 {
        fill: #ffe600;
      }

      .cls-7 {
        fill: #fff;
      }

      .cls-8 {
        fill: #eb4924;
      }
    </style>
  </defs>
  <g id="Layer_1-2" data-name="Layer 1">
    <g>
      <g>
        <path class="cls-1" d="m6.56,0h175.35c3.62,0,6.55,2.94,6.55,6.55v99.51c0,3.62-2.94,6.56-6.56,6.56H6.55c-3.62,0-6.55-2.94-6.55-6.55V6.56C0,2.94,2.94,0,6.56,0Z"/>
        <path class="cls-4" d="m188.46,6.55v9.76H0V6.55C0,2.94,2.94,0,6.56,0h175.35c3.62,0,6.56,2.94,6.56,6.55Z"/>
        <g>
          <circle class="cls-5" cx="12.85" cy="8.3" r="3.05"/>
          <circle class="cls-6" cx="22.43" cy="8.3" r="3.05"/>
          <circle class="cls-3" cx="32.01" cy="8.3" r="3.05"/>
        </g>
      </g>
      <g>
        <path class="cls-2" d="m14.09,39.78l3.3-1.99v-.05l-3.3-1.99v-2.02l5.13,3.27v1.52l-5.13,3.27v-2.02Z"/>
        <path class="cls-7" d="m27.97,35.83c.26-.79.84-1.31,2.24-1.31,1.48,0,2.58.76,2.58,2.54v5.05h-1.89v-4.48c0-.96-.42-1.48-1.41-1.48s-1.54.6-1.54,1.74v4.22h-1.89v-7.33h1.71v1.05h.2Z"/>
        <path class="cls-7" d="m37.06,35.83c.39-.85,1.11-1.31,2.02-1.31,1.96,0,2.99,1.31,2.99,3.93,0,2.45-.92,3.93-2.97,3.93-1.03,0-1.61-.51-1.92-1.31h-.21v3.67h-1.81v-9.95h1.71v1.05h.2Zm-.17,2.62c0,1.7.52,2.46,1.68,2.46s1.68-.76,1.68-2.46-.56-2.46-1.66-2.46-1.69.8-1.69,2.46Z"/>
        <path class="cls-7" d="m47.94,38.42l2.66,3.69h-2.2l-1.48-2.28h-.25l-1.45,2.28h-2.13l2.67-3.61-2.68-3.72h2.17l1.52,2.33h.25l1.51-2.33h2.08l-2.66,3.64Z"/>
        <path class="cls-8" d="m20.41,55.33c-.24,2.06-1.28,2.76-3.26,2.76-2.38,0-3.47-1.27-3.47-3.93,0-2.34.88-3.93,3.47-3.93,2.23,0,3.06,1.13,3.22,2.76h-1.87c-.1-.84-.51-1.31-1.35-1.31-1.17,0-1.66.72-1.66,2.47,0,1.64.44,2.46,1.66,2.46.86,0,1.3-.46,1.41-1.3h1.85Z"/>
        <path class="cls-8" d="m27.59,52.21c-.28-.05-.66-.07-.94-.07-1.02,0-1.91.39-1.91,1.95v3.73h-1.87v-5.79h-1.24v-1.54h2.93v1.44h.16c.37-1.06,1.02-1.62,2.27-1.62.21,0,.43.03.62.05v1.85Z"/>
        <path class="cls-8" d="m35.43,55.72c-.21,1.6-1.44,2.37-3.21,2.37-2.36,0-3.51-1.22-3.51-3.93,0-2.29.92-3.93,3.48-3.93s3.39,1.64,3.4,3.72c0,.14-.01.42-.03.54h-5.07c0,1.51.64,2.15,1.69,2.15.84,0,1.23-.45,1.36-.92h1.87Zm-4.92-2.29h3.29c-.03-1.06-.6-1.81-1.6-1.81s-1.62.71-1.69,1.81Z"/>
        <path class="cls-8" d="m41.92,56.64c-.38.79-1.27,1.36-2.43,1.36-1.52,0-2.37-.82-2.37-2.05s.79-1.99,2.12-2.2l1.99-.33c.55-.1.67-.33.67-.6v-.2c0-.45-.26-.98-1.23-.98-.85,0-1.31.41-1.39,1.03h-1.82c.1-1.39,1.1-2.44,3.12-2.44,2.16,0,3.13.94,3.13,2.4v3.67h.88v1.53h-2.53v-1.19h-.13Zm-.03-2.44h-.13c-.13.14-.37.24-.67.3l-1.18.26c-.6.14-.88.45-.88.98,0,.6.38.92,1.13.92,1.1,0,1.73-.77,1.73-1.66v-.8Z"/>
        <path class="cls-8" d="m50.69,52.04h-2.07v3.25c0,.81.3,1.11,1.27,1.11.25,0,.58-.03.86-.05v1.54c-.33.07-.81.13-1.41.13-2.28,0-2.61-1.4-2.61-2.38v-3.6h-1.36v-1.54h1.36v-1.26l1.75-.9h.13v2.16h2.07v1.54Z"/>
        <path class="cls-8" d="m58.9,55.72c-.21,1.6-1.44,2.37-3.21,2.37-2.36,0-3.51-1.22-3.51-3.93,0-2.29.92-3.93,3.48-3.93s3.39,1.64,3.4,3.72c0,.14-.01.42-.03.54h-5.07c0,1.51.64,2.15,1.69,2.15.84,0,1.23-.45,1.36-.92h1.87Zm-4.92-2.29h3.29c-.03-1.06-.6-1.81-1.6-1.81s-1.62.71-1.69,1.81Z"/>
        <path class="cls-8" d="m64.52,52.87v1.58h-3.76v-1.58h3.76Z"/>
        <path class="cls-8" d="m70.9,52.04h-2.07v3.25c0,.81.3,1.11,1.27,1.11.25,0,.58-.03.86-.05v1.54c-.33.07-.81.13-1.41.13-2.28,0-2.61-1.4-2.61-2.38v-3.6h-1.36v-1.54h1.36v-1.26l1.75-.9h.13v2.16h2.07v1.54Z"/>
        <path class="cls-8" d="m72.2,50.5h3.25v7.33h-1.87v-5.79h-1.37v-1.54Zm3.26-2.7v1.66h-2.13v-1.66h2.13Z"/>
        <path class="cls-8" d="m79.83,51.55c.26-.79.84-1.31,2.24-1.31,1.48,0,2.58.76,2.58,2.54v5.05h-1.89v-4.48c0-.96-.42-1.48-1.41-1.48s-1.54.6-1.54,1.74v4.22h-1.89v-7.33h1.71v1.05h.2Z"/>
        <path class="cls-8" d="m91.33,56.64c-.38.79-1.27,1.36-2.43,1.36-1.52,0-2.37-.82-2.37-2.05s.79-1.99,2.12-2.2l1.99-.33c.55-.1.67-.33.67-.6v-.2c0-.45-.26-.98-1.23-.98-.85,0-1.31.41-1.39,1.03h-1.82c.1-1.39,1.1-2.44,3.12-2.44,2.16,0,3.13.94,3.13,2.4v3.67h.88v1.53h-2.53v-1.19h-.13Zm-.03-2.44h-.13c-.13.14-.37.24-.67.3l-1.18.26c-.6.14-.88.45-.88.98,0,.6.38.92,1.13.92,1.1,0,1.73-.77,1.73-1.66v-.8Z"/>
        <path class="cls-8" d="m98.94,52.87v1.58h-3.76v-1.58h3.76Z"/>
        <path class="cls-8" d="m105.24,56.64c-.38.79-1.27,1.36-2.43,1.36-1.52,0-2.37-.82-2.37-2.05s.79-1.99,2.12-2.2l1.99-.33c.55-.1.67-.33.67-.6v-.2c0-.45-.26-.98-1.23-.98-.85,0-1.31.41-1.39,1.03h-1.82c.1-1.39,1.1-2.44,3.12-2.44,2.16,0,3.13.94,3.13,2.4v3.67h.88v1.53h-2.53v-1.19h-.13Zm-.03-2.44h-.13c-.13.14-.37.24-.67.3l-1.18.26c-.6.14-.88.45-.88.98,0,.6.38.92,1.13.92,1.1,0,1.73-.77,1.73-1.66v-.8Z"/>
        <path class="cls-8" d="m111.48,51.55c.39-.85,1.11-1.31,2.02-1.31,1.96,0,2.99,1.31,2.99,3.93,0,2.45-.92,3.93-2.97,3.93-1.03,0-1.61-.51-1.92-1.31h-.21v3.67h-1.81v-9.95h1.71v1.05h.2Zm-.17,2.62c0,1.7.52,2.46,1.68,2.46s1.68-.76,1.68-2.46-.56-2.46-1.66-2.46-1.69.8-1.69,2.46Z"/>
        <path class="cls-8" d="m120.44,51.55c.39-.85,1.11-1.31,2.02-1.31,1.96,0,2.99,1.31,2.99,3.93,0,2.45-.92,3.93-2.97,3.93-1.03,0-1.61-.51-1.92-1.31h-.21v3.67h-1.81v-9.95h1.71v1.05h.2Zm-.17,2.62c0,1.7.52,2.46,1.68,2.46s1.68-.76,1.68-2.46-.56-2.46-1.66-2.46-1.69.8-1.69,2.46Z"/>
        <path class="cls-8" d="m133.11,58.67c-.72.38-1.45.52-2.33.52-2.15,0-3.97-1.57-3.97-4.08,0-2.7,1.87-5.03,4.78-5.03,2.28,0,3.81,1.6,3.81,3.78,0,1.96-1.1,3.12-2.33,3.12-.52,0-1.01-.35-.97-1.15h-.05c-.46.77-1.06,1.15-1.85,1.15s-1.41-.62-1.41-1.65c0-1.62,1.28-3.1,3.1-3.1.56,0,1.06.12,1.4.28l-.45,2.37c-.2,1-.04,1.45.39,1.47.67.01,1.41-.88,1.41-2.4,0-1.9-1.14-3.26-3.17-3.26-2.13,0-3.93,1.69-3.93,4.35,0,2.19,1.43,3.54,3.36,3.54.75,0,1.44-.16,1.98-.46l.21.56Zm-.72-5.66c-.13-.04-.35-.09-.66-.09-1.15,0-2.08,1.09-2.08,2.36,0,.58.29,1,.86,1,.76,0,1.45-.97,1.6-1.78l.28-1.48Z"/>
        <path class="cls-8" d="m140.59,57.83h-3.46v-9.95h1.89v8.34h1.57v1.61Z"/>
        <path class="cls-8" d="m146.73,56.64c-.38.79-1.27,1.36-2.43,1.36-1.52,0-2.37-.82-2.37-2.05s.79-1.99,2.12-2.2l1.99-.33c.55-.1.67-.33.67-.6v-.2c0-.45-.26-.98-1.23-.98-.85,0-1.31.41-1.39,1.03h-1.82c.1-1.39,1.1-2.44,3.12-2.44,2.16,0,3.13.94,3.13,2.4v3.67h.88v1.53h-2.53v-1.19h-.13Zm-.03-2.44h-.13c-.13.14-.37.24-.67.3l-1.18.26c-.6.14-.88.45-.88.98,0,.6.38.92,1.13.92,1.1,0,1.73-.77,1.73-1.66v-.8Z"/>
        <path class="cls-8" d="m155.51,52.04h-2.07v3.25c0,.81.3,1.11,1.27,1.11.25,0,.58-.03.86-.05v1.54c-.33.07-.81.13-1.41.13-2.28,0-2.61-1.4-2.61-2.38v-3.6h-1.36v-1.54h1.36v-1.26l1.75-.9h.13v2.16h2.07v1.54Z"/>
        <path class="cls-8" d="m163.72,55.72c-.21,1.6-1.44,2.37-3.21,2.37-2.36,0-3.51-1.22-3.51-3.93,0-2.29.92-3.93,3.48-3.93s3.39,1.64,3.4,3.72c0,.14-.01.42-.03.54h-5.07c0,1.51.64,2.15,1.69,2.15.84,0,1.23-.45,1.36-.92h1.87Zm-4.92-2.29h3.29c-.03-1.06-.6-1.81-1.6-1.81s-1.62.71-1.69,1.81Z"/>
        <path class="cls-8" d="m169.89,52.59c-.09-.63-.42-1.07-1.26-1.07-.65,0-1.18.29-1.18.84,0,.41.21.69.8.83l1.54.34c1.32.29,2.08,1,2.08,2.24,0,1.36-.88,2.33-3.09,2.33-2.04,0-3.13-.69-3.36-2.36h2.04c.17.76.62,1.06,1.38,1.06.68,0,1.2-.25,1.2-.88,0-.41-.26-.72-.92-.86l-1.74-.41c-1-.22-1.7-.88-1.7-2.07,0-1.44,1.06-2.34,3-2.34,2.21,0,2.91,1.14,3.05,2.36h-1.85Z"/>
        <path class="cls-8" d="m178.34,52.04h-2.07v3.25c0,.81.3,1.11,1.27,1.11.25,0,.58-.03.86-.05v1.54c-.33.07-.81.13-1.41.13-2.28,0-2.61-1.4-2.61-2.38v-3.6h-1.36v-1.54h1.36v-1.26l1.75-.9h.13v2.16h2.07v1.54Z"/>
      </g>
    </g>
  </g>
</svg>