<?xml version="1.0" encoding="utf-8"?>
<!-- Generator: Adobe Illustrator 28.0.0, SVG Export Plug-In . SVG Version: 6.00 Build 0)  -->
<svg version="1.1" id="Layer_2_00000049207502325887669460000015041173267332204983_"
	 xmlns="http://www.w3.org/2000/svg" xmlns:xlink="http://www.w3.org/1999/xlink" x="0px" y="0px" viewBox="0 0 150 248"
	 style="enable-background:new 0 0 150 248;" xml:space="preserve">
<style type="text/css">
	.st0{fill:url(#rect21_00000178201529713689065710000001596045997877882262_);}
	.st1{fill:#333333;}
	.st2{fill:none;stroke:#FFFFFF;stroke-width:0.3;stroke-miterlimit:7.23;}
	.st3{fill:#5C9DD5;}
	.st4{enable-background:new    ;}
	.st5{fill:#FFFFFF;}
</style>
<g id="Layer_1-2">
	<g>
		
			<linearGradient id="rect21_00000053504350121943619270000004234960198624811924_" gradientUnits="userSpaceOnUse" x1="-470.7982" y1="657.308" x2="-465.6882" y2="657.308" gradientTransform="matrix(1.81 0 0 1.38 923.71 -765.45)">
			<stop  offset="0" style="stop-color:#D6D4D1"/>
			<stop  offset="0.13" style="stop-color:#9693A1"/>
			<stop  offset="0.49" style="stop-color:#FCFAF7"/>
			<stop  offset="1" style="stop-color:#726983"/>
		</linearGradient>
		<path id="rect21" style="fill:url(#rect21_00000053504350121943619270000004234960198624811924_);" d="M73.5,35.3h7.3
			c0.8,0,1.4,0.7,1.4,1.4v209.8c0,0.8-0.6,1.4-1.4,1.4h-7.3c-0.8,0-1.4-0.6-1.4-1.4V36.7C72.1,35.9,72.7,35.3,73.5,35.3z"/>
		<path id="path90" class="st1" d="M14.6,83.4H131c0.8,0,1.5-0.3,2.1-0.8L149,67.3c1.4-1.3,1.4-3.7,0-5L133,47
			c-0.6-0.5-1.3-0.8-2.1-0.8H14.6c-1.7,0-3.1,1.5-3.1,3.4v30.5C11.5,81.9,12.9,83.4,14.6,83.4L14.6,83.4z"/>
		<path id="path90-2" class="st2" d="M14.4,80.4h116.1l16.6-15.5l-15.9-15.5H14.4V80.4L14.4,80.4z"/>
		<path id="path90-3" class="st3" d="M130.1,0H21.5c-0.9,0-1.8,0.3-2.4,0.9l-18,15.3c-1.6,1.3-1.6,3.6,0,5l18,15.2
			c0.7,0.6,1.5,0.9,2.4,0.9h108.5c2,0,3.6-1.5,3.6-3.4V3.4C133.6,1.5,132,0,130.1,0z"/>
		<path id="path90-4" class="st2" d="M129.5,2.8H22.6L4.2,18.6l17.9,15.8h107.4V2.8z"/>
		<g class="st4">
			<path class="st5" d="M46.5,16.9c-0.1-1.2-0.6-1.8-1.7-1.8c-1.4,0-1.9,1-1.9,3.4c0,2.3,0.5,3.4,1.9,3.4c1.1,0,1.7-0.7,1.7-1.8h2
				c-0.1,2.1-1.2,3.4-3.7,3.4c-3.1,0-3.9-1.7-3.9-4.9c0-3.1,0.9-4.9,3.9-4.9c2.5,0,3.6,1.2,3.7,3.4H46.5z"/>
		</g>
		<g class="st4">
			<path class="st5" d="M56,17.4c-0.3-0.1-0.7-0.1-1-0.1c-1,0-2,0.4-2,2v3.8h-1.9v-5.9h-1.3v-1.6h3v1.5h0.2c0.4-1.1,1-1.7,2.3-1.7
				c0.2,0,0.4,0,0.6,0.1V17.4z"/>
		</g>
		<g class="st4">
			<path class="st5" d="M64,20.9c-0.2,1.6-1.5,2.4-3.3,2.4c-2.4,0-3.6-1.2-3.6-4c0-2.3,0.9-4,3.6-4c2.6,0,3.5,1.7,3.5,3.8
				c0,0.1,0,0.4,0,0.5H59c0,1.5,0.7,2.2,1.7,2.2c0.9,0,1.3-0.5,1.4-0.9H64z M59,18.6h3.4c0-1.1-0.6-1.8-1.6-1.8
				C59.7,16.8,59,17.5,59,18.6z"/>
		</g>
		<g class="st4">
			<path class="st5" d="M70.6,21.9c-0.4,0.8-1.3,1.4-2.5,1.4c-1.6,0-2.4-0.8-2.4-2.1c0-1.3,0.8-2,2.2-2.2l2-0.3
				c0.6-0.1,0.7-0.3,0.7-0.6v-0.2c0-0.5-0.3-1-1.3-1c-0.9,0-1.3,0.4-1.4,1.1H66c0.1-1.4,1.1-2.5,3.2-2.5c2.2,0,3.2,1,3.2,2.4v3.7
				h0.9v1.6h-2.6v-1.2H70.6z M70.6,19.4h-0.1c-0.1,0.1-0.4,0.2-0.7,0.3L68.6,20c-0.6,0.1-0.9,0.5-0.9,1c0,0.6,0.4,0.9,1.1,0.9
				c1.1,0,1.8-0.8,1.8-1.7V19.4z"/>
		</g>
		<g class="st4">
			<path class="st5" d="M79.6,17.2h-2.1v3.3c0,0.8,0.3,1.1,1.3,1.1c0.3,0,0.6,0,0.9-0.1v1.6c-0.3,0.1-0.8,0.1-1.4,0.1
				c-2.3,0-2.7-1.4-2.7-2.4v-3.7h-1.4v-1.6h1.4v-1.3l1.8-0.9h0.1v2.2h2.1V17.2z"/>
		</g>
		<g class="st4">
			<path class="st5" d="M81.1,19.3c0-2.5,1-4,3.6-4s3.6,1.5,3.6,4c0,2.5-1.1,4-3.6,4S81.1,21.9,81.1,19.3z M82.9,19.3
				c0,1.7,0.5,2.5,1.7,2.5s1.7-0.8,1.7-2.5c0-1.7-0.6-2.5-1.7-2.5S82.9,17.6,82.9,19.3z"/>
		</g>
		<g class="st4">
			<path class="st5" d="M95.6,17.4c-0.3-0.1-0.7-0.1-1-0.1c-1,0-2,0.4-2,2v3.8h-1.9v-5.9h-1.3v-1.6h3v1.5h0.2c0.4-1.1,1-1.7,2.3-1.7
				c0.2,0,0.4,0,0.6,0.1V17.4z"/>
		</g>
		<g class="st4">
			<path class="st5" d="M101.4,17.7c-0.1-0.6-0.4-1.1-1.3-1.1c-0.7,0-1.2,0.3-1.2,0.9c0,0.4,0.2,0.7,0.8,0.8l1.6,0.3
				c1.3,0.3,2.1,1,2.1,2.3c0,1.4-0.9,2.4-3.2,2.4c-2.1,0-3.2-0.7-3.4-2.4h2.1c0.2,0.8,0.6,1.1,1.4,1.1c0.7,0,1.2-0.3,1.2-0.9
				c0-0.4-0.3-0.7-0.9-0.9l-1.8-0.4c-1-0.2-1.7-0.9-1.7-2.1c0-1.5,1.1-2.4,3.1-2.4c2.3,0,3,1.2,3.1,2.4H101.4z"/>
		</g>
		<g class="st4">
			<path class="st5" d="M34.9,69.8v-9.4h3.3c2.6,0,3.8,1.8,3.8,4.6c0,3.1-1.2,4.7-3.4,4.7H34.9z M38.4,68.2c1.1,0,1.6-1,1.6-3.2
				c0-2-0.5-3.1-1.7-3.1H37v6.3H38.4z"/>
		</g>
		<g class="st4">
			<path class="st5" d="M50.6,67.6c-0.2,1.6-1.5,2.4-3.3,2.4c-2.4,0-3.6-1.2-3.6-4c0-2.3,0.9-4,3.6-4c2.6,0,3.5,1.7,3.5,3.8
				c0,0.1,0,0.4,0,0.5h-5.2c0,1.5,0.7,2.2,1.7,2.2c0.9,0,1.3-0.5,1.4-0.9H50.6z M45.6,65.3h3.4c0-1.1-0.6-1.8-1.6-1.8
				C46.2,63.4,45.6,64.1,45.6,65.3z"/>
			<path class="st5" d="M57.5,65.8v-3.5h1.9v4.1l-2.9,3.5h-1l-2.9-3.5v-4.1h1.9v3.5l1.4,1.8h0.2L57.5,65.8z"/>
		</g>
		<g class="st4">
			<path class="st5" d="M68.1,67.6c-0.2,1.6-1.5,2.4-3.3,2.4c-2.4,0-3.6-1.2-3.6-4c0-2.3,0.9-4,3.6-4c2.6,0,3.5,1.7,3.5,3.8
				c0,0.1,0,0.4,0,0.5H63c0,1.5,0.7,2.2,1.7,2.2c0.9,0,1.3-0.5,1.4-0.9H68.1z M63,65.3h3.4c0-1.1-0.6-1.8-1.6-1.8
				C63.7,63.4,63.1,64.1,63,65.3z"/>
			<path class="st5" d="M73.9,69.8h-3.5V59.6h1.9v8.5h1.6V69.8z"/>
			<path class="st5" d="M75.3,66c0-2.5,1-4,3.6-4s3.6,1.5,3.6,4c0,2.5-1.1,4-3.6,4S75.3,68.5,75.3,66z M77.2,66
				c0,1.7,0.5,2.5,1.7,2.5s1.7-0.8,1.7-2.5c0-1.7-0.6-2.5-1.7-2.5S77.2,64.3,77.2,66z"/>
		</g>
		<g class="st4">
			<path class="st5" d="M86.5,63.3c0.4-0.9,1.1-1.3,2.1-1.3c2,0,3,1.3,3,4c0,2.5-0.9,4-3,4c-1.1,0-1.6-0.5-2-1.3h-0.2v3.7h-1.8V62.3
				h1.8v1.1H86.5z M86.3,66c0,1.7,0.5,2.5,1.7,2.5c1.1,0,1.7-0.8,1.7-2.5c0-1.8-0.6-2.5-1.7-2.5C86.9,63.5,86.3,64.3,86.3,66z"/>
		</g>
		<g class="st4">
			<path class="st5" d="M100.1,67.6c-0.2,1.6-1.5,2.4-3.3,2.4c-2.4,0-3.6-1.2-3.6-4c0-2.3,0.9-4,3.6-4c2.6,0,3.5,1.7,3.5,3.8
				c0,0.1,0,0.4,0,0.5h-5.2c0,1.5,0.7,2.2,1.7,2.2c0.9,0,1.3-0.5,1.4-0.9H100.1z M95.1,65.3h3.4c0-1.1-0.6-1.8-1.6-1.8
				C95.8,63.4,95.1,64.1,95.1,65.3z"/>
		</g>
		<g class="st4">
			<path class="st5" d="M107.7,64c-0.3-0.1-0.7-0.1-1-0.1c-1,0-2,0.4-2,2v3.8h-1.9v-5.9h-1.3v-1.6h3v1.5h0.2c0.4-1.1,1-1.7,2.3-1.7
				c0.2,0,0.4,0,0.6,0.1V64z"/>
		</g>
		<g class="st4">
			<path class="st5" d="M113.4,64.4c-0.1-0.6-0.4-1.1-1.3-1.1c-0.7,0-1.2,0.3-1.2,0.9c0,0.4,0.2,0.7,0.8,0.8l1.6,0.3
				c1.3,0.3,2.1,1,2.1,2.3c0,1.4-0.9,2.4-3.2,2.4c-2.1,0-3.2-0.7-3.4-2.4h2.1c0.2,0.8,0.6,1.1,1.4,1.1c0.7,0,1.2-0.3,1.2-0.9
				c0-0.4-0.3-0.7-0.9-0.9l-1.8-0.4c-1-0.2-1.7-0.9-1.7-2.1c0-1.5,1.1-2.4,3.1-2.4c2.3,0,3,1.2,3.1,2.4H113.4z"/>
		</g>
	</g>
</g>
</svg>
